<?xml version="1.0" standalone="no"?>
<!DOCTYPE svg PUBLIC "-//W3C//DTD SVG 1.1//EN" "http://www.w3.org/Graphics/SVG/1.1/DTD/svg11.dtd" >
<svg xmlns="http://www.w3.org/2000/svg">
<metadata>
Created by FontPrep 20130207 at Tue Jan 21 12:19:06 2014
 By fireant
Part of the digitally encoded machine readable outline data for producing the Typefaces provided is copyrighted (c) 2003 - 2006 Linotype GmbH, www.linotype.com. All rights reserved. This software is the property of Linotype GmbH, and may not be reproduced, modified, disclosed or transferred without the express written approval of Linotype GmbH. Copyright (c) 1988, 1990, 1993 Adobe Systems Incorporated. All Rights Reserved. Helvetica is a trademark of Heidelberger Druckmaschinen AG, exclusively licensed through Linotype GmbH, and may be registered in certain jurisdictions. This typeface is original artwork of Linotype Design Studio. The design may be protected in certain jurisdictions.
</metadata>
<defs>
<font id="38ee08c220a5d764c18ef71c4867be48" horiz-adv-x='1024' >
  <font-face 
    font-family="HelvNeueforIBM-Cond"
    font-weight="400"
    font-stretch="condensed"
    units-per-em="2048"
    panose-1="2 11 5 6 3 5 2 3 2 4"
    ascent="1462"
    descent="-586"
    x-height="1098"
    cap-height="1462"
    bbox="-354 -438 2036 1931"
    underline-thickness="102"
    underline-position="-102"
    unicode-range="U+000D-FB02"
  />
<missing-glyph horiz-adv-x="1024" 
d="M-12 1470h1048v-1470h-1048v1470zM90 102h844v1264h-844v-1264zM543 479h-94l-5 35q0 115 29 169t92 118q63 59 83 94t20 93t-46 107q-46 50 -110 50q-145 0 -168 -195l-102 17q14 141 88 211t186 70t184 -74t72 -195q0 -70 -27 -123t-103 -122t-87 -109
q-12 -40 -12 -146zM557 240h-115v137h115v-137z" />
    <glyph glyph-name="IJ" unicode="IJ" horiz-adv-x="1257" 
d="M1155 1462v-1042q0 -217 -78 -333t-289 -116q-172 -1 -257 95t-85 239v121h172v-107q0 -201 168 -200q115 1 152 71t37 236v1036h180zM119 0v1462h180v-1462h-180z" />
    <glyph glyph-name="ij" unicode="ij" horiz-adv-x="823" 
d="M537 -45v1143h172v-1204q1 -137 -61 -204t-202 -67l-79 6v148l63 -6q79 0 93 55q14 48 14 129zM709 1462v-196h-172v196h172zM115 0v1098h172v-1098h-172zM115 1266v196h172v-196h-172z" />
    <glyph glyph-name="napostrophe" unicode="&#x22;n" horiz-adv-x="974" 
d="M57 1462v187h170v-164q0 -82 -39 -120t-120 -44v53q24 6 34 12q32 18 35 76h-80zM145 0v1098h164v-129h4q35 73 110 115t157 42t140 -26t86 -57q62 -71 62 -265v-778h-172v758q0 159 -71 200q-35 20 -103 20t-137 -55q-68 -56 -68 -165v-758h-172z" />
    <glyph glyph-name="fi" unicode="fi" horiz-adv-x="937" 
d="M162 0v963h-160v135h160v129q0 252 237 252h125v-148h-80q-111 0 -110 -104v-129h188v-135h-188v-963h-172zM651 0v1098h172v-1098h-172zM651 1266v196h172v-196h-172z" />
    <glyph glyph-name="fl" unicode="fl" horiz-adv-x="937" 
d="M162 0v963h-160v135h160v129q0 252 237 252h125v-148h-80q-111 0 -110 -104v-129h188v-135h-188v-963h-172zM651 0v1462h172v-1462h-172z" />
    <glyph glyph-name=".notdef" horiz-adv-x="1024" 
d="M-12 1470h1048v-1470h-1048v1470zM90 102h844v1264h-844v-1264zM543 479h-94l-5 35q0 115 29 169t92 118q63 59 83 94t20 93t-46 107q-46 50 -110 50q-145 0 -168 -195l-102 17q14 141 88 211t186 70t184 -74t72 -195q0 -70 -27 -123t-103 -122t-87 -109
q-12 -40 -12 -146zM557 240h-115v137h115v-137z" />
    <glyph glyph-name=".null" horiz-adv-x="1024" 
 />
    <glyph glyph-name=".null" horiz-adv-x="1024" 
 />
    <glyph glyph-name="nonmarkingreturn" horiz-adv-x="681" 
 />
    <glyph glyph-name="CR" unicode="&#xd;" horiz-adv-x="0" 
 />
    <glyph glyph-name="space" unicode=" " horiz-adv-x="419" 
 />
    <glyph glyph-name="exclam" unicode="!" horiz-adv-x="516" 
d="M197 381l-33 1081h188l-33 -1081h-122zM164 0v197h188v-197h-188z" />
    <glyph glyph-name="quotedbl" unicode="&#x22;" horiz-adv-x="743" 
d="M133 942v520h135v-520h-135zM475 942v520h135v-520h-135z" />
    <glyph glyph-name="numbersign" unicode="#" horiz-adv-x="876" 
d="M-6 420v135h184l39 315h-178v136h197l51 415h135l-51 -415h217l51 415h135l-51 -415h160v-136h-178l-39 -315h170v-135h-187l-53 -420h-135l53 420h-217l-53 -420h-135l53 420h-168zM352 870l-39 -315h217l39 315h-217z" />
    <glyph glyph-name="dollar" unicode="$" horiz-adv-x="991" 
d="M535 627v-508q98 8 159 76t62 172q0 105 -58 163t-163 97zM254 1075q0 -97 50 -153t145 -93v474q-195 -25 -195 -228zM449 1569h86v-119q186 -10 275 -108t93 -289h-180q0 231 -188 250v-502q16 -6 114 -38t126 -54q27 -21 60 -43q32 -23 46 -49q47 -88 55 -131
q8 -42 8 -121t-36 -163t-97 -130q-121 -93 -276 -101v-192h-86v192q-221 8 -312 126q-90 118 -90 349h180q0 -183 54 -251q54 -67 168 -76v536q-76 25 -114 38t-99 47q-173 96 -170 317q0 124 66 235q38 62 119 106t198 52v119z" />
    <glyph glyph-name="percent" unicode="%" horiz-adv-x="1558" 
d="M365 774q77 0 99 66t22 180q-1 175 -18 240q-20 79 -101 79q-80 1 -102 -65q-35 -103 -18 -335q8 -116 51 -146q26 -19 67 -19zM383 -29l635 1479h143l-635 -1479h-143zM1194 82q78 0 100 66t21 179q0 113 -3 155q-8 114 -51 147q-26 18 -67 18q-78 1 -100 -65t-21 -180
q0 -114 3 -155q8 -114 51 -147q26 -18 67 -18zM365 664q-175 0 -227 122q-26 60 -34 120t-8 150t8 150q8 58 34 120q52 124 226 124t227 -123q42 -99 42 -229t-8 -190q-22 -161 -116 -214q-56 -30 -144 -30zM926 364q0 90 8 150q8 58 34 120t82 93t144 31t144 -31
q95 -52 116 -213q8 -59 8 -189t-42 -231q-52 -123 -226 -123q-88 0 -144 31q-95 52 -116 213q-8 59 -8 149z" />
    <glyph glyph-name="ampersand" unicode="&#x26;" horiz-adv-x="1095" 
d="M639 1193q0 54 -41 94q-40 40 -106 40t-106 -40q-40 -39 -40 -111t88 -199l35 -49l39 37q49 47 66 66t41 63t24 99zM213 391q0 -129 78 -201t190 -71q135 0 262 141l-321 465q-209 -129 -209 -334zM1051 690q0 -84 -39 -229t-80 -197l188 -264h-194l-99 137
q-92 -88 -170 -127t-185 -39t-187 30t-126 75q-126 123 -126 301q0 227 198 379l107 80l-45 73q-205 306 -19 473q88 80 215 80q309 0 310 -278q-1 -96 -53 -168t-148 -152l-53 -45l289 -413q43 104 57 284h160z" />
    <glyph glyph-name="quotesingle" unicode="'" horiz-adv-x="479" 
d="M172 942v520h135v-520h-135z" />
    <glyph glyph-name="parenleft" unicode="(" horiz-adv-x="466" 
d="M98 543q0 511 299 919h99q-225 -371 -226 -919q0 -487 226 -920h-99q-145 197 -222 435t-77 485z" />
    <glyph glyph-name="parenright" unicode=")" horiz-adv-x="466" 
d="M369 543q0 -512 -299 -920h-99q225 371 226 920q0 487 -226 919h99q145 -198 222 -436t77 -483z" />
    <glyph glyph-name="asterisk" unicode="*" horiz-adv-x="733" 
d="M305 1462h123v-243l219 84l45 -119l-231 -70l155 -192l-102 -76l-147 209l-148 -209l-102 76l155 192l-231 70l45 119l219 -84v243z" />
    <glyph glyph-name="plus" unicode="+" horiz-adv-x="1204" 
d="M535 0v451h-451v135h451v450h135v-450h450v-135h-450v-451h-135z" />
    <glyph glyph-name="comma" unicode="," horiz-adv-x="311" 
d="M61 0v217h189v-178q0 -134 -24 -196t-62 -95q-39 -33 -103 -51v96q53 25 72 60q18 35 19 98v49h-91z" />
    <glyph glyph-name="hyphen" unicode="-" horiz-adv-x="712" 
d="M106 502v160h500v-160h-500z" />
    <glyph glyph-name="period" unicode="." horiz-adv-x="311" 
d="M61 0v217h189v-217h-189z" />
    <glyph glyph-name="slash" unicode="/" horiz-adv-x="544" 
d="M-33 -29l475 1520h136l-476 -1520h-135z" />
    <glyph glyph-name="zero" unicode="0" horiz-adv-x="995" 
d="M504 -29q-242 0 -334 182q-55 106 -70 240q-16 134 -16 264t4 248t27 203q49 176 129 251q98 91 254 91q237 0 327 -182q76 -149 84 -410q2 -63 2 -155t-4 -160t-15 -162t-40 -160t-72 -126q-89 -124 -276 -124zM264 748q0 -354 29 -444q45 -140 110 -176q41 -22 95 -22
q112 0 160 89t61 213q12 124 12 258q0 362 -36 476t-104 151q-40 22 -93 22t-94 -22q-106 -59 -130 -312q-10 -100 -10 -233z" />
    <glyph glyph-name="one" unicode="1" horiz-adv-x="720" 
d="M53 1090v122q150 7 250 49q101 42 109 189h123v-1450h-173v1090h-309z" />
    <glyph glyph-name="two" unicode="2" horiz-adv-x="927" 
d="M864 160v-160h-811q0 324 314 594l118 100q98 86 146 162q47 76 47 184t-51 186t-160 77q-229 0 -229 -314h-181q-1 215 99 338t313 123q96 0 169 -29q130 -51 179 -169q41 -92 41 -218q0 -127 -61 -232t-193 -216l-205 -178q-125 -104 -157 -248h622z" />
    <glyph glyph-name="three" unicode="3" horiz-adv-x="958" 
d="M350 682v135h90q111 0 166 71q56 70 56 182t-46 178t-143 67q-209 0 -209 -283h-180q0 194 95 306t290 112q109 0 185 -35q184 -84 188 -342q0 -115 -58 -199t-168 -112v-4q268 -53 269 -338q-1 -205 -105 -327t-307 -122q-111 0 -191 37t-122 85q-41 48 -69 123t-30 159
v18h181q0 -113 58 -199t173 -88q231 0 232 300q0 276 -263 276h-92z" />
    <glyph glyph-name="four" unicode="4" horiz-adv-x="958" 
d="M573 498v669h-4l-364 -669h368zM745 1450v-952h164v-148h-164v-350h-172v350h-524v162l524 938h172z" />
    <glyph glyph-name="five" unicode="5" horiz-adv-x="940" 
d="M469 106q232 0 238 377q1 137 -57 233t-185 95q-84 0 -144 -53t-61 -88l-156 8l80 743h647v-159h-509l-58 -420l4 -4q90 108 256 108t264 -126t98 -348t-102 -361q-104 -139 -319 -140q-98 0 -173 31t-116 76q-40 45 -74 121t-34 174h180q0 -79 30 -143q58 -124 191 -124
z" />
    <glyph glyph-name="six" unicode="6" horiz-adv-x="987" 
d="M881 1102h-181q0 94 -50 153t-137 59t-143 -53q-56 -54 -86 -164t-30 -218v-115h4q27 57 99 109q73 52 178 53q184 0 281 -125t97 -339t-106 -352t-304 -138t-292 114q-94 115 -115 258q-22 143 -22 280q0 219 20 387q20 169 117 304t303 135q94 0 166 -31t108 -71
t65 -106q28 -65 28 -140zM274 442q0 -137 54 -236q54 -100 176 -100q123 0 176 100t53 236q1 336 -229 336t-230 -336z" />
    <glyph glyph-name="seven" unicode="7" horiz-adv-x="841" 
d="M12 1262v159h828v-149q-174 -227 -285 -498q-166 -399 -199 -774h-200q41 336 176 659q131 324 344 603h-664z" />
    <glyph glyph-name="eight" unicode="8" horiz-adv-x="966" 
d="M68 399q0 289 256 373q-111 45 -161 119t-50 190q0 177 98 273t272 96q175 0 273 -96t98 -273q0 -117 -50 -191t-161 -118q256 -84 256 -373q0 -161 -85 -284q-44 -66 -129 -105t-202 -39q-311 0 -395 280q-20 70 -20 148zM674 1078q0 108 -48 172t-144 65
q-95 1 -142 -63t-47 -174t47 -174t142 -64t144 64q48 66 48 174zM248 406q0 -136 57 -218t178 -82t179 81q57 81 57 219t-57 218q-56 81 -178 81t-179 -81t-57 -218z" />
    <glyph glyph-name="nine" unicode="9" horiz-adv-x="987" 
d="M106 319h181q0 -94 50 -153q49 -60 123 -60q134 -1 190 95q83 144 83 342v114h-4q-27 -57 -99 -109t-177 -52q-184 0 -282 125q-97 125 -97 339t106 352t304 138t293 -117q94 -117 115 -259t21 -278t-4 -210t-16 -175q-20 -168 -117 -304t-303 -136q-94 0 -166 31
q-73 31 -109 72t-64 106q-28 64 -28 139zM713 979q1 137 -53 236t-177 99t-176 -98q-53 -100 -53 -237q0 -336 230 -336t229 336z" />
    <glyph glyph-name="colon" unicode=":" horiz-adv-x="516" 
d="M164 819v217h188v-217h-188zM164 0v217h188v-217h-188z" />
    <glyph glyph-name="semicolon" unicode=";" horiz-adv-x="503" 
d="M152 0v217h188v-178q0 -134 -24 -196t-62 -95q-39 -33 -102 -51v96q53 25 71 60t19 98v49h-90zM152 819v217h188v-217h-188z" />
    <glyph glyph-name="less" unicode="&#x3c;" horiz-adv-x="1204" 
d="M84 457v123l1036 473v-135l-876 -400l876 -399v-135z" />
    <glyph glyph-name="equal" unicode="=" horiz-adv-x="1204" 
d="M84 659v136h1036v-136h-1036zM84 242v135h1036v-135h-1036z" />
    <glyph glyph-name="greater" unicode="&#x3e;" horiz-adv-x="1204" 
d="M84 -16v135l877 399l-877 400v135l1036 -473v-123z" />
    <glyph glyph-name="question" unicode="?" horiz-adv-x="860" 
d="M209 1032h-172q0 193 96 320q97 127 281 127t286 -108q102 -109 102 -275t-102 -291q-10 -12 -80 -90t-79 -90q-66 -84 -66 -205v-39h-160q0 179 31 235t69 105t86 103t60 71q61 81 61 193t-52 178t-146 65q-215 0 -215 -299zM303 0v197h189v-197h-189z" />
    <glyph glyph-name="at" unicode="@" horiz-adv-x="1622" 
d="M483 600q1 -86 55 -141t138 -56q131 0 224 150t93 285q0 74 -46 140t-120 64q-141 0 -243 -144t-101 -298zM812 1368q-265 0 -445 -184q-181 -184 -181 -456t180 -452q180 -182 445 -182q383 0 555 228h129q-203 -350 -684 -351q-315 1 -537 223t-223 537q0 315 222 537
t546 223q324 0 538 -178t214 -455q0 -168 -83 -304t-202 -205t-246 -69t-141 121h-4q-117 -121 -245 -121t-215 88q-87 87 -87 220q0 225 136 401t343 176q176 0 234 -168h4l45 129h115l-172 -577q-18 -63 -19 -92q0 -53 60 -54q137 1 239 137t103 310q0 230 -180 374
t-444 144z" />
    <glyph glyph-name="A" unicode="A" horiz-adv-x="1105" 
d="M25 0l421 1462h242l393 -1462h-188l-105 401h-466l-109 -401h-188zM561 1255l-203 -706h394l-187 706h-4z" />
    <glyph glyph-name="B" unicode="B" horiz-adv-x="1042" 
d="M291 696v-549h246q253 0 255 283q0 131 -79 199q-80 68 -207 67h-215zM111 0v1462h448q162 0 268 -88t107 -287q0 -102 -58 -189t-155 -116v-4q131 -31 195 -126t65 -234q0 -218 -119 -318t-354 -100h-397zM291 1315v-484h207q117 0 182 60t65 184q0 240 -251 240h-203z
" />
    <glyph glyph-name="C" unicode="C" horiz-adv-x="1017" 
d="M532 1491q420 0 433 -455h-189q-12 307 -244 307q-178 0 -235 -182q-29 -92 -38 -189q-9 -96 -9 -240t9 -242t38 -189q57 -182 226 -182q168 0 218 127q43 105 47 256h189q-15 -236 -119 -383t-326 -148q-120 0 -208 45t-138 115q-49 70 -78 175q-30 104 -38 202
q-32 390 42 649q30 104 79 174t137 115t204 45z" />
    <glyph glyph-name="D" unicode="D" horiz-adv-x="1075" 
d="M291 1315v-1168h188q90 0 156 37q65 37 101 91q88 135 89 443q0 309 -50 411q-24 50 -60 96q-74 90 -236 90h-188zM111 0v1462h391q131 0 226 -39q96 -39 150 -100t86 -161t41 -198q9 -97 9 -233q0 -731 -494 -731h-409z" />
    <glyph glyph-name="E" unicode="E" horiz-adv-x="937" 
d="M111 0v1462h755v-159h-575v-459h543v-160h-543v-524h600v-160h-780z" />
    <glyph glyph-name="F" unicode="F" horiz-adv-x="913" 
d="M111 0v1462h755v-159h-575v-459h543v-160h-543v-684h-180z" />
    <glyph glyph-name="G" unicode="G" horiz-adv-x="1062" 
d="M965 1057h-189q-18 287 -244 286q-178 0 -235 -182q-29 -92 -38 -189q-9 -96 -9 -240t9 -242t38 -189q57 -182 235 -182q72 0 124 34q52 33 79 81q66 116 66 378h-289v148h453v-760h-136v199h-4q-31 -98 -115 -163t-197 -65q-114 0 -197 43t-131 111q-93 131 -114 375
q-35 392 41 657q30 104 79 174t137 115t206 45t203 -39q86 -39 128 -90t71 -132t29 -173z" />
    <glyph glyph-name="H" unicode="H" horiz-adv-x="1083" 
d="M973 1462v-1462h-180v705h-502v-705h-180v1462h180v-598h502v598h180z" />
    <glyph glyph-name="I" unicode="I" horiz-adv-x="417" 
d="M119 0v1462h180v-1462h-180z" />
    <glyph glyph-name="J" unicode="J" horiz-adv-x="831" 
d="M729 1462v-1042q0 -217 -78 -333t-289 -116q-172 -1 -257 95t-85 239v121h173v-107q0 -201 167 -200q115 1 152 71t37 236v1036h180z" />
    <glyph glyph-name="K" unicode="K" horiz-adv-x="1019" 
d="M111 0v1462h180v-708h4l506 708h200l-442 -610l479 -852h-200l-396 705l-151 -207v-498h-180z" />
    <glyph glyph-name="L" unicode="L" horiz-adv-x="909" 
d="M111 0v1462h180v-1302h594v-160h-774z" />
    <glyph glyph-name="M" unicode="M" horiz-adv-x="1441" 
d="M123 0v1462h303l293 -1159h4l293 1159h303v-1462h-180v1278h-4l-324 -1278h-180l-324 1278h-4v-1278h-180z" />
    <glyph glyph-name="N" unicode="N" horiz-adv-x="1122" 
d="M111 0v1462h233l483 -1220h4v1220h181v-1462h-248l-469 1184h-4v-1184h-180z" />
    <glyph glyph-name="O" unicode="O" horiz-adv-x="1064" 
d="M532 1491q117 0 204 -45t137 -115q128 -179 131 -600q0 -248 -40 -389t-91 -211q-50 -70 -137 -115t-204 -45q-118 0 -204 45t-137 115q-127 177 -130 600q1 248 41 389t89 211q50 70 137 115t204 45zM532 1343q-90 0 -148 -45t-87 -137t-38 -189q-9 -96 -9 -240t9 -242
t38 -189q57 -182 235 -182t236 182q29 92 38 189q9 96 9 240t-9 242q-23 247 -125 326q-59 45 -149 45z" />
    <glyph glyph-name="P" unicode="P" horiz-adv-x="976" 
d="M111 0v1462h372q151 0 233 -32q36 -14 81 -46q137 -99 138 -359q1 -183 -115 -295t-306 -112h-223v-618h-180zM291 1315v-549h215q104 0 173 73t69 212q0 264 -254 264h-203z" />
    <glyph glyph-name="Q" unicode="Q" horiz-adv-x="1089" 
d="M550 -29q-242 0 -359 160q-127 177 -130 600q1 248 41 389t89 211t137 115t204 45t204 -45q87 -45 137 -115q128 -179 129 -590q2 -411 -117 -587l147 -136l-100 -106l-148 133q-100 -74 -234 -74zM815 731q0 143 -9 241t-38 189q-58 182 -236 182t-235 -182
q-29 -92 -38 -189q-9 -96 -9 -240t9 -242t38 -189q57 -182 235 -182q81 0 134 35l-142 127l101 110l135 -123q55 133 55 463z" />
    <glyph glyph-name="R" unicode="R" horiz-adv-x="1046" 
d="M111 0v1462h473q174 0 274 -97t100 -269q0 -134 -54 -238t-171 -131v-4q93 -10 147 -78t60 -166l12 -250q4 -113 22 -159t56 -70h-217q-35 35 -49 211l-12 227q-12 145 -76 179t-141 34h-244v-651h-180zM291 1315v-516h178q165 0 227 60q74 73 74 237q0 96 -69 157
t-195 62h-215z" />
    <glyph glyph-name="S" unicode="S" horiz-adv-x="972" 
d="M717 1083q0 260 -228 260q-117 0 -179 -60q-62 -61 -62 -161t38 -156t99 -86t196 -74t208 -92q149 -98 149 -308q0 -330 -295 -413q-76 -22 -160 -22q-246 0 -344 120t-98 368h180q0 -200 65 -270t192 -70q128 -1 200 71t72 172q0 176 -138 244q-61 31 -189 72t-226 106
q-61 41 -100 118q-38 76 -38 154q1 78 9 126q37 208 233 279q80 30 186 30q207 0 307 -101q99 -102 103 -307h-180z" />
    <glyph glyph-name="T" unicode="T" horiz-adv-x="944" 
d="M561 1303v-1303h-180v1303h-367v159h916v-159h-369z" />
    <glyph glyph-name="U" unicode="U" horiz-adv-x="1054" 
d="M98 434v1028h181v-1028q0 -164 57 -240t192 -75q135 0 192 77q56 77 56 238v1028h180v-1028q0 -215 -110 -339t-320 -124q-428 0 -428 463z" />
    <glyph glyph-name="V" unicode="V" horiz-adv-x="964" 
d="M356 0l-356 1462h188l287 -1255h4l287 1255h188l-368 -1462h-230z" />
    <glyph glyph-name="W" unicode="W" horiz-adv-x="1474" 
d="M305 0l-291 1462h181l223 -1196h4l207 1196h217l207 -1196h4l223 1196h180l-301 -1462h-219l-201 1184h-4l-211 -1184h-219z" />
    <glyph glyph-name="X" unicode="X" horiz-adv-x="964" 
d="M383 743l-360 719h200l266 -547l269 547h188l-364 -719l389 -743h-201l-291 586l-297 -586h-188z" />
    <glyph glyph-name="Y" unicode="Y" horiz-adv-x="913" 
d="M547 0h-180v573l-387 889h198l279 -684l288 684h189l-387 -889v-573z" />
    <glyph glyph-name="Z" unicode="Z" horiz-adv-x="925" 
d="M31 0v152l657 1151h-620v159h809v-166l-658 -1136h666v-160h-854z" />
    <glyph glyph-name="bracketleft" unicode="[" horiz-adv-x="512" 
d="M158 -377v1839h366v-135h-207v-1569h207v-135h-366z" />
    <glyph glyph-name="backslash" unicode="\" horiz-adv-x="544" 
d="M442 -29l-475 1520h135l476 -1520h-136z" />
    <glyph glyph-name="bracketright" unicode="]" horiz-adv-x="512" 
d="M354 1462v-1839h-366v135h207v1569h-207v135h366z" />
    <glyph glyph-name="asciicircum" unicode="^" horiz-adv-x="1191" 
d="M78 535l469 886h98l469 -886h-135l-383 739l-383 -739h-135z" />
    <glyph glyph-name="underscore" unicode="_" horiz-adv-x="999" 
d="M-12 -256v102h1024v-102h-1024z" />
    <glyph glyph-name="grave" unicode="`" horiz-adv-x="401" 
d="M-33 1538h201l143 -291h-123z" />
    <glyph glyph-name="a" unicode="a" horiz-adv-x="901" 
d="M248 766h-172q0 188 87 274t281 86q96 0 163 -24t100 -52q33 -30 50 -80t19 -80t2 -79v-612q0 -33 1 -46t13 -27t40 -15q26 0 40 10v-123q-72 -10 -102 -10q-51 0 -100 19q-48 19 -54 122h-4q-40 -74 -112 -116t-152 -42q-150 0 -224 84t-75 236q0 240 207 303l231 70
q88 27 107 57q18 31 18 108q0 162 -176 162q-188 0 -188 -215v-10zM606 315v283q-38 -37 -150 -73t-143 -56q-84 -53 -84 -174q0 -188 156 -189q89 0 155 62t66 147z" />
    <glyph glyph-name="b" unicode="b" horiz-adv-x="940" 
d="M276 549q0 -197 48 -313t166 -117q120 -1 164 111t44 322t-44 318t-156 109q-222 0 -222 -430zM115 0v1462h172v-489h4q29 73 99 113t155 40q334 0 334 -577q0 -252 -89 -415t-270 -163q-86 0 -152 49t-85 115h-4v-135h-164z" />
    <glyph glyph-name="c" unicode="c" horiz-adv-x="839" 
d="M791 764h-173q0 92 -41 160q-42 68 -133 67q-44 0 -78 -15q-34 -14 -68 -60q-67 -90 -69 -379q0 -225 45 -322q20 -43 62 -76t108 -33q64 0 106 46t55 103q13 56 13 126h173q0 -145 -76 -268q-39 -63 -113 -103t-172 -39q-201 -1 -291 137t-90 427q0 592 391 591
q86 0 152 -26q165 -66 191 -250q8 -43 8 -86z" />
    <glyph glyph-name="d" unicode="d" horiz-adv-x="940" 
d="M242 549q0 -213 44 -322t166 -109t166 110q45 108 46 321q0 430 -222 430q-112 -1 -156 -109t-44 -321zM825 1462v-1462h-163v135h-5q-18 -66 -85 -115t-152 -49q-358 0 -359 578q0 578 347 577q76 0 144 -42t97 -111h4v489h172z" />
    <glyph glyph-name="e" unicode="e" horiz-adv-x="872" 
d="M240 664h391v59q0 113 -43 191t-148 77q-63 0 -106 -34q-42 -34 -68 -106t-26 -146v-41zM811 528h-578q1 -208 21 -260q20 -51 42 -89q41 -71 148 -73q57 0 107 33t73 145q7 38 7 76h172q0 -93 -35 -167t-74 -118q-38 -44 -106 -74t-154 -30q-201 -1 -291 137t-90 427
q0 592 391 591q96 0 167 -34t108 -82q92 -122 92 -412v-70z" />
    <glyph glyph-name="f" unicode="f" horiz-adv-x="526" 
d="M162 0v963h-160v135h160v129q0 252 237 252h125v-148h-80q-111 0 -110 -104v-129h188v-135h-188v-963h-172z" />
    <glyph glyph-name="g" unicode="g" horiz-adv-x="919" 
d="M430 979q-113 0 -157 -109t-44 -321q0 -401 199 -402q90 1 141 57t67 138q15 82 15 207q0 430 -221 430zM813 1098v-1028q0 -446 -373 -447q-334 0 -360 275h172q12 -139 176 -140q64 0 108 20t63 43q42 49 42 183v143h-4q-29 -67 -97 -107t-148 -40q-155 0 -233 112
q-77 112 -94 230q-16 118 -16 244q0 307 142 454q83 86 217 86q88 0 154 -49t83 -119h4v140h164z" />
    <glyph glyph-name="h" unicode="h" horiz-adv-x="946" 
d="M115 0v1462h172v-489h4q33 65 111 109t156 44q79 0 135 -26t84 -57q61 -70 61 -265v-778h-172v758q0 159 -72 200q-36 20 -104 20t-136 -55q-68 -56 -67 -165v-758h-172z" />
    <glyph glyph-name="i" unicode="i" horiz-adv-x="401" 
d="M115 0v1098h172v-1098h-172zM115 1266v196h172v-196h-172z" />
    <glyph glyph-name="j" unicode="j" horiz-adv-x="391" 
d="M104 -45v1143h172v-1204q0 -137 -61 -204t-201 -67l-80 6v148l64 -6q77 0 92 50q14 50 14 134zM276 1462v-196h-172v196h172z" />
    <glyph glyph-name="k" unicode="k" horiz-adv-x="911" 
d="M287 0h-172v1462h172v-870h4l385 506h201l-334 -414l391 -684h-201l-305 543l-141 -172v-371z" />
    <glyph glyph-name="l" unicode="l" horiz-adv-x="401" 
d="M115 0v1462h172v-1462h-172z" />
    <glyph glyph-name="m" unicode="m" horiz-adv-x="1433" 
d="M106 0v1098h164v-129h4q35 73 110 115t165 42t146 -41t83 -133q39 76 109 125q69 49 151 49t140 -26t87 -57q62 -71 62 -265v-778h-172v758q0 158 -65 199q-32 22 -96 22t-128 -52t-63 -169v-758h-172v758q0 157 -66 199q-33 22 -97 22t-126 -52q-63 -52 -63 -169v-758
h-173z" />
    <glyph glyph-name="n" unicode="n" 
d="M106 0v1098h164v-129h4q35 73 110 115t157 42t140 -26t86 -57q62 -71 62 -265v-778h-172v758q0 159 -71 200q-36 20 -104 20t-136 -55q-68 -56 -67 -165v-758h-173z" />
    <glyph glyph-name="o" unicode="o" horiz-adv-x="888" 
d="M659 549q0 330 -106 408q-45 34 -111 34q-127 0 -173 -134q-38 -112 -39 -259q0 -147 8 -220q8 -72 30 -138q46 -133 172 -134q125 0 172 118t47 325zM49 549q0 578 395 577q396 0 396 -578t-396 -577q-396 0 -395 578z" />
    <glyph glyph-name="p" unicode="p" horiz-adv-x="919" 
d="M256 549q0 -430 221 -430q113 -1 157 111t44 325t-45 318t-166 105t-166 -108t-45 -321zM94 -360v1458h164v-135h4q18 67 85 115t153 48q358 0 358 -557q0 -288 -108 -459q-39 -60 -104 -100q-66 -40 -144 -39q-78 0 -141 41q-62 41 -91 113h-4v-485h-172z" />
    <glyph glyph-name="q" unicode="q" horiz-adv-x="919" 
d="M653 -360v485h-4q-29 -72 -91 -113t-138 -41q-358 0 -359 598q0 557 359 557q86 0 152 -49t85 -114h5v135h163v-1458h-172zM664 549q0 213 -46 321t-166 109q-122 1 -166 -105t-44 -319t44 -325t156 -111q222 0 222 430z" />
    <glyph glyph-name="r" unicode="r" horiz-adv-x="589" 
d="M283 934q89 192 219 192q68 0 94 -12v-168q-66 8 -92 8q-78 0 -152 -68t-73 -192v-694h-173v1098h173v-164h4z" />
    <glyph glyph-name="s" unicode="s" horiz-adv-x="833" 
d="M756 776h-172q0 111 -36 163t-126 52q-178 0 -178 -168q0 -60 24 -84q24 -23 36 -35t48 -25q35 -13 48 -19t82 -25q69 -20 105 -35q96 -38 145 -101q50 -63 50 -184q0 -166 -97 -255t-257 -89q-106 0 -182 32t-113 72t-56 102t-23 98q-3 36 -3 85h172q0 -118 44 -186
t161 -68q37 0 74 12q36 12 72 55q36 45 36 105q0 110 -74 155q-51 33 -117 55l-107 36q-40 14 -72 26q-32 13 -79 48q-89 65 -89 218q0 154 99 232t251 78q92 0 158 -26t98 -59q78 -81 78 -265z" />
    <glyph glyph-name="t" unicode="t" horiz-adv-x="557" 
d="M162 1098v319h172v-319h190v-135h-190v-705q0 -68 24 -96t88 -27q20 0 76 6v-141q-44 -12 -156 -12t-158 51t-46 166v758h-160v135h160z" />
    <glyph glyph-name="u" unicode="u" 
d="M829 1098v-1098h-163v129h-4q-35 -74 -110 -116t-157 -42t-140 26q-58 25 -86 57q-59 67 -63 265v779h173v-758q0 -158 71 -201q36 -20 104 -20t136 56t67 165v758h172z" />
    <glyph glyph-name="v" unicode="v" horiz-adv-x="794" 
d="M299 0l-297 1098h188l205 -881h4l205 881h189l-297 -1098h-197z" />
    <glyph glyph-name="w" unicode="w" horiz-adv-x="1302" 
d="M264 0l-256 1098h180l177 -897h4l186 897h203l182 -897h4l170 897h180l-260 -1098h-188l-193 897h-4l-184 -897h-201z" />
    <glyph glyph-name="x" unicode="x" horiz-adv-x="806" 
d="M301 571l-281 527h189l199 -391l200 391h189l-287 -527l297 -571h-189l-219 434l-211 -434h-188z" />
    <glyph glyph-name="y" unicode="y" horiz-adv-x="794" 
d="M158 -225q94 0 135 106l33 96l-324 1121h188l218 -881h4l192 881h189l-318 -1172q-28 -100 -62 -165q-65 -121 -217 -121q-46 0 -139 6v135q37 -6 101 -6z" />
    <glyph glyph-name="z" unicode="z" horiz-adv-x="776" 
d="M68 950v148h661v-144l-491 -807h487v-147h-682v135l498 815h-473z" />
    <glyph glyph-name="braceleft" unicode="{" horiz-adv-x="548" 
d="M55 481v123q70 0 113 60t43 167v365q0 142 62 204t159 62h146v-135h-105q-71 0 -89 -57q-13 -42 -13 -111v-352q1 -129 -61 -191t-120 -71v-4q56 -9 118 -71t63 -191v-353q0 -126 45 -153q23 -14 57 -15h105v-135h-146q-96 1 -158 63t-63 203v365q0 106 -43 166t-113 61z
" />
    <glyph glyph-name="bar" unicode="|" horiz-adv-x="462" 
d="M164 -29v1520h135v-1520h-135z" />
    <glyph glyph-name="braceright" unicode="}" horiz-adv-x="548" 
d="M494 604v-123q-70 0 -113 -60t-43 -167v-365q0 -141 -62 -203t-159 -63h-146v135h105q71 0 89 58q13 42 13 110v353q0 129 62 191t118 71v4q-57 8 -118 70t-62 192v352q0 127 -45 154q-23 14 -57 14h-105v135h146q96 0 158 -62t63 -204v-365q0 -107 43 -167t113 -60z" />
    <glyph glyph-name="asciitilde" unicode="~" horiz-adv-x="1257" 
d="M840 508q98 0 202 149l86 -92q-38 -55 -70 -91t-88 -68t-118 -33q-62 0 -103 10q-40 11 -80 33t-81 47t-82 45t-88 20q-99 1 -203 -149l-86 94q129 190 279 191q107 0 182 -44q39 -22 80 -47q107 -65 170 -65z" />
    <glyph glyph-name="uni00A0" unicode="&#xa0;" horiz-adv-x="491" 
 />
    <glyph glyph-name="exclamdown" unicode="&#xa1;" horiz-adv-x="516" 
d="M319 721l33 -1081h-188l33 1081h122zM352 1102v-197h-188v197h188z" />
    <glyph glyph-name="cent" unicode="&#xa2;" horiz-adv-x="987" 
d="M303 537q0 -278 71 -371q36 -48 93 -60v885q-164 -41 -164 -454zM467 -203v174q-180 9 -262 147t-82 417q0 561 344 591v144h86v-144q246 -16 299 -254q12 -53 12 -108h-172q0 84 -34 150t-105 77v-885q139 33 139 275h172q0 -149 -74 -271t-237 -139v-174h-86z" />
    <glyph glyph-name="sterling" unicode="&#xa3;" horiz-adv-x="962" 
d="M905 1034h-172q0 125 -56 203t-177 78t-176 -66q-56 -65 -56 -157t115 -310h336v-123h-291q35 -63 35 -139t-45 -152t-88 -118q-43 -41 -127 -113l4 -4q119 57 170 57t129 -28q74 -31 128 -31t97 15t127 65l76 -137q-145 -102 -283 -103q-73 0 -183 42t-162 42t-103 -22
l-97 -45l-77 133q80 65 124 107t87 118t43 165t-43 148h-195v123h143l-32 64q-68 131 -68 235q0 173 117 271t299 98t292 -104q109 -105 109 -312z" />
    <glyph glyph-name="currency" unicode="&#xa4;" horiz-adv-x="966" 
d="M180 711q0 -133 88 -225t215 -91q127 0 215 91q88 90 88 224t-88 225t-215 91t-215 -91t-88 -224zM33 710q0 151 92 271l-96 96l88 88l96 -96q117 92 269 92t272 -92l96 96l88 -88l-96 -96q92 -117 92 -271t-94 -270l98 -98l-86 -86l-98 98q-117 -94 -270 -94t-273 92
l-96 -96l-86 86l96 96q-92 121 -92 272z" />
    <glyph glyph-name="yen" unicode="&#xa5;" horiz-adv-x="983" 
d="M410 0v313h-301v123h301v123l-21 45h-280v123h225l-316 694h199l279 -663l288 663h181l-308 -694h226v-123h-281l-20 -45v-123h301v-123h-301v-313h-172z" />
    <glyph glyph-name="brokenbar" unicode="&#xa6;" horiz-adv-x="462" 
d="M164 -29v602h135v-602h-135zM164 889v602h135v-602h-135z" />
    <glyph glyph-name="section" unicode="&#xa7;" horiz-adv-x="983" 
d="M664 1184q0 82 -52 127t-132 45q-81 0 -126 -48t-45 -98q0 -86 83 -149q30 -23 81 -53l205 -123q123 -76 184 -147t62 -181q0 -176 -183 -301q119 -78 119 -240t-104 -246q-104 -85 -252 -85q-240 0 -331 172q-44 83 -44 184h172q0 -97 51 -159q50 -62 150 -62t139 56
t39 120t-45 114t-125 103l-231 143q-219 135 -220 299q1 103 49 163t152 128q-59 39 -95 107t-36 139q0 141 105 220t237 79t228 -45q55 -24 104 -106q28 -45 41 -156h-180zM752 522q0 120 -158 213l-225 139q-6 -4 -45 -35t-61 -65q-30 -43 -32 -96q1 -90 144 -176l135 -86
l123 -84q119 70 119 190z" />
    <glyph glyph-name="dieresis" unicode="&#xa8;" horiz-adv-x="417" 
d="M-37 1290v207h160v-207h-160zM295 1290v207h160v-207h-160z" />
    <glyph glyph-name="copyright" unicode="&#xa9;" horiz-adv-x="1622" 
d="M823 254q-207 0 -327 130t-121 341q0 211 121 341t327 130q160 0 273 -82t131 -235h-123q-18 84 -93 139t-202 55t-213 -100q-86 -99 -86 -247t86 -248t213 -101q127 0 202 55t93 139h123q-18 -149 -132 -233t-272 -84zM51 731q0 315 222 537q221 222 537 223
q316 0 538 -222q222 -221 223 -537q0 -316 -222 -538q-221 -222 -537 -222t-538 222t-223 537zM811 94q260 0 442 186t183 451q0 265 -182 451t-443 186q-260 0 -442 -186q-183 -186 -183 -450t182 -452q182 -186 443 -186z" />
    <glyph glyph-name="ordfeminine" unicode="&#xaa;" horiz-adv-x="555" 
d="M496 1253v-360q0 -55 34 -55q8 0 27 6v-86q-25 -6 -78 -6q-100 0 -102 94h-4q-51 -94 -180 -94q-94 0 -145 52q-50 52 -50 138q0 145 147 188l150 41q53 15 65 33t13 60q0 88 -111 88q-121 0 -121 -119v-8h-123q0 123 60 174t208 51q149 0 184 -74q26 -57 26 -123z
M373 963v157q-25 -25 -98 -44t-99 -39q-43 -33 -43 -87q0 -100 94 -100q55 0 101 36q45 36 45 77z" />
    <glyph glyph-name="guillemotleft" unicode="&#xab;" horiz-adv-x="804" 
d="M410 502v160l290 292v-180l-192 -192l192 -193v-180zM104 502v160l291 292v-180l-192 -192l192 -193v-180z" />
    <glyph glyph-name="logicalnot" unicode="&#xac;" horiz-adv-x="1204" 
d="M985 217v442h-901v136h1036v-578h-135z" />
    <glyph glyph-name="uni00AD" unicode="&#xad;" horiz-adv-x="712" 
d="M106 502v160h500v-160h-500z" />
    <glyph glyph-name="registered" unicode="&#xae;" horiz-adv-x="1622" 
d="M508 283v888h344q303 0 303 -260q1 -113 -65 -173t-175 -72l254 -383h-135l-246 372h-145v-372h-135zM643 778h145q109 0 153 16t61 47q18 31 18 93q1 115 -193 115h-184v-271zM51 731q0 315 222 537q221 222 537 223q316 0 538 -222q222 -221 223 -537q0 -316 -222 -538
q-221 -222 -537 -222t-538 222t-223 537zM811 94q260 0 442 186t183 451q0 265 -182 451t-443 186q-260 0 -442 -186q-183 -186 -183 -450t182 -452q182 -186 443 -186z" />
    <glyph glyph-name="macron" unicode="&#xaf;" horiz-adv-x="409" 
d="M-66 1337v111h541v-111h-541z" />
    <glyph glyph-name="degree" unicode="&#xb0;" horiz-adv-x="819" 
d="M104 1145q0 133 87 219t219 86t218 -86q87 -86 87 -219t-87 -219t-218 -86t-219 86q-87 86 -87 219zM215 1145q0 -80 57 -137q58 -58 138 -58t137 58t57 137q0 80 -57 137t-137 57t-138 -57t-57 -137z" />
    <glyph glyph-name="plusminus" unicode="&#xb1;" horiz-adv-x="1204" 
d="M84 604v135h451v297h135v-297h450v-135h-450v-297h-135v297h-451zM84 0v135h1036v-135h-1036z" />
    <glyph glyph-name="twosuperior" unicode="&#xb2;" horiz-adv-x="630" 
d="M573 573h-534q0 111 54 195t151 164l75 61q68 53 98 99t29 112q0 123 -135 123q-127 0 -127 -156h-147q0 279 285 279q124 0 198 -60t74 -164t-39 -166t-127 -132l-127 -103q-70 -55 -96 -129h368v-123z" />
    <glyph glyph-name="threesuperior" unicode="&#xb3;" horiz-adv-x="630" 
d="M233 971v110h50q71 0 109 39q38 38 38 96t-29 91t-84 32q-127 0 -127 -141h-147q0 252 279 252q141 0 198 -68q58 -68 58 -148q1 -165 -172 -200v-4q197 -31 196 -203q0 -125 -70 -197t-208 -71q-232 0 -286 185q-9 32 -9 57v10h147q0 -55 36 -98t97 -43t104 36
q42 36 42 113q0 152 -164 152h-58z" />
    <glyph glyph-name="acute" unicode="&#xb4;" horiz-adv-x="401" 
d="M90 1247l143 291h201l-221 -291h-123z" />
    <glyph glyph-name="mu" unicode="&#xb5;" 
d="M829 1098v-1098h-163v129h-4q-35 -74 -110 -116t-155 -42t-118 29v-360h-173v1458h173v-758q0 -158 71 -201q36 -20 104 -20t136 56t67 165v758h172z" />
    <glyph glyph-name="paragraph" unicode="&#xb6;" horiz-adv-x="1103" 
d="M817 -287v1639h-205v-1639h-135v946q-186 0 -307 110t-121 271q0 197 132 310t351 112h420v-1749h-135z" />
    <glyph glyph-name="periodcentered" unicode="&#xb7;" horiz-adv-x="471" 
d="M121 670q0 47 34 81q34 33 81 33q46 0 80 -34t34 -80q0 -47 -34 -81t-80 -34t-81 34q-34 34 -34 81z" />
    <glyph glyph-name="cedilla" unicode="&#xb8;" horiz-adv-x="378" 
d="M154 -344q113 0 112 80q0 35 -28 55q-59 41 -150 6l-31 37l121 166h86l-80 -111l4 -4q104 27 177 -27q49 -36 49 -112t-66 -126t-168 -50t-188 41l31 70l26 -7q75 -18 105 -18z" />
    <glyph glyph-name="onesuperior" unicode="&#xb9;" horiz-adv-x="614" 
d="M258 573v641h-197v99q106 0 167 26q60 27 65 111h100v-877h-135z" />
    <glyph glyph-name="ordmasculine" unicode="&#xba;" horiz-adv-x="538" 
d="M266 1450q266 0 266 -349t-266 -349q-260 0 -260 349t260 349zM266 850q131 0 131 251t-131 251q-125 0 -125 -251t125 -251z" />
    <glyph glyph-name="guillemotright" unicode="&#xbb;" horiz-adv-x="804" 
d="M700 662v-160l-290 -293v180l192 193l-192 192v180zM395 662v-160l-291 -293v180l193 193l-193 192v180z" />
    <glyph glyph-name="onequarter" unicode="&#xbc;" horiz-adv-x="1476" 
d="M1155 313v379h-4l-225 -379h229zM1290 877v-564h96v-110h-96v-203h-135v203h-340v123l328 551h147zM186 -63l889 1548h123l-889 -1548h-123zM61 1214v99q106 0 167 26q60 27 65 111h100v-877h-135v641h-197z" />
    <glyph glyph-name="onehalf" unicode="&#xbd;" horiz-adv-x="1533" 
d="M152 -63l888 1548h123l-889 -1548h-122zM61 1214v99q106 0 167 26q60 27 65 111h100v-877h-135v641h-197zM1395 0h-535q0 111 54 195t151 163l76 62q68 53 97 98q30 45 30 113q0 123 -135 123q-127 0 -127 -156h-148q0 279 285 279q123 -1 197 -61t75 -164
q0 -104 -39 -166t-127 -132l-127 -102q-70 -55 -96 -129h369v-123z" />
    <glyph glyph-name="threequarters" unicode="&#xbe;" horiz-adv-x="1513" 
d="M1192 313v379h-4l-225 -379h229zM1327 877v-564h96v-110h-96v-203h-135v203h-340v123l328 551h147zM285 -63l889 1548h122l-888 -1548h-123zM233 971v110h50q71 0 109 39q38 38 38 96t-29 91t-84 32q-127 0 -127 -141h-147q0 252 279 252q141 0 198 -68q58 -68 58 -148
q1 -165 -172 -200v-4q197 -31 196 -203q0 -125 -70 -197t-208 -71q-232 0 -286 185q-9 32 -9 57v10h147q0 -55 36 -98t97 -43t104 36q42 36 42 113q0 152 -164 152h-58z" />
    <glyph glyph-name="questiondown" unicode="&#xbf;" horiz-adv-x="860" 
d="M651 70h172q0 -193 -96 -320q-97 -127 -281 -127t-286 108q-102 109 -102 275t102 291q18 18 83 91t76 89q66 84 66 205v39h160q0 -179 -31 -235t-69 -105t-86 -103t-60 -71q-61 -81 -61 -193t52 -178t146 -65q215 0 215 299zM557 1102v-197h-188v197h188z" />
    <glyph glyph-name="Agrave" unicode="&#xc0;" horiz-adv-x="1105" 
d="M338 1874h201l143 -291h-123zM25 0l421 1462h242l393 -1462h-188l-105 401h-466l-109 -401h-188zM561 1255l-203 -706h394l-187 706h-4z" />
    <glyph glyph-name="Aacute" unicode="&#xc1;" horiz-adv-x="1105" 
d="M451 1583l143 291h201l-222 -291h-122zM25 0l421 1462h242l393 -1462h-188l-105 401h-466l-109 -401h-188zM561 1255l-203 -706h394l-187 706h-4z" />
    <glyph glyph-name="Acircumflex" unicode="&#xc2;" horiz-adv-x="1105" 
d="M283 1583l206 291h158l205 -291h-160l-125 180l-125 -180h-159zM25 0l421 1462h242l393 -1462h-188l-105 401h-466l-109 -401h-188zM561 1255l-203 -706h394l-187 706h-4z" />
    <glyph glyph-name="Atilde" unicode="&#xc3;" horiz-adv-x="1105" 
d="M870 1849q0 -87 -47 -157t-129 -70q-49 0 -134 39t-101 39q-66 0 -80 -92h-111q0 92 56 160t135 67q51 0 123 -39q86 -39 106 -39q54 0 72 92h110zM25 0l421 1462h242l393 -1462h-188l-105 401h-466l-109 -401h-188zM561 1255l-203 -706h394l-187 706h-4z" />
    <glyph glyph-name="Adieresis" unicode="&#xc4;" horiz-adv-x="1105" 
d="M319 1626v207h160v-207h-160zM651 1626v207h160v-207h-160zM25 0l421 1462h242l393 -1462h-188l-105 401h-466l-109 -401h-188zM561 1255l-203 -706h394l-187 706h-4z" />
    <glyph glyph-name="Aring" unicode="&#xc5;" horiz-adv-x="1105" 
d="M365 1729q0 86 58 144t144 58q87 0 145 -58t58 -144q0 -87 -58 -145t-144 -58t-145 58q-58 58 -58 145zM451 1729q1 -47 35 -82t81 -35t82 35t35 82t-35 81t-82 35q-47 -1 -81 -35t-35 -81zM25 0l421 1462h242l393 -1462h-188l-105 401h-466l-109 -401h-188zM561 1255
l-203 -706h394l-187 706h-4z" />
    <glyph glyph-name="AE" unicode="&#xc6;" horiz-adv-x="1513" 
d="M694 549v766h-20l-287 -766h307zM1419 1462v-159h-545v-459h512v-160h-512v-524h570v-160h-750v401h-358l-150 -401h-188l565 1462h856z" />
    <glyph glyph-name="Ccedilla" unicode="&#xc7;" horiz-adv-x="1019" 
d="M455 -344q113 0 112 80q0 35 -28 55q-59 41 -150 6l-31 37l103 141q-109 12 -178 62q-129 94 -175 270q-46 175 -46 361t10 285q25 243 119 378q49 70 137 115t204 45q420 0 433 -455h-189q-12 307 -244 307q-178 0 -235 -182q-29 -92 -38 -189q-9 -96 -9 -240t9 -242
t38 -189q57 -182 226 -182q168 0 218 127q43 105 47 256h189q-20 -369 -244 -488q-76 -39 -188 -43l-60 -82l4 -4q104 27 177 -27q49 -36 49 -112t-66 -126t-168 -50t-188 41l31 70l24 -7q81 -18 107 -18z" />
    <glyph glyph-name="Egrave" unicode="&#xc8;" horiz-adv-x="937" 
d="M272 1874h201l143 -291h-122zM111 0v1462h755v-159h-575v-459h543v-160h-543v-524h600v-160h-780z" />
    <glyph glyph-name="Eacute" unicode="&#xc9;" horiz-adv-x="937" 
d="M436 1583l144 291h200l-221 -291h-123zM111 0v1462h755v-159h-575v-459h543v-160h-543v-524h600v-160h-780z" />
    <glyph glyph-name="Ecircumflex" unicode="&#xca;" horiz-adv-x="937" 
d="M207 1583l207 291h157l205 -291h-160l-124 180l-125 -180h-160zM111 0v1462h755v-159h-575v-459h543v-160h-543v-524h600v-160h-780z" />
    <glyph glyph-name="Edieresis" unicode="&#xcb;" horiz-adv-x="937" 
d="M252 1626v207h160v-207h-160zM584 1626v207h159v-207h-159zM111 0v1462h755v-159h-575v-459h543v-160h-543v-524h600v-160h-780z" />
    <glyph glyph-name="Igrave" unicode="&#xcc;" horiz-adv-x="411" 
d="M-53 1874h200l144 -291h-123zM113 0v1462h180v-1462h-180z" />
    <glyph glyph-name="Iacute" unicode="&#xcd;" horiz-adv-x="413" 
d="M121 1583l143 291h201l-221 -291h-123zM119 0v1462h180v-1462h-180z" />
    <glyph glyph-name="Icircumflex" unicode="&#xce;" horiz-adv-x="421" 
d="M-76 1583l207 291h158l205 -291h-160l-125 180l-125 -180h-160zM121 0v1462h180v-1462h-180z" />
    <glyph glyph-name="Idieresis" unicode="&#xcf;" horiz-adv-x="430" 
d="M-31 1626v207h160v-207h-160zM301 1626v207h160v-207h-160zM127 0v1462h180v-1462h-180z" />
    <glyph glyph-name="Eth" unicode="&#xd0;" horiz-adv-x="1079" 
d="M115 0v696h-119v135h119v631h391q131 0 226 -39q96 -39 150 -100t86 -161t41 -198q9 -97 9 -233q0 -731 -494 -731h-409zM295 147h188q90 0 156 37q65 37 101 91q88 135 89 443q0 309 -50 411q-24 50 -60 96q-74 90 -236 90h-188v-484h274v-135h-274v-549z" />
    <glyph glyph-name="Ntilde" unicode="&#xd1;" horiz-adv-x="1122" 
d="M858 1849q0 -87 -47 -157t-129 -70q-49 0 -134 39t-102 39q-66 0 -79 -92h-111q0 92 55 160t135 67q51 0 123 -39q86 -39 107 -39q54 0 72 92h110zM111 0v1462h233l483 -1220h4v1220h181v-1462h-248l-469 1184h-4v-1184h-180z" />
    <glyph glyph-name="Ograve" unicode="&#xd2;" horiz-adv-x="1064" 
d="M272 1874h201l143 -291h-122zM532 1491q117 0 204 -45t137 -115q128 -179 131 -600q0 -248 -40 -389t-91 -211q-50 -70 -137 -115t-204 -45q-118 0 -204 45t-137 115q-127 177 -130 600q1 248 41 389t89 211q50 70 137 115t204 45zM532 1343q-90 0 -148 -45t-87 -137
t-38 -189q-9 -96 -9 -240t9 -242t38 -189q57 -182 235 -182t236 182q29 92 38 189q9 96 9 240t-9 242q-23 247 -125 326q-59 45 -149 45z" />
    <glyph glyph-name="Oacute" unicode="&#xd3;" horiz-adv-x="1064" 
d="M451 1583l143 291h201l-222 -291h-122zM532 1491q117 0 204 -45t137 -115q128 -179 131 -600q0 -248 -40 -389t-91 -211q-50 -70 -137 -115t-204 -45q-118 0 -204 45t-137 115q-127 177 -130 600q1 248 41 389t89 211q50 70 137 115t204 45zM532 1343q-90 0 -148 -45
t-87 -137t-38 -189q-9 -96 -9 -240t9 -242t38 -189q57 -182 235 -182t236 182q29 92 38 189q9 96 9 240t-9 242q-23 247 -125 326q-59 45 -149 45z" />
    <glyph glyph-name="Ocircumflex" unicode="&#xd4;" horiz-adv-x="1064" 
d="M248 1583l207 291h157l205 -291h-160l-125 180l-124 -180h-160zM532 1491q117 0 204 -45t137 -115q128 -179 131 -600q0 -248 -40 -389t-91 -211q-50 -70 -137 -115t-204 -45q-118 0 -204 45t-137 115q-127 177 -130 600q1 248 41 389t89 211q50 70 137 115t204 45z
M532 1343q-90 0 -148 -45t-87 -137t-38 -189q-9 -96 -9 -240t9 -242t38 -189q57 -182 235 -182t236 182q29 92 38 189q9 96 9 240t-9 242q-23 247 -125 326q-59 45 -149 45z" />
    <glyph glyph-name="Otilde" unicode="&#xd5;" horiz-adv-x="1064" 
d="M829 1849q0 -87 -47 -157t-129 -70q-49 0 -134 39t-101 39q-66 0 -80 -92h-111q-1 92 55 160t136 67q51 0 123 -39q86 -39 106 -39q54 0 72 92h110zM532 1491q117 0 204 -45t137 -115q128 -179 131 -600q0 -248 -40 -389t-91 -211q-50 -70 -137 -115t-204 -45
q-118 0 -204 45t-137 115q-127 177 -130 600q1 248 41 389t89 211q50 70 137 115t204 45zM532 1343q-90 0 -148 -45t-87 -137t-38 -189q-9 -96 -9 -240t9 -242t38 -189q57 -182 235 -182t236 182q29 92 38 189q9 96 9 240t-9 242q-23 247 -125 326q-59 45 -149 45z" />
    <glyph glyph-name="Odieresis" unicode="&#xd6;" horiz-adv-x="1064" 
d="M289 1626v207h160v-207h-160zM621 1626v207h159v-207h-159zM532 1491q117 0 204 -45t137 -115q128 -179 131 -600q0 -248 -40 -389t-91 -211q-50 -70 -137 -115t-204 -45q-118 0 -204 45t-137 115q-127 177 -130 600q1 248 41 389t89 211q50 70 137 115t204 45zM532 1343
q-90 0 -148 -45t-87 -137t-38 -189q-9 -96 -9 -240t9 -242t38 -189q57 -182 235 -182t236 182q29 92 38 189q9 96 9 240t-9 242q-23 247 -125 326q-59 45 -149 45z" />
    <glyph glyph-name="multiply" unicode="&#xd7;" horiz-adv-x="1191" 
d="M965 61l-369 369l-371 -369l-86 86l371 371l-371 371l86 86l371 -369l369 369l88 -86l-371 -371l371 -371z" />
    <glyph glyph-name="Oslash" unicode="&#xd8;" horiz-adv-x="1064" 
d="M538 1343q-96 0 -154 -45t-87 -137t-38 -189t-9 -241q0 -279 43 -418l403 969q-62 61 -158 61zM527 119q184 0 241 182q29 92 38 189t9 241q0 287 -43 420l-401 -971q61 -61 156 -61zM61 731q1 248 41 389t89 211q115 160 353 160q128 0 216 -57l49 120l111 -45l-66 -157
q150 -184 150 -621q0 -248 -40 -389t-91 -211q-50 -70 -137 -115t-213 -45t-216 58l-53 -127l-111 49l68 164q-150 174 -150 616z" />
    <glyph glyph-name="Ugrave" unicode="&#xd9;" horiz-adv-x="1054" 
d="M264 1874h201l143 -291h-123zM98 434v1028h181v-1028q0 -164 57 -240t192 -75q135 0 192 77q56 77 56 238v1028h180v-1028q0 -215 -110 -339t-320 -124q-428 0 -428 463z" />
    <glyph glyph-name="Uacute" unicode="&#xda;" horiz-adv-x="1054" 
d="M453 1583l143 291h201l-222 -291h-122zM98 434v1028h181v-1028q0 -164 57 -240t192 -75q135 0 192 77q56 77 56 238v1028h180v-1028q0 -215 -110 -339t-320 -124q-428 0 -428 463z" />
    <glyph glyph-name="Ucircumflex" unicode="&#xdb;" horiz-adv-x="1054" 
d="M246 1583l207 291h157l205 -291h-160l-125 180l-124 -180h-160zM98 434v1028h181v-1028q0 -164 57 -240t192 -75q135 0 192 77q56 77 56 238v1028h180v-1028q0 -215 -110 -339t-320 -124q-428 0 -428 463z" />
    <glyph glyph-name="Udieresis" unicode="&#xdc;" horiz-adv-x="1054" 
d="M281 1626v207h159v-207h-159zM612 1626v207h160v-207h-160zM98 434v1028h181v-1028q0 -164 57 -240t192 -75q135 0 192 77q56 77 56 238v1028h180v-1028q0 -215 -110 -339t-320 -124q-428 0 -428 463z" />
    <glyph glyph-name="Yacute" unicode="&#xdd;" horiz-adv-x="913" 
d="M385 1583l143 291h201l-221 -291h-123zM547 0h-180v573l-387 889h198l279 -684l288 684h189l-387 -889v-573z" />
    <glyph glyph-name="Thorn" unicode="&#xde;" horiz-adv-x="1003" 
d="M111 0v1462h180v-286h192q148 0 233 -33q36 -14 81 -46q137 -97 138 -359q1 -183 -115 -295t-306 -111h-223v-332h-180zM291 1028v-549h215q104 0 173 73t69 212q0 264 -254 264h-203z" />
    <glyph glyph-name="germandbls" unicode="&#xdf;" horiz-adv-x="933" 
d="M94 0v1047q0 209 80 321t283 111q156 0 254 -84t98 -250q0 -107 -56 -195t-161 -106v-4q139 0 216 -110t77 -282t-93 -310t-274 -138h-121v147h119q72 1 117 57t58 121t14 134q-1 141 -59 224t-161 83q-59 0 -82 -6v141h41q82 0 138 56q55 57 55 155t-41 165t-139 66
q-141 0 -175 -118q-16 -57 -16 -150v-1075h-172z" />
    <glyph glyph-name="agrave" unicode="&#xe0;" horiz-adv-x="901" 
d="M219 1538h201l143 -291h-123zM248 766h-172q0 188 87 274t281 86q96 0 163 -24t100 -52q33 -30 50 -80t19 -80t2 -79v-612q0 -33 1 -46t13 -27t40 -15q26 0 40 10v-123q-72 -10 -102 -10q-51 0 -100 19q-48 19 -54 122h-4q-40 -74 -112 -116t-152 -42q-150 0 -224 84
t-75 236q0 240 207 303l231 70q88 27 107 57q18 31 18 108q0 162 -176 162q-188 0 -188 -215v-10zM606 315v283q-38 -37 -150 -73t-143 -56q-84 -53 -84 -174q0 -188 156 -189q89 0 155 62t66 147z" />
    <glyph glyph-name="aacute" unicode="&#xe1;" horiz-adv-x="901" 
d="M375 1247l143 291h201l-221 -291h-123zM248 766h-172q0 188 87 274t281 86q96 0 163 -24t100 -52q33 -30 50 -80t19 -80t2 -79v-612q0 -33 1 -46t13 -27t40 -15q26 0 40 10v-123q-72 -10 -102 -10q-51 0 -100 19q-48 19 -54 122h-4q-40 -74 -112 -116t-152 -42
q-150 0 -224 84t-75 236q0 240 207 303l231 70q88 27 107 57q18 31 18 108q0 162 -176 162q-188 0 -188 -215v-10zM606 315v283q-38 -37 -150 -73t-143 -56q-84 -53 -84 -174q0 -188 156 -189q89 0 155 62t66 147z" />
    <glyph glyph-name="acircumflex" unicode="&#xe2;" horiz-adv-x="901" 
d="M162 1247l207 291h157l205 -291h-160l-125 180l-124 -180h-160zM248 766h-172q0 188 87 274t281 86q96 0 163 -24t100 -52q33 -30 50 -80t19 -80t2 -79v-612q0 -33 1 -46t13 -27t40 -15q26 0 40 10v-123q-72 -10 -102 -10q-51 0 -100 19q-48 19 -54 122h-4
q-40 -74 -112 -116t-152 -42q-150 0 -224 84t-75 236q0 240 207 303l231 70q88 27 107 57q18 31 18 108q0 162 -176 162q-188 0 -188 -215v-10zM606 315v283q-38 -37 -150 -73t-143 -56q-84 -53 -84 -174q0 -188 156 -189q89 0 155 62t66 147z" />
    <glyph glyph-name="atilde" unicode="&#xe3;" horiz-adv-x="901" 
d="M739 1513q0 -87 -47 -157t-129 -70q-49 0 -134 39t-101 39q-66 0 -80 -92h-111q-1 92 55 160t136 67q51 0 123 -39q86 -39 106 -39q54 0 72 92h110zM248 766h-172q0 188 87 274t281 86q96 0 163 -24t100 -52q33 -30 50 -80t19 -80t2 -79v-612q0 -33 1 -46t13 -27t40 -15
q26 0 40 10v-123q-72 -10 -102 -10q-51 0 -100 19q-48 19 -54 122h-4q-40 -74 -112 -116t-152 -42q-150 0 -224 84t-75 236q0 240 207 303l231 70q88 27 107 57q18 31 18 108q0 162 -176 162q-188 0 -188 -215v-10zM606 315v283q-38 -37 -150 -73t-143 -56q-84 -53 -84 -174
q0 -188 156 -189q89 0 155 62t66 147z" />
    <glyph glyph-name="adieresis" unicode="&#xe4;" horiz-adv-x="901" 
d="M197 1290v207h159v-207h-159zM528 1290v207h160v-207h-160zM248 766h-172q0 188 87 274t281 86q96 0 163 -24t100 -52q33 -30 50 -80t19 -80t2 -79v-612q0 -33 1 -46t13 -27t40 -15q26 0 40 10v-123q-72 -10 -102 -10q-51 0 -100 19q-48 19 -54 122h-4q-40 -74 -112 -116
t-152 -42q-150 0 -224 84t-75 236q0 240 207 303l231 70q88 27 107 57q18 31 18 108q0 162 -176 162q-188 0 -188 -215v-10zM606 315v283q-38 -37 -150 -73t-143 -56q-84 -53 -84 -174q0 -188 156 -189q89 0 155 62t66 147z" />
    <glyph glyph-name="aring" unicode="&#xe5;" horiz-adv-x="901" 
d="M240 1413q0 87 58 145t144 58t144 -58t59 -144q0 -86 -58 -145q-59 -59 -145 -59t-144 58t-58 145zM326 1413q0 -47 34 -82t82 -35q47 0 82 35t35 82t-35 82t-82 35q-48 0 -82 -35t-34 -82zM248 766h-172q0 188 87 274t281 86q96 0 163 -24t100 -52q33 -30 50 -80t19 -80
t2 -79v-612q0 -33 1 -46t13 -27t40 -15q26 0 40 10v-123q-72 -10 -102 -10q-51 0 -100 19q-48 19 -54 122h-4q-40 -74 -112 -116t-152 -42q-150 0 -224 84t-75 236q0 240 207 303l231 70q88 27 107 57q18 31 18 108q0 162 -176 162q-188 0 -188 -215v-10zM606 315v283
q-38 -37 -150 -73t-143 -56q-84 -53 -84 -174q0 -188 156 -189q89 0 155 62t66 147z" />
    <glyph glyph-name="ae" unicode="&#xe6;" horiz-adv-x="1370" 
d="M756 664h372v59q0 111 -42 189t-140 79q-59 0 -100 -34q-42 -34 -66 -103t-24 -149v-41zM1128 360h172q0 -112 -68 -237q-36 -66 -109 -109t-161 -43t-149 25t-101 73t-53 103h-4q-94 -201 -305 -201q-137 0 -219 86q-82 87 -82 219q0 254 209 318l256 78q47 16 61 50
t15 107q0 162 -164 162q-176 0 -176 -215v-10h-172q0 188 87 274t273 86q106 0 175 -41t87 -110h5q29 67 103 109t160 42t152 -34t102 -82q87 -118 87 -412v-70h-559q0 -246 42 -324q19 -38 57 -68t94 -30q145 0 178 178q7 37 7 76zM590 356v215h-4q-12 -21 -132 -57
q-121 -36 -135 -43q-90 -35 -90 -174q0 -82 39 -136q39 -55 111 -55q172 -1 206 187q5 32 5 63z" />
    <glyph glyph-name="ccedilla" unicode="&#xe7;" horiz-adv-x="839" 
d="M369 -344q113 0 112 80q0 35 -28 55q-59 41 -150 6l-31 37l103 141q-162 17 -244 145t-82 415q0 592 391 591q86 0 152 -26t102 -65q92 -96 97 -271h-173q0 92 -41 160q-42 68 -133 67q-44 0 -78 -15q-34 -14 -68 -60q-67 -90 -69 -379q0 -225 45 -322q20 -43 62 -76
t108 -33q64 0 106 46t55 103q13 56 13 126h173q1 -113 -45 -213t-144 -158q-57 -33 -143 -37l-60 -84l4 -4q104 27 177 -27q49 -36 49 -112t-66 -126t-168 -50t-188 41l31 70l24 -7q81 -18 107 -18z" />
    <glyph glyph-name="egrave" unicode="&#xe8;" horiz-adv-x="872" 
d="M197 1538h200l144 -291h-123zM240 664h391v59q0 113 -43 191t-148 77q-63 0 -106 -34q-42 -34 -68 -106t-26 -146v-41zM811 528h-578q1 -208 21 -260q20 -51 42 -89q41 -71 148 -73q57 0 107 33t73 145q7 38 7 76h172q0 -93 -35 -167t-74 -118q-38 -44 -106 -74t-154 -30
q-201 -1 -291 137t-90 427q0 592 391 591q96 0 167 -34t108 -82q92 -122 92 -412v-70z" />
    <glyph glyph-name="eacute" unicode="&#xe9;" horiz-adv-x="872" 
d="M379 1247l143 291h201l-221 -291h-123zM240 664h391v59q0 113 -43 191t-148 77q-63 0 -106 -34q-42 -34 -68 -106t-26 -146v-41zM811 528h-578q1 -208 21 -260q20 -51 42 -89q41 -71 148 -73q57 0 107 33t73 145q7 38 7 76h172q0 -93 -35 -167t-74 -118q-38 -44 -106 -74
t-154 -30q-201 -1 -291 137t-90 427q0 592 391 591q96 0 167 -34t108 -82q92 -122 92 -412v-70z" />
    <glyph glyph-name="ecircumflex" unicode="&#xea;" horiz-adv-x="872" 
d="M160 1247l207 291h157l205 -291h-160l-125 180l-125 -180h-159zM240 664h391v59q0 113 -43 191t-148 77q-63 0 -106 -34q-42 -34 -68 -106t-26 -146v-41zM811 528h-578q1 -208 21 -260q20 -51 42 -89q41 -71 148 -73q57 0 107 33t73 145q7 38 7 76h172q0 -93 -35 -167
t-74 -118q-38 -44 -106 -74t-154 -30q-201 -1 -291 137t-90 427q0 592 391 591q96 0 167 -34t108 -82q92 -122 92 -412v-70z" />
    <glyph glyph-name="edieresis" unicode="&#xeb;" horiz-adv-x="872" 
d="M201 1290v207h159v-207h-159zM532 1290v207h160v-207h-160zM240 664h391v59q0 113 -43 191t-148 77q-63 0 -106 -34q-42 -34 -68 -106t-26 -146v-41zM811 528h-578q1 -208 21 -260q20 -51 42 -89q41 -71 148 -73q57 0 107 33t73 145q7 38 7 76h172q0 -93 -35 -167
t-74 -118q-38 -44 -106 -74t-154 -30q-201 -1 -291 137t-90 427q0 592 391 591q96 0 167 -34t108 -82q92 -122 92 -412v-70z" />
    <glyph glyph-name="igrave" unicode="&#xec;" horiz-adv-x="397" 
d="M-63 1538h200l144 -291h-123zM111 0v1098h172v-1098h-172z" />
    <glyph glyph-name="iacute" unicode="&#xed;" horiz-adv-x="397" 
d="M115 1247l143 291h201l-221 -291h-123zM115 0v1098h172v-1098h-172z" />
    <glyph glyph-name="icircumflex" unicode="&#xee;" horiz-adv-x="405" 
d="M-82 1247l207 291h158l204 -291h-159l-125 180l-125 -180h-160zM117 0v1098h172v-1098h-172z" />
    <glyph glyph-name="idieresis" unicode="&#xef;" horiz-adv-x="413" 
d="M-39 1290v207h160v-207h-160zM293 1290v207h160v-207h-160zM121 0v1098h172v-1098h-172z" />
    <glyph glyph-name="eth" unicode="&#xf0;" horiz-adv-x="888" 
d="M440 963q-211 0 -211 -414q0 -326 105 -409q43 -34 106 -34q125 0 172 118t47 325q0 414 -219 414zM840 549q0 -578 -396 -578t-395 578q0 398 201 506q80 43 170 43t145 -35h4q-96 147 -184 240l-149 -84l-78 86l145 81q-43 43 -158 138l131 57q37 -29 148 -125l151 86
l78 -86l-143 -82q166 -166 248 -358t82 -467z" />
    <glyph glyph-name="ntilde" unicode="&#xf1;" 
d="M768 1513q0 -87 -47 -157t-129 -70q-49 0 -134 39t-102 39q-66 0 -80 -92h-110q0 92 55 160t135 67q51 0 123 -39q86 -39 107 -39q53 0 71 92h111zM106 0v1098h164v-129h4q35 73 110 115t157 42t140 -26t86 -57q62 -71 62 -265v-778h-172v758q0 159 -71 200
q-36 20 -104 20t-136 -55q-68 -56 -67 -165v-758h-173z" />
    <glyph glyph-name="ograve" unicode="&#xf2;" horiz-adv-x="888" 
d="M176 1538h201l143 -291h-123zM659 549q0 330 -106 408q-45 34 -111 34q-127 0 -173 -134q-38 -112 -39 -259q0 -147 8 -220q8 -72 30 -138q46 -133 172 -134q125 0 172 118t47 325zM49 549q0 578 395 577q396 0 396 -578t-396 -577q-396 0 -395 578z" />
    <glyph glyph-name="oacute" unicode="&#xf3;" horiz-adv-x="888" 
d="M377 1247l143 291h201l-221 -291h-123zM659 549q0 330 -106 408q-45 34 -111 34q-127 0 -173 -134q-38 -112 -39 -259q0 -147 8 -220q8 -72 30 -138q46 -133 172 -134q125 0 172 118t47 325zM49 549q0 578 395 577q396 0 396 -578t-396 -577q-396 0 -395 578z" />
    <glyph glyph-name="ocircumflex" unicode="&#xf4;" horiz-adv-x="888" 
d="M160 1247l207 291h157l205 -291h-160l-125 180l-125 -180h-159zM659 549q0 330 -106 408q-45 34 -111 34q-127 0 -173 -134q-38 -112 -39 -259q0 -147 8 -220q8 -72 30 -138q46 -133 172 -134q125 0 172 118t47 325zM49 549q0 578 395 577q396 0 396 -578t-396 -577
q-396 0 -395 578z" />
    <glyph glyph-name="otilde" unicode="&#xf5;" horiz-adv-x="888" 
d="M745 1513q0 -87 -47 -157t-129 -70q-49 0 -134 39t-101 39q-63 0 -80 -92h-111q-1 92 55 160t136 67q51 0 123 -39q86 -39 106 -39q54 0 72 92h110zM659 549q0 330 -106 408q-45 34 -111 34q-127 0 -173 -134q-38 -112 -39 -259q0 -147 8 -220q8 -72 30 -138
q46 -133 172 -134q125 0 172 118t47 325zM49 549q0 578 395 577q396 0 396 -578t-396 -577q-396 0 -395 578z" />
    <glyph glyph-name="odieresis" unicode="&#xf6;" horiz-adv-x="888" 
d="M199 1290v207h159v-207h-159zM530 1290v207h160v-207h-160zM659 549q0 330 -106 408q-45 34 -111 34q-127 0 -173 -134q-38 -112 -39 -259q0 -147 8 -220q8 -72 30 -138q46 -133 172 -134q125 0 172 118t47 325zM49 549q0 578 395 577q396 0 396 -578t-396 -577
q-396 0 -395 578z" />
    <glyph glyph-name="divide" unicode="&#xf7;" horiz-adv-x="1204" 
d="M84 451v135h1036v-135h-1036zM487 950q0 47 34 81t81 34t81 -34t34 -81t-34 -81q-34 -33 -81 -33t-81 34t-34 80zM487 86q0 47 34 81t81 34t81 -34t34 -81t-34 -81t-81 -34t-81 34t-34 81z" />
    <glyph glyph-name="oslash" unicode="&#xf8;" horiz-adv-x="888" 
d="M440 106q125 0 172 118q48 118 48 312t-35 298l-293 -689q41 -39 108 -39zM442 991q-127 0 -173 -134q-38 -112 -39 -303q-1 -190 34 -296l293 690q-49 43 -115 43zM49 549q0 578 395 577q100 0 172 -36l54 124l98 -43l-61 -145q133 -145 133 -477q0 -578 -396 -578
q-100 0 -172 37l-55 -129l-96 39l65 156q-137 137 -137 475z" />
    <glyph glyph-name="ugrave" unicode="&#xf9;" 
d="M197 1538h200l144 -291h-123zM829 1098v-1098h-163v129h-4q-35 -74 -110 -116t-157 -42t-140 26q-58 25 -86 57q-59 67 -63 265v779h173v-758q0 -158 71 -201q36 -20 104 -20t136 56t67 165v758h172z" />
    <glyph glyph-name="uacute" unicode="&#xfa;" 
d="M393 1247l144 291h200l-221 -291h-123zM829 1098v-1098h-163v129h-4q-35 -74 -110 -116t-157 -42t-140 26q-58 25 -86 57q-59 67 -63 265v779h173v-758q0 -158 71 -201q36 -20 104 -20t136 56t67 165v758h172z" />
    <glyph glyph-name="ucircumflex" unicode="&#xfb;" 
d="M184 1247l207 291h158l205 -291h-160l-125 180l-125 -180h-160zM829 1098v-1098h-163v129h-4q-35 -74 -110 -116t-157 -42t-140 26q-58 25 -86 57q-59 67 -63 265v779h173v-758q0 -158 71 -201q36 -20 104 -20t136 56t67 165v758h172z" />
    <glyph glyph-name="udieresis" unicode="&#xfc;" 
d="M221 1290v207h160v-207h-160zM553 1290v207h160v-207h-160zM829 1098v-1098h-163v129h-4q-35 -74 -110 -116t-157 -42t-140 26q-58 25 -86 57q-59 67 -63 265v779h173v-758q0 -158 71 -201q36 -20 104 -20t136 56t67 165v758h172z" />
    <glyph glyph-name="yacute" unicode="&#xfd;" horiz-adv-x="794" 
d="M342 1247l143 291h201l-221 -291h-123zM158 -225q94 0 135 106l33 96l-324 1121h188l218 -881h4l192 881h189l-318 -1172q-28 -100 -62 -165q-65 -121 -217 -121q-46 0 -139 6v135q37 -6 101 -6z" />
    <glyph glyph-name="thorn" unicode="&#xfe;" horiz-adv-x="919" 
d="M256 549q0 -430 221 -430q113 -1 157 111t44 325t-45 318t-166 105t-166 -108t-45 -321zM94 -360v1822h172v-489h4q18 65 88 109t142 44q358 0 358 -557q0 -288 -108 -459q-39 -60 -104 -100q-66 -40 -144 -39q-78 0 -141 41q-62 41 -91 113h-4v-485h-172z" />
    <glyph glyph-name="ydieresis" unicode="&#xff;" horiz-adv-x="794" 
d="M166 1290v207h160v-207h-160zM498 1290v207h159v-207h-159zM158 -225q94 0 135 106l33 96l-324 1121h188l218 -881h4l192 881h189l-318 -1172q-28 -100 -62 -165q-65 -121 -217 -121q-46 0 -139 6v135q37 -6 101 -6z" />
    <glyph glyph-name="Amacron" unicode="&#x100;" horiz-adv-x="1105" 
d="M297 1673v111h541v-111h-541zM25 0l421 1462h242l393 -1462h-188l-105 401h-466l-109 -401h-188zM561 1255l-203 -706h394l-187 706h-4z" />
    <glyph glyph-name="amacron" unicode="&#x101;" horiz-adv-x="901" 
d="M178 1337v111h541v-111h-541zM248 766h-172q0 188 87 274t281 86q96 0 163 -24t100 -52q33 -30 50 -80t19 -80t2 -79v-612q0 -33 1 -46t13 -27t40 -15q26 0 40 10v-123q-72 -10 -102 -10q-51 0 -100 19q-48 19 -54 122h-4q-40 -74 -112 -116t-152 -42q-150 0 -224 84
t-75 236q0 240 207 303l231 70q88 27 107 57q18 31 18 108q0 162 -176 162q-188 0 -188 -215v-10zM606 315v283q-38 -37 -150 -73t-143 -56q-84 -53 -84 -174q0 -188 156 -189q89 0 155 62t66 147z" />
    <glyph glyph-name="Abreve" unicode="&#x102;" horiz-adv-x="1105" 
d="M313 1823h99q0 -53 50 -95t107 -42t108 41q50 42 50 96h98q0 -88 -60 -174q-59 -86 -195 -86t-196 86t-61 174zM25 0l421 1462h242l393 -1462h-188l-105 401h-466l-109 -401h-188zM561 1255l-203 -706h394l-187 706h-4z" />
    <glyph glyph-name="abreve" unicode="&#x103;" horiz-adv-x="901" 
d="M186 1524h99q0 -54 50 -96t107 -42t108 42q50 42 50 96h98q0 -88 -60 -174t-196 -86t-196 86t-60 174zM248 766h-172q0 188 87 274t281 86q96 0 163 -24t100 -52q33 -30 50 -80t19 -80t2 -79v-612q0 -33 1 -46t13 -27t40 -15q26 0 40 10v-123q-72 -10 -102 -10
q-51 0 -100 19q-48 19 -54 122h-4q-40 -74 -112 -116t-152 -42q-150 0 -224 84t-75 236q0 240 207 303l231 70q88 27 107 57q18 31 18 108q0 162 -176 162q-188 0 -188 -215v-10zM606 315v283q-38 -37 -150 -73t-143 -56q-84 -53 -84 -174q0 -188 156 -189q89 0 155 62
t66 147z" />
    <glyph glyph-name="Aogonek" unicode="&#x104;" horiz-adv-x="1073" 
d="M561 1255l-203 -706h394l-187 706h-4zM870 -334q68 0 136 33l36 -72q-94 -57 -208 -57q-193 0 -193 160q0 152 252 270l-105 401h-466l-109 -401h-188l421 1462h242l393 -1462h-80q-125 -92 -169 -150t-44 -106q0 -78 82 -78z" />
    <glyph glyph-name="aogonek" unicode="&#x105;" horiz-adv-x="901" 
d="M606 315v283q-38 -37 -150 -73t-143 -56q-84 -53 -84 -174q0 -188 156 -189q89 0 155 62t66 147zM348 -29q-150 0 -224 84t-75 236q0 240 207 303l231 70q88 27 107 57q18 31 18 108q0 162 -176 162q-188 0 -188 -215v-10h-172q0 188 87 274t281 86q96 0 163 -24t100 -52
q33 -30 50 -80t19 -80t2 -79v-612q0 -33 1 -46t13 -27t40 -15q26 0 40 10v-123q-12 -3 -55 -8q-198 -144 -199 -246q0 -78 82 -78q68 0 136 33l36 -72q-94 -57 -208 -57q-193 0 -193 160q0 150 236 262q-87 17 -91 137h-4q-40 -74 -112 -116t-152 -42z" />
    <glyph glyph-name="Cacute" unicode="&#x106;" horiz-adv-x="1017" 
d="M471 1583l143 291h201l-221 -291h-123zM532 1491q420 0 433 -455h-189q-12 307 -244 307q-178 0 -235 -182q-29 -92 -38 -189q-9 -96 -9 -240t9 -242t38 -189q57 -182 226 -182q168 0 218 127q43 105 47 256h189q-15 -236 -119 -383t-326 -148q-120 0 -208 45t-138 115
q-49 70 -78 175q-30 104 -38 202q-32 390 42 649q30 104 79 174t137 115t204 45z" />
    <glyph glyph-name="cacute" unicode="&#x107;" horiz-adv-x="839" 
d="M381 1247l143 291h201l-221 -291h-123zM791 764h-173q0 92 -41 160q-42 68 -133 67q-44 0 -78 -15q-34 -14 -68 -60q-67 -90 -69 -379q0 -225 45 -322q20 -43 62 -76t108 -33q64 0 106 46t55 103q13 56 13 126h173q0 -145 -76 -268q-39 -63 -113 -103t-172 -39
q-201 -1 -291 137t-90 427q0 592 391 591q86 0 152 -26q165 -66 191 -250q8 -43 8 -86z" />
    <glyph glyph-name="Ccircumflex" unicode="&#x108;" horiz-adv-x="1017" 
d="M252 1583l207 291h157l205 -291h-159l-125 180l-125 -180h-160zM532 1491q420 0 433 -455h-189q-12 307 -244 307q-178 0 -235 -182q-29 -92 -38 -189q-9 -96 -9 -240t9 -242t38 -189q57 -182 226 -182q168 0 218 127q43 105 47 256h189q-15 -236 -119 -383t-326 -148
q-120 0 -208 45t-138 115q-49 70 -78 175q-30 104 -38 202q-32 390 42 649q30 104 79 174t137 115t204 45z" />
    <glyph glyph-name="ccircumflex" unicode="&#x109;" horiz-adv-x="839" 
d="M162 1247l207 291h157l205 -291h-160l-125 180l-124 -180h-160zM791 764h-173q0 92 -41 160q-42 68 -133 67q-44 0 -78 -15q-34 -14 -68 -60q-67 -90 -69 -379q0 -225 45 -322q20 -43 62 -76t108 -33q64 0 106 46t55 103q13 56 13 126h173q0 -145 -76 -268
q-39 -63 -113 -103t-172 -39q-201 -1 -291 137t-90 427q0 592 391 591q86 0 152 -26q165 -66 191 -250q8 -43 8 -86z" />
    <glyph glyph-name="Cdotaccent" unicode="&#x10a;" horiz-adv-x="1017" 
d="M455 1626v207h159v-207h-159zM532 1491q420 0 433 -455h-189q-12 307 -244 307q-178 0 -235 -182q-29 -92 -38 -189q-9 -96 -9 -240t9 -242t38 -189q57 -182 226 -182q168 0 218 127q43 105 47 256h189q-15 -236 -119 -383t-326 -148q-120 0 -208 45t-138 115
q-49 70 -78 175q-30 104 -38 202q-32 390 42 649q30 104 79 174t137 115t204 45z" />
    <glyph glyph-name="cdotaccent" unicode="&#x10b;" horiz-adv-x="839" 
d="M365 1290v207h159v-207h-159zM791 764h-173q0 92 -41 160q-42 68 -133 67q-44 0 -78 -15q-34 -14 -68 -60q-67 -90 -69 -379q0 -225 45 -322q20 -43 62 -76t108 -33q64 0 106 46t55 103q13 56 13 126h173q0 -145 -76 -268q-39 -63 -113 -103t-172 -39q-201 -1 -291 137
t-90 427q0 592 391 591q86 0 152 -26q165 -66 191 -250q8 -43 8 -86z" />
    <glyph glyph-name="Ccaron" unicode="&#x10c;" horiz-adv-x="1017" 
d="M815 1874l-207 -291h-157l-205 291h160l124 -180l125 180h160zM532 1491q420 0 433 -455h-189q-12 307 -244 307q-178 0 -235 -182q-29 -92 -38 -189q-9 -96 -9 -240t9 -242t38 -189q57 -182 226 -182q168 0 218 127q43 105 47 256h189q-15 -236 -119 -383t-326 -148
q-120 0 -208 45t-138 115q-49 70 -78 175q-30 104 -38 202q-32 390 42 649q30 104 79 174t137 115t204 45z" />
    <glyph glyph-name="ccaron" unicode="&#x10d;" horiz-adv-x="839" 
d="M719 1538l-207 -291h-158l-204 291h159l125 -180l125 180h160zM791 764h-173q0 92 -41 160q-42 68 -133 67q-44 0 -78 -15q-34 -14 -68 -60q-67 -90 -69 -379q0 -225 45 -322q20 -43 62 -76t108 -33q64 0 106 46t55 103q13 56 13 126h173q0 -145 -76 -268
q-39 -63 -113 -103t-172 -39q-201 -1 -291 137t-90 427q0 592 391 591q86 0 152 -26q165 -66 191 -250q8 -43 8 -86z" />
    <glyph glyph-name="Dcaron" unicode="&#x10e;" horiz-adv-x="1075" 
d="M772 1874l-207 -291h-157l-205 291h159l125 -180l125 180h160zM291 1315v-1168h188q90 0 156 37q65 37 101 91q88 135 89 443q0 309 -50 411q-24 50 -60 96q-74 90 -236 90h-188zM111 0v1462h391q131 0 226 -39q96 -39 150 -100t86 -161t41 -198q9 -97 9 -233
q0 -731 -494 -731h-409z" />
    <glyph glyph-name="dcaron" unicode="&#x10f;" horiz-adv-x="1105" 
d="M913 1171l54 291h178l-121 -291h-111zM242 549q0 -213 44 -322t166 -109t166 110q45 108 46 321q0 430 -222 430q-112 -1 -156 -109t-44 -321zM825 1462v-1462h-163v135h-5q-18 -66 -85 -115t-152 -49q-358 0 -359 578q0 578 347 577q76 0 144 -42t97 -111h4v489h172z
" />
    <glyph glyph-name="Dcroat" unicode="&#x110;" horiz-adv-x="1079" 
d="M115 0v696h-119v135h119v631h391q131 0 226 -39q96 -39 150 -100t86 -161t41 -198q9 -97 9 -233q0 -731 -494 -731h-409zM295 147h188q90 0 156 37q65 37 101 91q88 135 89 443q0 309 -50 411q-24 50 -60 96q-74 90 -236 90h-188v-484h274v-135h-274v-549z" />
    <glyph glyph-name="dcroat" unicode="&#x111;" horiz-adv-x="964" 
d="M242 549q0 -213 44 -322t166 -109t166 110q45 108 46 321q0 430 -222 430q-112 -1 -156 -109t-44 -321zM825 1210v-1210h-163v135h-5q-18 -66 -85 -115t-152 -49q-358 0 -359 578q0 578 347 577q76 0 144 -42t97 -111h4v237h-209v101h209v151h172v-151h160v-101h-160z
" />
    <glyph glyph-name="Emacron" unicode="&#x112;" horiz-adv-x="937" 
d="M227 1673v111h541v-111h-541zM111 0v1462h755v-159h-575v-459h543v-160h-543v-524h600v-160h-780z" />
    <glyph glyph-name="emacron" unicode="&#x113;" horiz-adv-x="872" 
d="M176 1337v111h541v-111h-541zM240 664h391v59q0 113 -43 191t-148 77q-63 0 -106 -34q-42 -34 -68 -106t-26 -146v-41zM811 528h-578q1 -208 21 -260q20 -51 42 -89q41 -71 148 -73q57 0 107 33t73 145q7 38 7 76h172q0 -93 -35 -167t-74 -118q-38 -44 -106 -74t-154 -30
q-201 -1 -291 137t-90 427q0 592 391 591q96 0 167 -34t108 -82q92 -122 92 -412v-70z" />
    <glyph glyph-name="Ebreve" unicode="&#x114;" horiz-adv-x="937" 
d="M227 1860h99q0 -54 50 -96t107 -42t108 42q50 42 50 96h98q0 -88 -60 -174q-59 -86 -195 -86t-196 86t-61 174zM111 0v1462h755v-159h-575v-459h543v-160h-543v-524h600v-160h-780z" />
    <glyph glyph-name="ebreve" unicode="&#x115;" horiz-adv-x="872" 
d="M193 1524h98q0 -54 50 -96q49 -42 107 -42t108 42t50 96h99q-1 -88 -61 -174t-195 -86t-196 86q-60 86 -60 174zM240 664h391v59q0 113 -43 191t-148 77q-63 0 -106 -34q-42 -34 -68 -106t-26 -146v-41zM811 528h-578q1 -208 21 -260q20 -51 42 -89q41 -71 148 -73
q57 0 107 33t73 145q7 38 7 76h172q0 -93 -35 -167t-74 -118q-38 -44 -106 -74t-154 -30q-201 -1 -291 137t-90 427q0 592 391 591q96 0 167 -34t108 -82q92 -122 92 -412v-70z" />
    <glyph glyph-name="Edotaccent" unicode="&#x116;" horiz-adv-x="937" 
d="M412 1626v207h159v-207h-159zM111 0v1462h755v-159h-575v-459h543v-160h-543v-524h600v-160h-780z" />
    <glyph glyph-name="edotaccent" unicode="&#x117;" horiz-adv-x="872" 
d="M365 1290v207h159v-207h-159zM240 664h391v59q0 113 -43 191t-148 77q-63 0 -106 -34q-42 -34 -68 -106t-26 -146v-41zM811 528h-578q1 -208 21 -260q20 -51 42 -89q41 -71 148 -73q57 0 107 33t73 145q7 38 7 76h172q0 -93 -35 -167t-74 -118q-38 -44 -106 -74t-154 -30
q-201 -1 -291 137t-90 427q0 592 391 591q96 0 167 -34t108 -82q92 -122 92 -412v-70z" />
    <glyph glyph-name="Eogonek" unicode="&#x118;" 
d="M891 0h-41q-125 -92 -169 -150t-44 -106q0 -78 82 -78q68 0 135 33l37 -72q-94 -57 -209 -57q-193 0 -193 160q0 152 252 270h-630v1462h755v-159h-575v-459h543v-160h-543v-524h600v-160z" />
    <glyph glyph-name="eogonek" unicode="&#x119;" horiz-adv-x="872" 
d="M240 664h391v59q0 113 -43 191t-148 77q-63 0 -106 -34q-42 -34 -68 -106t-26 -146v-41zM811 528h-578q1 -208 21 -260q20 -51 42 -89q41 -71 148 -73q57 0 107 33t73 145q7 38 7 76h172q0 -86 -44 -185t-141 -161q-25 -12 -38 -18q-70 -49 -103 -80q-98 -98 -98 -174
t82 -76q68 0 135 33l37 -72q-94 -57 -209 -57q-193 0 -193 160q0 131 191 241q-195 5 -282 141t-87 423q0 592 391 591q96 0 167 -34t108 -82q92 -122 92 -412v-70z" />
    <glyph glyph-name="Ecaron" unicode="&#x11a;" horiz-adv-x="937" 
d="M774 1874l-207 -291h-157l-205 291h160l124 -180l125 180h160zM111 0v1462h755v-159h-575v-459h543v-160h-543v-524h600v-160h-780z" />
    <glyph glyph-name="ecaron" unicode="&#x11b;" horiz-adv-x="872" 
d="M729 1538l-207 -291h-157l-205 291h159l125 -180l125 180h160zM240 664h391v59q0 113 -43 191t-148 77q-63 0 -106 -34q-42 -34 -68 -106t-26 -146v-41zM811 528h-578q1 -208 21 -260q20 -51 42 -89q41 -71 148 -73q57 0 107 33t73 145q7 38 7 76h172q0 -93 -35 -167
t-74 -118q-38 -44 -106 -74t-154 -30q-201 -1 -291 137t-90 427q0 592 391 591q96 0 167 -34t108 -82q92 -122 92 -412v-70z" />
    <glyph glyph-name="Gcircumflex" unicode="&#x11c;" horiz-adv-x="1062" 
d="M254 1583l207 291h157l205 -291h-159l-125 180l-125 -180h-160zM965 1057h-189q-18 287 -244 286q-178 0 -235 -182q-29 -92 -38 -189q-9 -96 -9 -240t9 -242t38 -189q57 -182 235 -182q72 0 124 34q52 33 79 81q66 116 66 378h-289v148h453v-760h-136v199h-4
q-31 -98 -115 -163t-197 -65q-114 0 -197 43t-131 111q-93 131 -114 375q-35 392 41 657q30 104 79 174t137 115t206 45t203 -39q86 -39 128 -90t71 -132t29 -173z" />
    <glyph glyph-name="gcircumflex" unicode="&#x11d;" horiz-adv-x="919" 
d="M178 1247l207 291h158l205 -291h-160l-125 180l-125 -180h-160zM430 979q-113 0 -157 -109t-44 -321q0 -401 199 -402q90 1 141 57t67 138q15 82 15 207q0 430 -221 430zM813 1098v-1028q0 -446 -373 -447q-334 0 -360 275h172q12 -139 176 -140q64 0 108 20t63 43
q42 49 42 183v143h-4q-29 -67 -97 -107t-148 -40q-155 0 -233 112q-77 112 -94 230q-16 118 -16 244q0 307 142 454q83 86 217 86q88 0 154 -49t83 -119h4v140h164z" />
    <glyph glyph-name="Gbreve" unicode="&#x11e;" horiz-adv-x="1062" 
d="M285 1860h98q0 -54 50 -96q49 -42 107 -42t108 42t50 96h99q-1 -88 -61 -174t-195 -86t-195 86t-61 174zM965 1057h-189q-18 287 -244 286q-178 0 -235 -182q-29 -92 -38 -189q-9 -96 -9 -240t9 -242t38 -189q57 -182 235 -182q72 0 124 34q52 33 79 81q66 116 66 378
h-289v148h453v-760h-136v199h-4q-31 -98 -115 -163t-197 -65q-114 0 -197 43t-131 111q-93 131 -114 375q-35 392 41 657q30 104 79 174t137 115t206 45t203 -39q86 -39 128 -90t71 -132t29 -173z" />
    <glyph glyph-name="gbreve" unicode="&#x11f;" horiz-adv-x="919" 
d="M219 1524h98q1 -54 51 -96t107 -42t108 42q50 42 50 96h98q0 -88 -60 -174q-59 -86 -195 -86t-196 86t-61 174zM430 979q-113 0 -157 -109t-44 -321q0 -401 199 -402q90 1 141 57t67 138q15 82 15 207q0 430 -221 430zM813 1098v-1028q0 -446 -373 -447q-334 0 -360 275
h172q12 -139 176 -140q64 0 108 20t63 43q42 49 42 183v143h-4q-29 -67 -97 -107t-148 -40q-155 0 -233 112q-77 112 -94 230q-16 118 -16 244q0 307 142 454q83 86 217 86q88 0 154 -49t83 -119h4v140h164z" />
    <glyph glyph-name="Gdotaccent" unicode="&#x120;" horiz-adv-x="1062" 
d="M463 1626v207h160v-207h-160zM965 1057h-189q-18 287 -244 286q-178 0 -235 -182q-29 -92 -38 -189q-9 -96 -9 -240t9 -242t38 -189q57 -182 235 -182q72 0 124 34q52 33 79 81q66 116 66 378h-289v148h453v-760h-136v199h-4q-31 -98 -115 -163t-197 -65q-114 0 -197 43
t-131 111q-93 131 -114 375q-35 392 41 657q30 104 79 174t137 115t206 45t203 -39q86 -39 128 -90t71 -132t29 -173z" />
    <glyph glyph-name="gdotaccent" unicode="&#x121;" horiz-adv-x="919" 
d="M387 1290v207h160v-207h-160zM430 979q-113 0 -157 -109t-44 -321q0 -401 199 -402q90 1 141 57t67 138q15 82 15 207q0 430 -221 430zM813 1098v-1028q0 -446 -373 -447q-334 0 -360 275h172q12 -139 176 -140q64 0 108 20t63 43q42 49 42 183v143h-4q-29 -67 -97 -107
t-148 -40q-155 0 -233 112q-77 112 -94 230q-16 118 -16 244q0 307 142 454q83 86 217 86q88 0 154 -49t83 -119h4v140h164z" />
    <glyph glyph-name="Gcommaaccent" unicode="&#x122;" horiz-adv-x="1062" 
d="M440 -289v187h170v-164q0 -82 -39 -120t-120 -44v53q23 6 33 12q32 18 36 76h-80zM965 1057h-189q-18 287 -244 286q-178 0 -235 -182q-29 -92 -38 -189q-9 -96 -9 -240t9 -242t38 -189q57 -182 235 -182q72 0 124 34q52 33 79 81q66 116 66 378h-289v148h453v-760h-136
v199h-4q-31 -98 -115 -163t-197 -65q-114 0 -197 43t-131 111q-93 131 -114 375q-35 392 41 657q30 104 79 174t137 115t206 45t203 -39q86 -39 128 -90t71 -132t29 -173z" />
    <glyph glyph-name="gcommaaccent" unicode="&#x123;" horiz-adv-x="919" 
d="M530 1462v-186h-170v174q0 141 160 154v-54q-23 -6 -34 -12q-31 -17 -35 -76h79zM430 979q-113 0 -157 -109t-44 -321q0 -401 199 -402q90 1 141 57t67 138q15 82 15 207q0 430 -221 430zM813 1098v-1028q0 -446 -373 -447q-334 0 -360 275h172q12 -139 176 -140
q64 0 108 20t63 43q42 49 42 183v143h-4q-29 -67 -97 -107t-148 -40q-155 0 -233 112q-77 112 -94 230q-16 118 -16 244q0 307 142 454q83 86 217 86q88 0 154 -49t83 -119h4v140h164z" />
    <glyph glyph-name="Hcircumflex" unicode="&#x124;" horiz-adv-x="1083" 
d="M260 1583l207 291h158l204 -291h-159l-125 180l-125 -180h-160zM973 1462v-1462h-180v705h-502v-705h-180v1462h180v-598h502v598h180z" />
    <glyph glyph-name="hcircumflex" unicode="&#x125;" horiz-adv-x="937" 
d="M184 1583l207 291h158l205 -291h-160l-125 180l-125 -180h-160zM106 0v1462h173v-489h4q33 65 111 109t156 44q79 0 135 -26t84 -57q60 -69 60 -265v-778h-172v758q0 159 -71 200q-36 20 -104 20t-136 -55q-68 -56 -67 -165v-758h-173z" />
    <glyph glyph-name="Hbar" unicode="&#x126;" horiz-adv-x="1083" 
d="M291 844h502v153h-502v-153zM973 1462v-1462h-180v684h-502v-684h-180v1462h180v-364h502v364h180z" />
    <glyph glyph-name="hbar" unicode="&#x127;" horiz-adv-x="968" 
d="M-12 1210v101h149v151h172v-151h219v-101h-219v-237h4q33 65 111 109t157 44t135 -26t84 -57q60 -69 60 -265v-778h-172v758q0 160 -72 200q-36 20 -104 20t-136 -55q-68 -56 -67 -165v-758h-172v1210h-149z" />
    <glyph glyph-name="Itilde" unicode="&#x128;" horiz-adv-x="421" 
d="M510 1849q0 -87 -47 -157t-129 -70q-49 0 -134 39t-102 39q-66 0 -80 -92h-110q0 92 55 160t135 67q51 0 123 -39q86 -39 107 -39q53 0 71 92h111zM119 0v1462h180v-1462h-180z" />
    <glyph glyph-name="itilde" unicode="&#x129;" horiz-adv-x="405" 
d="M506 1513q0 -87 -47 -157t-129 -70q-49 0 -134 39t-102 39q-66 0 -80 -92h-110q0 92 55 160t135 67q51 0 123 -39q86 -39 107 -39q53 0 71 92h111zM119 0v1098h172v-1098h-172z" />
    <glyph glyph-name="Imacron" unicode="&#x12a;" horiz-adv-x="421" 
d="M-59 1673v111h540v-111h-540zM121 0v1462h180v-1462h-180z" />
    <glyph glyph-name="imacron" unicode="&#x12b;" horiz-adv-x="405" 
d="M-68 1337v111h541v-111h-541zM117 0v1098h172v-1098h-172z" />
    <glyph glyph-name="Iogonek" unicode="&#x12e;" horiz-adv-x="376" 
d="M297 1462v-1462q-106 -92 -143 -148t-37 -108q0 -78 69 -78q55 0 115 33l31 -72q-80 -57 -178 -57q-164 0 -164 160q0 152 215 270h-88v1462h180z" />
    <glyph glyph-name="iogonek" unicode="&#x12f;" horiz-adv-x="364" 
d="M117 1266v196h172v-196h-172zM289 1098v-1098q-109 -90 -147 -147t-38 -109q0 -78 72 -78q57 0 117 33l31 -72q-84 -57 -181 -57q-166 0 -166 160q0 152 218 270h-78v1098h172z" />
    <glyph glyph-name="Idotaccent" unicode="&#x130;" horiz-adv-x="417" 
d="M129 1626v207h160v-207h-160zM119 0v1462h180v-1462h-180z" />
    <glyph glyph-name="dotlessi" unicode="&#x131;" horiz-adv-x="401" 
d="M115 0v1098h172v-1098h-172z" />
    <glyph glyph-name="Jcircumflex" unicode="&#x134;" horiz-adv-x="829" 
d="M346 1583l207 291h158l204 -291h-159l-125 180l-125 -180h-160zM729 1462v-1042q0 -217 -78 -333t-289 -116q-172 -1 -257 95t-85 239v121h173v-107q0 -201 167 -200q115 1 152 71t37 236v1036h180z" />
    <glyph glyph-name="jcircumflex" unicode="&#x135;" horiz-adv-x="405" 
d="M-88 1247l207 291h157l205 -291h-159l-125 180l-125 -180h-160zM117 -45v1143h172v-1204q1 -137 -61 -204t-201 -67l-80 6v148l63 -6q79 0 93 55q14 48 14 129z" />
    <glyph glyph-name="Kcommaaccent" unicode="&#x136;" horiz-adv-x="1019" 
d="M430 -289v187h170v-164q0 -82 -39 -120t-121 -44v53q23 6 34 12q32 18 36 76h-80zM111 0v1462h180v-708h4l506 708h200l-442 -610l479 -852h-200l-396 705l-151 -207v-498h-180z" />
    <glyph glyph-name="kcommaaccent" unicode="&#x137;" horiz-adv-x="890" 
d="M375 -289v187h170v-164q0 -82 -39 -120t-121 -44v53q23 6 34 12q31 17 36 76h-80zM266 0h-172v1462h172v-870h4l385 506h201l-334 -414l391 -684h-200l-305 543l-142 -172v-371z" />
    <glyph glyph-name="Lacute" unicode="&#x139;" horiz-adv-x="909" 
d="M135 1583l144 291h200l-221 -291h-123zM111 0v1462h180v-1302h594v-160h-774z" />
    <glyph glyph-name="lacute" unicode="&#x13a;" horiz-adv-x="393" 
d="M115 1583l143 291h201l-221 -291h-123zM115 0v1462h172v-1462h-172z" />
    <glyph glyph-name="Lcommaaccent" unicode="&#x13b;" horiz-adv-x="909" 
d="M397 -289v187h170v-164q0 -82 -39 -120t-120 -44v53q24 6 34 12q32 18 35 76h-80zM111 0v1462h180v-1302h594v-160h-774z" />
    <glyph glyph-name="lcommaaccent" unicode="&#x13c;" horiz-adv-x="391" 
d="M115 -289v187h170v-164q0 -82 -39 -120t-121 -44v53q23 6 34 12q31 17 36 76h-80zM113 0v1462h172v-1462h-172z" />
    <glyph glyph-name="Lcaron" unicode="&#x13d;" horiz-adv-x="909" 
d="M444 1171l54 291h178l-121 -291h-111zM111 0v1462h180v-1302h594v-160h-774z" />
    <glyph glyph-name="lcaron" unicode="&#x13e;" horiz-adv-x="561" 
d="M373 1171l53 291h178l-121 -291h-110zM115 0v1462h172v-1462h-172z" />
    <glyph glyph-name="Ldot" unicode="&#x13f;" horiz-adv-x="909" 
d="M477 891v207h160v-207h-160zM111 0v1462h180v-1302h594v-160h-774z" />
    <glyph glyph-name="ldot" unicode="&#x140;" horiz-adv-x="577" 
d="M401 891v207h160v-207h-160zM115 0v1462h172v-1462h-172z" />
    <glyph glyph-name="Lslash" unicode="&#x141;" horiz-adv-x="901" 
d="M102 1462h181v-686l397 285v-148l-397 -284v-469h594v-160h-775v500l-135 -97v148l135 96v815z" />
    <glyph glyph-name="lslash" unicode="&#x142;" horiz-adv-x="393" 
d="M111 0v565l-123 -131v160l123 131v737h172v-555l123 129v-159l-123 -129v-748h-172z" />
    <glyph glyph-name="Nacute" unicode="&#x143;" horiz-adv-x="1122" 
d="M494 1583l143 291h201l-222 -291h-122zM111 0v1462h233l483 -1220h4v1220h181v-1462h-248l-469 1184h-4v-1184h-180z" />
    <glyph glyph-name="nacute" unicode="&#x144;" 
d="M379 1247l143 291h201l-221 -291h-123zM106 0v1098h164v-129h4q35 73 110 115t157 42t140 -26t86 -57q62 -71 62 -265v-778h-172v758q0 159 -71 200q-36 20 -104 20t-136 -55q-68 -56 -67 -165v-758h-173z" />
    <glyph glyph-name="Ncommaaccent" unicode="&#x145;" horiz-adv-x="1122" 
d="M467 -289v187h170v-164q0 -82 -39 -120t-121 -44v53q23 6 34 12q32 18 36 76h-80zM111 0v1462h233l483 -1220h4v1220h181v-1462h-248l-469 1184h-4v-1184h-180z" />
    <glyph glyph-name="ncommaaccent" unicode="&#x146;" 
d="M383 -289v187h170v-164q0 -82 -39 -120t-121 -44v53q23 6 34 12q32 18 36 76h-80zM106 0v1098h164v-129h4q35 73 110 115t157 42t140 -26t86 -57q62 -71 62 -265v-778h-172v758q0 159 -71 200q-36 20 -104 20t-136 -55q-68 -56 -67 -165v-758h-173z" />
    <glyph glyph-name="Ncaron" unicode="&#x147;" horiz-adv-x="1122" 
d="M844 1874l-207 -291h-158l-205 291h160l125 -180l125 180h160zM111 0v1462h233l483 -1220h4v1220h181v-1462h-248l-469 1184h-4v-1184h-180z" />
    <glyph glyph-name="ncaron" unicode="&#x148;" 
d="M750 1538l-207 -291h-158l-205 291h160l125 -180l125 180h160zM106 0v1098h164v-129h4q35 73 110 115t157 42t140 -26t86 -57q62 -71 62 -265v-778h-172v758q0 159 -71 200q-36 20 -104 20t-136 -55q-68 -56 -67 -165v-758h-173z" />
    <glyph glyph-name="Omacron" unicode="&#x14c;" horiz-adv-x="1064" 
d="M264 1673v111h541v-111h-541zM532 1491q117 0 204 -45t137 -115q128 -179 131 -600q0 -248 -40 -389t-91 -211q-50 -70 -137 -115t-204 -45q-118 0 -204 45t-137 115q-127 177 -130 600q1 248 41 389t89 211q50 70 137 115t204 45zM532 1343q-90 0 -148 -45t-87 -137
t-38 -189q-9 -96 -9 -240t9 -242t38 -189q57 -182 235 -182t236 182q29 92 38 189q9 96 9 240t-9 242q-23 247 -125 326q-59 45 -149 45z" />
    <glyph glyph-name="omacron" unicode="&#x14d;" horiz-adv-x="888" 
d="M176 1337v111h541v-111h-541zM659 549q0 330 -106 408q-45 34 -111 34q-127 0 -173 -134q-38 -112 -39 -259q0 -147 8 -220q8 -72 30 -138q46 -133 172 -134q125 0 172 118t47 325zM49 549q0 578 395 577q396 0 396 -578t-396 -577q-396 0 -395 578z" />
    <glyph glyph-name="Obreve" unicode="&#x14e;" horiz-adv-x="1064" 
d="M274 1860h99q0 -54 50 -96t107 -42t108 42q50 42 50 96h98q0 -88 -60 -174t-196 -86t-196 86t-60 174zM532 1491q117 0 204 -45t137 -115q128 -179 131 -600q0 -248 -40 -389t-91 -211q-50 -70 -137 -115t-204 -45q-118 0 -204 45t-137 115q-127 177 -130 600
q1 248 41 389t89 211q50 70 137 115t204 45zM532 1343q-90 0 -148 -45t-87 -137t-38 -189q-9 -96 -9 -240t9 -242t38 -189q57 -182 235 -182t236 182q29 92 38 189q9 96 9 240t-9 242q-23 247 -125 326q-59 45 -149 45z" />
    <glyph glyph-name="obreve" unicode="&#x14f;" horiz-adv-x="888" 
d="M186 1524h99q0 -54 50 -96t107 -42t108 42q50 42 50 96h98q0 -88 -60 -174t-196 -86t-196 86t-60 174zM659 549q0 330 -106 408q-45 34 -111 34q-127 0 -173 -134q-38 -112 -39 -259q0 -147 8 -220q8 -72 30 -138q46 -133 172 -134q125 0 172 118t47 325zM49 549
q0 578 395 577q396 0 396 -578t-396 -577q-396 0 -395 578z" />
    <glyph glyph-name="Ohungarumlaut" unicode="&#x150;" horiz-adv-x="1064" 
d="M299 1583l143 291h201l-221 -291h-123zM635 1583l143 291h201l-221 -291h-123zM532 1491q117 0 204 -45t137 -115q128 -179 131 -600q0 -248 -40 -389t-91 -211q-50 -70 -137 -115t-204 -45q-118 0 -204 45t-137 115q-127 177 -130 600q1 248 41 389t89 211
q50 70 137 115t204 45zM532 1343q-90 0 -148 -45t-87 -137t-38 -189q-9 -96 -9 -240t9 -242t38 -189q57 -182 235 -182t236 182q29 92 38 189q9 96 9 240t-9 242q-23 247 -125 326q-59 45 -149 45z" />
    <glyph glyph-name="ohungarumlaut" unicode="&#x151;" horiz-adv-x="915" 
d="M209 1247l143 291h201l-221 -291h-123zM545 1247l143 291h201l-221 -291h-123zM659 549q0 330 -106 408q-45 34 -111 34q-127 0 -173 -134q-38 -112 -39 -259q0 -147 8 -220q8 -72 30 -138q46 -133 172 -134q125 0 172 118t47 325zM49 549q0 578 395 577q396 0 396 -578
t-396 -577q-396 0 -395 578z" />
    <glyph glyph-name="OE" unicode="&#x152;" horiz-adv-x="1591" 
d="M987 684v-524h557v-160h-733v129h-4q-29 -72 -105 -115t-182 -43t-192 43t-137 111q-95 129 -119 375q-38 385 40 657q30 104 79 174t137 115t189 45t182 -38t116 -103h4v112h701v-159h-533v-459h500v-160h-500zM807 475v473q0 217 -37 277q-49 85 -124 105
q-48 13 -112 13q-126 0 -190 -84t-79 -189q-23 -162 -23 -339q0 -315 49 -434q71 -181 236 -179q165 1 223 95q57 94 57 262z" />
    <glyph glyph-name="oe" unicode="&#x153;" horiz-adv-x="1445" 
d="M1384 598v-70h-559q0 -242 42 -324q19 -38 57 -68t95 -30q56 0 96 27q59 40 82 151q7 38 7 76h172q0 -112 -68 -237q-36 -66 -109 -109t-154 -43q-188 0 -267 115q-27 39 -39 74q-39 -88 -115 -138t-173 -51q-385 0 -385 578t385 577q113 0 181 -44t120 -142
q39 86 116 136q78 50 169 50t158 -34t103 -82q68 -94 81 -265q5 -63 5 -147zM666 549q0 442 -215 442q-205 0 -205 -442t205 -443q215 1 215 443zM831 705v-41h373v59q0 111 -42 189t-140 79q-59 0 -100 -34q-65 -54 -84 -178q-7 -39 -7 -74z" />
    <glyph glyph-name="Racute" unicode="&#x154;" horiz-adv-x="1046" 
d="M393 1583l144 291h200l-221 -291h-123zM111 0v1462h473q174 0 274 -97t100 -269q0 -134 -54 -238t-171 -131v-4q93 -10 147 -78t60 -166l12 -250q4 -113 22 -159t56 -70h-217q-35 35 -49 211l-12 227q-12 145 -76 179t-141 34h-244v-651h-180zM291 1315v-516h178
q165 0 227 60q74 73 74 237q0 96 -69 157t-195 62h-215z" />
    <glyph glyph-name="racute" unicode="&#x155;" horiz-adv-x="589" 
d="M154 1247l143 291h201l-222 -291h-122zM283 934q89 192 219 192q68 0 94 -12v-168q-66 8 -92 8q-78 0 -152 -68t-73 -192v-694h-173v1098h173v-164h4z" />
    <glyph glyph-name="Rcommaaccent" unicode="&#x156;" horiz-adv-x="1046" 
d="M440 -289v187h170v-164q0 -82 -39 -120t-120 -44v53q23 6 33 12q32 18 36 76h-80zM111 0v1462h473q174 0 274 -97t100 -269q0 -134 -54 -238t-171 -131v-4q93 -10 147 -78t60 -166l12 -250q4 -113 22 -159t56 -70h-217q-35 35 -49 211l-12 227q-12 145 -76 179t-141 34
h-244v-651h-180zM291 1315v-516h178q165 0 227 60q74 73 74 237q0 96 -69 157t-195 62h-215z" />
    <glyph glyph-name="rcommaaccent" unicode="&#x157;" horiz-adv-x="585" 
d="M106 -289v187h170v-164q0 -82 -38 -120t-121 -44v53q23 6 34 12q31 17 35 76h-80zM279 934q89 192 219 192q68 0 94 -12v-168q-66 8 -92 8q-78 0 -152 -68t-74 -192v-694h-172v1098h172v-164h5z" />
    <glyph glyph-name="Rcaron" unicode="&#x158;" horiz-adv-x="1046" 
d="M770 1870l-207 -291h-157l-205 291h159l125 -180l125 180h160zM111 0v1462h473q174 0 274 -97t100 -269q0 -134 -54 -238t-171 -131v-4q93 -10 147 -78t60 -166l12 -250q4 -113 22 -159t56 -70h-217q-35 35 -49 211l-12 227q-12 145 -76 179t-141 34h-244v-651h-180z
M291 1315v-516h178q165 0 227 60q74 73 74 237q0 96 -69 157t-195 62h-215z" />
    <glyph glyph-name="rcaron" unicode="&#x159;" horiz-adv-x="593" 
d="M629 1538l-207 -291h-158l-205 291h160l125 -180l125 180h160zM295 934q89 192 219 192q68 0 94 -12v-168q-66 8 -92 8q-78 0 -152 -68t-73 -192v-694h-172v1098h172v-164h4z" />
    <glyph glyph-name="Sacute" unicode="&#x15a;" horiz-adv-x="972" 
d="M420 1595l143 291h201l-221 -291h-123zM717 1083q0 260 -228 260q-117 0 -179 -60q-62 -61 -62 -161t38 -156t99 -86t196 -74t208 -92q149 -98 149 -308q0 -330 -295 -413q-76 -22 -160 -22q-246 0 -344 120t-98 368h180q0 -200 65 -270t192 -70q128 -1 200 71t72 172
q0 176 -138 244q-61 31 -189 72t-226 106q-61 41 -100 118q-38 76 -38 154q1 78 9 126q37 208 233 279q80 30 186 30q207 0 307 -101q99 -102 103 -307h-180z" />
    <glyph glyph-name="sacute" unicode="&#x15b;" horiz-adv-x="833" 
d="M354 1247l144 291h200l-221 -291h-123zM756 776h-172q0 111 -36 163t-126 52q-178 0 -178 -168q0 -60 24 -84q24 -23 36 -35t48 -25q35 -13 48 -19t82 -25q69 -20 105 -35q96 -38 145 -101q50 -63 50 -184q0 -166 -97 -255t-257 -89q-106 0 -182 32t-113 72t-56 102
t-23 98q-3 36 -3 85h172q0 -118 44 -186t161 -68q37 0 74 12q36 12 72 55q36 45 36 105q0 110 -74 155q-51 33 -117 55l-107 36q-40 14 -72 26q-32 13 -79 48q-89 65 -89 218q0 154 99 232t251 78q92 0 158 -26t98 -59q78 -81 78 -265z" />
    <glyph glyph-name="Scircumflex" unicode="&#x15c;" horiz-adv-x="972" 
d="M213 1583l207 291h158l204 -291h-159l-125 180l-125 -180h-160zM717 1083q0 260 -228 260q-117 0 -179 -60q-62 -61 -62 -161t38 -156t99 -86t196 -74t208 -92q149 -98 149 -308q0 -330 -295 -413q-76 -22 -160 -22q-246 0 -344 120t-98 368h180q0 -200 65 -270t192 -70
q128 -1 200 71t72 172q0 176 -138 244q-61 31 -189 72t-226 106q-61 41 -100 118q-38 76 -38 154q1 78 9 126q37 208 233 279q80 30 186 30q207 0 307 -101q99 -102 103 -307h-180z" />
    <glyph glyph-name="scircumflex" unicode="&#x15d;" horiz-adv-x="833" 
d="M147 1247l207 291h158l205 -291h-160l-125 180l-125 -180h-160zM756 776h-172q0 111 -36 163t-126 52q-178 0 -178 -168q0 -60 24 -84q24 -23 36 -35t48 -25q35 -13 48 -19t82 -25q69 -20 105 -35q96 -38 145 -101q50 -63 50 -184q0 -166 -97 -255t-257 -89
q-106 0 -182 32t-113 72t-56 102t-23 98q-3 36 -3 85h172q0 -118 44 -186t161 -68q37 0 74 12q36 12 72 55q36 45 36 105q0 110 -74 155q-51 33 -117 55l-107 36q-40 14 -72 26q-32 13 -79 48q-89 65 -89 218q0 154 99 232t251 78q92 0 158 -26t98 -59q78 -81 78 -265z" />
    <glyph glyph-name="Scedilla" unicode="&#x15e;" horiz-adv-x="972" 
d="M424 -344q113 0 113 80q0 35 -29 55q-59 41 -150 6l-30 37l100 139q-254 17 -335 190q-52 112 -52 296h180q0 -200 65 -270t192 -70q128 -1 200 71t72 172q0 176 -138 244q-61 31 -189 72t-226 106q-61 41 -100 118q-38 76 -38 154q1 78 9 126q37 208 233 279
q80 30 186 30q207 0 307 -101t103 -307h-180q0 260 -228 260q-117 0 -179 -60q-62 -61 -62 -161t38 -156t99 -86t196 -74t208 -92q149 -98 149 -308q0 -176 -83 -278q-116 -143 -341 -157l-59 -82l4 -4q103 27 176 -27q49 -36 49 -112t-66 -126t-168 -50t-188 41l31 70
l26 -7q75 -18 105 -18z" />
    <glyph glyph-name="scedilla" unicode="&#x15f;" horiz-adv-x="833" 
d="M354 -344q113 0 113 80q0 35 -29 55q-59 41 -149 6l-31 37l102 141q-159 17 -234 111q-75 95 -75 274h172q0 -118 44 -186t161 -68q37 0 74 12q36 12 72 55q36 45 36 105q0 110 -74 155q-51 33 -117 55l-107 36q-40 14 -72 26q-32 13 -79 48q-89 65 -89 218q0 154 99 232
t251 78q92 0 158 -26t98 -59q78 -81 78 -265h-172q0 111 -36 163t-126 52q-178 0 -178 -168q0 -60 24 -84q24 -23 36 -35t48 -25q35 -13 48 -19t82 -25q69 -20 105 -35q96 -38 145 -101q50 -63 50 -186t-56 -205t-157 -114q-51 -18 -125 -23l21 29h-86l-19 -25q41 -4 68 -4
h16l-59 -82l4 -4q104 27 176 -27q49 -36 49 -112t-66 -126t-167 -50q-102 0 -188 41l30 70l27 -7q75 -18 104 -18z" />
    <glyph glyph-name="Scaron" unicode="&#x160;" horiz-adv-x="972" 
d="M782 1874l-207 -291h-157l-205 291h160l125 -180l125 180h159zM717 1083q0 260 -228 260q-117 0 -179 -60q-62 -61 -62 -161t38 -156t99 -86t196 -74t208 -92q149 -98 149 -308q0 -330 -295 -413q-76 -22 -160 -22q-246 0 -344 120t-98 368h180q0 -200 65 -270t192 -70
q128 -1 200 71t72 172q0 176 -138 244q-61 31 -189 72t-226 106q-61 41 -100 118q-38 76 -38 154q1 78 9 126q37 208 233 279q80 30 186 30q207 0 307 -101q99 -102 103 -307h-180z" />
    <glyph glyph-name="scaron" unicode="&#x161;" horiz-adv-x="833" 
d="M705 1538l-207 -291h-158l-205 291h160l125 -180l125 180h160zM756 776h-172q0 111 -36 163t-126 52q-178 0 -178 -168q0 -60 24 -84q24 -23 36 -35t48 -25q35 -13 48 -19t82 -25q69 -20 105 -35q96 -38 145 -101q50 -63 50 -184q0 -166 -97 -255t-257 -89
q-106 0 -182 32t-113 72t-56 102t-23 98q-3 36 -3 85h172q0 -118 44 -186t161 -68q37 0 74 12q36 12 72 55q36 45 36 105q0 110 -74 155q-51 33 -117 55l-107 36q-40 14 -72 26q-32 13 -79 48q-89 65 -89 218q0 154 99 232t251 78q92 0 158 -26t98 -59q78 -81 78 -265z" />
    <glyph glyph-name="Tcommaaccent" unicode="&#x162;" horiz-adv-x="944" 
d="M385 -289v187h170v-164q0 -82 -39 -120t-121 -44v53q23 6 34 12q32 18 36 76h-80zM561 1303v-1303h-180v1303h-367v159h916v-159h-369z" />
    <glyph glyph-name="tcommaaccent" unicode="&#x163;" horiz-adv-x="526" 
d="M244 -289v187h170v-164q0 -82 -39 -120t-121 -44v53q23 6 34 12q31 17 36 76h-80zM162 1098v319h172v-319h190v-135h-190v-705q0 -68 24 -96t88 -27q20 0 76 6v-141q-44 -12 -156 -12t-158 51t-46 166v758h-160v135h160z" />
    <glyph glyph-name="Tcaron" unicode="&#x164;" horiz-adv-x="944" 
d="M756 1874l-207 -291h-158l-205 291h160l125 -180l125 180h160zM561 1303v-1303h-180v1303h-367v159h916v-159h-369z" />
    <glyph glyph-name="tcaron" unicode="&#x165;" horiz-adv-x="722" 
d="M162 1098v319h172v-319h190v-135h-190v-705q0 -68 24 -96t88 -27q20 0 76 6v-141q-44 -12 -156 -12t-158 51t-46 166v758h-160v135h160zM500 1171l53 291h178l-121 -291h-110z" />
    <glyph glyph-name="Tbar" unicode="&#x166;" horiz-adv-x="944" 
d="M561 895v-895h-180v895h-234v100h234v308h-367v159h916v-159h-369v-308h230v-100h-230z" />
    <glyph glyph-name="tbar" unicode="&#x167;" horiz-adv-x="524" 
d="M-14 608v101h176v254h-160v135h160v319h172v-319h190v-135h-190v-254h205v-101h-205v-350q0 -68 24 -96t88 -27q20 0 76 6v-141q-44 -12 -156 -12t-158 51t-46 166v403h-176z" />
    <glyph glyph-name="Utilde" unicode="&#x168;" horiz-adv-x="1054" 
d="M829 1849q0 -87 -47 -157t-129 -70q-49 0 -134 39t-101 39q-66 0 -80 -92h-111q-1 92 55 160t136 67q51 0 123 -39q86 -39 106 -39q54 0 72 92h110zM98 434v1028h181v-1028q0 -164 57 -240t192 -75q135 0 192 77q56 77 56 238v1028h180v-1028q0 -215 -110 -339t-320 -124
q-428 0 -428 463z" />
    <glyph glyph-name="utilde" unicode="&#x169;" 
d="M772 1513q0 -87 -47 -157t-129 -70q-49 0 -134 39t-102 39q-66 0 -79 -92h-111q0 92 55 160t135 67q51 0 123 -39q86 -39 107 -39q54 0 72 92h110zM829 1098v-1098h-163v129h-4q-35 -74 -110 -116t-157 -42t-140 26q-58 25 -86 57q-59 67 -63 265v779h173v-758
q0 -158 71 -201q36 -20 104 -20t136 56t67 165v758h172z" />
    <glyph glyph-name="Umacron" unicode="&#x16a;" horiz-adv-x="1054" 
d="M258 1673v111h541v-111h-541zM98 434v1028h181v-1028q0 -164 57 -240t192 -75q135 0 192 77q56 77 56 238v1028h180v-1028q0 -215 -110 -339t-320 -124q-428 0 -428 463z" />
    <glyph glyph-name="umacron" unicode="&#x16b;" 
d="M201 1337v111h540v-111h-540zM829 1098v-1098h-163v129h-4q-35 -74 -110 -116t-157 -42t-140 26q-58 25 -86 57q-59 67 -63 265v779h173v-758q0 -158 71 -201q36 -20 104 -20t136 56t67 165v758h172z" />
    <glyph glyph-name="Ubreve" unicode="&#x16c;" horiz-adv-x="1054" 
d="M272 1860h99q0 -54 50 -96t107 -42t108 42q50 42 50 96h98q0 -88 -60 -174t-196 -86t-196 86t-60 174zM98 434v1028h181v-1028q0 -164 57 -240t192 -75q135 0 192 77q56 77 56 238v1028h180v-1028q0 -215 -110 -339t-320 -124q-428 0 -428 463z" />
    <glyph glyph-name="ubreve" unicode="&#x16d;" 
d="M213 1524h98q0 -54 50 -96q49 -42 107 -42t109 42q50 42 50 96h98q0 -88 -60 -174q-59 -86 -195 -86t-197 86q-60 86 -60 174zM829 1098v-1098h-163v129h-4q-35 -74 -110 -116t-157 -42t-140 26q-58 25 -86 57q-59 67 -63 265v779h173v-758q0 -158 71 -201
q36 -20 104 -20t136 56t67 165v758h172z" />
    <glyph glyph-name="Uring" unicode="&#x16e;" horiz-adv-x="1054" 
d="M326 1714q0 86 58 144t144 59q86 0 144 -58q58 -59 59 -145q0 -86 -58 -144q-59 -58 -145 -58t-144 58t-58 144zM412 1714q0 -47 34 -82t82 -35q47 0 82 35t35 82t-35 82t-82 35q-48 0 -82 -35t-34 -82zM98 434v1028h181v-1028q0 -164 57 -240t192 -75q135 0 192 77
q56 77 56 238v1028h180v-1028q0 -215 -110 -339t-320 -124q-428 0 -428 463z" />
    <glyph glyph-name="uring" unicode="&#x16f;" 
d="M266 1413q0 87 58 145t145 58q86 0 144 -58q59 -58 59 -144t-58 -145t-145 -59t-145 58t-58 145zM352 1413q0 -47 35 -82t82 -35t82 35t35 82t-35 82t-82 35t-82 -35t-35 -82zM829 1098v-1098h-163v129h-4q-35 -74 -110 -116t-157 -42t-140 26q-58 25 -86 57
q-59 67 -63 265v779h173v-758q0 -158 71 -201q36 -20 104 -20t136 56t67 165v758h172z" />
    <glyph glyph-name="Uhungarumlaut" unicode="&#x170;" horiz-adv-x="1073" 
d="M295 1583l143 291h201l-221 -291h-123zM631 1583l143 291h201l-221 -291h-123zM98 434v1028h181v-1028q0 -164 57 -240t192 -75q135 0 192 77q56 77 56 238v1028h180v-1028q0 -215 -110 -339t-320 -124q-428 0 -428 463z" />
    <glyph glyph-name="uhungarumlaut" unicode="&#x171;" horiz-adv-x="956" 
d="M233 1247l144 291h201l-222 -291h-123zM569 1247l144 291h200l-221 -291h-123zM829 1098v-1098h-163v129h-4q-35 -74 -110 -116t-157 -42t-140 26q-58 25 -86 57q-59 67 -63 265v779h173v-758q0 -158 71 -201q36 -20 104 -20t136 56t67 165v758h172z" />
    <glyph glyph-name="Uogonek" unicode="&#x172;" horiz-adv-x="1054" 
d="M98 434v1028h181v-1028q0 -164 57 -240t192 -75q135 0 192 77q56 77 56 238v1028h180v-1028q0 -211 -108 -338q-70 -82 -195 -110q-190 -148 -190 -242q0 -78 82 -78q68 0 135 33l37 -72q-94 -57 -209 -57q-193 0 -193 160q0 133 195 241q-412 4 -412 463z" />
    <glyph glyph-name="uogonek" unicode="&#x173;" horiz-adv-x="890" 
d="M829 1098v-1098h-65q-57 -45 -116 -122t-58 -138q0 -74 74 -74q63 0 122 33l33 -72q-88 -57 -181 -57t-136 41t-43 111t47 134q47 62 160 144v129h-4q-35 -74 -110 -116t-157 -42t-140 26q-58 25 -86 57q-59 67 -63 265v779h173v-758q0 -158 71 -201q36 -20 104 -20
t136 56t67 165v758h172z" />
    <glyph glyph-name="Wcircumflex" unicode="&#x174;" horiz-adv-x="1474" 
d="M455 1583l207 291h157l205 -291h-160l-125 180l-125 -180h-159zM305 0l-291 1462h181l223 -1196h4l207 1196h217l207 -1196h4l223 1196h180l-301 -1462h-219l-201 1184h-4l-211 -1184h-219z" />
    <glyph glyph-name="wcircumflex" unicode="&#x175;" horiz-adv-x="1302" 
d="M375 1247l207 291h157l205 -291h-160l-125 180l-124 -180h-160zM264 0l-256 1098h180l177 -897h4l186 897h203l182 -897h4l170 897h180l-260 -1098h-188l-193 897h-4l-184 -897h-201z" />
    <glyph glyph-name="Ycircumflex" unicode="&#x176;" horiz-adv-x="913" 
d="M172 1583l207 291h158l204 -291h-159l-125 180l-125 -180h-160zM547 0h-180v573l-387 889h198l279 -684l288 684h189l-387 -889v-573z" />
    <glyph glyph-name="ycircumflex" unicode="&#x177;" horiz-adv-x="794" 
d="M125 1247l207 291h157l205 -291h-159l-125 180l-125 -180h-160zM158 -225q94 0 135 106l33 96l-324 1121h188l218 -881h4l192 881h189l-318 -1172q-28 -100 -62 -165q-65 -121 -217 -121q-46 0 -139 6v135q37 -6 101 -6z" />
    <glyph glyph-name="Ydieresis" unicode="&#x178;" horiz-adv-x="913" 
d="M209 1626v207h160v-207h-160zM541 1626v207h159v-207h-159zM547 0h-180v573l-387 889h198l279 -684l288 684h189l-387 -889v-573z" />
    <glyph glyph-name="Zacute" unicode="&#x179;" horiz-adv-x="925" 
d="M397 1583l144 291h200l-221 -291h-123zM31 0v152l657 1151h-620v159h809v-166l-658 -1136h666v-160h-854z" />
    <glyph glyph-name="zacute" unicode="&#x17a;" horiz-adv-x="776" 
d="M319 1247l144 291h201l-222 -291h-123zM68 950v148h661v-144l-491 -807h487v-147h-682v135l498 815h-473z" />
    <glyph glyph-name="Zdotaccent" unicode="&#x17b;" horiz-adv-x="925" 
d="M381 1626v207h160v-207h-160zM31 0v152l657 1151h-620v159h809v-166l-658 -1136h666v-160h-854z" />
    <glyph glyph-name="zdotaccent" unicode="&#x17c;" horiz-adv-x="776" 
d="M313 1290v207h160v-207h-160zM68 950v148h661v-144l-491 -807h487v-147h-682v135l498 815h-473z" />
    <glyph glyph-name="Zcaron" unicode="&#x17d;" horiz-adv-x="925" 
d="M748 1874l-207 -291h-158l-205 291h160l125 -180l125 180h160zM31 0v152l657 1151h-620v159h809v-166l-658 -1136h666v-160h-854z" />
    <glyph glyph-name="zcaron" unicode="&#x17e;" horiz-adv-x="776" 
d="M678 1538l-207 -291h-158l-204 291h159l125 -180l125 180h160zM68 950v148h661v-144l-491 -807h487v-147h-682v135l498 815h-473z" />
    <glyph glyph-name="florin" unicode="&#x192;" horiz-adv-x="974" 
d="M86 -225q74 0 110 39t56 145l162 819h-213l22 123h213l68 320q29 131 112 186q84 55 228 55q63 0 98 -8l-29 -135q-18 8 -85 8t-105 -35t-55 -100q-17 -66 -29 -131l-31 -160h223l-22 -123h-223l-164 -841q-31 -152 -112 -225t-232 -72q-66 0 -117 8l29 135q22 -8 96 -8z
" />
    <glyph glyph-name="Scommaaccent" unicode="&#x218;" horiz-adv-x="972" 
d="M401 -289v187h170v-164q0 -82 -39 -120t-120 -44v53q24 6 34 12q32 18 35 76h-80zM717 1083q0 260 -228 260q-117 0 -179 -60q-62 -61 -62 -161t38 -156t99 -86t196 -74t208 -92q149 -98 149 -308q0 -330 -295 -413q-76 -22 -160 -22q-246 0 -344 120t-98 368h180
q0 -200 65 -270t192 -70q128 -1 200 71t72 172q0 176 -138 244q-61 31 -189 72t-226 106q-61 41 -100 118q-38 76 -38 154q1 78 9 126q37 208 233 279q80 30 186 30q207 0 307 -101q99 -102 103 -307h-180z" />
    <glyph glyph-name="scommaaccent" unicode="&#x219;" horiz-adv-x="833" 
d="M334 -289v187h170v-164q0 -82 -39 -120t-121 -44v53q23 6 34 12q31 17 36 76h-80zM756 776h-172q0 111 -36 163t-126 52q-178 0 -178 -168q0 -60 24 -84q24 -23 36 -35t48 -25q35 -13 48 -19t82 -25q69 -20 105 -35q96 -38 145 -101q50 -63 50 -184q0 -166 -97 -255
t-257 -89q-106 0 -182 32t-113 72t-56 102t-23 98q-3 36 -3 85h172q0 -118 44 -186t161 -68q37 0 74 12q36 12 72 55q36 45 36 105q0 110 -74 155q-51 33 -117 55l-107 36q-40 14 -72 26q-32 13 -79 48q-89 65 -89 218q0 154 99 232t251 78q92 0 158 -26t98 -59
q78 -81 78 -265z" />
    <glyph glyph-name="uni021A" unicode="&#x21a;" horiz-adv-x="931" 
d="M379 -289v187h170v-164q0 -82 -39 -120t-121 -44v53q23 6 34 12q31 17 36 76h-80zM555 1303v-1303h-180v1303h-367v159h916v-159h-369z" />
    <glyph glyph-name="uni021B" unicode="&#x21b;" horiz-adv-x="526" 
d="M244 -289v187h170v-164q0 -82 -39 -120t-121 -44v53q23 6 34 12q31 17 36 76h-80zM162 1098v319h172v-319h190v-135h-190v-705q0 -68 24 -96t88 -27q20 0 76 6v-141q-44 -12 -156 -12t-158 51t-46 166v758h-160v135h160z" />
    <glyph glyph-name="circumflex" unicode="&#x2c6;" horiz-adv-x="409" 
d="M-80 1247l207 291h158l204 -291h-159l-125 180l-125 -180h-160z" />
    <glyph glyph-name="caron" unicode="&#x2c7;" horiz-adv-x="405" 
d="M487 1538l-206 -291h-158l-205 291h160l125 -180l125 180h159z" />
    <glyph glyph-name="uni02C9" unicode="&#x2c9;" horiz-adv-x="409" 
d="M-66 1337v111h541v-111h-541z" />
    <glyph glyph-name="breve" unicode="&#x2d8;" horiz-adv-x="372" 
d="M-70 1524h99q0 -54 50 -96t107 -42t108 42q50 42 50 96h98q0 -88 -60 -174t-196 -86t-196 86t-60 174z" />
    <glyph glyph-name="dotaccent" unicode="&#x2d9;" horiz-adv-x="393" 
d="M117 1290v207h159v-207h-159z" />
    <glyph glyph-name="ring" unicode="&#x2da;" horiz-adv-x="372" 
d="M-16 1413q0 87 58 145t144 58t144 -58t59 -144q0 -86 -58 -145q-59 -59 -145 -59t-144 58t-58 145zM70 1413q0 -47 34 -82t82 -35q47 0 82 35t35 82t-35 82t-82 35q-48 0 -82 -35t-34 -82z" />
    <glyph glyph-name="ogonek" unicode="&#x2db;" horiz-adv-x="374" 
d="M162 -256q0 -78 82 -78q68 0 135 33l37 -72q-94 -57 -209 -57q-193 0 -193 160q0 151 252 270h109q-125 -92 -169 -150t-44 -106z" />
    <glyph glyph-name="tilde" unicode="&#x2dc;" horiz-adv-x="409" 
d="M506 1513q0 -87 -47 -157t-129 -70q-49 0 -134 39t-102 39q-66 0 -80 -92h-110q0 92 55 160t135 67q51 0 123 -39q86 -39 107 -39q53 0 71 92h111z" />
    <glyph glyph-name="hungarumlaut" unicode="&#x2dd;" horiz-adv-x="430" 
d="M-63 1247l143 291h201l-222 -291h-122zM272 1247l144 291h200l-221 -291h-123z" />
    <glyph glyph-name="uni0394" unicode="&#x394;" horiz-adv-x="1370" 
d="M1352 0h-1329l571 1458h170zM1122 147l-444 1139l-436 -1139h880z" />
    <glyph glyph-name="uni03A9" unicode="&#x3a9;" horiz-adv-x="1507" 
d="M1397 0h-525v375q174 35 268 159q93 124 93 322t-139 335q-140 138 -352 138t-353 -139q-141 -138 -141 -334t95 -324t267 -157v-375h-526v137h395v148q-184 51 -290 207q-105 156 -105 354q0 272 192 451q193 179 466 179q274 0 464 -176q190 -178 191 -450
q1 -204 -103 -358t-290 -207v-148h393v-137z" />
    <glyph glyph-name="uni03BC" unicode="&#x3bc;" 
d="M829 1098v-1098h-163v129h-4q-35 -74 -110 -116t-155 -42t-118 29v-360h-173v1458h173v-758q0 -158 71 -201q36 -20 104 -20t136 56t67 165v758h172z" />
    <glyph glyph-name="pi" unicode="&#x3c0;" horiz-adv-x="1144" 
d="M971 -12q-126 0 -153 69t-27 176v607h-504v-840h-154v840h-141v141h1108v-141h-156v-613q0 -53 14 -81t60 -28t90 21v-116q-74 -35 -137 -35z" />
    <glyph glyph-name="endash" unicode="&#x2013;" horiz-adv-x="999" 
d="M-12 508v147h1024v-147h-1024z" />
    <glyph glyph-name="emdash" unicode="&#x2014;" horiz-adv-x="2023" 
d="M-12 508v147h2048v-147h-2048z" />
    <glyph glyph-name="quoteleft" unicode="&#x2018;" horiz-adv-x="331" 
d="M260 1159v-217h-188v178q0 133 23 195q23 63 63 96t102 51v-96q-53 -25 -72 -59q-18 -35 -18 -99v-49h90z" />
    <glyph glyph-name="quoteright" unicode="&#x2019;" horiz-adv-x="331" 
d="M72 1245v217h188v-178q0 -134 -24 -196t-62 -95q-39 -33 -102 -51v96q53 25 71 60t19 98v49h-90z" />
    <glyph glyph-name="quotesinglbase" unicode="&#x201a;" horiz-adv-x="331" 
d="M72 0v217h188v-178q0 -134 -24 -196t-62 -95q-39 -33 -102 -51v96q53 25 71 60t19 98v49h-90z" />
    <glyph glyph-name="quotedblleft" unicode="&#x201c;" horiz-adv-x="653" 
d="M582 1159v-217h-189v178q-1 134 23 196t63 95t103 51v-96q-53 -25 -72 -59q-18 -35 -18 -99v-49h90zM260 1159v-217h-188v178q0 133 23 195q23 63 63 96t102 51v-96q-53 -25 -72 -59q-18 -35 -18 -99v-49h90z" />
    <glyph glyph-name="quotedblright" unicode="&#x201d;" horiz-adv-x="653" 
d="M582 1462v-178q0 -134 -24 -196t-62 -95q-39 -33 -103 -51v96q53 25 72 60q18 35 18 98v49h-90v217h189zM260 1462v-178q0 -134 -24 -196t-62 -95q-39 -33 -102 -51v96q53 25 71 60t19 98v49h-90v217h188z" />
    <glyph glyph-name="quotedblbase" unicode="&#x201e;" horiz-adv-x="653" 
d="M582 217v-178q0 -134 -24 -196t-62 -95q-39 -33 -103 -51v96q53 25 72 60q18 35 18 98v49h-90v217h189zM260 217v-178q0 -134 -24 -196t-62 -95q-39 -33 -102 -51v96q53 25 71 60t19 98v49h-90v217h188z" />
    <glyph glyph-name="dagger" unicode="&#x2020;" horiz-adv-x="991" 
d="M410 1040v422h172v-422h352v-147h-352v-1180h-172v1180h-353v147h353z" />
    <glyph glyph-name="daggerdbl" unicode="&#x2021;" horiz-adv-x="991" 
d="M410 1067v395h172v-395h352v-147h-352v-650h352v-147h-352v-410h-172v410h-353v147h353v650h-353v147h353z" />
    <glyph glyph-name="bullet" unicode="&#x2022;" horiz-adv-x="999" 
d="M135 731q1 152 107 258q106 107 258 107t258 -106t106 -259q0 -152 -106 -258t-258 -106t-258 106t-107 258z" />
    <glyph glyph-name="ellipsis" unicode="&#x2026;" horiz-adv-x="2072" 
d="M260 0v217h189v-217h-189zM942 0v217h188v-217h-188zM1624 0v217h188v-217h-188z" />
    <glyph glyph-name="perthousand" unicode="&#x2030;" horiz-adv-x="2127" 
d="M1763 82q78 0 100 66q21 66 21 179t-3 155q-8 115 -51 147q-26 18 -67 18q-77 1 -99 -65t-22 -180t4 -155q10 -116 51 -147q25 -18 66 -18zM348 -29l635 1479h143l-634 -1479h-144zM365 774q77 0 99 66t22 180q-1 175 -18 240q-20 79 -101 79q-80 1 -102 -65
q-35 -103 -18 -335q8 -116 51 -146q26 -19 67 -19zM1495 364q0 90 8 150q8 58 34 120t82 93t144 31q89 0 145 -31q97 -53 115 -213q8 -59 9 -187t-47 -242q-47 -114 -222 -114q-88 0 -144 31q-95 52 -116 213q-8 59 -8 149zM365 664q-175 0 -227 122q-26 60 -34 120t-8 150
t8 150q8 58 34 120q52 124 226 124t227 -123q42 -99 42 -229t-8 -190q-22 -161 -116 -214q-56 -30 -144 -30zM1130 82q78 0 100 66t22 179t-4 155q-8 115 -51 147q-26 18 -67 18q-78 1 -100 -65q-34 -104 -17 -335q8 -116 51 -147q25 -18 66 -18zM862 364q0 90 8 150
q8 58 34 120t82 93t144 31t144 -31q95 -52 117 -213q8 -59 8 -189t-42 -231q-52 -123 -227 -123q-88 0 -144 31q-95 52 -116 213q-8 59 -8 149z" />
    <glyph glyph-name="guilsinglleft" unicode="&#x2039;" horiz-adv-x="503" 
d="M106 502v160l291 292v-180l-192 -192l192 -193v-180z" />
    <glyph glyph-name="guilsinglright" unicode="&#x203a;" horiz-adv-x="503" 
d="M397 662v-160l-291 -293v180l193 193l-193 192v180z" />
    <glyph glyph-name="fraction" unicode="&#x2044;" horiz-adv-x="305" 
d="M-354 -63l891 1548h122l-890 -1548h-123z" />
    <glyph glyph-name="Euro" unicode="&#x20ac;" horiz-adv-x="925" 
d="M622 -29q-280 0 -379 186q-88 164 -100 408h-125l43 123h80l2 113h-127l43 123h91q49 532 468 532q156 0 314 -102l-66 -146q-123 106 -239 107q-163 0 -225 -128q-46 -95 -62 -263h465l-43 -123h-430l-2 -113h399l-43 -123h-354q4 -167 52 -296q59 -158 232 -158
q139 0 295 127v-179q-137 -88 -289 -88z" />
    <glyph glyph-name="afii61289" unicode="&#x2113;" horiz-adv-x="1058" 
d="M719 1200q0 76 -31 124t-79 48t-84 -59t-36 -172v-447q230 268 230 506zM489 260q1 -176 167 -176q78 0 165 80h4l54 -78q-127 -115 -261 -115t-206 68t-72 197v223l-119 -125h-4l-55 82l178 172v528q0 166 77 263t188 97t175 -71q64 -72 64 -195q0 -291 -355 -649v-301z
" />
    <glyph glyph-name="trademark" unicode="&#x2122;" horiz-adv-x="2076" 
d="M346 618v721h-272v123h674v-123h-267v-721h-135zM1704 618v697h-4l-285 -697h-80l-284 697h-4v-697h-136v844h201l266 -647l260 647h201v-844h-135z" />
    <glyph glyph-name="Omega" unicode="&#x2126;" horiz-adv-x="1507" 
d="M1397 0h-525v375q174 35 268 159q93 124 93 322t-139 335q-140 138 -352 138t-353 -139q-141 -138 -141 -334t95 -324t267 -157v-375h-526v137h395v148q-184 51 -290 207q-105 156 -105 354q0 272 192 451q193 179 466 179q274 0 464 -176q190 -178 191 -450
q1 -204 -103 -358t-290 -207v-148h393v-137z" />
    <glyph glyph-name="estimated" unicode="&#x212e;" horiz-adv-x="1204" 
d="M309 604h596v297q-129 123 -301 123t-295 -123v-297zM309 530v-370q121 -121 297 -121q250 0 395 246l72 -43q-95 -147 -201 -212t-266 -65q-236 0 -382 162q-146 163 -146 405t145 403t382 161t383 -158t149 -408h-828z" />
    <glyph glyph-name="partialdiff" unicode="&#x2202;" horiz-adv-x="1009" 
d="M424 1477q117 0 208 -45t147 -118q159 -207 159 -573q0 -226 -41 -369q-41 -142 -91 -218t-138 -127t-205 -52q-188 -1 -303 135t-115 324t112 314q113 126 303 126t322 -155l2 92q0 187 -74 349q-38 83 -111 135q-73 53 -175 53t-227 -97l-86 103q139 123 313 123z
M774 573q-129 174 -303 175q-129 0 -202 -94t-73 -224q0 -131 72 -231q72 -101 188 -101t190 84q128 147 128 391z" />
    <glyph glyph-name="Delta" unicode="&#x2206;" horiz-adv-x="1370" 
d="M1352 0h-1329l571 1458h170zM1122 147l-444 1139l-436 -1139h880z" />
    <glyph glyph-name="product" unicode="&#x220f;" horiz-adv-x="1466" 
d="M1329 -438h-160v1900h-872v-1900h-160v2048h1192v-2048z" />
    <glyph glyph-name="summation" unicode="&#x2211;" horiz-adv-x="1236" 
d="M1196 -438h-1155v131l659 901l-630 885v131h1101v-148h-895l617 -868l-653 -885h956v-147z" />
    <glyph glyph-name="minus" unicode="&#x2212;" horiz-adv-x="1204" 
d="M84 451v135h1036v-135h-1036z" />
    <glyph glyph-name="uni2215" unicode="&#x2215;" horiz-adv-x="305" 
d="M-354 -63l891 1548h122l-890 -1548h-123z" />
    <glyph glyph-name="uni2219" unicode="&#x2219;" horiz-adv-x="471" 
d="M121 670q0 47 34 81q34 33 81 33q46 0 80 -34t34 -80q0 -47 -34 -81t-80 -34t-81 34q-34 34 -34 81z" />
    <glyph glyph-name="radical" unicode="&#x221a;" horiz-adv-x="1013" 
d="M1044 1610l-432 -2048h-153l-332 684l-96 -45l-58 123l230 106l309 -649l377 1829h155z" />
    <glyph glyph-name="infinity" unicode="&#x221e;" horiz-adv-x="1521" 
d="M1368 750q84 -90 84 -229q0 -138 -82 -229t-219 -91q-178 0 -389 223q-58 -58 -86 -79t-63 -50t-57 -39t-64 -32t-121 -21q-135 0 -218 88t-83 224t81 228t216 93q79 0 157 -41t119 -78t119 -115l36 36q30 30 39 38t37 35t40 35q13 8 58 42q73 52 192 52q120 0 204 -90z
M1319 519q0 79 -44 130t-129 51t-172 -74t-124 -112q66 -61 94 -86q28 -24 91 -56q62 -32 130 -32t111 50t43 129zM203 514q0 -78 45 -126t125 -48q127 0 301 174q-59 55 -92 83t-99 65q-66 36 -129 36t-107 -53t-44 -131z" />
    <glyph glyph-name="integral" unicode="&#x222b;" horiz-adv-x="1136" 
d="M858 1506q0 -46 -24 -68t-62 -21q-37 0 -70 44t-47 44q-42 0 -57 -103q-4 -28 -4 -60v-55l2 -70l2 -80v-1047q0 -244 -31 -342q-55 -184 -227 -184q-53 0 -97 28t-44 67q-1 41 23 63t56 22t63 -43q30 -43 40 -43q59 0 59 237q0 24 -2 48v1083l-2 175q0 124 14 176
q33 128 89 180q56 51 138 52q81 1 131 -28t50 -75z" />
    <glyph glyph-name="approxequal" unicode="&#x2248;" horiz-adv-x="1204" 
d="M892 551q-107 0 -306 73q-199 72 -261 72q-61 0 -103 -46t-54 -111h-105q14 127 79 215t186 88q90 0 286 -73t275 -73q122 0 153 154h103q-14 -129 -80 -214t-173 -85zM893 182q-106 0 -307 74t-264 74q-62 0 -104 -47t-50 -113h-107q47 303 265 303q92 0 288 -73
t273 -72q122 -1 153 151h103q-14 -129 -79 -213t-171 -84z" />
    <glyph glyph-name="notequal" unicode="&#x2260;" horiz-adv-x="1210" 
d="M1124 233h-587l-156 -299l-127 66l121 233h-289v148h365l137 260h-502v145h580l157 304l127 -66l-125 -238h299v-145h-374l-138 -260h512v-148z" />
    <glyph glyph-name="lessequal" unicode="&#x2264;" horiz-adv-x="1210" 
d="M1124 168l-1038 377v153l1038 383v-159l-835 -299l835 -297v-158zM1124 -61h-1038v147h1038v-147z" />
    <glyph glyph-name="greaterequal" unicode="&#x2265;" horiz-adv-x="1210" 
d="M1124 545l-1038 -377v158l836 297l-836 299v159l1038 -383v-153zM1124 -61h-1038v147h1038v-147z" />
    <glyph glyph-name="lozenge" unicode="&#x25ca;" horiz-adv-x="1243" 
d="M1047 729l-353 -801h-147l-350 801l350 801h147zM891 729l-270 645l-269 -645l269 -645z" />
    <glyph glyph-name="dotlessj" unicode="&#xe0d6;" horiz-adv-x="391" 
d="M104 -45v1143h172v-1204q0 -137 -61 -204t-201 -67l-80 6v148l64 -6q77 0 92 50q14 50 14 134z" />
    <glyph glyph-name="grave.cap" unicode="&#xe300;" horiz-adv-x="401" 
d="M-33 1874h201l143 -291h-123z" />
    <glyph glyph-name="acute.cap" unicode="&#xe301;" horiz-adv-x="401" 
d="M90 1583l143 291h201l-221 -291h-123z" />
    <glyph glyph-name="circumflex.cap" unicode="&#xe302;" horiz-adv-x="409" 
d="M-80 1583l207 291h158l204 -291h-159l-125 180l-125 -180h-160z" />
    <glyph glyph-name="caron.cap" unicode="&#xe303;" horiz-adv-x="405" 
d="M487 1874l-206 -291h-158l-205 291h160l125 -180l125 180h159z" />
    <glyph glyph-name="tilde.cap" unicode="&#xe304;" horiz-adv-x="409" 
d="M506 1849q0 -87 -47 -157t-129 -70q-49 0 -134 39t-102 39q-66 0 -80 -92h-110q0 92 55 160t135 67q51 0 123 -39q86 -39 107 -39q53 0 71 92h111z" />
    <glyph glyph-name="dieresis.cap" unicode="&#xe305;" horiz-adv-x="417" 
d="M-37 1626v207h160v-207h-160zM295 1626v207h160v-207h-160z" />
    <glyph glyph-name="macron.cap" unicode="&#xe306;" horiz-adv-x="409" 
d="M-66 1673v111h541v-111h-541z" />
    <glyph glyph-name="breve.cap" unicode="&#xe307;" horiz-adv-x="372" 
d="M-70 1823h99q0 -53 50 -95t107 -42t108 41q50 42 50 96h98q0 -88 -60 -174t-196 -86t-196 86t-60 174z" />
    <glyph glyph-name="ring.cap" unicode="&#xe308;" horiz-adv-x="372" 
d="M-16 1729q0 86 58 144t144 58t144 -58t59 -144q0 -87 -58 -145q-59 -58 -145 -58t-144 58t-58 145zM70 1729q0 -47 34 -82t82 -35q47 0 82 35t35 82t-35 81t-82 35q-48 -1 -82 -35t-34 -81z" />
    <glyph glyph-name="hungarumlaut.cap" unicode="&#xe309;" horiz-adv-x="430" 
d="M-63 1583l143 291h201l-222 -291h-122zM272 1583l144 291h200l-221 -291h-123z" />
    <glyph glyph-name="dotaccent.cap" unicode="&#xe30a;" horiz-adv-x="393" 
d="M117 1626v207h159v-207h-159z" />
    <glyph glyph-name="caron.alt" unicode="&#xe30b;" horiz-adv-x="399" 
d="M145 1171l54 291h178l-121 -291h-111z" />
    <glyph glyph-name="commaaccent" unicode="&#xe30c;" horiz-adv-x="503" 
d="M160 -289v187h170v-164q0 -82 -39 -120t-121 -44v53q23 6 34 12q31 17 36 76h-80z" />
    <glyph glyph-name="commaaccent.alt" unicode="&#xe30d;" horiz-adv-x="503" 
d="M340 1462v-186h-170v174q0 141 160 154v-54q-23 -6 -34 -12q-32 -18 -36 -76h80z" />
    <glyph glyph-name="uniF8FF" unicode="&#xf8ff;" horiz-adv-x="1024" 
d="M-12 1470h1048v-1470h-1048v1470zM90 102h844v1264h-844v-1264zM543 479h-94l-5 35q0 115 29 169t92 118q63 59 83 94t20 93t-46 107q-46 50 -110 50q-145 0 -168 -195l-102 17q14 141 88 211t186 70t184 -74t72 -195q0 -70 -27 -123t-103 -122t-87 -109
q-12 -40 -12 -146zM557 240h-115v137h115v-137z" />
    </font>
</defs>
</svg>
