<?xml version="1.0" standalone="no"?>
<!DOCTYPE svg PUBLIC "-//W3C//DTD SVG 1.1//EN" "http://www.w3.org/Graphics/SVG/1.1/DTD/svg11.dtd" >
<svg xmlns="http://www.w3.org/2000/svg">
<metadata>
Created by FontPrep 20130207 at Tue Jan 21 12:19:12 2014
 By fireant
Part of the digitally encoded machine readable outline data for producing the Typefaces provided is copyrighted (c) 2003 - 2006 Linotype GmbH, www.linotype.com. All rights reserved. This software is the property of Linotype GmbH, and may not be reproduced, modified, disclosed or transferred without the express written approval of Linotype GmbH. Copyright (c) 1988, 1990, 1993 Adobe Systems Incorporated. All Rights Reserved. Helvetica is a trademark of Heidelberger Druckmaschinen AG, exclusively licensed through Linotype GmbH, and may be registered in certain jurisdictions. This typeface is original artwork of Linotype Design Studio. The design may be protected in certain jurisdictions.
</metadata>
<defs>
<font id="98b5ba2e71a06dadbac9e2edcf963853" horiz-adv-x='1024' >
  <font-face 
    font-family="HelvNeueforIBM-Medium"
    font-weight="500"
    font-stretch="normal"
    units-per-em="2048"
    panose-1="2 11 6 4 2 2 2 2 2 4"
    ascent="1462"
    descent="-586"
    x-height="1059"
    cap-height="1462"
    bbox="-354 -457.02 2140 1960"
    underline-thickness="102"
    underline-position="-102"
    unicode-range="U+000D-FB02"
  />
<missing-glyph horiz-adv-x="1019" 
d="M-14 1470h1048v-1470h-1048v1470zM88 102h844v1264h-844v-1264zM541 479h-95l-4 35q0 115 29 169t92 118q63 59 83 94t20 93t-46 107q-46 50 -110 50q-145 0 -168 -195l-102 17q14 141 88 211t186 70t184 -74t72 -195q0 -70 -27 -123t-103 -122t-87 -109
q-12 -40 -12 -146zM555 240h-115v137h115v-137z" />
    <glyph glyph-name="IJ" unicode="IJ" horiz-adv-x="1626" 
d="M1499 1462v-991q0 -86 -9 -152q-9 -65 -40 -135t-81 -114t-140 -75q-90 -30 -211 -30q-221 0 -329 128t-107 341v78h256v-76q0 -130 45 -196t159 -66t158 68q43 68 43 215v1005h256zM129 0v1462h256v-1462h-256z" />
    <glyph glyph-name="ij" unicode="ij" horiz-adv-x="940" 
d="M584 -80v1139h233v-1149q0 -164 -72 -247t-231 -83q-63 0 -104 8v185q42 -9 90 -9t66 35t18 121zM584 1241v221h233v-221h-233zM106 0v1059h234v-1059h-234zM106 1241v221h234v-221h-234z" />
    <glyph glyph-name="napostrophe" unicode="&#x22;n" horiz-adv-x="1177" 
d="M-14 1462v203h268v-182q0 -162 -238 -172v78q82 12 93 73h-123zM147 0v1059h222v-156l4 -4q55 88 141 138t188 50q176 0 276 -92t99 -268v-727h-233v666q-4 125 -53 181t-159 56t-180 -80t-71 -198v-625h-234z" />
    <glyph glyph-name="fi" unicode="fi" horiz-adv-x="1089" 
d="M748 0v1059h233v-1059h-233zM-8 885v174h174v88q0 184 79 250q79 65 204 65t174 -14v-182q-47 12 -109 12q-115 0 -115 -111v-108h199v-174h-199v-885h-233v885h-174zM748 1241v221h233v-221h-233z" />
    <glyph glyph-name="fl" unicode="fl" horiz-adv-x="1087" 
d="M-10 885v174h174v88q0 184 79 250q79 65 204 65t174 -14v-182q-47 12 -109 12q-115 0 -115 -111v-108h199v-174h-199v-885h-233v885h-174zM745 0v1462h234v-1462h-234z" />
    <glyph glyph-name=".notdef" horiz-adv-x="1019" 
d="M-14 1470h1048v-1470h-1048v1470zM88 102h844v1264h-844v-1264zM541 479h-95l-4 35q0 115 29 169t92 118q63 59 83 94t20 93t-46 107q-46 50 -110 50q-145 0 -168 -195l-102 17q14 141 88 211t186 70t184 -74t72 -195q0 -70 -27 -123t-103 -122t-87 -109
q-12 -40 -12 -146zM555 240h-115v137h115v-137z" />
    <glyph glyph-name=".null" horiz-adv-x="1024" 
 />
    <glyph glyph-name=".null" horiz-adv-x="1024" 
 />
    <glyph glyph-name="nonmarkingreturn" horiz-adv-x="681" 
 />
    <glyph glyph-name="CR" unicode="&#xd;" horiz-adv-x="0" 
 />
    <glyph glyph-name="space" unicode=" " horiz-adv-x="466" 
 />
    <glyph glyph-name="exclam" unicode="!" horiz-adv-x="520" 
d="M133 1462h256v-422l-67 -632h-121l-68 632v422zM123 0v256h274v-256h-274z" />
    <glyph glyph-name="quotedbl" unicode="&#x22;" horiz-adv-x="890" 
d="M162 885v577h209v-577h-209zM522 885v577h209v-577h-209z" />
    <glyph glyph-name="numbersign" unicode="#" horiz-adv-x="1110" 
d="M997 584v-154h-194l-62 -430h-163l59 430h-225l-62 -430h-164l60 430h-193v154h215l37 266h-192v154h213l59 430h166l-62 -430h228l59 430h166l-61 -430h176v-154h-197l-37 -266h174zM696 850h-227l-37 -266h227z" />
    <glyph glyph-name="dollar" unicode="$" horiz-adv-x="1083" 
d="M844 393q0 72 -40 122t-88 71t-124 41v-477q252 18 252 243zM39 1096q0 186 135 294t330 107v160h88v-160q196 0 322 -102t126 -297h-233q-4 106 -55 160t-160 55v-432q110 -29 184 -59q200 -80 262 -211q39 -79 39 -185q0 -219 -135 -336t-350 -125v-160h-88v160
q-227 4 -364 131q-136 127 -132 348h234q-4 -287 262 -294v495q-100 27 -170 55q-195 79 -256 209q-39 80 -39 187zM504 1313q-231 0 -232 -201q1 -156 232 -209v410z" />
    <glyph glyph-name="percent" unicode="%" horiz-adv-x="1978" 
d="M500 -49l796 1532h156l-793 -1532h-159zM1505 -29q-176 0 -259 114t-83 293t86 294q86 114 256 114t256 -114t86 -294q0 -179 -83 -293t-259 -114zM1348 379q0 -274 155 -275q82 0 121 76t39 199q0 274 -160 274q-155 0 -155 -274zM477 647q-176 0 -259 114t-83 293
t86 294q86 114 256 114t256 -114t86 -294q0 -179 -83 -293t-259 -114zM319 1055q0 -274 156 -275q82 0 121 76t39 199q0 274 -158 274t-158 -274z" />
    <glyph glyph-name="ampersand" unicode="&#x26;" horiz-adv-x="1310" 
d="M608 1323q-68 0 -112 -45t-43 -110q0 -65 24 -103q50 -80 109 -147q55 38 86 64q86 74 86 182q0 64 -41 112q-41 47 -109 47zM289 394q1 -108 65 -174t154 -64q90 0 149 30t80 53q60 72 64 80l-287 357q-8 -6 -54 -31t-64 -40t-50 -46q-57 -57 -57 -165zM516 -29
q-207 0 -334 117t-127 318q0 250 336 423q-51 66 -75 102t-48 97q-25 61 -24 121q0 156 103 252t255 96t258 -91t107 -259q0 -229 -265 -371l228 -274q35 100 45 196h205q-25 -213 -115 -358l281 -340h-287l-133 164q-158 -193 -410 -193z" />
    <glyph glyph-name="quotesingle" unicode="'" horiz-adv-x="563" 
d="M178 885v577h209v-577h-209z" />
    <glyph glyph-name="parenleft" unicode="(" horiz-adv-x="552" 
d="M90 553q0 492 295 944h190q-252 -453 -252 -957t252 -931h-190q-141 227 -218 449t-77 495z" />
    <glyph glyph-name="parenright" unicode=")" horiz-adv-x="555" 
d="M463 551q0 -494 -295 -942h-191q252 451 252 953t-252 935h191q139 -223 217 -449t78 -497z" />
    <glyph glyph-name="asterisk" unicode="*" horiz-adv-x="749" 
d="M303 1462h139v-245l224 88l49 -134l-234 -77l144 -193l-109 -80l-145 201l-140 -201l-114 80l143 193l-227 77l45 134l225 -88v245z" />
    <glyph glyph-name="plus" unicode="+" horiz-adv-x="1200" 
d="M496 623v413h209v-413h411v-209h-411v-414h-209v414h-412v209h412z" />
    <glyph glyph-name="comma" unicode="," horiz-adv-x="448" 
d="M82 0v276h285v-276q-2 -125 -77 -212t-200 -112v125q66 17 100 73t33 126h-141z" />
    <glyph glyph-name="hyphen" unicode="-" horiz-adv-x="794" 
d="M98 446v222h596v-222h-596z" />
    <glyph glyph-name="period" unicode="." horiz-adv-x="448" 
d="M82 0v276h285v-276h-285z" />
    <glyph glyph-name="slash" unicode="/" horiz-adv-x="737" 
d="M-37 -35l588 1532h223l-588 -1532h-223z" />
    <glyph glyph-name="zero" unicode="0" horiz-adv-x="1153" 
d="M578 166q262 0 262 551t-262 551t-262 -551t262 -551zM578 1462q388 0 475 -489q20 -119 20 -256q0 -285 -92 -492q-51 -117 -153 -185t-250 -69q-390 0 -476 490q-20 119 -20 256q0 286 92 491q51 118 154 186t250 68z" />
    <glyph glyph-name="one" unicode="1" horiz-adv-x="849" 
d="M86 1012v184q162 0 279 57t139 181h190v-1434h-256v1012h-352z" />
    <glyph glyph-name="two" unicode="2" horiz-adv-x="1093" 
d="M1034 209v-209h-979q2 332 316 543q35 25 113 78q130 88 223 176q92 89 96 217q0 100 -53 177t-189 77q-236 0 -246 -359h-233q0 246 130 400t363 153q125 0 219 -42t145 -110q99 -134 98 -274q-1 -142 -65 -248t-161 -179t-195 -134q-247 -153 -280 -266h698z" />
    <glyph glyph-name="three" unicode="3" horiz-adv-x="1157" 
d="M799 1065q-1 92 -63 147q-62 56 -169 56t-170 -87t-59 -206h-234q8 213 136 350t326 137q196 0 331 -101t135 -282q0 -236 -203 -307v-4q123 -25 192 -121t69 -237q0 -197 -148 -318t-376 -121q-226 0 -355 134t-133 366h233q-4 -135 67 -220t198 -85q128 0 204 68
t76 188q0 158 -120 208q-97 40 -255 36v174q133 -6 226 48q92 54 92 177z" />
    <glyph glyph-name="four" unicode="4" horiz-adv-x="1112" 
d="M1065 524v-184h-184v-340h-222v340h-614v231l614 863h222v-910h184zM659 524v631h-4l-430 -631h434z" />
    <glyph glyph-name="five" unicode="5" horiz-adv-x="1120" 
d="M977 1434v-209h-567l-74 -365l4 -4q96 109 264 109q209 -1 329 -135t120 -333t-115 -355q-58 -77 -156 -124t-225 -47q-215 0 -354 114t-148 323h234q10 -118 80 -180q71 -62 197 -62t190 86q63 86 63 221t-69 221q-70 86 -203 86q-180 0 -232 -131h-233l154 785h741z
" />
    <glyph glyph-name="six" unicode="6" horiz-adv-x="1150" 
d="M598 166q120 0 186 87t66 211t-66 209t-188 85t-188 -84q-68 -84 -68 -209t68 -212t190 -87zM628 942q212 0 334 -136t122 -346t-133 -349q-132 -139 -345 -140q-302 0 -419 220q-103 199 -103 504q0 306 118 524q60 111 169 177t267 66t285 -110q126 -110 134 -281h-234
q-8 90 -63 143q-55 54 -127 54q-173 1 -238 -135q-43 -87 -57 -184t-21 -173l5 -4q94 170 306 170z" />
    <glyph glyph-name="seven" unicode="7" horiz-adv-x="974" 
d="M-4 1225v209h981v-195q-483 -545 -535 -1239h-256q25 328 172 644t381 581h-743z" />
    <glyph glyph-name="eight" unicode="8" horiz-adv-x="1165" 
d="M584 156q120 0 196 70t76 192q0 120 -77 188t-195 68t-196 -68q-77 -68 -77 -188t76 -192q76 -70 197 -70zM584 -29q-223 0 -365 122q-141 122 -141 329q0 135 69 227q70 92 193 123v4q-203 76 -203 295q0 183 117 287t330 104q214 0 330 -103t116 -288q0 -219 -203 -295
v-4q123 -31 193 -123t70 -227q0 -207 -142 -329t-364 -122zM584 1278q-98 0 -162 -58t-64 -160t62 -156q62 -56 164 -56q100 0 162 55t62 157t-62 160q-64 58 -162 58z" />
    <glyph glyph-name="nine" unicode="9" horiz-adv-x="1150" 
d="M552 674q122 0 190 87t67 212q1 125 -67 210t-191 85t-187 -84t-65 -210q0 -126 65 -213q66 -87 188 -87zM520 166q140 0 202 89q63 89 80 181t29 221l-4 5q-96 -172 -304 -172t-333 132q-124 132 -124 349t132 354t361 137q292 0 405 -219q101 -198 101 -504t-118 -524
q-60 -111 -169 -177q-110 -66 -268 -67t-284 109t-134 282h234q8 -90 63 -143t131 -53z" />
    <glyph glyph-name="colon" unicode=":" horiz-adv-x="555" 
d="M135 760v276h285v-276h-285zM135 0v276h285v-276h-285z" />
    <glyph glyph-name="semicolon" unicode=";" horiz-adv-x="552" 
d="M133 0v276h285v-276q-2 -125 -77 -212t-200 -112v125q66 17 101 73t32 126h-141zM133 760v276h285v-276h-285z" />
    <glyph glyph-name="less" unicode="&#x3c;" horiz-adv-x="1200" 
d="M1120 193v-209l-1040 460v148l1040 461v-209l-766 -326z" />
    <glyph glyph-name="equal" unicode="=" horiz-adv-x="1198" 
d="M1116 829v-208h-1032v208h1032zM1116 416v-209h-1032v209h1032z" />
    <glyph glyph-name="greater" unicode="&#x3e;" horiz-adv-x="1200" 
d="M80 193l766 325l-766 326v209l1040 -461v-148l-1040 -460v209z" />
    <glyph glyph-name="question" unicode="?" horiz-adv-x="1071" 
d="M301 997h-233q0 227 133 363t343 137q210 0 336 -111t126 -303q0 -75 -36 -179q-9 -26 -46 -66t-43 -46q-113 -94 -148 -131t-61 -105t-27 -159h-221q0 170 36 256t124 160q40 32 60 52t41 39q61 61 63 172q2 110 -65 168t-134 59q-125 0 -187 -81q-61 -82 -61 -225z
M393 0v256h275v-256h-275z" />
    <glyph glyph-name="at" unicode="@" horiz-adv-x="1570" 
d="M705 442q115 0 197 121t83 244q0 74 -48 127t-114 53q-119 0 -201 -116t-81 -242q0 -83 45 -135t119 -52zM1059 471q0 -41 39 -41q100 0 183 130t83 312q0 224 -157 358t-403 134t-410 -177q-165 -177 -165 -455t171 -456t436 -178q135 0 256 54t204 149h144
q-98 -160 -260 -248t-353 -88q-321 0 -541 223t-220 570q0 307 222 523t516 216t496 -171t203 -429q0 -145 -51 -267t-129 -194q-161 -149 -303 -149q-49 1 -83 31t-38 88h-4q-102 -117 -229 -117t-213 94t-86 227q0 205 128 368t320 163q158 0 229 -148l37 117h144
l-148 -539q-18 -59 -18 -100z" />
    <glyph glyph-name="A" unicode="A" horiz-adv-x="1363" 
d="M676 1210l-221 -628h446l-219 628h-6zM-16 0l561 1462h272l563 -1462h-274l-137 387h-584l-137 -387h-264z" />
    <glyph glyph-name="B" unicode="B" horiz-adv-x="1394" 
d="M381 666v-457h453q118 0 182 60t64 170t-65 168t-181 59h-453zM125 0v1462h711q202 0 318 -92t116 -270q0 -221 -209 -312v-4q133 -29 204 -127t70 -249q0 -182 -134 -295t-404 -113h-672zM381 1253v-403h418q94 0 154 53q61 53 61 155t-53 148q-53 47 -162 47h-418z" />
    <glyph glyph-name="C" unicode="C" horiz-adv-x="1429" 
d="M762 1288q-219 0 -332 -163t-113 -394t113 -394t332 -163q164 0 259 106t114 277h249q-16 -264 -187 -428t-435 -164q-317 0 -509 220q-191 220 -191 545t190 546q192 221 510 221q254 0 425 -134q170 -135 195 -366h-256q-74 291 -364 291z" />
    <glyph glyph-name="D" unicode="D" horiz-adv-x="1441" 
d="M383 1253v-1044h252q290 0 395 152q51 75 72 163q20 88 20 207t-20 207q-48 209 -222 276q-99 39 -245 39h-252zM127 0v1462h606q322 0 484 -204q161 -204 161 -528t-162 -526q-162 -204 -483 -204h-606z" />
    <glyph glyph-name="E" unicode="E" horiz-adv-x="1267" 
d="M127 0v1462h1053v-221h-797v-383h737v-209h-737v-428h811v-221h-1067z" />
    <glyph glyph-name="F" unicode="F" horiz-adv-x="1173" 
d="M127 0v1462h1010v-221h-754v-383h661v-209h-661v-649h-256z" />
    <glyph glyph-name="G" unicode="G" horiz-adv-x="1515" 
d="M1403 770v-770h-164l-39 172q-100 -115 -202 -161t-238 -46q-317 0 -509 220q-191 220 -191 545t190 546q192 221 510 221q248 0 423 -131t203 -369h-249q-19 137 -125 214t-252 77q-219 0 -332 -163t-113 -394t113 -394t332 -163q195 -4 300 104t109 297h-389v195h623z
" />
    <glyph glyph-name="H" unicode="H" horiz-adv-x="1429" 
d="M127 0v1462h256v-581h666v581h256v-1462h-256v659h-666v-659h-256z" />
    <glyph glyph-name="I" unicode="I" horiz-adv-x="516" 
d="M129 0v1462h256v-1462h-256z" />
    <glyph glyph-name="J" unicode="J" horiz-adv-x="1073" 
d="M946 1462v-991q0 -86 -9 -152q-9 -65 -40 -135t-81 -114t-140 -75q-90 -30 -211 -30q-221 0 -329 128t-107 341v78h256v-76q0 -130 45 -196q46 -66 160 -66t157 68t43 215v1005h256z" />
    <glyph glyph-name="K" unicode="K" horiz-adv-x="1376" 
d="M127 0v1462h256v-665l651 665h316l-584 -583l625 -879h-320l-479 698l-209 -206v-492h-256z" />
    <glyph glyph-name="L" unicode="L" horiz-adv-x="1173" 
d="M127 0v1462h256v-1241h743v-221h-999z" />
    <glyph glyph-name="M" unicode="M" horiz-adv-x="1767" 
d="M125 0v1462h360l404 -1145h4l393 1145h356v-1462h-243v1128h-4l-406 -1128h-211l-405 1128h-4v-1128h-244z" />
    <glyph glyph-name="N" unicode="N" horiz-adv-x="1435" 
d="M125 0v1462h270l668 -1077h4v1077h244v-1462h-271l-665 1075h-6v-1075h-244z" />
    <glyph glyph-name="O" unicode="O" horiz-adv-x="1515" 
d="M758 1497q316 0 508 -221t192 -546t-191 -545t-509 -220t-509 220t-191 545t191 546q192 221 509 221zM758 1288q-219 0 -332 -163t-113 -394t113 -394t332 -163t332 163t112 394q0 231 -112 394q-113 163 -332 163z" />
    <glyph glyph-name="P" unicode="P" horiz-adv-x="1312" 
d="M383 1253v-483h375q102 0 179 57t77 185q0 242 -252 241h-379zM127 0v1462h645q148 0 252 -43t155 -116q89 -132 90 -293q1 -162 -90 -291q-51 -72 -155 -115t-252 -43h-389v-561h-256z" />
    <glyph glyph-name="Q" unicode="Q" horiz-adv-x="1515" 
d="M1202 721q0 241 -112 404q-113 163 -332 163t-332 -163t-113 -394t113 -394t332 -163q92 0 164 35l-148 129l123 141l178 -155q127 156 127 397zM758 -35q-317 0 -509 220q-191 220 -191 545t190 546q192 221 510 221t508 -221q192 -221 192 -545q0 -161 -52 -313
t-155 -248l189 -164l-125 -139l-213 186q-152 -88 -344 -88z" />
    <glyph glyph-name="R" unicode="R" horiz-adv-x="1406" 
d="M383 1253v-456h420q250 0 250 233q0 129 -69 176t-185 47h-416zM1309 1067q0 -280 -242 -369v-4q84 -10 151 -83t66 -226q0 -299 80 -385h-274q-39 62 -39 244q-1 182 -61 270t-230 88h-377v-602h-256v1462h698q238 0 361 -103t123 -292z" />
    <glyph glyph-name="S" unicode="S" horiz-adv-x="1273" 
d="M295 487q0 -161 102 -237q103 -76 265 -76t238 65t75 156q0 135 -121 180q-74 28 -220 66q-146 37 -216 55q-324 84 -324 371q0 207 159 319t387 111q228 0 390 -124q160 -124 160 -343h-256q-20 258 -316 258q-106 0 -187 -45t-81 -145q0 -137 174 -189q4 0 197 -51
q192 -51 225 -61q137 -43 211 -147t74 -224q0 -335 -369 -434q-100 -27 -213 -27q-266 0 -436 131t-174 391h256z" />
    <glyph glyph-name="T" unicode="T" horiz-adv-x="1251" 
d="M33 1241v221h1184v-221h-465v-1241h-256v1241h-463z" />
    <glyph glyph-name="U" unicode="U" horiz-adv-x="1435" 
d="M117 526v936h256v-852q0 -252 83 -338t261 -86q96 0 163 27q68 27 102 63q59 63 75 213q4 47 4 121v852h256v-936q0 -274 -161 -417q-162 -143 -440 -143t-438 142q-160 144 -161 418z" />
    <glyph glyph-name="V" unicode="V" horiz-adv-x="1251" 
d="M477 0l-487 1462h266l367 -1157h4l374 1157h261l-500 -1462h-285z" />
    <glyph glyph-name="W" unicode="W" horiz-adv-x="1886" 
d="M373 0l-385 1462h260l264 -1118h4l295 1118h262l287 -1118h4l272 1118h260l-403 -1462h-260l-293 1118h-4l-299 -1118h-264z" />
    <glyph glyph-name="X" unicode="X" horiz-adv-x="1302" 
d="M500 758l-484 704h306l331 -516l346 516h287l-483 -704l518 -758h-311l-365 559l-371 -559h-292z" />
    <glyph glyph-name="Y" unicode="Y" horiz-adv-x="1280" 
d="M512 0v573l-549 889h297l387 -655l381 655h287l-547 -889v-573h-256z" />
    <glyph glyph-name="Z" unicode="Z" horiz-adv-x="1288" 
d="M111 1241v221h1112v-194l-852 -1047h872v-221h-1198v209l852 1032h-786z" />
    <glyph glyph-name="bracketleft" unicode="[" horiz-adv-x="577" 
d="M129 -391v1888h457v-184h-236v-1520h236v-184h-457z" />
    <glyph glyph-name="backslash" unicode="\" horiz-adv-x="737" 
d="M186 1497l588 -1532h-223l-588 1532h223z" />
    <glyph glyph-name="bracketright" unicode="]" horiz-adv-x="579" 
d="M449 1497v-1888h-457v184h235v1520h-235v184h457z" />
    <glyph glyph-name="asciicircum" unicode="^" horiz-adv-x="1083" 
d="M307 686h-209l369 748h147l369 -748h-209l-233 506z" />
    <glyph glyph-name="underscore" unicode="_" horiz-adv-x="995" 
d="M1010 -256h-1024v102h1024v-102z" />
    <glyph glyph-name="grave" unicode="`" horiz-adv-x="442" 
d="M-100 1499h274l186 -293h-170z" />
    <glyph glyph-name="a" unicode="a" horiz-adv-x="1130" 
d="M762 356v174q-56 -34 -159 -47q-102 -12 -128 -16q-88 -14 -139 -53t-51 -117q-1 -78 67 -110q68 -31 155 -31t171 50t84 150zM776 760q0 143 -218 143t-234 -168h-234q12 189 146 271t322 82q187 0 312 -76t125 -232v-544q1 -44 13 -62t43 -18h24q8 0 33 4v-162
q-76 -27 -147 -27q-156 0 -181 129q-66 -63 -166 -96t-200 -33q-154 0 -258 81t-105 229q0 187 133 257q66 34 125 48t150 24q37 8 96 14q105 12 163 34t58 102z" />
    <glyph glyph-name="b" unicode="b" horiz-adv-x="1216" 
d="M915 527q0 155 -77 266q-78 111 -219 111t-217 -101q-76 -99 -76 -269t80 -274t222 -104t215 108q72 108 72 263zM100 0v1462h234v-540h4q49 76 136 120t179 45q240 -1 368 -159t128 -396t-118 -400q-118 -161 -339 -161q-279 0 -366 174h-4v-145h-222z" />
    <glyph glyph-name="c" unicode="c" horiz-adv-x="1105" 
d="M295 518q0 -150 70 -256t210 -106q102 0 169 63t83 178h234q-33 -207 -157 -317t-329 -109q-241 0 -377 153q-136 154 -136 400t134 405q136 159 388 158q195 0 328 -98t149 -284h-234q-14 96 -77 147t-167 51t-187 -72q-101 -86 -101 -313z" />
    <glyph glyph-name="d" unicode="d" horiz-adv-x="1216" 
d="M595 156q144 0 220 110t76 276q0 164 -79 262q-78 98 -222 99q-144 -1 -216 -113t-73 -267q0 -155 75 -261t219 -106zM1116 1462v-1462h-221v143h-4q-88 -172 -329 -172q-242 0 -368 158t-126 418t134 400t324 140q106 1 204 -41t149 -124h4v540h233z" />
    <glyph glyph-name="e" unicode="e" 
d="M287 469q1 -133 73 -223t211 -90q197 0 258 176h222q-37 -170 -169 -265t-311 -96q-246 0 -382 153t-136 395q-1 241 141 405t378 164t380 -187q144 -186 113 -432h-778zM563 903q-117 1 -195 -79t-81 -201h544q-7 117 -79 199t-189 81z" />
    <glyph glyph-name="f" unicode="f" horiz-adv-x="606" 
d="M-8 885v174h174v88q0 184 79 250q79 65 204 65t174 -14v-182q-47 12 -109 12q-115 0 -115 -111v-108h199v-174h-199v-885h-233v885h-174z" />
    <glyph glyph-name="g" unicode="g" horiz-adv-x="1198" 
d="M583 184q140 0 211 108q70 108 70 260t-70 251q-71 100 -214 100q-143 -1 -211 -109t-68 -255t71 -251t211 -104zM1098 1059v-1004q0 -239 -133 -357t-387 -118q-117 0 -214 29t-174 106q-76 78 -86 195h234q20 -92 85 -124t169 -32q272 0 272 271v161h-4
q-49 -88 -134 -137t-183 -49q-162 0 -272 78q-203 144 -203 479q0 223 130 377t353 154t309 -175h4v146h234z" />
    <glyph glyph-name="h" unicode="h" 
d="M100 0v1462h234v-542h4q45 74 130 120t187 47q175 0 275 -92t100 -268v-727h-233v666q-3 125 -53 181t-160 56t-180 -80q-71 -80 -70 -198v-625h-234z" />
    <glyph glyph-name="i" unicode="i" horiz-adv-x="446" 
d="M106 0v1059h234v-1059h-234zM106 1241v221h234v-221h-234z" />
    <glyph glyph-name="j" unicode="j" horiz-adv-x="468" 
d="M115 -80v1139h233v-1149q0 -164 -72 -247t-231 -83q-63 0 -104 8v185q41 -9 89 -9t67 35q18 35 18 121zM115 1241v221h233v-221h-233z" />
    <glyph glyph-name="k" unicode="k" horiz-adv-x="1081" 
d="M119 0v1462h233v-831l422 428h287l-406 -389l445 -670h-285l-323 514l-140 -135v-379h-233z" />
    <glyph glyph-name="l" unicode="l" horiz-adv-x="446" 
d="M106 0v1462h234v-1462h-234z" />
    <glyph glyph-name="m" unicode="m" horiz-adv-x="1746" 
d="M106 0v1059h222v-148h6q59 88 133 132t184 44q111 0 191 -45t114 -131q129 176 332 176q354 0 354 -356v-731h-233v618q0 187 -46 235q-43 50 -146 50q-225 0 -226 -282v-621h-233v680q0 115 -42 169t-142 54t-166 -75q-68 -75 -68 -199v-629h-234z" />
    <glyph glyph-name="n" unicode="n" 
d="M100 0v1059h222v-156l4 -4q55 88 141 138t188 50q175 0 275 -92t100 -268v-727h-233v666q-3 125 -53 181t-160 56t-180 -80q-71 -80 -70 -198v-625h-234z" />
    <glyph glyph-name="o" unicode="o" horiz-adv-x="1183" 
d="M592 156q147 0 224 110t77 264q0 152 -77 263t-224 111t-224 -112q-77 -110 -77 -263t77 -263t224 -110zM592 -29q-248 0 -391 155q-143 154 -143 402t142 404q144 156 392 156t391 -156t143 -404t-143 -402t-391 -155z" />
    <glyph glyph-name="p" unicode="p" horiz-adv-x="1202" 
d="M915 527q0 155 -77 266q-78 111 -219 111t-217 -101q-76 -99 -76 -269t80 -274t222 -104t215 108q72 108 72 263zM100 -391v1450h222v-144h4q92 172 330 172q238 -1 365 -159q128 -158 128 -396t-118 -400q-118 -161 -339 -161q-111 0 -207 42t-147 124h-4v-528h-234z
" />
    <glyph glyph-name="q" unicode="q" horiz-adv-x="1214" 
d="M891 530q0 174 -76 274t-217 99t-219 -111t-78 -265t73 -263t220 -108t222 100t75 274zM1116 1059v-1450h-233v528h-4q-111 -166 -343 -166t-351 161q-117 162 -117 400t128 397t366 159t329 -173h4v144h221z" />
    <glyph glyph-name="r" unicode="r" horiz-adv-x="710" 
d="M100 0v1059h219v-205h5q20 88 113 161t196 72q20 0 88 -6v-225q-55 10 -100 10q-123 0 -205 -96t-82 -266v-504h-234z" />
    <glyph glyph-name="s" unicode="s" horiz-adv-x="1048" 
d="M532 156q246 0 236 139q-4 55 -34 77q-50 35 -105 51t-164 38q-109 23 -166 44q-145 53 -189 145q-28 56 -28 136t41 142t109 96q129 63 299 63q171 0 294 -78q123 -79 142 -247h-244q-29 141 -215 141q-102 0 -147 -33q-46 -32 -46 -66q0 -60 31 -81t49 -31
q19 -10 59 -21q75 -20 174 -40q279 -55 346 -186q28 -54 27 -130q-1 -119 -75 -199q-134 -144 -398 -145q-209 1 -337 95t-132 274h234q18 -184 239 -184z" />
    <glyph glyph-name="t" unicode="t" horiz-adv-x="675" 
d="M0 885v174h176v317h234v-317h211v-174h-211v-566q0 -81 19 -113t89 -32t103 8v-180q-102 -12 -152 -12q-172 0 -230 62t-63 208v625h-176z" />
    <glyph glyph-name="u" unicode="u" 
d="M1030 1059v-1059h-229v147h-4q-43 -78 -128 -127t-173 -49q-207 1 -301 103t-95 313v672h234v-649q0 -134 51 -194t152 -60q260 0 260 288v615h233z" />
    <glyph glyph-name="v" unicode="v" horiz-adv-x="1038" 
d="M391 0l-385 1059h254l268 -813h4l259 813h241l-379 -1059h-262z" />
    <glyph glyph-name="w" unicode="w" horiz-adv-x="1552" 
d="M334 0l-328 1059h248l207 -791h4l199 791h235l191 -791h4l215 791h237l-332 -1059h-239l-197 786h-4l-194 -786h-246z" />
    <glyph glyph-name="x" unicode="x" horiz-adv-x="1054" 
d="M-14 0l399 557l-367 502h283l221 -326l232 326h270l-360 -490l405 -569h-281l-268 391l-260 -391h-274z" />
    <glyph glyph-name="y" unicode="y" horiz-adv-x="1060" 
d="M268 -420q-82 0 -162 12v197q90 -14 111 -14q74 0 108 36t56 111l27 82l-402 1055h256l277 -791h4l268 791h244l-412 -1116q-72 -180 -111 -236q-92 -127 -264 -127z" />
    <glyph glyph-name="z" unicode="z" horiz-adv-x="985" 
d="M70 874v185h860v-164l-606 -711h637v-184h-932v164l585 710h-544z" />
    <glyph glyph-name="braceleft" unicode="{" horiz-adv-x="688" 
d="M33 461v184q92 0 153 58q39 36 39 92v422q0 129 89 205t173 75h187v-184h-113q-115 0 -115 -144v-399q0 -106 -70 -158q-71 -51 -143 -57v-4q213 -20 213 -227v-387q0 -143 115 -144h113v-184h-187q-84 0 -173 76t-89 204v406q0 88 -65 127q-66 39 -127 39z" />
    <glyph glyph-name="bar" unicode="|" horiz-adv-x="454" 
d="M123 -438v2048h209v-2048h-209z" />
    <glyph glyph-name="braceright" unicode="}" horiz-adv-x="690" 
d="M655 645v-184q-63 0 -128 -36t-64 -114v-422q0 -129 -89 -205t-173 -75h-187v184h113q115 0 115 144v399q0 180 213 215v4q-213 20 -213 227v387q0 143 -115 144h-113v184h187q84 0 173 -76t89 -204v-406q1 -88 65 -127t127 -39z" />
    <glyph glyph-name="asciitilde" unicode="~" horiz-adv-x="1196" 
d="M812 344q-89 0 -208 70t-226 70t-179 -140l-74 172q86 176 256 176q89 0 271 -85q125 -54 164 -54q40 0 77 26t52 45t52 68l74 -172q-55 -84 -113 -130t-146 -46z" />
    <glyph glyph-name="uni00A0" unicode="&#xa0;" horiz-adv-x="569" 
 />
    <glyph glyph-name="exclamdown" unicode="&#xa1;" horiz-adv-x="520" 
d="M389 -375h-256v418l68 637h121l67 -637v-418zM397 1087v-256h-274v256h274z" />
    <glyph glyph-name="cent" unicode="&#xa2;" horiz-adv-x="1089" 
d="M285 523q0 -141 59 -245t180 -122v747q-125 -12 -182 -125t-57 -255zM524 -213v184q-215 0 -344 159q-129 160 -129 402t132 399t341 156v185h88v-185q174 0 299 -104t138 -278h-234q-10 88 -66 143t-137 55v-747q186 33 211 241h234q-37 -201 -149 -313t-296 -113v-184
h-88z" />
    <glyph glyph-name="sterling" unicode="&#xa3;" horiz-adv-x="1097" 
d="M1116 80q-139 -115 -296 -115q-70 1 -146 15t-88 16q-124 41 -232 41t-190 -70l-109 166q84 57 153 151q122 166 25 369h-188v133h129q-96 115 -96 294t145 298t334 119q240 0 376 -129t138 -377h-233q-18 311 -277 312q-98 1 -163 -63q-140 -137 30 -454h301v-133h-252
q33 -59 33 -137q0 -182 -207 -336l4 -4l45 18t68 26q34 11 88 11t154 -34q94 -37 151 -37q109 0 199 78z" />
    <glyph glyph-name="currency" unicode="&#xa4;" horiz-adv-x="1124" 
d="M558 1231q181 0 288 -92l119 116l125 -125l-115 -118q96 -100 96 -288t-98 -304l112 -121l-112 -113l-117 119q-106 -102 -294 -102t-300 100l-115 -119l-114 115l117 125q-102 114 -102 302t102 284l-117 125l117 116l116 -114q111 94 292 94zM562 412q124 0 206 90
t82 215t-82 215t-206 90t-209 -89t-85 -217t85 -216t209 -88z" />
    <glyph glyph-name="yen" unicode="&#xa5;" horiz-adv-x="1103" 
d="M442 0v338h-280v133h280v139h-280v133h200l-382 719h260l319 -655l326 655h254l-385 -719h202v-133h-280v-139h280v-133h-280v-338h-234z" />
    <glyph glyph-name="brokenbar" unicode="&#xa6;" horiz-adv-x="456" 
d="M123 -182v512h209v-512h-209zM123 842v512h209v-512h-209z" />
    <glyph glyph-name="section" unicode="&#xa7;" horiz-adv-x="1114" 
d="M252 666q0 -96 113 -160l372 -209q123 53 123 168q0 47 -30 86t-113 84l-340 194q-57 -16 -91 -60t-34 -103zM979 1110h-221q-4 88 -56 145t-127 57q-77 0 -127 -43q-50 -44 -50 -112t70 -127q71 -59 171 -107q101 -47 201 -101t171 -140t71 -188t-64 -187
q-63 -86 -154 -114q113 -95 113 -261t-119 -259q-120 -93 -300 -93t-302 111t-127 309h221q16 -236 215 -236q178 0 178 166q0 70 -33 105t-59 63t-135 84q-110 56 -125 64q-164 80 -262 171t-98 222q0 213 221 305q-88 94 -88 207q0 156 123 251t291 95q168 1 284 -105
q117 -106 117 -282z" />
    <glyph glyph-name="dieresis" unicode="&#xa8;" horiz-adv-x="405" 
d="M262 1454h234v-221h-234v221zM143 1233h-233v221h233v-221z" />
    <glyph glyph-name="copyright" unicode="&#xa9;" horiz-adv-x="1558" 
d="M1530 731q0 -336 -220 -551t-539 -215t-531 218t-213 551q0 333 221 548t531 215q311 0 531 -215t220 -551zM1366 731q0 277 -169 455t-419 178t-419 -178t-169 -450t162 -455t420 -183t426 178t168 455zM805 268q-195 0 -315 131t-120 327t117 321t314 124
q145 0 246 -80q100 -81 118 -229h-139q-16 80 -78 128t-147 48q-125 0 -196 -87t-71 -222t76 -231q74 -96 180 -96t166 50t70 132h141q-25 -144 -125 -230t-237 -86z" />
    <glyph glyph-name="ordfeminine" unicode="&#xaa;" horiz-adv-x="700" 
d="M463 1006v90q-34 -18 -175 -37q-44 -6 -79 -30t-35 -64q0 -68 115 -68q174 0 174 109zM641 1272v-309q0 -25 6 -36t29 -9h14q12 0 19 2v-140q-45 -16 -97 -16q-109 0 -127 100q-29 -44 -101 -72t-158 -28q-84 0 -157 50t-73 151t92 142q75 35 201 55t153 38q18 16 21 37
q0 59 -33 75t-90 17q-135 0 -143 -86h-174q12 117 103 168t217 51t212 -48t86 -142z" />
    <glyph glyph-name="guillemotleft" unicode="&#xab;" horiz-adv-x="901" 
d="M401 190l-317 252v230l317 252v-211l-194 -156l194 -156v-211zM807 190l-318 252v230l318 252v-211l-195 -156l195 -156v-211z" />
    <glyph glyph-name="logicalnot" unicode="&#xac;" horiz-adv-x="1200" 
d="M907 221v400h-823v208h1032v-608h-209z" />
    <glyph glyph-name="uni00AD" unicode="&#xad;" horiz-adv-x="794" 
d="M98 446v222h596v-222h-596z" />
    <glyph glyph-name="registered" unicode="&#xae;" horiz-adv-x="1558" 
d="M629 655v-362h-140v848h322q157 -1 233 -59t76 -185q0 -207 -221 -231l238 -373h-158l-219 362h-131zM629 774h155q96 0 147 25q50 25 50 108q0 115 -184 115h-168v-248zM1530 731q0 -336 -220 -551t-539 -215t-531 218t-213 551q0 333 221 548t531 215q311 0 531 -215
t220 -551zM1366 731q0 277 -169 455t-419 178t-419 -178t-169 -450t162 -455t420 -183t426 178t168 455z" />
    <glyph glyph-name="macron" unicode="&#xaf;" horiz-adv-x="307" 
d="M449 1278h-590v133h590v-133z" />
    <glyph glyph-name="degree" unicode="&#xb0;" horiz-adv-x="802" 
d="M94 1155q0 127 90 217t217 90t217 -90t90 -217t-90 -217t-217 -90t-217 90t-90 217zM209 1155q0 -80 56 -136t136 -56t137 56q56 56 56 136t-56 136q-56 57 -136 57t-137 -56q-56 -56 -56 -137z" />
    <glyph glyph-name="plusminus" unicode="&#xb1;" horiz-adv-x="1200" 
d="M496 780v256h209v-256h411v-209h-411v-256h-209v256h-412v209h412zM84 0v209h1032v-209h-1032z" />
    <glyph glyph-name="twosuperior" unicode="&#xb2;" horiz-adv-x="727" 
d="M676 702v-143h-645q2 221 205 350q16 13 90 59t100 68t58 65q32 44 33 99t-42 87t-106 32q-137 0 -150 -191h-178q0 156 90 245q89 89 237 89t238 -66t90 -200q0 -156 -209 -289q-23 -14 -77 -49t-80 -51q-24 -16 -52 -46t-38 -59h436z" />
    <glyph glyph-name="threesuperior" unicode="&#xb3;" horiz-adv-x="714" 
d="M346 1319q-62 0 -104 -44t-39 -112h-164q6 141 90 220t219 79t222 -58t87 -188t-131 -176v-4q78 -14 123 -71t45 -144q0 -131 -96 -206t-242 -74q-326 0 -336 317h164q-4 -74 42 -124t125 -50t129 40t50 105q1 156 -243 144v119q86 -4 146 26q61 30 61 90q0 58 -43 84
t-105 27z" />
    <glyph glyph-name="acute" unicode="&#xb4;" horiz-adv-x="442" 
d="M82 1206l184 293h277l-291 -293h-170z" />
    <glyph glyph-name="mu" unicode="&#xb5;" 
d="M1030 1059v-1059h-229v147h-4q-43 -78 -124 -127t-155 -49q-121 0 -184 74v-436h-234v1450h234v-649q0 -134 51 -194t152 -60q260 0 260 288v615h233z" />
    <glyph glyph-name="paragraph" unicode="&#xb6;" horiz-adv-x="1200" 
d="M475 -328v1033q-197 0 -319 104t-121 268q0 199 126 292t351 93h530v-1790h-163v1657h-240v-1657h-164z" />
    <glyph glyph-name="periodcentered" unicode="&#xb7;" horiz-adv-x="538" 
d="M117 617q0 61 46 107t107 46q62 0 108 -46t46 -106t-46 -108q-46 -47 -108 -47t-107 47q-46 47 -46 107z" />
    <glyph glyph-name="cedilla" unicode="&#xb8;" horiz-adv-x="442" 
d="M293 -276q0 37 -28 57q-29 20 -71 20t-75 -20l-45 39l135 180h98l-94 -121l2 -2q23 8 79 8t110 -40q52 -39 52 -123t-73 -132q-75 -48 -187 -47q-112 0 -198 47l37 82q72 -33 133 -32q125 0 125 84z" />
    <glyph glyph-name="onesuperior" unicode="&#xb9;" horiz-adv-x="755" 
d="M113 1182v118q246 0 282 144h144v-885h-179v623h-247z" />
    <glyph glyph-name="ordmasculine" unicode="&#xba;" horiz-adv-x="735" 
d="M182 1112q0 -86 49 -150t139 -65t134 63q45 64 51 152q0 86 -49 152t-138 66t-138 -66q-48 -66 -48 -152zM733 1112q0 -162 -94 -255t-270 -93t-271 93q-94 93 -94 255t94 256t270 94t271 -94q94 -94 94 -256z" />
    <glyph glyph-name="guillemotright" unicode="&#xbb;" horiz-adv-x="901" 
d="M92 924l318 -252v-230l-318 -252v211l195 156l-195 156v211zM498 924l317 -252v-230l-317 -252v211l194 156l-194 156v211z" />
    <glyph glyph-name="onequarter" unicode="&#xbc;" horiz-adv-x="1652" 
d="M1448 199v-199h-178v199h-400v166l379 512h199v-525h96v-153h-96zM1270 352v324h-4l-240 -324h244zM51 1182v118q246 0 283 144h143v-885h-178v623h-248zM264 -49l858 1532h160l-856 -1532h-162z" />
    <glyph glyph-name="onehalf" unicode="&#xbd;" horiz-adv-x="1691" 
d="M258 -49l858 1532h160l-856 -1532h-162zM51 1182v118q246 0 283 144h143v-885h-178v623h-248zM1591 143v-143h-645q0 96 36 172t90 119q105 83 236 155q126 72 126 188q0 62 -42 99t-108 37q-137 0 -149 -201h-179q0 162 88 253t238 91t240 -70q90 -71 90 -206
q0 -94 -63 -168t-176 -139t-151 -98q-51 -44 -67 -89h436z" />
    <glyph glyph-name="threequarters" unicode="&#xbe;" horiz-adv-x="1732" 
d="M1559 199v-199h-179v199h-399v166l375 512h203v-525h96v-153h-96zM1380 352v324h-4l-239 -324h243zM412 -49l858 1532h160l-857 -1532h-161zM516 1208q0 58 -43 84t-105 27q-62 0 -104 -44q-43 -44 -39 -112h-164q7 141 91 220t219 79t222 -58t87 -188t-131 -176v-4
q78 -14 123 -71t45 -144q0 -131 -96 -206t-242 -74q-326 0 -336 317h164q-4 -74 42 -124t125 -50t129 40t50 105q0 154 -244 142v119q84 -4 146 27q61 33 61 91z" />
    <glyph glyph-name="questiondown" unicode="&#xbf;" horiz-adv-x="1073" 
d="M772 80h234q0 -219 -134 -354q-134 -136 -342 -136q-210 0 -336 109t-126 295q0 90 29 159q30 69 60 99q31 30 95 85q64 54 94 85q30 30 56 98t26 160h221q0 -170 -37 -258t-154 -185q-101 -80 -121 -147q-13 -42 -13 -88q0 -104 65 -161q66 -56 135 -56q123 0 186 80
q62 80 62 215zM397 1087h275v-256h-275v256z" />
    <glyph glyph-name="Agrave" unicode="&#xc0;" horiz-adv-x="1363" 
d="M348 1896h275l186 -292h-170zM676 1210l-221 -628h446l-219 628h-6zM-16 0l561 1462h272l563 -1462h-274l-137 387h-584l-137 -387h-264z" />
    <glyph glyph-name="Aacute" unicode="&#xc1;" horiz-adv-x="1363" 
d="M559 1604l184 292h277l-291 -292h-170zM676 1210l-221 -628h446l-219 628h-6zM-16 0l561 1462h272l563 -1462h-274l-137 387h-584l-137 -387h-264z" />
    <glyph glyph-name="Acircumflex" unicode="&#xc2;" horiz-adv-x="1363" 
d="M678 1788l-143 -184h-189l219 292h228l221 -292h-191zM676 1210l-221 -628h446l-219 628h-6zM-16 0l561 1462h272l563 -1462h-274l-137 387h-584l-137 -387h-264z" />
    <glyph glyph-name="Atilde" unicode="&#xc3;" horiz-adv-x="1363" 
d="M526 1712q-72 0 -88 -84h-116q14 90 70 161t134 71t168 -39q92 -39 133 -39q80 0 103 90h114q-38 -236 -227 -236q-63 0 -151 38t-140 38zM676 1210l-221 -628h446l-219 628h-6zM-16 0l561 1462h272l563 -1462h-274l-137 387h-584l-137 -387h-264z" />
    <glyph glyph-name="Adieresis" unicode="&#xc4;" horiz-adv-x="1363" 
d="M739 1851h234v-221h-234v221zM621 1630h-234v221h234v-221zM676 1210l-221 -628h446l-219 628h-6zM-16 0l561 1462h272l563 -1462h-274l-137 387h-584l-137 -387h-264z" />
    <glyph glyph-name="Aring" unicode="&#xc5;" horiz-adv-x="1363" 
d="M677 1538q-89 0 -151 59q-61 59 -61 151t62 152q63 60 151 60t150 -59t62 -151t-62 -152t-151 -60zM555 1750q0 -54 36 -90t88 -36t87 36t35 90t-35 89t-87 35t-88 -35t-36 -89zM676 1210l-221 -628h446l-219 628h-6zM-16 0l561 1462h272l563 -1462h-274l-137 387h-584
l-137 -387h-264z" />
    <glyph glyph-name="AE" unicode="&#xc6;" horiz-adv-x="1961" 
d="M934 569v672h-74l-321 -672h395zM1890 1462v-221h-712v-383h667v-209h-667v-428h725v-221h-969v375h-490l-176 -375h-284l727 1462h1179z" />
    <glyph glyph-name="Ccedilla" unicode="&#xc7;" horiz-adv-x="1429" 
d="M784 -117q60 0 113 -40q53 -39 53 -123t-72 -129q-73 -44 -191 -44t-195 43l36 82q98 -33 134 -32q125 0 124 84q0 37 -27 57q-28 20 -71 20t-76 -20l-45 39l113 149q-285 29 -453 245t-168 528q-1 312 191 534q192 221 510 221q254 0 425 -134t195 -366h-256
q-74 291 -364 291q-219 0 -332 -163t-113 -394t113 -394t332 -163q164 0 260 106t113 277h249q-16 -262 -183 -424t-425 -166l-65 -86v-4q15 6 75 6z" />
    <glyph glyph-name="Egrave" unicode="&#xc8;" horiz-adv-x="1267" 
d="M358 1896h275l186 -292h-170zM127 0v1462h1053v-221h-797v-383h737v-209h-737v-428h811v-221h-1067z" />
    <glyph glyph-name="Eacute" unicode="&#xc9;" horiz-adv-x="1267" 
d="M539 1604l184 292h276l-290 -292h-170zM127 0v1462h1053v-221h-797v-383h737v-209h-737v-428h811v-221h-1067z" />
    <glyph glyph-name="Ecircumflex" unicode="&#xca;" horiz-adv-x="1265" 
d="M651 1788l-143 -184h-189l220 292h227l221 -292h-190zM125 0v1462h1053v-221h-797v-383h737v-209h-737v-428h811v-221h-1067z" />
    <glyph glyph-name="Edieresis" unicode="&#xcb;" horiz-adv-x="1265" 
d="M717 1851h233v-221h-233v221zM598 1630h-233v221h233v-221zM125 0v1462h1053v-221h-797v-383h737v-209h-737v-428h811v-221h-1067z" />
    <glyph glyph-name="Igrave" unicode="&#xcc;" horiz-adv-x="512" 
d="M-80 1896h275l186 -292h-170zM125 0v1462h256v-1462h-256z" />
    <glyph glyph-name="Iacute" unicode="&#xcd;" horiz-adv-x="514" 
d="M131 1604l184 292h277l-291 -292h-170zM129 0v1462h256v-1462h-256z" />
    <glyph glyph-name="Icircumflex" unicode="&#xce;" horiz-adv-x="507" 
d="M252 1788l-143 -184h-189l219 292h228l221 -292h-191zM125 0v1462h256v-1462h-256z" />
    <glyph glyph-name="Idieresis" unicode="&#xcf;" horiz-adv-x="477" 
d="M297 1851h233v-221h-233v221zM178 1630h-233v221h233v-221zM109 0v1462h256v-1462h-256z" />
    <glyph glyph-name="Eth" unicode="&#xd0;" horiz-adv-x="1441" 
d="M125 0v649h-137v209h137v604h606q321 0 483 -204t162 -528t-162 -526q-162 -204 -483 -204h-606zM381 1253v-395h399v-209h-399v-440h252q290 0 395 152q51 75 72 163q20 88 20 207t-20 207q-48 209 -222 276q-99 39 -245 39h-252z" />
    <glyph glyph-name="Ntilde" unicode="&#xd1;" horiz-adv-x="1435" 
d="M563 1712q-72 0 -88 -84h-117q14 90 70 161t134 71q77 0 169 -39t133 -39q80 0 103 90h114q-38 -236 -227 -236q-64 0 -152 38t-139 38zM125 0v1462h270l668 -1077h4v1077h244v-1462h-271l-665 1075h-6v-1075h-244z" />
    <glyph glyph-name="Ograve" unicode="&#xd2;" horiz-adv-x="1515" 
d="M367 1896h274l186 -292h-170zM758 1497q316 0 508 -221t192 -546t-191 -545t-509 -220t-509 220t-191 545t191 546q192 221 509 221zM758 1288q-219 0 -332 -163t-113 -394t113 -394t332 -163t332 163t112 394q0 231 -112 394q-113 163 -332 163z" />
    <glyph glyph-name="Oacute" unicode="&#xd3;" horiz-adv-x="1515" 
d="M662 1604l184 292h276l-291 -292h-169zM758 1497q316 0 508 -221t192 -546t-191 -545t-509 -220t-509 220t-191 545t191 546q192 221 509 221zM758 1288q-219 0 -332 -163t-113 -394t113 -394t332 -163t332 163t112 394q0 231 -112 394q-113 163 -332 163z" />
    <glyph glyph-name="Ocircumflex" unicode="&#xd4;" horiz-adv-x="1515" 
d="M762 1788l-144 -184h-188l219 292h228l221 -292h-191zM758 1497q316 0 508 -221t192 -546t-191 -545t-509 -220t-509 220t-191 545t191 546q192 221 509 221zM758 1288q-219 0 -332 -163t-113 -394t113 -394t332 -163t332 163t112 394q0 231 -112 394q-113 163 -332 163z
" />
    <glyph glyph-name="Otilde" unicode="&#xd5;" horiz-adv-x="1515" 
d="M610 1712q-72 0 -88 -84h-116q14 90 70 161t133 71t169 -39t133 -39q80 0 103 90h114q-38 -236 -227 -236q-63 0 -151 38t-140 38zM758 1497q316 0 508 -221t192 -546t-191 -545t-509 -220t-509 220t-191 545t191 546q192 221 509 221zM758 1288q-219 0 -332 -163
t-113 -394t113 -394t332 -163t332 163t112 394q0 231 -112 394q-113 163 -332 163z" />
    <glyph glyph-name="Odieresis" unicode="&#xd6;" horiz-adv-x="1515" 
d="M819 1851h234v-221h-234v221zM700 1630h-233v221h233v-221zM758 1497q316 0 508 -221t192 -546t-191 -545t-509 -220t-509 220t-191 545t191 546q192 221 509 221zM758 1288q-219 0 -332 -163t-113 -394t113 -394t332 -163t332 163t112 394q0 231 -112 394
q-113 163 -332 163z" />
    <glyph glyph-name="multiply" unicode="&#xd7;" horiz-adv-x="1249" 
d="M479 518l-356 356l176 115l324 -325l327 325l176 -115l-358 -356l358 -356l-176 -115l-327 328l-324 -328l-176 115z" />
    <glyph glyph-name="Oslash" unicode="&#xd8;" horiz-adv-x="1511" 
d="M742 1288q-206 0 -320 -163q-113 -163 -113 -374t74 -350l674 758q-109 129 -315 129zM754 174q220 0 332 163t112 378t-76 346l-671 -758q119 -129 303 -129zM1454 718q0 -312 -191 -533q-191 -220 -509 -220q-270 0 -455 168l-156 -174l-86 74l162 184
q-166 213 -166 525q-1 312 191 534q192 221 510 221q272 0 454 -166l154 172l88 -73l-162 -183q166 -217 166 -529z" />
    <glyph glyph-name="Ugrave" unicode="&#xd9;" horiz-adv-x="1435" 
d="M367 1896h274l186 -292h-170zM117 526v936h256v-852q0 -252 83 -338t261 -86q96 0 163 27q68 27 102 63q59 63 75 213q4 47 4 121v852h256v-936q0 -274 -161 -417q-162 -143 -440 -143t-438 142q-160 144 -161 418z" />
    <glyph glyph-name="Uacute" unicode="&#xda;" horiz-adv-x="1435" 
d="M608 1604l185 292h276l-291 -292h-170zM117 526v936h256v-852q0 -252 83 -338t261 -86q96 0 163 27q68 27 102 63q59 63 75 213q4 47 4 121v852h256v-936q0 -274 -161 -417q-162 -143 -440 -143t-438 142q-160 144 -161 418z" />
    <glyph glyph-name="Ucircumflex" unicode="&#xdb;" horiz-adv-x="1435" 
d="M719 1788l-144 -184h-188l219 292h228l221 -292h-191zM117 526v936h256v-852q0 -252 83 -338t261 -86q96 0 163 27q68 27 102 63q59 63 75 213q4 47 4 121v852h256v-936q0 -274 -161 -417q-162 -143 -440 -143t-438 142q-160 144 -161 418z" />
    <glyph glyph-name="Udieresis" unicode="&#xdc;" horiz-adv-x="1435" 
d="M774 1851h234v-221h-234v221zM655 1630h-233v221h233v-221zM117 526v936h256v-852q0 -252 83 -338t261 -86q96 0 163 27q68 27 102 63q59 63 75 213q4 47 4 121v852h256v-936q0 -274 -161 -417q-162 -143 -440 -143t-438 142q-160 144 -161 418z" />
    <glyph glyph-name="Yacute" unicode="&#xdd;" horiz-adv-x="1280" 
d="M555 1604l184 292h277l-291 -292h-170zM512 0v573l-549 889h297l387 -655l381 655h287l-547 -889v-573h-256z" />
    <glyph glyph-name="Thorn" unicode="&#xde;" horiz-adv-x="1310" 
d="M127 0v1462h256v-221h389q390 0 477 -304q43 -153 0 -297q-20 -70 -70 -142q-51 -72 -155 -115t-252 -43h-389v-340h-256zM383 1032v-483h375q102 0 179 57t77 185q0 242 -252 241h-379z" />
    <glyph glyph-name="germandbls" unicode="&#xdf;" horiz-adv-x="1146" 
d="M102 0v1071q0 197 125 311t313 115q188 0 317 -100q130 -100 130 -269q0 -110 -53 -194t-156 -115v-4q125 -15 200 -117t75 -233q0 -217 -128 -355t-341 -139q-55 0 -115 6v185q23 -6 95 -6t128 28q127 64 127 291q0 135 -112 201q-80 51 -236 51v154q143 0 203 53
q80 63 80 172q0 207 -207 207q-87 1 -149 -59t-62 -207v-1047h-234z" />
    <glyph glyph-name="agrave" unicode="&#xe0;" horiz-adv-x="1130" 
d="M250 1499h274l187 -293h-170zM762 356v174q-56 -34 -159 -47q-102 -12 -128 -16q-88 -14 -139 -53t-51 -117q-1 -78 67 -110q68 -31 155 -31t171 50t84 150zM776 760q0 143 -218 143t-234 -168h-234q12 189 146 271t322 82q187 0 312 -76t125 -232v-544q1 -44 13 -62
t43 -18h24q8 0 33 4v-162q-76 -27 -147 -27q-156 0 -181 129q-66 -63 -166 -96t-200 -33q-154 0 -258 81t-105 229q0 187 133 257q66 34 125 48t150 24q37 8 96 14q105 12 163 34t58 102z" />
    <glyph glyph-name="aacute" unicode="&#xe1;" horiz-adv-x="1130" 
d="M444 1206l185 293h276l-291 -293h-170zM762 356v174q-56 -34 -159 -47q-102 -12 -128 -16q-88 -14 -139 -53t-51 -117q-1 -78 67 -110q68 -31 155 -31t171 50t84 150zM776 760q0 143 -218 143t-234 -168h-234q12 189 146 271t322 82q187 0 312 -76t125 -232v-544
q1 -44 13 -62t43 -18h24q8 0 33 4v-162q-76 -27 -147 -27q-156 0 -181 129q-66 -63 -166 -96t-200 -33q-154 0 -258 81t-105 229q0 187 133 257q66 34 125 48t150 24q37 8 96 14q105 12 163 34t58 102z" />
    <glyph glyph-name="acircumflex" unicode="&#xe2;" horiz-adv-x="1130" 
d="M567 1391l-143 -185h-188l219 293h227l221 -293h-190zM762 356v174q-56 -34 -159 -47q-102 -12 -128 -16q-88 -14 -139 -53t-51 -117q-1 -78 67 -110q68 -31 155 -31t171 50t84 150zM776 760q0 143 -218 143t-234 -168h-234q12 189 146 271t322 82q187 0 312 -76
t125 -232v-544q1 -44 13 -62t43 -18h24q8 0 33 4v-162q-76 -27 -147 -27q-156 0 -181 129q-66 -63 -166 -96t-200 -33q-154 0 -258 81t-105 229q0 187 133 257q66 34 125 48t150 24q37 8 96 14q105 12 163 34t58 102z" />
    <glyph glyph-name="atilde" unicode="&#xe3;" horiz-adv-x="1130" 
d="M702 1239q-63 0 -151 38t-139 38q-72 0 -88 -84h-117q15 90 71 161q56 70 133 70t169 -39t133 -39q79 1 102 91h115q-18 -113 -68 -166q-57 -70 -160 -70zM762 356v174q-56 -34 -159 -47q-102 -12 -128 -16q-88 -14 -139 -53t-51 -117q-1 -78 67 -110q68 -31 155 -31
t171 50t84 150zM776 760q0 143 -218 143t-234 -168h-234q12 189 146 271t322 82q187 0 312 -76t125 -232v-544q1 -44 13 -62t43 -18h24q8 0 33 4v-162q-76 -27 -147 -27q-156 0 -181 129q-66 -63 -166 -96t-200 -33q-154 0 -258 81t-105 229q0 187 133 257q66 34 125 48
t150 24q37 8 96 14q105 12 163 34t58 102z" />
    <glyph glyph-name="adieresis" unicode="&#xe4;" horiz-adv-x="1130" 
d="M623 1454h233v-221h-233v221zM504 1233h-234v221h234v-221zM762 356v174q-56 -34 -159 -47q-102 -12 -128 -16q-88 -14 -139 -53t-51 -117q-1 -78 67 -110q68 -31 155 -31t171 50t84 150zM776 760q0 143 -218 143t-234 -168h-234q12 189 146 271t322 82q187 0 312 -76
t125 -232v-544q1 -44 13 -62t43 -18h24q8 0 33 4v-162q-76 -27 -147 -27q-156 0 -181 129q-66 -63 -166 -96t-200 -33q-154 0 -258 81t-105 229q0 187 133 257q66 34 125 48t150 24q37 8 96 14q105 12 163 34t58 102z" />
    <glyph glyph-name="aring" unicode="&#xe5;" horiz-adv-x="1130" 
d="M563 1591q89 0 151 -59q62 -60 62 -152t-62 -152t-152 -59q-89 -1 -150 59t-62 152q0 92 62 152t151 59zM440 1381q0 -54 36 -90t88 -36t87 36t35 90t-35 89t-87 35t-88 -35t-36 -89zM762 356v174q-56 -34 -159 -47q-102 -12 -128 -16q-88 -14 -139 -53t-51 -117
q-1 -78 67 -110q68 -31 155 -31t171 50t84 150zM776 760q0 143 -218 143t-234 -168h-234q12 189 146 271t322 82q187 0 312 -76t125 -232v-544q1 -44 13 -62t43 -18h24q8 0 33 4v-162q-76 -27 -147 -27q-156 0 -181 129q-66 -63 -166 -96t-200 -33q-154 0 -258 81t-105 229
q0 187 133 257q66 34 125 48t150 24q37 8 96 14q105 12 163 34t58 102z" />
    <glyph glyph-name="ae" unicode="&#xe6;" horiz-adv-x="1814" 
d="M1259 903q-123 1 -193 -79t-77 -201h535q2 129 -70 205t-195 75zM291 296q1 -142 221 -140q96 0 176 58t80 155v157q-33 -33 -145 -44q-113 -11 -140 -15q-90 -14 -141 -53t-51 -118zM770 760q0 143 -212 143t-228 -168h-234q12 189 146 271t329 81q258 0 359 -143
q111 143 336 143q262 0 386 -171t105 -447h-768q0 -133 70 -223t207 -90q189 0 250 178h233q-45 -170 -173 -266t-306 -97q-279 0 -389 195q-129 -195 -441 -195q-168 0 -276 80t-107 230q0 187 133 257q99 51 246 70q62 8 163 22t136 41q35 28 35 89z" />
    <glyph glyph-name="ccedilla" unicode="&#xe7;" horiz-adv-x="1103" 
d="M637 -276q0 37 -28 57q-29 20 -71 20t-75 -20l-45 39l114 153q-272 16 -397 235q-76 132 -76 310q-1 252 135 411t388 158q196 0 328 -98t149 -284h-234q-14 96 -77 147t-167 51t-187 -72q-101 -86 -101 -313q-1 -150 69 -256t211 -106q102 0 169 63t83 178h234
q-65 -387 -428 -424l-74 -94l2 -2q23 8 79 8t110 -40q53 -39 53 -123t-74 -132q-75 -48 -187 -47q-112 0 -198 47l37 82q72 -33 133 -32q125 0 125 84z" />
    <glyph glyph-name="egrave" unicode="&#xe8;" 
d="M221 1499h275l186 -293h-170zM287 469q1 -133 73 -223t211 -90q197 0 258 176h222q-37 -170 -169 -265t-311 -96q-246 0 -382 153t-136 395q-1 241 141 405t378 164t380 -187q144 -186 113 -432h-778zM563 903q-117 1 -195 -79t-81 -201h544q-7 117 -79 199t-189 81z" />
    <glyph glyph-name="eacute" unicode="&#xe9;" 
d="M471 1206l184 293h277l-291 -293h-170zM287 469q1 -133 73 -223t211 -90q197 0 258 176h222q-37 -170 -169 -265t-311 -96q-246 0 -382 153t-136 395q-1 241 141 405t378 164t380 -187q144 -186 113 -432h-778zM563 903q-117 1 -195 -79t-81 -201h544q-7 117 -79 199
t-189 81z" />
    <glyph glyph-name="ecircumflex" unicode="&#xea;" horiz-adv-x="1126" 
d="M565 1391l-143 -185h-189l220 293h227l221 -293h-190zM285 469q1 -133 73 -223t211 -90q197 0 258 176h222q-37 -170 -169 -265t-311 -96q-246 0 -382 153t-136 395q-1 241 141 405t378 164t380 -187q144 -186 113 -432h-778zM561 903q-117 1 -195 -79t-81 -201h544
q-7 117 -79 199t-189 81z" />
    <glyph glyph-name="edieresis" unicode="&#xeb;" horiz-adv-x="1126" 
d="M623 1454h233v-221h-233v221zM504 1233h-234v221h234v-221zM285 469q1 -133 73 -223t211 -90q197 0 258 176h222q-37 -170 -169 -265t-311 -96q-246 0 -382 153t-136 395q-1 241 141 405t378 164t380 -187q144 -186 113 -432h-778zM561 903q-117 1 -195 -79t-81 -201h544
q-7 117 -79 199t-189 81z" />
    <glyph glyph-name="igrave" unicode="&#xec;" horiz-adv-x="442" 
d="M-125 1499h275l186 -293h-170zM336 0h-234v1059h234v-1059z" />
    <glyph glyph-name="iacute" unicode="&#xed;" horiz-adv-x="440" 
d="M104 1206l185 293h276l-291 -293h-170zM338 0h-234v1059h234v-1059z" />
    <glyph glyph-name="icircumflex" unicode="&#xee;" horiz-adv-x="436" 
d="M221 1391l-143 -185h-189l220 293h227l221 -293h-190zM338 0h-234v1059h234v-1059z" />
    <glyph glyph-name="idieresis" unicode="&#xef;" horiz-adv-x="405" 
d="M264 1454h234v-221h-234v221zM145 1233h-233v221h233v-221zM319 0h-233v1059h233v-1059z" />
    <glyph glyph-name="eth" unicode="&#xf0;" horiz-adv-x="1161" 
d="M576 852q-146 0 -216 -97t-70 -250t70 -251q68 -98 202 -98t218 104t84 246t-71 244t-217 102zM57 500q0 227 126 382t331 154q166 0 293 -90h4q-59 131 -221 268l-221 -106l-103 100l197 95q-147 61 -174 69l155 125q106 -35 213 -102l215 102l101 -100l-193 -92
q317 -264 318 -672q0 -295 -134 -478t-417 -184q-229 0 -360 151q-130 151 -130 378z" />
    <glyph glyph-name="ntilde" unicode="&#xf1;" 
d="M696 1239q-63 0 -151 38t-139 38q-72 0 -89 -84h-116q14 90 70 161q55 70 133 70t170 -39t133 -39q79 1 102 91h115q-18 -113 -68 -166q-57 -70 -160 -70zM98 0v1059h221v-156l5 -4q55 88 141 138t188 50q175 0 275 -92t100 -268v-727h-233v666q-3 125 -53 181t-160 56
t-180 -80q-71 -80 -70 -198v-625h-234z" />
    <glyph glyph-name="ograve" unicode="&#xf2;" horiz-adv-x="1183" 
d="M238 1499h274l186 -293h-170zM592 156q147 0 224 110t77 264q0 152 -77 263t-224 111t-224 -112q-77 -110 -77 -263t77 -263t224 -110zM592 -29q-248 0 -391 155q-143 154 -143 402t142 404q144 156 392 156t391 -156t143 -404t-143 -402t-391 -155z" />
    <glyph glyph-name="oacute" unicode="&#xf3;" horiz-adv-x="1183" 
d="M475 1206l184 293h277l-291 -293h-170zM592 156q147 0 224 110t77 264q0 152 -77 263t-224 111t-224 -112q-77 -110 -77 -263t77 -263t224 -110zM592 -29q-248 0 -391 155q-143 154 -143 402t142 404q144 156 392 156t391 -156t143 -404t-143 -402t-391 -155z" />
    <glyph glyph-name="ocircumflex" unicode="&#xf4;" horiz-adv-x="1181" 
d="M592 1391l-143 -185h-189l219 293h228l221 -293h-191zM590 156q147 0 224 110t77 264q0 152 -77 263t-224 111t-224 -112q-77 -110 -77 -263t77 -263t224 -110zM590 -29q-248 0 -391 155q-143 154 -143 402t142 404q144 156 392 156t391 -156t143 -404t-143 -402
t-391 -155z" />
    <glyph glyph-name="otilde" unicode="&#xf5;" horiz-adv-x="1181" 
d="M438 1315q-72 0 -88 -84h-117q15 90 71 161q56 70 133 70t169 -39t133 -39q80 1 103 91h114q-38 -236 -227 -236q-63 0 -151 38t-140 38zM590 156q147 0 224 110t77 264q0 152 -77 263t-224 111t-224 -112q-77 -110 -77 -263t77 -263t224 -110zM590 -29q-248 0 -391 155
q-143 154 -143 402t142 404q144 156 392 156t391 -156t143 -404t-143 -402t-391 -155z" />
    <glyph glyph-name="odieresis" unicode="&#xf6;" horiz-adv-x="1181" 
d="M653 1454h234v-221h-234v221zM535 1233h-234v221h234v-221zM590 156q147 0 224 110t77 264q0 152 -77 263t-224 111t-224 -112q-77 -110 -77 -263t77 -263t224 -110zM590 -29q-248 0 -391 155q-143 154 -143 402t142 404q144 156 392 156t391 -156t143 -404t-143 -402
t-391 -155z" />
    <glyph glyph-name="divide" unicode="&#xf7;" horiz-adv-x="1200" 
d="M1116 414h-1032v209h1032v-209zM601 793q-58 0 -103 44t-45 104t44 103t103 43t103 -44q45 -44 45 -101t-44 -103t-103 -46zM601 -51q-58 0 -103 44t-45 104q0 59 44 103t103 44t103 -44q45 -44 45 -102t-44 -103q-44 -46 -103 -46z" />
    <glyph glyph-name="oslash" unicode="&#xf8;" horiz-adv-x="1198" 
d="M608 156q137 0 214 110t77 247q0 136 -47 228l-457 -499q76 -86 213 -86zM63 536q-1 240 143 396t392 155q209 0 348 -112l129 141l66 -57l-133 -146q125 -153 125 -393q1 -240 -143 -394t-392 -155q-209 0 -346 115l-131 -143l-66 57l133 147q-125 149 -125 389z
M588 903q-137 -1 -214 -111t-77 -246t47 -229l457 500q-76 86 -213 86z" />
    <glyph glyph-name="ugrave" unicode="&#xf9;" 
d="M209 1499h274l187 -293h-170zM1030 1059v-1059h-229v147h-4q-43 -78 -128 -127t-173 -49q-207 1 -301 103t-95 313v672h234v-649q0 -134 51 -194t152 -60q260 0 260 288v615h233z" />
    <glyph glyph-name="uacute" unicode="&#xfa;" 
d="M471 1206l184 293h277l-291 -293h-170zM1030 1059v-1059h-229v147h-4q-43 -78 -128 -127t-173 -49q-207 1 -301 103t-95 313v672h234v-649q0 -134 51 -194t152 -60q260 0 260 288v615h233z" />
    <glyph glyph-name="ucircumflex" unicode="&#xfb;" 
d="M563 1391l-143 -185h-189l220 293h227l221 -293h-190zM1028 1059v-1059h-229v147h-4q-43 -78 -128 -127t-173 -49q-207 1 -301 103t-95 313v672h234v-649q0 -134 51 -194t152 -60q260 0 260 288v615h233z" />
    <glyph glyph-name="udieresis" unicode="&#xfc;" 
d="M621 1454h233v-221h-233v221zM502 1233h-234v221h234v-221zM1028 1059v-1059h-229v147h-4q-43 -78 -128 -127t-173 -49q-207 1 -301 103t-95 313v672h234v-649q0 -134 51 -194t152 -60q260 0 260 288v615h233z" />
    <glyph glyph-name="yacute" unicode="&#xfd;" horiz-adv-x="1060" 
d="M453 1206l184 293h276l-290 -293h-170zM268 -420q-82 0 -162 12v197q90 -14 111 -14q74 0 108 36t56 111l27 82l-402 1055h256l277 -791h4l268 791h244l-412 -1116q-72 -180 -111 -236q-92 -127 -264 -127z" />
    <glyph glyph-name="thorn" unicode="&#xfe;" horiz-adv-x="1208" 
d="M100 -391v1853h234v-540h4q49 76 136 120t179 45q240 -1 368 -159t128 -396t-118 -400q-118 -161 -339 -161q-109 0 -207 41t-147 125h-4v-528h-234zM915 527q0 155 -77 266q-78 111 -219 111t-217 -101q-76 -99 -76 -269t80 -274t222 -104t215 108q72 108 72 263z" />
    <glyph glyph-name="ydieresis" unicode="&#xff;" horiz-adv-x="1060" 
d="M602 1454h234v-221h-234v221zM483 1233h-233v221h233v-221zM268 -420q-82 0 -162 12v197q90 -14 111 -14q74 0 108 36t56 111l27 82l-402 1055h256l277 -791h4l268 791h244l-412 -1116q-72 -180 -111 -236q-92 -127 -264 -127z" />
    <glyph glyph-name="Amacron" unicode="&#x100;" horiz-adv-x="1363" 
d="M975 1675h-590v133h590v-133zM676 1210l-221 -628h446l-219 628h-6zM-16 0l561 1462h272l563 -1462h-274l-137 387h-584l-137 -387h-264z" />
    <glyph glyph-name="amacron" unicode="&#x101;" horiz-adv-x="1130" 
d="M856 1278h-590v133h590v-133zM762 356v174q-56 -34 -159 -47q-102 -12 -128 -16q-88 -14 -139 -53t-51 -117q-1 -78 67 -110q68 -31 155 -31t171 50t84 150zM776 760q0 143 -218 143t-234 -168h-234q12 189 146 271t322 82q187 0 312 -76t125 -232v-544q1 -44 13 -62
t43 -18h24q8 0 33 4v-162q-76 -27 -147 -27q-156 0 -181 129q-66 -63 -166 -96t-200 -33q-154 0 -258 81t-105 229q0 187 133 257q66 34 125 48t150 24q37 8 96 14q105 12 163 34t58 102z" />
    <glyph glyph-name="Abreve" unicode="&#x102;" horiz-adv-x="1363" 
d="M350 1894h119q31 -156 219 -155q80 0 135 40t72 115h117q-16 -143 -106 -216q-90 -72 -232 -72q-143 0 -228 73q-84 74 -96 215zM676 1210l-221 -628h446l-219 628h-6zM-16 0l561 1462h272l563 -1462h-274l-137 387h-584l-137 -387h-264z" />
    <glyph glyph-name="abreve" unicode="&#x103;" horiz-adv-x="1130" 
d="M567 1341q80 0 135 40t72 116h117q-15 -143 -105 -216t-233 -73t-227 74t-97 215h119q31 -156 219 -156zM762 356v174q-56 -34 -159 -47q-102 -12 -128 -16q-88 -14 -139 -53t-51 -117q-1 -78 67 -110q68 -31 155 -31t171 50t84 150zM776 760q0 143 -218 143t-234 -168
h-234q12 189 146 271t322 82q187 0 312 -76t125 -232v-544q1 -44 13 -62t43 -18h24q8 0 33 4v-162q-76 -27 -147 -27q-156 0 -181 129q-66 -63 -166 -96t-200 -33q-154 0 -258 81t-105 229q0 187 133 257q66 34 125 48t150 24q37 8 96 14q105 12 163 34t58 102z" />
    <glyph glyph-name="Aogonek" unicode="&#x104;" horiz-adv-x="1363" 
d="M676 1210l-221 -628h446l-219 628h-6zM1024 -254q0 -52 24 -76q24 -25 56 -24q63 0 106 69l84 -18q-41 -154 -215 -154q-52 1 -103 21q-104 41 -104 169t234 267l-137 387h-584l-137 -387h-264l561 1462h272l563 -1462h-163q-111 -88 -152 -145t-41 -109z" />
    <glyph glyph-name="aogonek" unicode="&#x105;" horiz-adv-x="1130" 
d="M762 356v174q-56 -34 -159 -47q-102 -12 -128 -16q-88 -14 -139 -53t-51 -117q-1 -78 67 -110q68 -31 155 -31t171 50t84 150zM776 760q0 143 -218 143t-234 -168h-234q12 189 146 271t322 82q187 0 312 -76t125 -232v-544q1 -44 13 -62t43 -18h24q8 0 33 4v-162
q-76 -27 -147 -27h-3q-155 -124 -155 -235q-1 -41 23 -66t57 -24q63 0 106 69l84 -18q-41 -154 -215 -154q-52 1 -104 21q-104 40 -103 167q0 127 213 257q-16 8 -22 12q-45 27 -62 100q-66 -63 -166 -96t-200 -33q-154 0 -258 81t-105 229q0 187 133 257q66 34 125 48
t150 24q37 8 96 14q105 12 163 34t58 102z" />
    <glyph glyph-name="Cacute" unicode="&#x106;" horiz-adv-x="1429" 
d="M657 1604l185 292h276l-291 -292h-170zM762 1288q-219 0 -332 -163t-113 -394t113 -394t332 -163q164 0 259 106t114 277h249q-16 -264 -187 -428t-435 -164q-317 0 -509 220q-191 220 -191 545t190 546q192 221 510 221q254 0 425 -134q170 -135 195 -366h-256
q-74 291 -364 291z" />
    <glyph glyph-name="cacute" unicode="&#x107;" horiz-adv-x="1105" 
d="M483 1206l185 293h276l-291 -293h-170zM295 518q0 -150 70 -256t210 -106q102 0 169 63t83 178h234q-33 -207 -157 -317t-329 -109q-241 0 -377 153q-136 154 -136 400t134 405q136 159 388 158q195 0 328 -98t149 -284h-234q-14 96 -77 147t-167 51t-187 -72
q-101 -86 -101 -313z" />
    <glyph glyph-name="Ccircumflex" unicode="&#x108;" horiz-adv-x="1429" 
d="M762 1788l-144 -184h-188l219 292h228l221 -292h-191zM760 1288q-219 0 -332 -163t-113 -394t113 -394t332 -163q164 0 259 106t114 277h249q-16 -264 -187 -428t-435 -164q-317 0 -509 220q-191 220 -191 545t190 546q192 221 510 221q254 0 425 -134q170 -135 195 -366
h-256q-74 291 -364 291z" />
    <glyph glyph-name="ccircumflex" unicode="&#x109;" horiz-adv-x="1103" 
d="M584 1391l-144 -185h-188l219 293h227l222 -293h-191zM293 518q-1 -150 69 -256t211 -106q102 0 169 63t83 178h234q-33 -207 -157 -317t-329 -109q-241 0 -377 153q-136 154 -136 400t134 405q136 159 388 158q195 0 328 -98t149 -284h-234q-14 96 -77 147t-167 51
t-187 -72q-101 -86 -101 -313z" />
    <glyph glyph-name="Cdotaccent" unicode="&#x10a;" horiz-adv-x="1429" 
d="M874 1630h-233v221h233v-221zM760 1288q-219 0 -332 -163t-113 -394t113 -394t332 -163q164 0 259 106t114 277h249q-16 -264 -187 -428t-435 -164q-317 0 -509 220q-191 220 -191 545t190 546q192 221 510 221q254 0 425 -134q170 -135 195 -366h-256q-74 291 -364 291z
" />
    <glyph glyph-name="cdotaccent" unicode="&#x10b;" horiz-adv-x="1103" 
d="M694 1233h-233v221h233v-221zM293 518q-1 -150 69 -256t211 -106q102 0 169 63t83 178h234q-33 -207 -157 -317t-329 -109q-241 0 -377 153q-136 154 -136 400t134 405q136 159 388 158q195 0 328 -98t149 -284h-234q-14 96 -77 147t-167 51t-187 -72q-101 -86 -101 -313
z" />
    <glyph glyph-name="Ccaron" unicode="&#x10c;" horiz-adv-x="1429" 
d="M1090 1896l-222 -292h-227l-219 292h188l144 -182l145 182h191zM760 1288q-219 0 -332 -163t-113 -394t113 -394t332 -163q164 0 259 106t114 277h249q-16 -264 -187 -428t-435 -164q-317 0 -509 220q-191 220 -191 545t190 546q192 221 510 221q254 0 425 -134
q170 -135 195 -366h-256q-74 291 -364 291z" />
    <glyph glyph-name="ccaron" unicode="&#x10d;" horiz-adv-x="1103" 
d="M915 1499l-221 -293h-227l-219 293h188l144 -182l145 182h190zM293 518q-1 -150 69 -256t211 -106q102 0 169 63t83 178h234q-33 -207 -157 -317t-329 -109q-241 0 -377 153q-136 154 -136 400t134 405q136 159 388 158q195 0 328 -98t149 -284h-234q-14 96 -77 147
t-167 51t-187 -72q-101 -86 -101 -313z" />
    <glyph glyph-name="Dcaron" unicode="&#x10e;" horiz-adv-x="1441" 
d="M973 1896l-221 -292h-228l-219 292h189l143 -182l145 182h191zM381 1253v-1044h252q290 0 395 152q51 75 72 163q20 88 20 207t-20 207q-48 209 -222 276q-99 39 -245 39h-252zM125 0v1462h606q321 0 483 -204t162 -528t-162 -526q-162 -204 -483 -204h-606z" />
    <glyph glyph-name="dcaron" unicode="&#x10f;" horiz-adv-x="1400" 
d="M1217 1169l65 293h256l-166 -293h-155zM595 156q144 0 220 110t76 276q0 164 -79 262q-78 98 -222 99q-144 -1 -216 -113t-73 -267q0 -155 75 -261t219 -106zM1116 1462v-1462h-221v143h-4q-88 -172 -329 -172q-242 0 -368 158t-126 418t134 400t324 140q106 1 204 -41
t149 -124h4v540h233z" />
    <glyph glyph-name="Dcroat" unicode="&#x110;" horiz-adv-x="1441" 
d="M125 0v649h-137v209h137v604h606q321 0 483 -204t162 -528t-162 -526q-162 -204 -483 -204h-606zM381 1253v-395h399v-209h-399v-440h252q290 0 395 152q51 75 72 163q20 88 20 207t-20 207q-48 209 -222 276q-99 39 -245 39h-252z" />
    <glyph glyph-name="dcroat" unicode="&#x111;" horiz-adv-x="1263" 
d="M595 156q144 0 220 110t76 276q0 164 -79 262q-78 98 -222 99q-144 -1 -216 -113t-73 -267q0 -155 75 -261t219 -106zM1116 1196v-1196h-221v143h-4q-88 -172 -329 -172q-242 0 -368 158t-126 418t134 400t324 140q106 1 204 -41t149 -124h4v274h-314v133h314v133h233
v-133h162v-133h-162z" />
    <glyph glyph-name="Emacron" unicode="&#x112;" horiz-adv-x="1267" 
d="M950 1675h-590v133h590v-133zM127 0v1462h1053v-221h-797v-383h737v-209h-737v-428h811v-221h-1067z" />
    <glyph glyph-name="emacron" unicode="&#x113;" horiz-adv-x="1126" 
d="M858 1278h-590v133h590v-133zM285 469q1 -133 73 -223t211 -90q197 0 258 176h222q-37 -170 -169 -265t-311 -96q-246 0 -382 153t-136 395q-1 241 141 405t378 164t380 -187q144 -186 113 -432h-778zM561 903q-117 1 -195 -79t-81 -201h544q-7 117 -79 199t-189 81z" />
    <glyph glyph-name="Ebreve" unicode="&#x114;" horiz-adv-x="1267" 
d="M317 1894h119q31 -156 219 -155q80 0 136 40q55 40 71 115h117q-15 -143 -105 -216q-90 -72 -233 -72t-227 74t-97 214zM127 0v1462h1053v-221h-797v-383h737v-209h-737v-428h811v-221h-1067z" />
    <glyph glyph-name="ebreve" unicode="&#x115;" 
d="M569 1341q80 0 136 40q55 40 71 116h117q-15 -143 -105 -216t-233 -73t-227 74t-97 215h119q31 -156 219 -156zM287 469q1 -133 73 -223t211 -90q197 0 258 176h222q-37 -170 -169 -265t-311 -96q-246 0 -382 153t-136 395q-1 241 141 405t378 164t380 -187
q144 -186 113 -432h-778zM563 903q-117 1 -195 -79t-81 -201h544q-7 117 -79 199t-189 81z" />
    <glyph glyph-name="Edotaccent" unicode="&#x116;" horiz-adv-x="1265" 
d="M768 1630h-233v221h233v-221zM125 0v1462h1053v-221h-797v-383h737v-209h-737v-428h811v-221h-1067z" />
    <glyph glyph-name="edotaccent" unicode="&#x117;" horiz-adv-x="1126" 
d="M684 1233h-233v221h233v-221zM285 469q1 -133 73 -223t211 -90q197 0 258 176h222q-37 -170 -169 -265t-311 -96q-246 0 -382 153t-136 395q-1 241 141 405t378 164t380 -187q144 -186 113 -432h-778zM561 903q-117 1 -195 -79t-81 -201h544q-7 117 -79 199t-189 81z" />
    <glyph glyph-name="Eogonek" unicode="&#x118;" horiz-adv-x="1265" 
d="M1192 0h-78q-112 -88 -152 -145t-40 -109t24 -76q24 -25 55 -24q63 0 107 69l84 -18q-41 -154 -215 -154q-51 1 -103 21q-104 40 -104 168q0 129 234 268h-879v1462h1053v-221h-797v-383h737v-209h-737v-428h811v-221z" />
    <glyph glyph-name="eogonek" unicode="&#x119;" horiz-adv-x="1126" 
d="M561 903q-117 1 -195 -79t-81 -201h544q-7 117 -79 199t-189 81zM51 528q-1 232 141 396t378 164t380 -187q144 -186 113 -432h-778q1 -133 73 -223t211 -90q197 0 258 176h222q-27 -127 -111 -214q-112 -116 -276 -138q-53 -45 -68 -60q-96 -96 -96 -184q0 -41 24 -66
t56 -24q63 0 106 69l84 -18q-41 -154 -215 -154q-51 1 -104 21q-103 40 -103 161t186 248q-96 2 -184 39q-143 62 -220 196t-77 320z" />
    <glyph glyph-name="Ecaron" unicode="&#x11a;" horiz-adv-x="1265" 
d="M983 1896l-221 -292h-227l-220 292h189l143 -182l146 182h190zM125 0v1462h1053v-221h-797v-383h737v-209h-737v-428h811v-221h-1067z" />
    <glyph glyph-name="ecaron" unicode="&#x11b;" horiz-adv-x="1126" 
d="M893 1499l-221 -293h-228l-219 293h189l143 -182l145 182h191zM285 469q1 -133 73 -223t211 -90q197 0 258 176h222q-37 -170 -169 -265t-311 -96q-246 0 -382 153t-136 395q-1 241 141 405t378 164t380 -187q144 -186 113 -432h-778zM561 903q-117 1 -195 -79t-81 -201
h544q-7 117 -79 199t-189 81z" />
    <glyph glyph-name="Gcircumflex" unicode="&#x11c;" horiz-adv-x="1497" 
d="M766 1788l-143 -184h-189l219 292h228l221 -292h-191zM1403 770v-770h-164l-39 172q-100 -115 -202 -161t-238 -46q-317 0 -509 220q-191 220 -191 545t190 546q192 221 510 221q248 0 423 -131t203 -369h-249q-19 137 -125 214t-252 77q-219 0 -332 -163t-113 -394
t113 -394t332 -163q195 -4 300 104t109 297h-389v195h623z" />
    <glyph glyph-name="gcircumflex" unicode="&#x11d;" horiz-adv-x="1187" 
d="M604 1391l-143 -185h-189l220 293h227l221 -293h-190zM567 903q-143 -1 -211 -109t-68 -255t72 -251q70 -104 210 -104t211 108t71 260t-71 251q-71 100 -214 100zM1085 1059v-1004q0 -239 -133 -357t-387 -118q-117 0 -214 29t-173 107t-86 194h234q20 -92 85 -124
t169 -32q272 0 272 271v161h-4q-49 -88 -134 -137t-184 -49q-162 0 -272 78q-204 145 -203 479q0 223 130 377q129 154 353 154t310 -175h4v146h233z" />
    <glyph glyph-name="Gbreve" unicode="&#x11e;" horiz-adv-x="1497" 
d="M438 1894h119q31 -156 219 -155q80 0 135 40t72 115h117q-16 -143 -106 -216q-90 -72 -232 -72q-144 0 -228 74t-96 214zM1403 770v-770h-164l-39 172q-100 -115 -202 -161t-238 -46q-317 0 -509 220q-191 220 -191 545t190 546q192 221 510 221q248 0 423 -131t203 -369
h-249q-19 137 -125 214t-252 77q-219 0 -332 -163t-113 -394t113 -394t332 -163q195 -4 300 104t109 297h-389v195h623z" />
    <glyph glyph-name="gbreve" unicode="&#x11f;" horiz-adv-x="1187" 
d="M594 1341q80 0 135 40t72 116h117q-16 -143 -106 -216t-232 -73q-143 0 -228 74q-84 74 -96 215h119q31 -156 219 -156zM569 903q-143 -1 -211 -109t-68 -255t72 -251q70 -104 210 -104t211 108t71 260t-71 251q-71 100 -214 100zM1087 1059v-1004q0 -239 -133 -357
t-387 -118q-117 0 -214 29t-173 107t-86 194h234q20 -92 85 -124t169 -32q272 0 272 271v161h-4q-49 -88 -134 -137t-184 -49q-162 0 -272 78q-204 145 -203 479q0 223 130 377q129 154 353 154t310 -175h4v146h233z" />
    <glyph glyph-name="Gdotaccent" unicode="&#x120;" horiz-adv-x="1497" 
d="M879 1630h-234v221h234v-221zM1403 770v-770h-164l-39 172q-100 -115 -202 -161t-238 -46q-317 0 -509 220q-191 220 -191 545t190 546q192 221 510 221q248 0 423 -131t203 -369h-249q-19 137 -125 214t-252 77q-219 0 -332 -163t-113 -394t113 -394t332 -163
q195 -4 300 104t109 297h-389v195h623z" />
    <glyph glyph-name="gdotaccent" unicode="&#x121;" horiz-adv-x="1187" 
d="M702 1233h-233v221h233v-221zM567 903q-143 -1 -211 -109t-68 -255t72 -251q70 -104 210 -104t211 108t71 260t-71 251q-71 100 -214 100zM1085 1059v-1004q0 -239 -133 -357t-387 -118q-117 0 -214 29t-173 107t-86 194h234q20 -92 85 -124t169 -32q272 0 272 271v161
h-4q-49 -88 -134 -137t-184 -49q-162 0 -272 78q-204 145 -203 479q0 223 130 377q129 154 353 154t310 -175h4v146h233z" />
    <glyph glyph-name="Gcommaaccent" unicode="&#x122;" horiz-adv-x="1497" 
d="M627 -305v203h268v-183q0 -162 -238 -172v78q82 12 93 74h-123zM1403 770v-770h-164l-39 172q-100 -115 -202 -161t-238 -46q-317 0 -509 220q-191 220 -191 545t190 546q192 221 510 221q248 0 423 -131t203 -369h-249q-19 137 -125 214t-252 77q-219 0 -332 -163
t-113 -394t113 -394t332 -163q195 -4 300 104t109 297h-389v195h623z" />
    <glyph glyph-name="gcommaaccent" unicode="&#x123;" horiz-adv-x="1187" 
d="M723 1462v-202h-268v182q0 162 237 172v-78q-82 -12 -92 -74h123zM567 903q-143 -1 -211 -109t-68 -255t72 -251q70 -104 210 -104t211 108t71 260t-71 251q-71 100 -214 100zM1085 1059v-1004q0 -239 -133 -357t-387 -118q-117 0 -214 29t-173 107t-86 194h234
q20 -92 85 -124t169 -32q272 0 272 271v161h-4q-49 -88 -134 -137t-184 -49q-162 0 -272 78q-204 145 -203 479q0 223 130 377q129 154 353 154t310 -175h4v146h233z" />
    <glyph glyph-name="Hcircumflex" unicode="&#x124;" horiz-adv-x="1429" 
d="M717 1788l-144 -184h-188l219 292h227l222 -292h-191zM125 0v1462h256v-581h666v581h256v-1462h-256v659h-666v-659h-256z" />
    <glyph glyph-name="hcircumflex" unicode="&#x125;" 
d="M561 1788l-143 -184h-189l220 292h227l221 -292h-190zM98 0v1462h234v-542h4q45 74 130 120t187 47q175 0 275 -92t100 -268v-727h-233v666q-3 125 -53 181t-160 56t-180 -80q-71 -80 -70 -198v-625h-234z" />
    <glyph glyph-name="Hbar" unicode="&#x126;" horiz-adv-x="1429" 
d="M381 829h666v148h-666v-148zM125 0v1462h256v-352h666v352h256v-1462h-256v608h-666v-608h-256z" />
    <glyph glyph-name="hbar" unicode="&#x127;" horiz-adv-x="1165" 
d="M135 1329v133h234v-133h258v-133h-258v-276h4q45 74 130 120t187 47q176 0 276 -92t99 -268v-727h-234v666q-4 125 -53 181q-48 56 -158 56t-181 -80t-70 -198v-625h-234v1196h-155v133h155z" />
    <glyph glyph-name="Itilde" unicode="&#x128;" horiz-adv-x="528" 
d="M403 1636q-63 0 -151 38t-139 38q-72 0 -88 -84h-117q14 90 70 161t134 71t169 -39q92 -39 133 -39q79 0 102 90h115q-18 -113 -68 -166q-57 -70 -160 -70zM139 0v1462h256v-1462h-256z" />
    <glyph glyph-name="itilde" unicode="&#x129;" horiz-adv-x="458" 
d="M365 1239q-63 0 -151 38t-140 38q-72 0 -88 -84h-117q15 90 71 161q56 70 133 70t169 -39t133 -39q79 1 102 91h115q-18 -113 -68 -166q-57 -70 -159 -70zM344 0h-233v1059h233v-1059z" />
    <glyph glyph-name="Imacron" unicode="&#x12a;" horiz-adv-x="378" 
d="M487 1675h-589v133h589v-133zM66 0v1462h256v-1462h-256z" />
    <glyph glyph-name="imacron" unicode="&#x12b;" horiz-adv-x="305" 
d="M451 1278h-590v133h590v-133zM274 0h-233v1059h233v-1059z" />
    <glyph glyph-name="Iogonek" unicode="&#x12e;" horiz-adv-x="489" 
d="M354 1462v-1462q-100 -88 -136 -145t-36 -109t20 -76q20 -25 52 -24q55 0 96 69l76 -18q-41 -154 -195 -154q-46 1 -93 21q-93 41 -93 169t211 267h-158v1462h256z" />
    <glyph glyph-name="iogonek" unicode="&#x12f;" horiz-adv-x="419" 
d="M86 1241v221h233v-221h-233zM319 0h-2q-100 -90 -137 -146t-37 -106t22 -77q22 -26 50 -25q57 0 96 69l76 -18q-19 -82 -73 -118t-124 -36t-126 42t-58 143q0 133 211 272h-131v1059h233v-1059z" />
    <glyph glyph-name="Idotaccent" unicode="&#x130;" horiz-adv-x="516" 
d="M375 1630h-234v221h234v-221zM129 0v1462h256v-1462h-256z" />
    <glyph glyph-name="dotlessi" unicode="&#x131;" horiz-adv-x="446" 
d="M340 0h-234v1059h234v-1059z" />
    <glyph glyph-name="Jcircumflex" unicode="&#x134;" horiz-adv-x="1058" 
d="M807 1788l-143 -184h-189l219 292h228l221 -292h-191zM946 1462v-991q0 -86 -9 -152q-9 -65 -40 -135t-81 -114t-140 -75q-90 -30 -211 -30q-221 0 -329 128t-107 341v78h256v-76q0 -130 45 -196q46 -66 160 -66t157 68t43 215v1005h256z" />
    <glyph glyph-name="jcircumflex" unicode="&#x135;" horiz-adv-x="462" 
d="M223 1391l-143 -185h-189l220 293h227l221 -293h-190zM109 -80v1139h233v-1149q0 -164 -72 -247t-231 -83q-63 0 -105 8v185q41 -9 90 -9t67 35t18 121z" />
    <glyph glyph-name="Kcommaaccent" unicode="&#x136;" horiz-adv-x="1376" 
d="M535 -305v203h268v-183q0 -162 -238 -172v78q82 12 92 74h-122zM125 0v1462h256v-665l651 665h316l-584 -583l625 -879h-320l-479 698l-209 -206v-492h-256z" />
    <glyph glyph-name="kcommaaccent" unicode="&#x137;" horiz-adv-x="1079" 
d="M426 -305v203h268v-183q0 -162 -237 -172v78q82 12 92 74h-123zM117 0v1462h233v-831l422 428h287l-406 -389l445 -670h-285l-324 514l-139 -135v-379h-233z" />
    <glyph glyph-name="Lacute" unicode="&#x139;" horiz-adv-x="1173" 
d="M168 1604l184 292h277l-291 -292h-170zM127 0v1462h256v-1241h743v-221h-999z" />
    <glyph glyph-name="lacute" unicode="&#x13a;" horiz-adv-x="438" 
d="M106 1604l185 292h276l-291 -292h-170zM106 0v1462h234v-1462h-234z" />
    <glyph glyph-name="Lcommaaccent" unicode="&#x13b;" horiz-adv-x="1171" 
d="M494 -305v203h268v-183q0 -162 -238 -172v78q82 12 92 74h-122zM125 0v1462h256v-1241h743v-221h-999z" />
    <glyph glyph-name="lcommaaccent" unicode="&#x13c;" horiz-adv-x="458" 
d="M94 -305v203h268v-183q0 -162 -237 -172v78q82 12 92 74h-123zM113 0v1462h233v-1462h-233z" />
    <glyph glyph-name="Lcaron" unicode="&#x13d;" horiz-adv-x="1173" 
d="M578 1169l65 293h256l-166 -293h-155zM127 0v1462h256v-1241h743v-221h-999z" />
    <glyph glyph-name="lcaron" unicode="&#x13e;" horiz-adv-x="626" 
d="M444 1169l66 293h256l-166 -293h-156zM106 0v1462h234v-1462h-234z" />
    <glyph glyph-name="Ldot" unicode="&#x13f;" horiz-adv-x="1171" 
d="M862 838h-233v221h233v-221zM125 0v1462h256v-1241h743v-221h-999z" />
    <glyph glyph-name="ldot" unicode="&#x140;" horiz-adv-x="745" 
d="M684 838h-233v221h233v-221zM106 0v1462h234v-1462h-234z" />
    <glyph glyph-name="Lslash" unicode="&#x141;" horiz-adv-x="1165" 
d="M119 1462h256v-626l409 290v-190l-409 -291v-424h743v-221h-999v465l-156 -111v185l156 110v813z" />
    <glyph glyph-name="lslash" unicode="&#x142;" horiz-adv-x="452" 
d="M111 0v653l-140 -108v145l140 109v663h233v-481l139 111v-148l-139 -110v-834h-233z" />
    <glyph glyph-name="Nacute" unicode="&#x143;" horiz-adv-x="1435" 
d="M612 1604l185 292h276l-291 -292h-170zM125 0v1462h270l668 -1077h4v1077h244v-1462h-271l-665 1075h-6v-1075h-244z" />
    <glyph glyph-name="nacute" unicode="&#x144;" 
d="M449 1206l184 293h276l-291 -293h-169zM100 0v1059h222v-156l4 -4q55 88 141 138t188 50q175 0 275 -92t100 -268v-727h-233v666q-3 125 -53 181t-160 56t-180 -80q-71 -80 -70 -198v-625h-234z" />
    <glyph glyph-name="Ncommaaccent" unicode="&#x145;" horiz-adv-x="1435" 
d="M563 -305v203h268v-183q0 -162 -237 -172v78q82 12 92 74h-123zM125 0v1462h270l668 -1077h4v1077h244v-1462h-271l-665 1075h-6v-1075h-244z" />
    <glyph glyph-name="ncommaaccent" unicode="&#x146;" 
d="M426 -305v203h268v-183q0 -162 -237 -172v78q82 12 92 74h-123zM98 0v1059h221v-156l5 -4q55 88 141 138t188 50q175 0 275 -92t100 -268v-727h-233v666q-3 125 -53 181t-160 56t-180 -80q-71 -80 -70 -198v-625h-234z" />
    <glyph glyph-name="Ncaron" unicode="&#x147;" horiz-adv-x="1435" 
d="M1047 1896l-222 -292h-227l-219 292h188l144 -182l145 182h191zM125 0v1462h270l668 -1077h4v1077h244v-1462h-271l-665 1075h-6v-1075h-244z" />
    <glyph glyph-name="ncaron" unicode="&#x148;" 
d="M901 1499l-221 -293h-227l-220 293h189l143 -182l146 182h190zM98 0v1059h221v-156l5 -4q55 88 141 138t188 50q175 0 275 -92t100 -268v-727h-233v666q-3 125 -53 181t-160 56t-180 -80q-71 -80 -70 -198v-625h-234z" />
    <glyph glyph-name="Omacron" unicode="&#x14c;" horiz-adv-x="1515" 
d="M1059 1675h-590v133h590v-133zM758 1497q316 0 508 -221t192 -546t-191 -545t-509 -220t-509 220t-191 545t191 546q192 221 509 221zM758 1288q-219 0 -332 -163t-113 -394t113 -394t332 -163t332 163t112 394q0 231 -112 394q-113 163 -332 163z" />
    <glyph glyph-name="omacron" unicode="&#x14d;" horiz-adv-x="1181" 
d="M891 1278h-590v133h590v-133zM590 156q147 0 224 110t77 264q0 152 -77 263t-224 111t-224 -112q-77 -110 -77 -263t77 -263t224 -110zM590 -29q-248 0 -391 155q-143 154 -143 402t142 404q144 156 392 156t391 -156t143 -404t-143 -402t-391 -155z" />
    <glyph glyph-name="Obreve" unicode="&#x14e;" horiz-adv-x="1515" 
d="M424 1894h119q31 -156 219 -155q80 0 135 40t72 115h116q-16 -143 -105 -216q-88 -72 -232 -72t-228 74t-96 214zM758 1497q316 0 508 -221t192 -546t-191 -545t-509 -220t-509 220t-191 545t191 546q192 221 509 221zM758 1288q-219 0 -332 -163t-113 -394t113 -394
t332 -163t332 163t112 394q0 231 -112 394q-113 163 -332 163z" />
    <glyph glyph-name="obreve" unicode="&#x14f;" horiz-adv-x="1183" 
d="M602 1341q80 0 135 40t72 116h117q-16 -143 -106 -216t-232 -73q-143 0 -228 74q-84 74 -96 215h119q31 -156 219 -156zM592 156q147 0 224 110t77 264q0 152 -77 263t-224 111t-224 -112q-77 -110 -77 -263t77 -263t224 -110zM592 -29q-248 0 -391 155
q-143 154 -143 402t142 404q144 156 392 156t391 -156t143 -404t-143 -402t-391 -155z" />
    <glyph glyph-name="Ohungarumlaut" unicode="&#x150;" horiz-adv-x="1515" 
d="M463 1604l184 292h279l-295 -292h-168zM870 1604l185 292h278l-295 -292h-168zM758 1497q316 0 508 -221t192 -546t-191 -545t-509 -220t-509 220t-191 545t191 546q192 221 509 221zM758 1288q-219 0 -332 -163t-113 -394t113 -394t332 -163t332 163t112 394
q0 231 -112 394q-113 163 -332 163z" />
    <glyph glyph-name="ohungarumlaut" unicode="&#x151;" horiz-adv-x="1183" 
d="M287 1206l184 293h279l-295 -293h-168zM694 1206l185 293h278l-295 -293h-168zM590 156q147 0 224 110t77 264q0 152 -77 263t-224 111t-224 -112q-77 -110 -77 -263t77 -263t224 -110zM590 -29q-248 0 -391 155q-143 154 -143 402t142 404q144 156 392 156t391 -156
t143 -404t-143 -402t-391 -155z" />
    <glyph glyph-name="OE" unicode="&#x152;" horiz-adv-x="2191" 
d="M1106 449v544q0 123 -91 209t-249 86t-260 -85q-192 -159 -191 -474q0 -315 191 -471q102 -84 255 -84t249 86t96 189zM1350 1241v-383h702v-209h-702v-428h780v-221h-1014v131q-141 -166 -385 -166q-209 1 -365 107t-231 276q-76 170 -76 377q1 324 187 548t502 224
q236 0 368 -151v116h1000v-221h-766z" />
    <glyph glyph-name="oe" unicode="&#x153;" horiz-adv-x="1845" 
d="M1794 469h-774q0 -137 72 -225t204 -88q92 0 164 47t88 133h234q-43 -178 -169 -271t-313 -94q-281 0 -378 195q-104 -195 -377 -195q-236 0 -362 160q-126 161 -126 399q1 238 137 398t369 159q270 0 371 -178q115 178 371 178q374 0 463 -381q26 -108 26 -237z
M1286 903q-114 0 -188 -82t-78 -198h541q-17 280 -275 280zM561 903q-137 1 -204 -109t-67 -264t63 -265q61 -109 207 -109t209 109q62 111 62 265t-66 264q-67 109 -204 109z" />
    <glyph glyph-name="Racute" unicode="&#x154;" horiz-adv-x="1406" 
d="M557 1604l184 292h277l-291 -292h-170zM383 1253v-456h420q250 0 250 233q0 129 -69 176t-185 47h-416zM1309 1067q0 -280 -242 -369v-4q84 -10 151 -83t66 -226q0 -299 80 -385h-274q-39 62 -39 244q-1 182 -61 270t-230 88h-377v-602h-256v1462h698q238 0 361 -103
t123 -292z" />
    <glyph glyph-name="racute" unicode="&#x155;" horiz-adv-x="710" 
d="M145 1206l185 293h276l-291 -293h-170zM100 0v1059h219v-205h5q20 88 113 161t196 72q20 0 88 -6v-225q-55 10 -100 10q-123 0 -205 -96t-82 -266v-504h-234z" />
    <glyph glyph-name="Rcommaaccent" unicode="&#x156;" horiz-adv-x="1406" 
d="M561 -305v203h268v-183q0 -162 -237 -172v78q82 12 92 74h-123zM381 1253v-456h420q250 0 250 233q0 129 -69 176t-185 47h-416zM1307 1067q0 -280 -242 -369v-4q85 -10 151 -83t66 -226q0 -299 80 -385h-275q-39 62 -39 244t-60 270t-230 88h-377v-602h-256v1462h698
q238 0 361 -103t123 -292z" />
    <glyph glyph-name="rcommaaccent" unicode="&#x157;" horiz-adv-x="722" 
d="M94 -305v203h268v-183q0 -162 -237 -172v78q82 12 92 74h-123zM113 0v1059h219v-205h4q20 88 114 161t195 72q20 0 88 -6v-225q-55 10 -100 10q-123 0 -205 -96t-82 -266v-504h-233z" />
    <glyph glyph-name="Rcaron" unicode="&#x158;" horiz-adv-x="1406" 
d="M991 1896l-221 -292h-227l-219 292h188l143 -182l146 182h190zM381 1253v-456h420q250 0 250 233q0 129 -69 176t-185 47h-416zM1307 1067q0 -280 -242 -369v-4q85 -10 151 -83t66 -226q0 -299 80 -385h-275q-39 62 -39 244t-60 270t-230 88h-377v-602h-256v1462h698
q238 0 361 -103t123 -292z" />
    <glyph glyph-name="rcaron" unicode="&#x159;" horiz-adv-x="704" 
d="M727 1499l-221 -293h-227l-220 293h189l143 -182l146 182h190zM84 0v1059h219v-205h4q19 88 113 161t196 72q20 0 89 -6v-225q-55 10 -101 10q-123 0 -205 -96t-82 -266v-504h-233z" />
    <glyph glyph-name="Sacute" unicode="&#x15a;" horiz-adv-x="1273" 
d="M537 1604l184 292h276l-290 -292h-170zM295 487q0 -161 102 -237q103 -76 265 -76t238 65t75 156q0 135 -121 180q-74 28 -220 66q-146 37 -216 55q-324 84 -324 371q0 207 159 319t387 111q228 0 390 -124q160 -124 160 -343h-256q-20 258 -316 258q-106 0 -187 -45
t-81 -145q0 -137 174 -189q4 0 197 -51q192 -51 225 -61q137 -43 211 -147t74 -224q0 -335 -369 -434q-100 -27 -213 -27q-266 0 -436 131t-174 391h256z" />
    <glyph glyph-name="sacute" unicode="&#x15b;" horiz-adv-x="1034" 
d="M373 1206l184 293h277l-291 -293h-170zM529 156q232 0 225 139q-4 54 -34 76q-49 36 -108 53t-163 38q-103 21 -162 42q-146 54 -192 146q-27 56 -27 136t41 142q70 107 249 144q74 15 152 15q178 -1 301 -79t141 -246h-243q-29 141 -215 141q-102 0 -147 -33
q-46 -32 -46 -66q0 -61 31 -81t62 -38t179 -47q148 -28 200 -48q141 -53 186 -145q28 -54 28 -130q0 -119 -75 -199q-135 -145 -398 -145q-209 1 -337 95t-132 274h234q18 -184 250 -184z" />
    <glyph glyph-name="Scircumflex" unicode="&#x15c;" horiz-adv-x="1273" 
d="M647 1788l-143 -184h-189l220 292h227l221 -292h-190zM295 487q0 -161 102 -237q103 -76 265 -76t238 65t75 156q0 135 -121 180q-74 28 -220 66q-146 37 -216 55q-324 84 -324 371q0 207 159 319t387 111q228 0 390 -124q160 -124 160 -343h-256q-20 258 -316 258
q-106 0 -187 -45t-81 -145q0 -137 174 -189q4 0 197 -51q192 -51 225 -61q137 -43 211 -147t74 -224q0 -335 -369 -434q-100 -27 -213 -27q-266 0 -436 131t-174 391h256z" />
    <glyph glyph-name="scircumflex" unicode="&#x15d;" horiz-adv-x="1034" 
d="M524 1391l-143 -185h-188l219 293h227l221 -293h-190zM529 156q232 0 225 139q-4 54 -34 76q-49 36 -108 53t-163 38q-103 21 -162 42q-146 54 -192 146q-27 56 -27 136t41 142q70 107 249 144q74 15 152 15q178 -1 301 -79t141 -246h-243q-29 141 -215 141
q-102 0 -147 -33q-46 -32 -46 -66q0 -61 31 -81t62 -38t179 -47q148 -28 200 -48q141 -53 186 -145q28 -54 28 -130q0 -119 -75 -199q-135 -145 -398 -145q-209 1 -337 95t-132 274h234q18 -184 250 -184z" />
    <glyph glyph-name="Scedilla" unicode="&#x15e;" horiz-adv-x="1273" 
d="M676 -276q0 37 -28 57t-70 20t-76 -20l-45 39l110 149q-278 20 -425 198q-101 124 -103 320h256q0 -161 102 -237q103 -76 265 -76t238 65t75 156q0 135 -121 180q-74 28 -220 66q-146 37 -216 55q-324 84 -324 371q0 207 159 319t387 111q228 0 390 -124
q160 -124 160 -343h-256q-20 258 -316 258q-106 0 -187 -45t-81 -145q0 -137 174 -189q4 0 197 -51q192 -51 225 -61q137 -43 211 -147t74 -226q-1 -174 -103 -285q-150 -162 -466 -174l-66 -86l2 -2q24 8 80 8t108 -40q52 -39 54 -123q0 -84 -74 -132t-186 -47
q-112 0 -199 47l37 82q72 -33 133 -32q125 0 125 84z" />
    <glyph glyph-name="scedilla" unicode="&#x15f;" horiz-adv-x="1034" 
d="M529 156q232 0 225 139q-4 54 -34 76q-49 36 -108 53t-163 38q-103 21 -162 42q-146 54 -192 146q-27 56 -27 136t41 142q70 107 249 144q74 15 152 15q178 -1 301 -79t141 -246h-243q-29 141 -215 141q-102 0 -147 -33q-46 -32 -46 -66q0 -61 31 -81t62 -38t179 -47
q148 -28 200 -48q141 -53 186 -145q28 -54 28 -130q0 -131 -86 -213q-120 -114 -352 -129l-72 -94l2 -2q23 8 79 8t110 -40q53 -39 53 -123t-74 -132q-75 -48 -187 -47q-112 0 -198 47l37 82q72 -33 133 -32q125 0 125 84q0 37 -28 57q-29 20 -71 20t-75 -20l-45 39l115 153
q-224 18 -331 144q-75 88 -77 223h234q18 -184 250 -184z" />
    <glyph glyph-name="Scaron" unicode="&#x160;" horiz-adv-x="1273" 
d="M977 1896l-221 -292h-228l-219 292h189l143 -182l145 182h191zM295 487q0 -161 102 -237q103 -76 265 -76t238 65t75 156q0 135 -121 180q-74 28 -220 66q-146 37 -216 55q-324 84 -324 371q0 207 159 319t387 111q228 0 390 -124q160 -124 160 -343h-256
q-20 258 -316 258q-106 0 -187 -45t-81 -145q0 -137 174 -189q4 0 197 -51q192 -51 225 -61q137 -43 211 -147t74 -224q0 -335 -369 -434q-100 -27 -213 -27q-266 0 -436 131t-174 391h256z" />
    <glyph glyph-name="scaron" unicode="&#x161;" horiz-adv-x="1034" 
d="M854 1499l-221 -293h-227l-220 293h189l143 -182l146 182h190zM529 156q232 0 225 139q-4 54 -34 76q-49 36 -108 53t-163 38q-103 21 -162 42q-146 54 -192 146q-27 56 -27 136t41 142q70 107 249 144q74 15 152 15q178 -1 301 -79t141 -246h-243q-29 141 -215 141
q-102 0 -147 -33q-46 -32 -46 -66q0 -61 31 -81t62 -38t179 -47q148 -28 200 -48q141 -53 186 -145q28 -54 28 -130q0 -119 -75 -199q-135 -145 -398 -145q-209 1 -337 95t-132 274h234q18 -184 250 -184z" />
    <glyph glyph-name="Tcommaaccent" unicode="&#x162;" horiz-adv-x="1251" 
d="M487 -305v203h269v-183q0 -162 -238 -172v78q82 12 92 74h-123zM33 1241v221h1184v-221h-465v-1241h-256v1241h-463z" />
    <glyph glyph-name="tcommaaccent" unicode="&#x163;" horiz-adv-x="647" 
d="M268 -305v203h269v-183q0 -162 -238 -172v78q82 12 92 74h-123zM0 885v174h176v317h234v-317h211v-174h-211v-566q0 -81 19 -113t89 -32t103 8v-180q-102 -12 -152 -12q-172 0 -230 62t-63 208v625h-176z" />
    <glyph glyph-name="Tcaron" unicode="&#x164;" horiz-adv-x="1251" 
d="M961 1896l-222 -292h-227l-219 292h188l144 -182l145 182h191zM33 1241v221h1184v-221h-465v-1241h-256v1241h-463z" />
    <glyph glyph-name="tcaron" unicode="&#x165;" horiz-adv-x="782" 
d="M0 885v174h176v317h234v-317h211v-174h-211v-566q0 -81 19 -113t89 -32t103 8v-180q-102 -12 -152 -12q-172 0 -230 62t-63 208v625h-176zM598 1169l66 293h256l-166 -293h-156z" />
    <glyph glyph-name="Tbar" unicode="&#x166;" horiz-adv-x="1251" 
d="M33 1241v221h1184v-221h-465v-283h335v-133h-335v-825h-256v825h-326v133h326v283h-463z" />
    <glyph glyph-name="tbar" unicode="&#x167;" horiz-adv-x="636" 
d="M-10 885v174h176v317h233v-317h211v-174h-211v-176h230v-134h-230v-256q-1 -81 19 -113t90 -32t102 8v-180q-102 -12 -151 -12q-172 0 -231 62q-58 62 -62 208v315h-193v134h193v176h-176z" />
    <glyph glyph-name="Utilde" unicode="&#x168;" horiz-adv-x="1435" 
d="M565 1712q-72 0 -88 -84h-117q14 90 70 161t134 71q77 0 169 -39t133 -39q80 0 103 90h114q-38 -236 -227 -236q-63 0 -151 38t-140 38zM117 526v936h256v-852q0 -252 83 -338t261 -86q96 0 163 27q68 27 102 63q59 63 75 213q4 47 4 121v852h256v-936q0 -274 -161 -417
q-162 -143 -440 -143t-438 142q-160 144 -161 418z" />
    <glyph glyph-name="utilde" unicode="&#x169;" 
d="M700 1239q-63 0 -151 38t-139 38q-72 0 -88 -84h-117q14 90 70 161q55 70 133 70t170 -39t133 -39q79 1 102 91h115q-18 -113 -68 -166q-57 -70 -160 -70zM1028 1059v-1059h-229v147h-4q-43 -78 -128 -127t-173 -49q-207 1 -301 103t-95 313v672h234v-649q0 -134 51 -194
t152 -60q260 0 260 288v615h233z" />
    <glyph glyph-name="Umacron" unicode="&#x16a;" horiz-adv-x="1435" 
d="M1014 1675h-590v133h590v-133zM117 526v936h256v-852q0 -252 83 -338t261 -86q96 0 163 27q68 27 102 63q59 63 75 213q4 47 4 121v852h256v-936q0 -274 -161 -417q-162 -143 -440 -143t-438 142q-160 144 -161 418z" />
    <glyph glyph-name="umacron" unicode="&#x16b;" 
d="M868 1278h-589v133h589v-133zM1028 1059v-1059h-229v147h-4q-43 -78 -128 -127t-173 -49q-207 1 -301 103t-95 313v672h234v-649q0 -134 51 -194t152 -60q260 0 260 288v615h233z" />
    <glyph glyph-name="Ubreve" unicode="&#x16c;" horiz-adv-x="1435" 
d="M389 1894h119q31 -156 219 -155q80 0 135 40t72 115h117q-15 -143 -105 -216q-90 -72 -233 -72t-228 73q-84 74 -96 215zM117 526v936h256v-852q0 -252 83 -338t261 -86q96 0 163 27q68 27 102 63q59 63 75 213q4 47 4 121v852h256v-936q0 -274 -161 -417
q-162 -143 -440 -143t-438 142q-160 144 -161 418z" />
    <glyph glyph-name="ubreve" unicode="&#x16d;" 
d="M584 1341q80 0 135 40t72 116h116q-16 -143 -105 -216q-88 -73 -232 -73t-228 74t-96 215h119q31 -156 219 -156zM1030 1059v-1059h-229v147h-4q-43 -78 -128 -127t-173 -49q-207 1 -301 103t-95 313v672h234v-649q0 -134 51 -194t152 -60q260 0 260 288v615h233z" />
    <glyph glyph-name="Uring" unicode="&#x16e;" horiz-adv-x="1435" 
d="M720 1538q-89 0 -151 59q-61 59 -61 151t62 152t150 60t151 -59t63 -151t-62 -152t-152 -60zM598 1750q0 -54 36 -90t88 -36t87 36t35 90t-35 89t-87 35t-88 -35t-36 -89zM117 526v936h256v-852q0 -252 83 -338t261 -86q96 0 163 27q68 27 102 63q59 63 75 213
q4 47 4 121v852h256v-936q0 -274 -161 -417q-162 -143 -440 -143t-438 142q-160 144 -161 418z" />
    <glyph glyph-name="uring" unicode="&#x16f;" 
d="M575 1591q89 0 151 -59q62 -60 62 -152t-62 -152t-152 -59q-89 -1 -150 59t-62 152q0 92 62 152t151 59zM576 1505q-52 0 -88 -35t-35 -89q-1 -54 35 -90t88 -36t88 36q34 36 34 90t-34 89q-36 35 -88 35zM1030 1059v-1059h-229v147h-4q-43 -78 -128 -127t-173 -49
q-207 1 -301 103t-95 313v672h234v-649q0 -134 51 -194t152 -60q260 0 260 288v615h233z" />
    <glyph glyph-name="Uhungarumlaut" unicode="&#x170;" horiz-adv-x="1435" 
d="M428 1604l184 292h279l-295 -292h-168zM836 1604l184 292h278l-294 -292h-168zM117 526v936h256v-852q0 -252 83 -338t261 -86q96 0 163 27q68 27 102 63q59 63 75 213q4 47 4 121v852h256v-936q0 -274 -161 -417q-162 -143 -440 -143t-438 142q-160 144 -161 418z" />
    <glyph glyph-name="uhungarumlaut" unicode="&#x171;" horiz-adv-x="1155" 
d="M272 1206l185 293h278l-295 -293h-168zM680 1206l184 293h279l-295 -293h-168zM1028 1059v-1059h-229v147h-4q-43 -78 -128 -127t-173 -49q-207 1 -301 103t-95 313v672h234v-649q0 -134 51 -194t152 -60q260 0 260 288v615h233z" />
    <glyph glyph-name="Uogonek" unicode="&#x172;" horiz-adv-x="1435" 
d="M117 526v936h256v-852q0 -252 83 -338t261 -86q96 0 163 27q68 27 102 63q59 63 75 213q4 47 4 121v852h256v-936q0 -207 -93 -340q-138 -197 -427 -217q-31 -27 -56 -49q-96 -96 -96 -184q0 -41 24 -66t56 -24q63 0 106 69l84 -18q-41 -154 -215 -154q-52 1 -103 21
q-105 42 -104 159q1 118 179 244q-100 2 -201 33q-168 53 -261 186t-93 340z" />
    <glyph glyph-name="uogonek" unicode="&#x173;" 
d="M1028 0h-125q-106 -90 -144 -146t-38 -108q1 -52 23 -76q22 -25 53 -24q59 0 100 69l80 -18q-19 -82 -77 -118t-118 -36q-60 1 -107 21q-99 42 -98 169q1 128 222 267v147h-4q-43 -78 -128 -127t-173 -49q-207 1 -301 103t-95 313v672h234v-649q0 -134 51 -194t152 -60
q260 0 260 288v615h233v-1059z" />
    <glyph glyph-name="Wcircumflex" unicode="&#x174;" horiz-adv-x="1886" 
d="M942 1788l-143 -184h-189l219 292h228l221 -292h-191zM373 0l-385 1462h260l264 -1118h4l295 1118h262l287 -1118h4l272 1118h260l-403 -1462h-260l-293 1118h-4l-299 -1118h-264z" />
    <glyph glyph-name="wcircumflex" unicode="&#x175;" horiz-adv-x="1552" 
d="M786 1391l-143 -185h-188l219 293h227l221 -293h-190zM334 0l-328 1059h248l207 -791h4l199 791h235l191 -791h4l215 791h237l-332 -1059h-239l-197 786h-4l-194 -786h-246z" />
    <glyph glyph-name="Ycircumflex" unicode="&#x176;" horiz-adv-x="1282" 
d="M653 1788l-143 -184h-188l219 292h227l221 -292h-190zM514 0v573l-549 889h297l387 -655l381 655h287l-547 -889v-573h-256z" />
    <glyph glyph-name="ycircumflex" unicode="&#x177;" horiz-adv-x="1060" 
d="M539 1391l-144 -185h-188l219 293h227l221 -293h-190zM268 -420q-82 0 -162 12v197q90 -14 111 -14q74 0 108 36t56 111l27 82l-402 1055h256l277 -791h4l268 791h244l-412 -1116q-72 -180 -111 -236q-92 -127 -264 -127z" />
    <glyph glyph-name="Ydieresis" unicode="&#x178;" horiz-adv-x="1282" 
d="M711 1851h233v-221h-233v221zM592 1630h-234v221h234v-221zM514 0v573l-549 889h297l387 -655l381 655h287l-547 -889v-573h-256z" />
    <glyph glyph-name="Zacute" unicode="&#x179;" horiz-adv-x="1288" 
d="M551 1604l184 292h277l-291 -292h-170zM111 1241v221h1112v-194l-852 -1047h872v-221h-1198v209l852 1032h-786z" />
    <glyph glyph-name="zacute" unicode="&#x17a;" horiz-adv-x="985" 
d="M403 1206l185 293h276l-291 -293h-170zM70 874v185h860v-164l-606 -711h637v-184h-932v164l585 710h-544z" />
    <glyph glyph-name="Zdotaccent" unicode="&#x17b;" horiz-adv-x="1288" 
d="M776 1630h-233v221h233v-221zM111 1241v221h1112v-194l-852 -1047h872v-221h-1198v209l852 1032h-786z" />
    <glyph glyph-name="zdotaccent" unicode="&#x17c;" horiz-adv-x="985" 
d="M616 1233h-233v221h233v-221zM70 874v185h860v-164l-606 -711h637v-184h-932v164l585 710h-544z" />
    <glyph glyph-name="Zcaron" unicode="&#x17d;" horiz-adv-x="1288" 
d="M993 1896l-221 -292h-227l-219 292h188l143 -182l146 182h190zM111 1241v221h1112v-194l-852 -1047h872v-221h-1198v209l852 1032h-786z" />
    <glyph glyph-name="zcaron" unicode="&#x17e;" horiz-adv-x="985" 
d="M836 1499l-222 -293h-227l-219 293h188l144 -182l145 182h191zM70 874v185h860v-164l-606 -711h637v-184h-932v164l585 710h-544z" />
    <glyph glyph-name="florin" unicode="&#x192;" horiz-adv-x="1107" 
d="M866 1497q68 0 150 -10l-35 -184q-51 10 -84 10q-82 0 -117 -33t-53 -117l-51 -266h209l-31 -174h-209l-149 -780q-25 -121 -124 -206t-227 -85q-70 0 -161 10l30 184q54 -10 106 -10t87 25t47 90l154 772h-187l31 174h188l66 344q66 256 360 256z" />
    <glyph glyph-name="Scommaaccent" unicode="&#x218;" horiz-adv-x="1273" 
d="M500 -305v203h268v-183q0 -162 -238 -172v78q82 12 93 74h-123zM295 487q0 -161 102 -237q103 -76 265 -76t238 65t75 156q0 135 -121 180q-74 28 -220 66q-146 37 -216 55q-324 84 -324 371q0 207 159 319t387 111q228 0 390 -124q160 -124 160 -343h-256
q-20 258 -316 258q-106 0 -187 -45t-81 -145q0 -137 174 -189q4 0 197 -51q192 -51 225 -61q137 -43 211 -147t74 -224q0 -335 -369 -434q-100 -27 -213 -27q-266 0 -436 131t-174 391h256z" />
    <glyph glyph-name="scommaaccent" unicode="&#x219;" horiz-adv-x="1034" 
d="M371 -305v203h268v-183q0 -162 -238 -172v78q82 12 93 74h-123zM529 156q232 0 225 139q-4 54 -34 76q-49 36 -108 53t-163 38q-103 21 -162 42q-146 54 -192 146q-27 56 -27 136t41 142q70 107 249 144q74 15 152 15q178 -1 301 -79t141 -246h-243q-29 141 -215 141
q-102 0 -147 -33q-46 -32 -46 -66q0 -61 31 -81t62 -38t179 -47q148 -28 200 -48q141 -53 186 -145q28 -54 28 -130q0 -119 -75 -199q-135 -145 -398 -145q-209 1 -337 95t-132 274h234q18 -184 250 -184z" />
    <glyph glyph-name="uni021A" unicode="&#x21a;" horiz-adv-x="1179" 
d="M453 -305v203h268v-183q0 -162 -238 -172v78q82 12 92 74h-122zM-2 1241v221h1184v-221h-465v-1241h-256v1241h-463z" />
    <glyph glyph-name="uni021B" unicode="&#x21b;" horiz-adv-x="647" 
d="M268 -305v203h269v-183q0 -162 -238 -172v78q82 12 92 74h-123zM0 885v174h176v317h234v-317h211v-174h-211v-566q0 -81 19 -113t89 -32t103 8v-180q-102 -12 -152 -12q-172 0 -230 62t-63 208v625h-176z" />
    <glyph glyph-name="circumflex" unicode="&#x2c6;" horiz-adv-x="438" 
d="M219 1391l-143 -185h-189l219 293h228l221 -293h-190z" />
    <glyph glyph-name="caron" unicode="&#x2c7;" horiz-adv-x="438" 
d="M551 1499l-221 -293h-228l-219 293h189l143 -182l145 182h191z" />
    <glyph glyph-name="uni02C9" unicode="&#x2c9;" horiz-adv-x="307" 
d="M449 1278h-590v133h590v-133z" />
    <glyph glyph-name="breve" unicode="&#x2d8;" horiz-adv-x="456" 
d="M236 1341q80 0 135 40t71 116h117q-16 -143 -105 -216q-88 -73 -232 -73t-228 74t-96 215h118q31 -156 220 -156z" />
    <glyph glyph-name="dotaccent" unicode="&#x2d9;" horiz-adv-x="452" 
d="M342 1233h-233v221h233v-221z" />
    <glyph glyph-name="ring" unicode="&#x2da;" horiz-adv-x="395" 
d="M198 1169q-88 -1 -150 59t-62 152t62 152t150 59q88 0 151 -59q63 -60 63 -152t-62 -152t-152 -59zM76 1381q0 -54 36 -90t88 -36t87 36t35 90t-35 89t-87 35t-88 -35t-36 -89z" />
    <glyph glyph-name="ogonek" unicode="&#x2db;" horiz-adv-x="413" 
d="M180 -254q0 -52 24 -76q24 -25 56 -24q63 0 107 69l84 -18q-41 -154 -215 -154q-53 1 -104 21q-105 42 -104 169q1 128 234 267h111q-111 -88 -152 -145t-41 -109z" />
    <glyph glyph-name="tilde" unicode="&#x2dc;" horiz-adv-x="460" 
d="M365 1239q-63 0 -151 38t-140 38q-72 0 -88 -84h-117q15 90 71 161q56 70 133 70t169 -39t133 -39q79 1 102 91h115q-18 -113 -68 -166q-57 -70 -159 -70z" />
    <glyph glyph-name="hungarumlaut" unicode="&#x2dd;" horiz-adv-x="477" 
d="M-111 1206l185 293h278l-295 -293h-168zM297 1206l184 293h279l-295 -293h-168z" />
    <glyph glyph-name="uni0394" unicode="&#x394;" horiz-adv-x="1380" 
d="M1372 0h-1364l557 1458h226zM1063 201l-389 1003l-369 -1003h758z" />
    <glyph glyph-name="uni03A9" unicode="&#x3a9;" horiz-adv-x="1521" 
d="M1419 0h-557v385q156 31 242 151t86 298t-123 309t-315 131t-314 -132q-123 -132 -123 -314q0 -369 324 -443v-385h-555v186h375v97q-182 59 -279 205q-96 146 -96 343q0 279 194 462t476 183t474 -178t191 -460q0 -201 -96 -351t-281 -204v-97h377v-186z" />
    <glyph glyph-name="uni03BC" unicode="&#x3bc;" 
d="M1030 1059v-1059h-229v147h-4q-43 -78 -124 -127t-155 -49q-121 0 -184 74v-436h-234v1450h234v-649q0 -134 51 -194t152 -60q260 0 260 288v615h233z" />
    <glyph glyph-name="pi" unicode="&#x3c0;" horiz-adv-x="1177" 
d="M975 -14q-125 0 -165 68t-40 198v541h-432v-793h-207v793h-143v196h1151v-196h-162v-510q0 -39 3 -59t21 -42q17 -20 59 -20t85 20v-155q-88 -41 -170 -41z" />
    <glyph glyph-name="endash" unicode="&#x2013;" horiz-adv-x="995" 
d="M-14 446v222h1024v-222h-1024z" />
    <glyph glyph-name="emdash" unicode="&#x2014;" horiz-adv-x="2019" 
d="M252 446v222h1515v-222h-1515z" />
    <glyph glyph-name="quoteleft" unicode="&#x2018;" horiz-adv-x="645" 
d="M326 1161h125v-276h-256v276q0 111 71 189q72 77 185 112v-119q-125 -47 -125 -182z" />
    <glyph glyph-name="quoteright" unicode="&#x2019;" horiz-adv-x="645" 
d="M195 1186v276h256v-276q1 -119 -69 -202t-187 -99v119q125 18 124 182h-124z" />
    <glyph glyph-name="quotesinglbase" unicode="&#x201a;" horiz-adv-x="645" 
d="M195 0v276h256v-276q-1 -112 -73 -192t-183 -109v119q125 45 124 182h-124z" />
    <glyph glyph-name="quotedblleft" unicode="&#x201c;" horiz-adv-x="1052" 
d="M326 1161h125v-276h-256v276q0 111 71 189q72 77 185 112v-119q-125 -47 -125 -182zM733 1161h125v-276h-256v276q0 111 72 189t184 112v-119q-125 -47 -125 -182z" />
    <glyph glyph-name="quotedblright" unicode="&#x201d;" horiz-adv-x="1052" 
d="M195 1186v276h256v-276q-1 -112 -73 -192t-183 -109v119q125 45 124 182h-124zM727 1186h-125v276h256v-276q0 -112 -72 -192t-184 -109v119q125 45 125 182z" />
    <glyph glyph-name="quotedblbase" unicode="&#x201e;" horiz-adv-x="1052" 
d="M195 0v276h256v-276q-1 -112 -73 -192t-183 -109v119q125 45 124 182h-124zM727 0h-125v276h256v-276q0 -112 -72 -192t-184 -109v119q125 45 125 182z" />
    <glyph glyph-name="dagger" unicode="&#x2020;" horiz-adv-x="1120" 
d="M442 -328v1192h-391v195h391v403h234v-403h391v-195h-391v-1192h-234z" />
    <glyph glyph-name="daggerdbl" unicode="&#x2021;" horiz-adv-x="1120" 
d="M442 -328v404h-391v194h391v594h-391v195h391v403h234v-403h391v-195h-391v-594h391v-194h-391v-404h-234z" />
    <glyph glyph-name="bullet" unicode="&#x2022;" horiz-adv-x="997" 
d="M133 731q1 152 107 258q106 107 258 107t260 -106t106 -259q0 -151 -108 -259t-258 -108q-152 0 -258 108q-106 107 -107 259z" />
    <glyph glyph-name="ellipsis" unicode="&#x2026;" horiz-adv-x="2033" 
d="M190 0v276h285v-276h-285zM872 0v276h285v-276h-285zM1554 0v276h285v-276h-285z" />
    <glyph glyph-name="perthousand" unicode="&#x2030;" horiz-adv-x="2260" 
d="M430 1462q152 0 228 -103t77 -251q0 -148 -73 -248q-74 -100 -232 -100t-232 100t-73 248t77 251t228 103zM430 1339q-131 0 -131 -249q0 -207 131 -207t131 207q0 249 -131 249zM295 -49l815 1532h150l-820 -1532h-145zM1137 -29q-145 -1 -225 97t-81 250q0 152 77 254
t229 102q153 0 229 -102t76 -254q0 -153 -80 -250t-225 -97zM1137 94q131 0 131 228t-131 229q-131 -1 -131 -229t131 -228zM1835 -29q-157 1 -231 103t-74 250t77 249t229 101t228 -100t76 -250q0 -148 -74 -250t-231 -103zM1835 94q131 0 131 228t-131 229
q-131 -1 -131 -229t131 -228z" />
    <glyph glyph-name="guilsinglleft" unicode="&#x2039;" horiz-adv-x="491" 
d="M397 190l-317 252v230l317 252v-211l-194 -156l194 -156v-211z" />
    <glyph glyph-name="guilsinglright" unicode="&#x203a;" horiz-adv-x="489" 
d="M92 924l318 -252v-230l-318 -252v211l195 156l-195 156v211z" />
    <glyph glyph-name="fraction" unicode="&#x2044;" horiz-adv-x="309" 
d="M-354 -49l858 1532h160l-857 -1532h-161z" />
    <glyph glyph-name="Euro" unicode="&#x20ac;" horiz-adv-x="1091" 
d="M761 1280q-146 0 -239 -109q-76 -94 -104 -239h540l-53 -131h-502q-2 -6 -2 -29v-47q0 -57 2 -63h474l-52 -130h-411q25 -164 104 -260q92 -117 250 -116q104 0 168 32t141 103v-228q-139 -90 -309 -90q-274 0 -428 168q-131 143 -166 391h-158l56 130h92q-4 37 -4 57
t4 82h-148l54 131h108q51 236 198 384t392 146q177 0 365 -127l-95 -186q-131 131 -277 131z" />
    <glyph glyph-name="afii61289" unicode="&#x2113;" horiz-adv-x="1003" 
d="M682 1171q0 66 -26 109t-66 43t-68 -50q-29 -50 -28 -138v-390q188 207 188 426zM494 293q0 -154 150 -154q70 0 165 78h4l78 -119q-145 -127 -303 -127t-240 77t-82 208v143l-116 -108h-5l-79 123l198 174v504q0 170 93 278t227 107q134 0 210 -80q75 -80 74 -211
q0 -293 -374 -635v-258z" />
    <glyph glyph-name="trademark" unicode="&#x2122;" horiz-adv-x="2052" 
d="M807 1462v-133h-258v-711h-164v711h-258v133h680zM1913 1462v-844h-154v660h-4l-252 -660h-114l-252 660h-4v-660h-154v844h238l231 -598l229 598h236z" />
    <glyph glyph-name="Omega" unicode="&#x2126;" horiz-adv-x="1521" 
d="M1419 0h-557v385q156 31 242 151t86 298t-123 309t-315 131t-314 -132q-123 -132 -123 -314q0 -369 324 -443v-385h-555v186h375v97q-182 59 -279 205q-96 146 -96 343q0 279 194 462t476 183t474 -178t191 -460q0 -201 -96 -351t-281 -204v-97h377v-186z" />
    <glyph glyph-name="estimated" unicode="&#x212e;" horiz-adv-x="1200" 
d="M307 604h596v297q-129 123 -301 123t-295 -123v-297zM307 530v-370q121 -121 297 -121q250 0 395 246l72 -43q-95 -147 -201 -212t-266 -65q-236 0 -382 162q-146 163 -146 405t145 403t382 161t383 -158t149 -408h-828z" />
    <glyph glyph-name="partialdiff" unicode="&#x2202;" horiz-adv-x="1097" 
d="M1024 749q0 -405 -150 -606q-55 -75 -149 -121t-217 -47q-199 1 -321 133q-121 132 -121 330t119 324q119 127 299 127t317 -119l2 61q9 251 -129 396q-78 80 -193 80t-241 -99l-117 135q90 70 168 102t206 32q129 0 239 -65t170 -175q118 -218 118 -488zM544 725
q-136 0 -202 -86t-66 -209t62 -207t187 -84q126 -1 203 129t71 273l-2 47q-117 137 -253 137z" />
    <glyph glyph-name="Delta" unicode="&#x2206;" horiz-adv-x="1380" 
d="M1372 0h-1364l557 1458h226zM1063 201l-389 1003l-369 -1003h758z" />
    <glyph glyph-name="product" unicode="&#x220f;" horiz-adv-x="1468" 
d="M1360 -438h-221v1847h-811v-1847h-219v2048h1251v-2048z" />
    <glyph glyph-name="summation" unicode="&#x2211;" horiz-adv-x="1294" 
d="M1253 -438h-1214v176l627 858l-600 842v172h1161v-201h-869l572 -811l-608 -838h931v-198z" />
    <glyph glyph-name="minus" unicode="&#x2212;" horiz-adv-x="1200" 
d="M1116 414h-1032v209h1032v-209z" />
    <glyph glyph-name="uni2215" unicode="&#x2215;" horiz-adv-x="309" 
d="M-354 -49l858 1532h160l-857 -1532h-161z" />
    <glyph glyph-name="uni2219" unicode="&#x2219;" horiz-adv-x="538" 
d="M117 617q0 61 46 107t107 46q62 0 108 -46t46 -106t-46 -108q-46 -47 -108 -47t-107 47q-46 47 -46 107z" />
    <glyph glyph-name="radical" unicode="&#x221a;" horiz-adv-x="1069" 
d="M1104 1610l-432 -2048h-207l-313 653l-103 -47l-82 174l293 133l272 -575l349 1710h223z" />
    <glyph glyph-name="infinity" unicode="&#x221e;" horiz-adv-x="1619" 
d="M1544 536q0 -158 -91 -262t-247 -104q-113 0 -206 61t-189 168q-65 -65 -89 -87q-107 -98 -174 -118q-66 -20 -130 -20q-154 0 -248 101t-94 257t92 258t228 103q136 -1 226 -63q89 -62 189 -179q98 115 190 179t207 65q152 0 244 -101t92 -258zM1210 358q74 0 116 49
t42 125t-44 125t-120 50q-38 -1 -65 -13q-25 -12 -39 -18t-34 -22t-32 -22q-10 -8 -32 -28t-26 -25t-28 -28q-23 -23 -24 -25q156 -168 286 -168zM252 528q0 -74 44 -120t119 -48q75 0 151 50t132 118q-176 176 -286 177q-72 1 -116 -51t-44 -126z" />
    <glyph glyph-name="integral" unicode="&#x222b;" horiz-adv-x="1165" 
d="M397 -328q49 0 41 80v21l-6 198v1137q0 261 35 335q52 115 132 146q52 21 127 21q76 0 144 -38t68 -112q0 -44 -31 -72t-77 -28t-73 33q-26 33 -37 67t-32 33q-39 0 -39 -66l4 -272l2 -1073v-75q0 -111 -14 -190t-29 -106q-52 -89 -86 -106q-81 -43 -159 -43t-144 38
t-65 109q0 43 27 72q28 29 75 29t72 -34t37 -69t28 -35z" />
    <glyph glyph-name="approxequal" unicode="&#x2248;" horiz-adv-x="1171" 
d="M311 709q-104 0 -133 -142h-139q14 145 86 245t207 99q86 -1 271 -69t263 -68q102 0 129 135h140q-14 -147 -86 -244t-211 -98q-88 0 -281 71t-246 71zM834 152q-88 0 -281 70t-247 71q-54 0 -89 -41t-43 -100h-139q14 145 86 244t207 100q88 0 271 -69t263 -69
q104 1 131 136h137q-14 -146 -86 -244t-210 -98z" />
    <glyph glyph-name="notequal" unicode="&#x2260;" horiz-adv-x="1177" 
d="M1120 203h-583l-160 -312l-182 95l112 217h-250v209h355l125 239h-480v207h584l158 311l182 -92l-111 -219h250v-207h-356l-123 -239h479v-209z" />
    <glyph glyph-name="lessequal" unicode="&#x2264;" horiz-adv-x="1177" 
d="M1120 205l-1063 352v211l1063 367v-220l-780 -251l780 -240v-219zM1120 -72h-1063v207h1063v-207z" />
    <glyph glyph-name="greaterequal" unicode="&#x2265;" horiz-adv-x="1177" 
d="M1120 557l-1063 -352v219l779 240l-779 251v220l1063 -367v-211zM1120 -72h-1063v207h1063v-207z" />
    <glyph glyph-name="lozenge" unicode="&#x25ca;" horiz-adv-x="1155" 
d="M1036 729l-362 -801h-195l-360 801l360 801h195zM825 729l-250 594l-243 -594l243 -596z" />
    <glyph glyph-name="dotlessj" unicode="&#xe0d6;" horiz-adv-x="468" 
d="M115 -80v1139h233v-1149q0 -164 -72 -247t-231 -83q-63 0 -104 8v185q41 -9 89 -9t67 35q18 35 18 121z" />
    <glyph glyph-name="grave.cap" unicode="&#xe300;" horiz-adv-x="442" 
d="M-100 1896h274l186 -292h-170z" />
    <glyph glyph-name="acute.cap" unicode="&#xe301;" horiz-adv-x="440" 
d="M82 1604l184 292h277l-291 -292h-170z" />
    <glyph glyph-name="circumflex.cap" unicode="&#xe302;" horiz-adv-x="438" 
d="M219 1788l-143 -184h-189l219 292h228l221 -292h-190z" />
    <glyph glyph-name="caron.cap" unicode="&#xe303;" horiz-adv-x="438" 
d="M551 1896l-221 -292h-228l-219 292h189l143 -182l145 182h191z" />
    <glyph glyph-name="tilde.cap" unicode="&#xe304;" horiz-adv-x="460" 
d="M365 1636q-63 0 -151 38t-140 38q-72 0 -88 -84h-117q15 90 71 161t133 71t169 -39t133 -39q79 0 102 90h115q-18 -113 -68 -166q-57 -70 -159 -70z" />
    <glyph glyph-name="dieresis.cap" unicode="&#xe305;" horiz-adv-x="405" 
d="M262 1851h234v-221h-234v221zM143 1630h-233v221h233v-221z" />
    <glyph glyph-name="macron.cap" unicode="&#xe306;" horiz-adv-x="307" 
d="M449 1675h-590v133h590v-133z" />
    <glyph glyph-name="breve.cap" unicode="&#xe307;" horiz-adv-x="456" 
d="M-102 1894h118q31 -156 220 -155q80 0 135 40t71 115h117q-16 -143 -105 -216q-88 -72 -232 -72t-228 74t-96 214z" />
    <glyph glyph-name="ring.cap" unicode="&#xe308;" horiz-adv-x="395" 
d="M198 1538q-89 0 -151 59q-61 59 -61 151t62 152t150 60t151 -59t63 -151t-62 -152t-152 -60zM76 1750q0 -54 36 -90t88 -36t87 36t35 90t-35 89t-87 35t-88 -35t-36 -89z" />
    <glyph glyph-name="hungarumlaut.cap" unicode="&#xe309;" horiz-adv-x="477" 
d="M-111 1604l185 292h278l-295 -292h-168zM297 1604l184 292h279l-295 -292h-168z" />
    <glyph glyph-name="dotaccent.cap" unicode="&#xe30a;" horiz-adv-x="452" 
d="M342 1630h-233v221h233v-221z" />
    <glyph glyph-name="caron.alt" unicode="&#xe30b;" horiz-adv-x="430" 
d="M162 1169l65 293h256l-166 -293h-155z" />
    <glyph glyph-name="commaaccent" unicode="&#xe30c;" horiz-adv-x="552" 
d="M154 -305v203h268v-183q0 -162 -238 -172v78q82 12 92 74h-122z" />
    <glyph glyph-name="commaaccent.alt" unicode="&#xe30d;" horiz-adv-x="552" 
d="M412 1462v-202h-269v182q0 162 238 172v-78q-82 -12 -92 -74h123z" />
    <glyph glyph-name="uniF8FF" unicode="&#xf8ff;" horiz-adv-x="1019" 
d="M-14 1470h1048v-1470h-1048v1470zM88 102h844v1264h-844v-1264zM541 479h-95l-4 35q0 115 29 169t92 118q63 59 83 94t20 93t-46 107q-46 50 -110 50q-145 0 -168 -195l-102 17q14 141 88 211t186 70t184 -74t72 -195q0 -70 -27 -123t-103 -122t-87 -109
q-12 -40 -12 -146zM555 240h-115v137h115v-137z" />
    </font>
</defs>
</svg>
