<?xml version="1.0" standalone="no"?>
<!DOCTYPE svg PUBLIC "-//W3C//DTD SVG 1.1//EN" "http://www.w3.org/Graphics/SVG/1.1/DTD/svg11.dtd" >
<svg xmlns="http://www.w3.org/2000/svg">
<metadata>
Created by FontPrep 20130207 at Tue Jan 21 12:15:41 2014
 By fireant
Copyright (c) 1985, 1987, 1997, 1998, 2001 Adobe Systems Incorporated.  All Rights Reserved. Revised kerning Copyright 2010 International Typeface Corporation.
</metadata>
<defs>
<font id="e38b25481ffc6de3527d7db9e654d696" horiz-adv-x='1024' >
  <font-face 
    font-family="LubalinforIBM-DemiItalic"
    font-weight="600"
    font-style="italic"
    font-stretch="normal"
    units-per-em="2048"
    panose-1="2 6 7 3 2 2 5 2 4 4"
    ascent="1473"
    descent="-575"
    x-height="1094"
    cap-height="1462"
    bbox="-453 -575 2499.7 2083"
    underline-thickness="102"
    underline-position="-102"
    slope="-10"
    unicode-range="U+0020-FB02"
  />
<missing-glyph horiz-adv-x="1273" 
d="M248 1239v-1044l348 522zM309 102h697l-349 523zM719 717l348 -522v1044zM657 809l349 522h-697zM145 0v1434h1024v-1434h-1024z" />
    <glyph glyph-name=".notdef" horiz-adv-x="1273" 
d="M248 1239v-1044l348 522zM309 102h697l-349 523zM719 717l348 -522v1044zM657 809l349 522h-697zM145 0v1434h1024v-1434h-1024z" />
    <glyph glyph-name=".null" horiz-adv-x="0" 
 />
    <glyph glyph-name="nonmarkingreturn" horiz-adv-x="681" 
 />
    <glyph glyph-name="space" unicode=" " horiz-adv-x="552" 
 />
    <glyph glyph-name="exclam" unicode="!" horiz-adv-x="706" 
d="M610 1462l-180 -1024h-258l180 1024h258zM403 289l-51 -289h-258l51 289h258z" />
    <glyph glyph-name="quotedbl" unicode="&#x22;" horiz-adv-x="817" 
d="M324 874h-150l51 588h258zM721 874h-150l52 588h258z" />
    <glyph glyph-name="numbersign" unicode="#" horiz-adv-x="1245" 
d="M766 852h-211l-66 -209h209zM807 489l-158 -489h-155l155 489h-211l-155 -489h-156l156 489h-248l26 154h273l67 209h-243l28 154h267l145 456h154l-144 -456h211l146 456h155l-145 -456h231l-28 -154h-254l-66 -209h223l-26 -154h-248z" />
    <glyph glyph-name="dollar" unicode="$" horiz-adv-x="1095" 
d="M646 1247q-82 0 -146 -48t-78 -131t32 -125t136 -66q213 -57 297 -125q154 -125 117 -338q-31 -174 -163 -297t-311 -152l-36 -211h-213l43 246q-76 9 -123 84l-15 -84h-206l75 434h244q-23 -96 31 -165t145 -69q92 0 162 55q70 54 85 144q15 89 -37 137t-150 78
q-209 62 -279 120t-96 146t-10 185q28 157 152 273t282 137l37 215h213l-41 -238q72 -12 106 -78l16 88h193l-72 -401h-227q10 82 -36 134t-127 52z" />
    <glyph glyph-name="percent" unicode="%" horiz-adv-x="1759" 
d="M545 0h-203l918 1462h200zM548 1280q-62 0 -114 -43t-62 -107q-11 -64 25 -107q36 -44 98 -44t114 44q53 44 63 106q10 63 -26 107t-98 44zM586 1493q150 -1 238 -107t60 -257q-26 -151 -150 -257t-276 -106q-153 0 -240 108t-59 258t152 256q125 105 275 105zM1313 494
q-61 0 -113 -43t-64 -107q-11 -64 26 -108q37 -46 99 -46t113 46t62 106q12 60 -25 106t-98 46zM1221 -23q-152 0 -239 108t-59 258t152 256q125 105 275 105t238 -104q88 -106 62 -257q-28 -151 -152 -259t-277 -107z" />
    <glyph glyph-name="ampersand" unicode="&#x26;" horiz-adv-x="1513" 
d="M713 1286q-59 0 -105 -41t-57 -102q-14 -90 72 -180l14 -17q168 94 184 195q10 59 -19 102q-30 43 -89 43zM485 209q152 0 279 174l-225 268q-205 -96 -230 -237q-14 -86 38 -146t138 -59zM428 -29q-186 0 -304 121t-87 303q25 137 120 233t253 183q-136 146 -103 328
q27 156 155 259t282 103t246 -98t65 -246q-19 -111 -101 -201t-196 -149l196 -232l197 312h303l-39 -228h-145l-172 -258l205 -251l-203 -170l-191 229q-215 -238 -481 -238z" />
    <glyph glyph-name="quotesingle" unicode="'" horiz-adv-x="407" 
d="M324 874h-150l51 588h258z" />
    <glyph glyph-name="parenleft" unicode="(" horiz-adv-x="808" 
d="M580 39l-54 -311q-256 98 -381 338t-73 530t262 532q211 244 497 334l-53 -305q-166 -87 -280 -237t-143 -322q-30 -172 31 -326t194 -233z" />
    <glyph glyph-name="parenright" unicode=")" horiz-adv-x="735" 
d="M172 1157l53 305q254 -90 379 -334t74 -534t-260 -530t-498 -336l53 311q164 79 279 233t143 326q31 172 -29 322t-194 237z" />
    <glyph glyph-name="asterisk" unicode="*" horiz-adv-x="778" 
d="M780 1245l-22 -129l-187 4l78 -153l-123 -74l-69 174l-121 -174l-103 63l127 160l-202 -12l22 131l193 -6l-84 160l125 73l75 -176l127 176l105 -69l-131 -158z" />
    <glyph glyph-name="plus" unicode="+" horiz-adv-x="1396" 
d="M195 827h426l75 426h189l-76 -426h426l-33 -188h-426l-76 -426h-188l76 426h-426z" />
    <glyph glyph-name="comma" unicode="," horiz-adv-x="645" 
d="M39 -295h-39l25 139h26q39 0 62 22t29 44t16 63l4 27h-111l51 289h258l-57 -328q-27 -135 -76 -184t-88 -61t-100 -11z" />
    <glyph glyph-name="hyphen" unicode="-" horiz-adv-x="653" 
d="M557 414h-524l43 248h524z" />
    <glyph glyph-name="period" unicode="." horiz-adv-x="655" 
d="M371 289l-52 -289h-258l52 289h258z" />
    <glyph glyph-name="slash" unicode="/" horiz-adv-x="1185" 
d="M78 -399h-180l1243 1861h182z" />
    <glyph glyph-name="zero" unicode="0" horiz-adv-x="1245" 
d="M535 221q142 0 231 113q49 63 72 194l73 414q27 137 -12 209q-49 100 -193 100t-229 -114q-51 -64 -74 -195l-73 -414q-23 -141 12 -209q51 -98 193 -98zM490 -29q-218 0 -349 152q-76 84 -93 185t9 224l72 410q23 129 67 218t138 171q193 170 413 170t357 -154t82 -405
l-72 -410q-24 -127 -68 -217t-139 -172q-199 -172 -417 -172z" />
    <glyph glyph-name="one" unicode="1" horiz-adv-x="741" 
d="M639 1462l-217 -1229h172l-41 -233h-614l41 233h172l176 996h-215l41 233h485z" />
    <glyph glyph-name="two" unicode="2" horiz-adv-x="1087" 
d="M678 1501q208 0 322 -140t79 -339q-27 -153 -127 -260t-235 -211l-402 -318h375l29 156h239l-69 -389h-961l41 233l617 510q4 5 28 23t29 24q6 6 28 23q23 19 29 27t25 25q17 17 25 29t20 28q12 18 18 32l14 32q8 18 9 34q14 90 -40 150t-149 60t-172 -71
q-77 -72 -90 -174h-264q37 221 205 369t377 147z" />
    <glyph glyph-name="three" unicode="3" horiz-adv-x="1132" 
d="M470 215q93 0 175 69q82 68 100 172t-44 170t-173 66h-55l-14 -2l39 213h57q98 0 171 46q73 45 88 135t-28 140q-44 50 -120 50t-136 -47t-75 -123h-252q33 174 181 286t324 112t282 -107q108 -106 77 -277q-17 -92 -77 -176t-146 -125q106 -41 156 -146t28 -231
q-35 -193 -211 -331q-166 -137 -376 -137t-341 122q-131 123 -106 328h276q-2 -88 52 -148t148 -59z" />
    <glyph glyph-name="four" unicode="4" horiz-adv-x="1286" 
d="M715 602l94 531l-471 -531h377zM1204 602l-37 -213h-219l-28 -156h170l-41 -233h-611l41 233h170l29 156h-674l37 213l782 860h314l-152 -860h219z" />
    <glyph glyph-name="five" unicode="5" horiz-adv-x="1175" 
d="M567 764q-164 0 -262 -143l-217 59l268 782h779l-41 -233h-564l-112 -309q125 78 270 77q205 0 317 -147q113 -147 73 -365q-40 -217 -229 -365t-405 -148t-341 112q-126 114 -132 307h287q34 -168 230 -168q100 0 194 79t115 194q21 116 -47 192t-183 76z" />
    <glyph glyph-name="six" unicode="6" horiz-adv-x="1189" 
d="M505 236q114 0 209 78t114 190q18 114 -46 194t-178 80t-207 -78q-94 -78 -114 -190t44 -194q64 -80 178 -80zM719 1010q197 0 303 -150t68 -362t-220 -370q-184 -157 -411 -157q-99 0 -195 43t-158 113q-131 160 -90 397q31 170 193 361l496 577h305l-426 -485
q63 33 135 33z" />
    <glyph glyph-name="seven" unicode="7" horiz-adv-x="1019" 
d="M176 1462h971l-41 -235l-762 -1227h-301l782 1229h-426l-41 -236h-264z" />
    <glyph glyph-name="eight" unicode="8" horiz-adv-x="1153" 
d="M600 897q78 0 141 54t78 130q14 76 -29 132q-44 57 -121 57t-142 -54t-79 -133q-14 -78 30 -132t122 -54zM485 209q96 0 175 70q80 71 96 165t-41 163t-153 69t-177 -69q-80 -69 -96 -166t42 -165t154 -67zM443 -29q-209 0 -335 125t-90 330q23 121 111 225t209 150
q-78 37 -113 118t-18 175q33 182 183 295q151 113 324 113t278 -112q105 -110 77 -274q-35 -199 -219 -301q109 -37 161 -142t29 -231q-35 -205 -212 -338t-385 -133z" />
    <glyph glyph-name="nine" unicode="9" horiz-adv-x="1181" 
d="M590 686q117 0 210 81t113 195q19 114 -49 192t-180 79q-112 0 -206 -79q-96 -78 -116 -192t46 -195t182 -81zM730 1501q216 0 353 -149q141 -160 99 -402q-18 -104 -60 -183t-125 -177l-495 -590h-338l450 485q-76 -35 -135 -34q-205 -1 -315 153t-71 366
q37 212 229 372t408 159z" />
    <glyph glyph-name="colon" unicode=":" horiz-adv-x="612" 
d="M516 1053l-51 -289h-258l51 289h258zM381 289l-51 -289h-258l51 289h258z" />
    <glyph glyph-name="semicolon" unicode=";" horiz-adv-x="612" 
d="M516 1053l-51 -289h-258l51 289h258zM59 -295h-39l25 139h27q40 0 62 22t29 44t15 63l4 27h-110l51 289h258l-57 -328q-27 -135 -76 -184t-88 -61t-101 -11z" />
    <glyph glyph-name="less" unicode="&#x3c;" 
d="M1169 324l-32 -187l-1018 506l33 180l1196 510l-33 -188l-996 -414z" />
    <glyph glyph-name="equal" unicode="=" 
d="M166 668h1040l-32 -191h-1041zM223 987h1041l-33 -190h-1041z" />
    <glyph glyph-name="greater" unicode="&#x3e;" 
d="M63 324l994 407l-848 414l33 188l1015 -510l-32 -180l-1194 -506z" />
    <glyph glyph-name="question" unicode="?" horiz-adv-x="1103" 
d="M668 1235q-94 0 -168 -68t-92 -168h-265q35 209 203 355t370 147q202 0 318 -142t85 -328q-32 -186 -162 -291q-56 -46 -113 -88q-139 -102 -187 -242h-258q20 120 86 204t156 155t114 91q25 20 55 64t38 92q16 88 -35 154t-145 65zM637 289l-51 -289h-258l51 289h258z
" />
    <glyph glyph-name="at" unicode="@" horiz-adv-x="1753" 
d="M743 477q150 0 263 203q111 213 56 295q-28 39 -91 39q-119 0 -221 -117t-123 -240q-14 -76 15 -128t101 -52zM791 -29q-152 -1 -293 51q-291 106 -371 397q-41 148 -12 302q57 319 332 549t597 231q279 0 447 -174t121 -448q-37 -211 -170 -359q-74 -82 -175 -137
t-181 -55t-110 32t-28 97q-115 -121 -251 -121t-196 96t-36 232q33 178 193 332t337 155q66 0 115 -35t64 -92l34 63h148l-240 -491q-29 -61 -33 -90q-12 -61 50 -62q47 0 107 36q209 126 252 373q42 247 -94 387t-393 140t-485 -190t-274 -466t114 -455t461 -179t557 217
l29 -92q-264 -244 -616 -244z" />
    <glyph glyph-name="A" unicode="A" horiz-adv-x="1640" 
d="M1001 639l-96 502h-2l-274 -502h372zM883 0l37 205h161l-47 219h-514l-123 -219h158l-37 -205h-596l41 233h156l602 996h-162l41 233h490l294 -1229h156l-41 -233h-616z" />
    <glyph glyph-name="B" unicode="B" horiz-adv-x="1265" 
d="M586 244q150 0 209 37q92 55 111 160t-52 165q-51 43 -195 43h-155l-72 -405h154zM710 879q60 0 66 1t20 3t23 5q8 3 25 9t39 18q74 47 90 143t-51 142q-39 29 -170 29h-144l-61 -350h163zM860 1462q201 0 289 -76q119 -104 86 -290q-16 -100 -82 -184t-162 -128
q113 -49 161 -147q48 -97 29 -207q-37 -215 -196 -332q-129 -98 -352 -98h-680l41 233h158l176 996h-158l41 233h649z" />
    <glyph glyph-name="C" unicode="C" horiz-adv-x="1492" 
d="M698 260q127 0 246 58t205 163h301q-111 -223 -337 -366t-462 -144q-147 1 -279 61t-218 165q-182 223 -127 539t314 540t553 225q294 0 437 -180l25 147h229l-82 -467h-266q-43 103 -143 163t-222 61q-208 -1 -368 -139t-195 -340t79 -344t310 -142z" />
    <glyph glyph-name="D" unicode="D" horiz-adv-x="1482" 
d="M655 252q119 0 209 27t170 102q139 133 180 356t-61 361q-57 72 -132 94t-192 22h-223l-170 -962h219zM905 1462q162 0 276 -43t199 -149q170 -209 113 -543q-53 -299 -281 -513t-569 -214h-690l41 233h160l176 996h-160l41 233h694z" />
    <glyph glyph-name="E" unicode="E" horiz-adv-x="1222" 
d="M-47 0l41 233h160l176 996h-160l41 233h1083l-77 -440h-279l33 190h-367l-63 -364h426l-39 -217h-426l-68 -387h367l35 198h278l-78 -442h-1083z" />
    <glyph glyph-name="F" unicode="F" horiz-adv-x="1222" 
d="M154 233l176 996h-160l41 233h1092l-78 -440h-279l33 190h-375l-65 -374h424l-37 -215h-424l-70 -390h160l-41 -233h-598l41 233h160z" />
    <glyph glyph-name="G" unicode="G" horiz-adv-x="1570" 
d="M844 1223q-203 -1 -367 -141q-165 -140 -199 -343t80 -346t314 -143q147 0 275 76t204 211h-541l41 235h850l-135 -772h-231l39 225q-104 -123 -250 -189t-301 -65q-315 -1 -499 223t-129 537q54 313 302 533q125 111 282 174t308 63q260 0 430 -174l24 135h230l-76 -430
h-303q-112 191 -348 191z" />
    <glyph glyph-name="H" unicode="H" horiz-adv-x="1548" 
d="M1108 877l63 352h-157l41 233h594l-41 -233h-158l-176 -996h158l-41 -233h-594l41 233h157l64 365h-563l-64 -365h158l-41 -233h-596l41 233h160l176 996h-160l41 233h596l-41 -233h-158l-63 -352h563z" />
    <glyph glyph-name="I" unicode="I" horiz-adv-x="712" 
d="M608 1229l-176 -996h158l-41 -233h-596l41 233h160l176 996h-160l41 233h596l-41 -233h-158z" />
    <glyph glyph-name="J" unicode="J" horiz-adv-x="1103" 
d="M358 -29q-201 0 -309 122t-67 319h290q-10 -74 24 -128t114 -54t143 79q41 57 59 185l131 735h-159l41 233h596l-41 -233h-158l-137 -770q-20 -115 -52 -191t-106 -148t-173 -110q-99 -39 -196 -39z" />
    <glyph glyph-name="K" unicode="K" horiz-adv-x="1503" 
d="M1386 233l-40 -233h-623l41 233h143l-395 453l-80 -453h158l-41 -233h-596l41 233h160l176 996h-160l41 233h596l-41 -233h-158l-76 -428l529 428h-131l41 233h602l-41 -233h-125l-604 -479l454 -517h129z" />
    <glyph glyph-name="L" unicode="L" horiz-adv-x="1183" 
d="M-47 0l41 233h160l176 996h-160l41 233h596l-41 -233h-158l-172 -979h350l33 192h279l-78 -442h-1067z" />
    <glyph glyph-name="M" unicode="M" horiz-adv-x="2009" 
d="M1903 1229l-177 -996h160l-41 -233h-596l41 233h158l149 850l-593 -1083h-197l-225 1083l-150 -850h170l-41 -233h-608l41 233h160l176 996h-160l41 233h549l215 -1032l579 1032h549l-41 -233h-159z" />
    <glyph glyph-name="N" unicode="N" horiz-adv-x="1628" 
d="M1554 1229l-217 -1229h-260l-518 963l-129 -730h160l-41 -233h-596l41 233h158l176 996h-158l41 233h410l524 -979l131 746h-160l41 233h596l-41 -233h-158z" />
    <glyph glyph-name="O" unicode="O" horiz-adv-x="1529" 
d="M701 248q202 0 368 144t201 345t-81 342q-117 141 -315 141t-364 -140t-202 -343t78 -346t315 -143zM652 -31q-318 -1 -502 223t-128 542t320 542q264 223 582 223t502 -222q185 -222 129 -539q-57 -317 -321 -543t-582 -226z" />
    <glyph glyph-name="P" unicode="P" horiz-adv-x="1216" 
d="M688 758q131 0 197 49q92 67 112 181t-61 175q-53 45 -180 45h-154l-80 -450h166zM793 1462q256 0 372 -96q156 -133 113 -381q-37 -205 -203 -344q-156 -135 -395 -135h-201l-49 -273h160l-41 -233h-596l41 233h158l176 996h-158l41 233h582z" />
    <glyph glyph-name="Q" unicode="Q" horiz-adv-x="1785" 
d="M697 250q123 0 218 55q-84 105 -177 165q-92 60 -208 60t-204 -45q44 -113 146 -174t225 -61zM573 756q311 0 537 -305q125 121 152 278q35 205 -79 349t-319 144t-368 -147q-150 -131 -181 -293l-6 -75q129 49 264 49zM649 -29q-322 -1 -503 225q-180 226 -124 542
t318 540t577 223q315 0 501 -222t132 -540q-51 -283 -258 -477q74 -59 156 -65l25 135h204l-65 -371l-88 -6q-262 0 -424 147q-225 -131 -451 -131z" />
    <glyph glyph-name="R" unicode="R" horiz-adv-x="1359" 
d="M662 684q164 0 253 59q115 80 139 212t-61 206q-43 43 -122 49q-26 2 -76 2h-193l-92 -528h152zM864 1462q125 0 211 -22t152 -90q150 -150 106 -385q-29 -166 -153 -296t-287 -145l176 -291h166l-41 -233h-342l-346 657l-76 -424h125l-41 -233h-561l41 233h158l176 996
h-158l41 233h653z" />
    <glyph glyph-name="S" unicode="S" horiz-adv-x="1081" 
d="M667 1493q177 0 242 -113l15 82h213l-70 -393h-250q12 82 -32 136q-44 55 -127 55q-82 0 -148 -50t-80 -133q-22 -113 81 -162q42 -19 122 -45q207 -59 289 -133q127 -117 92 -311t-190 -325q-155 -130 -344 -130t-269 125l-16 -96h-222l76 434h254q-16 -94 33 -159
t144 -65t166 55q71 54 85 147q26 134 -143 193q-20 7 -68 22q-186 57 -264 125q-139 117 -106 307t186 312q154 122 331 122z" />
    <glyph glyph-name="T" unicode="T" horiz-adv-x="1263" 
d="M891 1214l-174 -981h160l-41 -233h-598l41 233h159l174 981h-215l-39 -213h-221l82 461h1151l-82 -461h-221l39 213h-215z" />
    <glyph glyph-name="U" unicode="U" horiz-adv-x="1443" 
d="M971 1462h569l-41 -233h-158l-129 -725q-22 -125 -66 -215t-134 -170q-168 -147 -411 -147t-355 134q-131 154 -74 406l127 717h-158l41 233h570l-41 -233h-133l-121 -688q-25 -141 6 -205q49 -102 175 -102t212 88q63 68 92 219l121 688h-133z" />
    <glyph glyph-name="V" unicode="V" horiz-adv-x="1562" 
d="M1473 1229l-664 -1229h-305l-203 1229h-158l41 233h592l-41 -233h-139l139 -844l459 844h-141l41 233h575l-41 -233h-155z" />
    <glyph glyph-name="W" unicode="W" horiz-adv-x="2125" 
d="M2030 1229l-543 -1229h-264l-101 965l-440 -965h-260l-133 1229h-146l41 233h594l-41 -233h-159l71 -768l441 1001h235l105 -993l331 760h-164l41 233h594l-41 -233h-161z" />
    <glyph glyph-name="X" unicode="X" horiz-adv-x="1546" 
d="M1430 233l-41 -233h-601l39 215h144l-205 334l-322 -334h146l-39 -215h-600l41 233h143l498 508l-299 488h-150l41 233h602l-39 -215h-135l183 -311l288 311h-135l39 215h604l-41 -233h-147l-479 -488l315 -508h150z" />
    <glyph glyph-name="Y" unicode="Y" horiz-adv-x="1398" 
d="M817 510l-49 -277h160l-41 -233h-596l41 233h157l50 277l-260 719h-148l41 233h565l-41 -233h-135l160 -484l330 484h-140l41 233h564l-41 -233h-146z" />
    <glyph glyph-name="Z" unicode="Z" horiz-adv-x="1208" 
d="M1104 444l-78 -444h-1063l39 219l872 1000h-413l-35 -201h-248l78 444h997l-36 -211l-879 -1007h475l35 200h256z" />
    <glyph glyph-name="bracketleft" unicode="[" horiz-adv-x="776" 
d="M584 -29l-43 -235h-611l306 1726h610l-41 -235h-330l-221 -1256h330z" />
    <glyph glyph-name="backslash" unicode="\" horiz-adv-x="1267" 
d="M739 0l-366 1462h207l364 -1462h-205z" />
    <glyph glyph-name="bracketright" unicode="]" horiz-adv-x="776" 
d="M-27 -29h330l221 1256h-329l41 235h610l-305 -1726h-611z" />
    <glyph glyph-name="asciicircum" unicode="^" 
d="M221 356h-186l700 1106h180l316 -1106h-187l-256 908z" />
    <glyph glyph-name="underscore" unicode="_" horiz-adv-x="1021" 
d="M-133 -154h1024l-19 -102h-1024z" />
    <glyph glyph-name="grave" unicode="`" horiz-adv-x="940" 
d="M936 1411l-115 -182l-520 256l139 221z" />
    <glyph glyph-name="a" unicode="a" horiz-adv-x="1368" 
d="M532 215q137 0 251 98q114 99 138 237q23 138 -57 233t-217 95t-251 -98q-114 -100 -138 -236t57 -232q80 -96 217 -97zM463 -29q-233 0 -368 168q-134 168 -93 405q41 238 239 408t428 170t316 -184l27 156h391l-41 -234h-137l-111 -627h137l-41 -233h-391l27 147
q-150 -176 -383 -176z" />
    <glyph glyph-name="b" unicode="b" horiz-adv-x="1361" 
d="M825 883q-137 -1 -252 -97t-137 -233q-26 -141 56 -239t221 -99q139 0 251 100q112 101 136 237t-58 234q-80 98 -217 97zM886 1110q228 0 364 -166t96 -394t-216 -388q-88 -82 -200 -130t-220 -48t-197 46t-136 134l-29 -164h-391l41 233h141l176 996h-141l41 233h391
l-92 -526q144 174 372 174z" />
    <glyph glyph-name="c" unicode="c" horiz-adv-x="1187" 
d="M481 -29q-238 0 -378 168q-140 167 -99 403q40 236 232 410t421 174q186 0 289 -137l19 105h215l-64 -365h-233q-33 66 -99 108t-147 42q-139 -1 -249 -97t-134 -235t55 -235q80 -96 217 -95q82 0 162 41t127 111h279q-80 -172 -256 -285t-357 -113z" />
    <glyph glyph-name="d" unicode="d" horiz-adv-x="1351" 
d="M536 213q138 0 252 99q114 98 139 236q23 138 -57 234t-216 96t-251 -98t-139 -235t54 -235q80 -97 218 -97zM469 -16q-233 0 -370 168q-136 168 -95 396q40 228 232 396t423 168q103 0 191 -47t137 -131l53 295h-143l41 233h393l-217 -1229h141l-41 -233h-391l29 164
q-150 -180 -383 -180z" />
    <glyph glyph-name="e" unicode="e" horiz-adv-x="1173" 
d="M258 645h664q-12 117 -94 188t-200 71q-116 0 -222 -76q-106 -74 -148 -183zM672 1126q238 0 381 -176q125 -162 82 -409l-25 -88h-885q4 -113 84 -188t197 -75q176 1 289 132h260q-92 -158 -250 -254t-328 -97q-240 0 -379 166t-96 408q43 241 237 411q195 170 433 170z
" />
    <glyph glyph-name="f" unicode="f" horiz-adv-x="663" 
d="M506 860l-111 -627h144l-41 -233h-535l41 233h141l111 627h-141l41 234h141q70 408 496 407l-39 -223q-184 2 -207 -184h143l-41 -234h-143z" />
    <glyph glyph-name="g" unicode="g" horiz-adv-x="1335" 
d="M536 215q140 0 254 99q114 100 138 238t-58 234t-219 96t-251 -96q-114 -98 -140 -236q-25 -138 56 -236q80 -98 220 -99zM462 -16q-234 0 -367 167q-132 167 -91 396t236 397t431 168t320 -178l29 160h371l-41 -234h-142l-125 -715q-27 -147 -69 -242t-144 -182
q-199 -166 -456 -165q-184 0 -318 91q-133 91 -143 259h289q18 -66 80 -101t141 -34q143 0 250 100q57 57 81 111t40 143l6 41q-144 -182 -378 -182z" />
    <glyph glyph-name="h" unicode="h" horiz-adv-x="1353" 
d="M879 1118q190 0 282 -160q75 -133 29 -348l-68 -377h142l-41 -233h-533l41 233h141l56 310q31 166 2 229q-47 100 -174 100t-209 -88q-59 -59 -77 -138q-5 -26 -15 -81l-60 -332h142l-41 -233h-533l41 233h141l177 996h-142l41 233h391l-94 -532q141 188 361 188z" />
    <glyph glyph-name="i" unicode="i" horiz-adv-x="632" 
d="M612 1462l-47 -264h-250l47 264h250zM547 1094l-152 -861h142l-41 -233h-535l41 233h143l111 627h-141l41 234h391z" />
    <glyph glyph-name="j" unicode="j" horiz-adv-x="507" 
d="M575 1462l-47 -264h-249l47 264h249zM510 1094l-191 -1078q-37 -213 -159 -314t-340 -114l39 232q84 4 134 53t62 90q11 41 21 95t12 61l131 741h-141l41 234h391z" />
    <glyph glyph-name="k" unicode="k" horiz-adv-x="1251" 
d="M457 604l329 281h-112l37 209h538l-41 -234h-133l-352 -291l260 -336h172l-41 -233h-596l41 233h92l-209 287l-51 -287h98l-40 -233h-492l41 233h143l176 996h-143l41 233h393z" />
    <glyph glyph-name="l" unicode="l" horiz-adv-x="638" 
d="M618 1462l-217 -1229h142l-41 -233h-543l41 233h152l176 996h-142l41 233h391z" />
    <glyph glyph-name="m" unicode="m" horiz-adv-x="2019" 
d="M844 1120q112 0 192 -62t109 -167q61 105 172 167t225 62q193 0 291 -139q80 -115 29 -334l-74 -414h141l-41 -233h-532l41 233h141l61 353q27 131 5 198q-47 90 -164 90t-199 -81q-63 -68 -88 -207l-61 -353h141l-41 -233h-533l41 233h142l59 336q27 145 7 199
q-42 109 -159 107q-117 -1 -193 -79t-101 -225l-60 -338h142l-41 -233h-533l41 233h141l111 627h-141l41 234h368l-28 -164q150 190 348 190z" />
    <glyph glyph-name="n" unicode="n" horiz-adv-x="1357" 
d="M874 1118q190 0 293 -135q89 -123 35 -321l-76 -429h142l-41 -233h-533l41 233h142l63 355q20 139 -8 196q-51 88 -180 88t-213 -92q-55 -59 -88 -229l-56 -318h142l-41 -233h-533l41 233h141l111 627h-141l41 234h391l-27 -156q129 180 354 180z" />
    <glyph glyph-name="o" unicode="o" horiz-adv-x="1167" 
d="M518 217q137 0 250 96q112 97 136 233t-52 235t-211 99t-251 -96t-140 -232t54 -236q77 -100 214 -99zM476 -29q-239 0 -376 171t-95 410q42 238 242 406q201 168 437 168t373 -169t95 -407t-240 -409q-198 -170 -436 -170z" />
    <glyph glyph-name="p" unicode="p" horiz-adv-x="1376" 
d="M714 215q136 0 250 96q114 95 138 231t-54 235q-77 99 -214 99t-252 -96t-140 -234q-24 -138 56 -234t216 -97zM897 1106q235 0 369 -165t94 -395q-42 -230 -230 -396t-422 -166t-333 170l-56 -320h142l-41 -233h-533l41 233h140l180 1026h-139l41 234h391l-31 -172
q152 184 387 184z" />
    <glyph glyph-name="q" unicode="q" 
d="M533 215q136 0 249 96q113 95 138 235q26 140 -56 235t-220 95t-249 -98q-111 -100 -135 -235t57 -231q80 -96 216 -97zM455 -16q-231 0 -363 167q-131 167 -90 395t234 394t428 166t319 -184l31 172h391l-41 -234h-139l-181 -1026h140l-41 -233h-533l41 233h142l55 320
q-162 -170 -393 -170z" />
    <glyph glyph-name="r" unicode="r" horiz-adv-x="735" 
d="M522 1094l-33 -187q125 188 363 199l-45 -256q-135 -6 -229 -80q-106 -78 -140 -260l-49 -277h141l-41 -233h-532l41 233h141l111 627h-141l41 234h372z" />
    <glyph glyph-name="s" unicode="s" horiz-adv-x="989" 
d="M440 154q68 0 120 38t63 97q16 92 -88 129q-12 4 -77 21t-106 31t-97 42t-84 62q-69 82 -44 223t148 230q124 89 286 89t223 -98l13 76h184l-51 -297h-242q6 57 -26 93t-90 36t-106 -31t-55 -76t3 -71q16 -40 89 -64q22 -6 76 -19t99 -27q132 -42 184 -106
q69 -84 44 -230q-26 -147 -155 -239q-130 -92 -301 -92t-253 119l-17 -90h-190l55 317h256q-6 -75 33 -119q38 -44 106 -44z" />
    <glyph glyph-name="t" unicode="t" horiz-adv-x="684" 
d="M475 860l-110 -627h198l-41 -233h-448l151 860h-172l41 234h172l66 368h250l-66 -368h186l-40 -234h-187z" />
    <glyph glyph-name="u" unicode="u" horiz-adv-x="1298" 
d="M457 -29q-186 0 -279 140q-76 113 -41 317l76 432h-141l41 234h391l-105 -592q-25 -141 9 -205q44 -94 162 -94t204 90q57 63 86 215l62 352h-142l41 234h391l-151 -861h141l-41 -233h-370l24 135q-68 -78 -164 -121t-194 -43z" />
    <glyph glyph-name="v" unicode="v" horiz-adv-x="1241" 
d="M1137 860l-496 -860h-262l-184 860h-134l41 234h510l-41 -234h-110l102 -553h2l314 553h-117l41 234h504l-41 -234h-129z" />
    <glyph glyph-name="w" unicode="w" horiz-adv-x="1789" 
d="M1669 860l-450 -860h-242l-86 643l-348 -643h-234l-110 860h-138l41 234h506l-41 -234h-121l68 -514h2l354 707h205l88 -707h2l258 514h-125l41 234h516l-40 -234h-146z" />
    <glyph glyph-name="x" unicode="x" horiz-adv-x="1312" 
d="M1159 860l-332 -307l236 -320h127l-41 -233h-516l37 205h86l-127 194l-195 -194h86l-37 -205h-516l41 233h129l346 320l-229 307h-123l41 234h504l-33 -193h-92l133 -190l201 190h-92l32 193h498l-41 -234h-123z" />
    <glyph glyph-name="y" unicode="y" horiz-adv-x="1249" 
d="M1139 860l-604 -1026h143l-41 -233h-533l41 233h138l104 180l-182 846h-144l41 234h516l-40 -234h-107l100 -534l301 534h-106l41 234h510l-41 -234h-137z" />
    <glyph glyph-name="z" unicode="z" horiz-adv-x="1030" 
d="M197 1094h839l-39 -226l-639 -635h336l23 121h219l-64 -354h-892l34 201l672 659h-311l-23 -129h-219z" />
    <glyph glyph-name="braceleft" unicode="{" horiz-adv-x="653" 
d="M376 -264q-26 0 -54 1t-40 5q-13 4 -40 11t-66 34q-76 55 -47 217l68 379q22 93 -15 148t-108 73q57 8 100 38q72 50 87 114q5 20 13 67l60 336q33 174 102 234q41 35 107 51q67 16 97 17t112 1q-92 -27 -138 -81t-63 -150l-64 -354q-20 -121 -66 -186t-159 -87
q100 -25 126 -85t7 -173l-67 -379q-18 -98 8 -150t110 -81h-70z" />
    <glyph glyph-name="bar" unicode="|" horiz-adv-x="886" 
d="M367 1729h206v-2304h-206v2304z" />
    <glyph glyph-name="braceright" unicode="}" horiz-adv-x="653" 
d="M332 1460q125 0 184 -67q51 -63 21 -234l-60 -336q-35 -119 27 -174q41 -35 96 -45q-171 -44 -201 -221l-67 -379q-27 -162 -121 -217q-42 -25 -76 -33q-33 -8 -47 -12q-21 -6 -72 -6h-94q96 29 138 81t61 150l67 379q20 113 68 173t156 85q-102 23 -127 88
q-24 66 -4 185l63 354q18 96 -7 150q-26 54 -110 79h105z" />
    <glyph glyph-name="asciitilde" unicode="~" 
d="M914 580q-77 0 -205 51l-91 39q-12 4 -66 26q-54 23 -99 23q-93 0 -177 -103q-8 -10 -30 -36t-27 -33l-131 96q96 119 187 187t193 69q102 0 263 -69q162 -68 210 -68q47 0 71 16t38 24t31 28q19 20 27 28t28 32q19 24 23 28l131 -95q-78 -88 -114 -124q-36 -35 -110 -77
q-75 -42 -152 -42z" />
    <glyph glyph-name="uni00A0" unicode="&#xa0;" horiz-adv-x="614" 
 />
    <glyph glyph-name="exclamdown" unicode="&#xa1;" horiz-adv-x="407" 
d="M-96 -371l180 1024h258l-180 -1024h-258zM111 805l51 289h258l-51 -289h-258z" />
    <glyph glyph-name="cent" unicode="&#xa2;" horiz-adv-x="1185" 
d="M674 963q-96 0 -176 -67t-98 -165t40 -164q56 -65 158 -65t193 90h274q-119 -256 -418 -334l-35 -199h-204l36 207q-160 29 -244 162t-56 300t162 305t304 171l35 203h205l-35 -199q100 -27 154 -100l14 80h158l-58 -332h-237q-16 51 -64 79t-108 28z" />
    <glyph glyph-name="sterling" unicode="&#xa3;" horiz-adv-x="1202" 
d="M623 215q127 0 184 43q82 55 102 166q6 39 0 76h215q10 -51 2 -109q-35 -184 -192 -297q-129 -94 -336 -94h-590l39 215h152q61 10 104 53q43 44 52 100t-2 103t-24 71t-46 72h-254l37 205h137q-45 94 -25 215q35 193 198 326t343 133q135 0 221 -115l14 84h230l-72 -405
h-229q12 92 -41 147q-49 56 -141 56q-93 0 -171 -70t-95 -178t42 -193h375l-37 -205h-252q74 -114 56 -222t-123 -177h127z" />
    <glyph glyph-name="currency" unicode="&#xa4;" horiz-adv-x="1185" 
d="M668 975q-113 0 -207 -80q-93 -80 -113 -193q-20 -114 44 -194t178 -80q112 0 206 79t114 193t-44 194q-65 81 -178 81zM702 1200q150 0 267 -82l125 107l116 -142l-127 -106q61 -119 35 -267t-131 -282l90 -109l-166 -137l-88 107q-150 -86 -295 -86t-256 86l-127 -107
l-118 137l131 111q-63 106 -37 272q29 158 133 273l-92 108l166 142l88 -109q136 84 286 84z" />
    <glyph glyph-name="yen" unicode="&#xa5;" horiz-adv-x="1228" 
d="M768 0h-524l41 233h139l49 275l-12 31h-400l21 116h342l-23 88h-303l21 117h246l-109 371h-131l41 231h498l-41 -231h-117l131 -488l301 488h-117l41 231h492l-41 -231h-129l-236 -371h238l-21 -117h-295l-59 -88h338l-21 -116h-395l-16 -31l-49 -275h141z" />
    <glyph glyph-name="brokenbar" unicode="&#xa6;" horiz-adv-x="888" 
d="M367 403h206v-804h-206v804zM367 1556h206v-806h-206v806z" />
    <glyph glyph-name="section" unicode="&#xa7;" horiz-adv-x="940" 
d="M446 461q66 0 122 44q56 45 68 109t-30 108t-108 44t-123 -44t-69 -111t32 -109q42 -42 108 -41zM351 -63q81 0 142 40q60 41 74 122t-50 117q-45 25 -130 46q-336 80 -287 354q18 100 89 178t173 111q-186 78 -157 246q25 137 145 224q122 87 268 87t241 -86t67 -235
h-209q16 55 -24 92t-100 37q-59 0 -111 -38t-61 -90q-16 -90 38 -122t92 -42q39 -11 41 -12t6 -2q131 -33 188 -98q94 -98 66 -245q-33 -188 -231 -285q186 -70 151 -266q-27 -150 -159 -244q-131 -94 -293 -94t-262 98t-74 254l6 31h219q-23 -84 19 -131t123 -47z" />
    <glyph glyph-name="dieresis" unicode="&#xa8;" horiz-adv-x="940" 
d="M557 1462l-47 -264h-250l47 264h250zM938 1462l-47 -264h-250l47 264h250z" />
    <glyph glyph-name="copyright" unicode="&#xa9;" horiz-adv-x="1730" 
d="M973 1198q133 0 235 -66t109 -184l-146 -33q0 93 -58 145t-161 52q-150 0 -253 -110t-131 -266t34 -258q62 -103 215 -103q207 0 311 207l117 -39q-63 -125 -191 -192t-268 -66q-198 0 -294 124q-96 125 -62 325t187 332t356 132zM748 78q272 0 499 191t275 466t-110 467
q-159 192 -432 193q-272 0 -500 -193t-276 -465t111 -466q161 -193 433 -193zM997 1501q315 0 501 -222q185 -223 129 -541t-318 -542q-261 -224 -579 -224t-500 224q-182 226 -128 542q56 316 318 540t577 223z" />
    <glyph glyph-name="ordfeminine" unicode="&#xaa;" horiz-adv-x="858" 
d="M442 967q78 0 142 55q63 55 80 135q12 76 -33 130t-123 54t-141 -55t-77 -133t30 -132t122 -54zM393 807q-135 0 -215 101q-80 100 -55 242t141 247q117 104 252 104t191 -92l14 74h246l-27 -152h-84l-63 -354h84l-27 -152h-246l12 72q-88 -90 -223 -90z" />
    <glyph glyph-name="guillemotleft" unicode="&#xab;" horiz-adv-x="735" 
d="M575 168l-198 283l33 186l301 295l-31 -244l-154 -151l101 -152zM248 158l-201 293l35 194l303 291l-31 -236l-159 -161l104 -160z" />
    <glyph glyph-name="logicalnot" unicode="&#xac;" 
d="M1038 356l78 441h-1001l32 190h1192l-110 -631h-191z" />
    <glyph glyph-name="uni00AD" unicode="&#xad;" horiz-adv-x="653" 
d="M557 414h-524l43 248h524z" />
    <glyph glyph-name="registered" unicode="&#xae;" horiz-adv-x="1730" 
d="M928 801q181 0 235 73q27 34 36 84t-5 82q-30 68 -197 68h-254l-53 -307h238zM1047 1200q145 0 210 -41q94 -59 70 -207q-23 -122 -107 -184t-214 -66l188 -411h-150l-174 411h-198l-72 -411h-129l160 909h416zM750 78q274 0 500 196t274 467t-114 463q-161 192 -433 192
q-271 0 -497 -193q-226 -195 -274 -469t110 -465q160 -191 434 -191zM999 1501q315 0 500 -224q184 -225 128 -542t-320 -540q-265 -223 -581 -223t-498 226t-128 542q56 316 320 538t579 223z" />
    <glyph glyph-name="macron" unicode="&#xaf;" horiz-adv-x="1062" 
d="M1092 1505l-37 -200h-787l37 200h787z" />
    <glyph glyph-name="degree" unicode="&#xb0;" horiz-adv-x="817" 
d="M542 1358q-70 0 -124 -47q-56 -47 -68 -116t27 -115t109 -48t124 45q56 47 68 117t-27 117t-109 47zM459 887q-127 0 -201 90t-51 217t128 217t231 90t202 -90t53 -217t-129 -217t-233 -90z" />
    <glyph glyph-name="plusminus" unicode="&#xb1;" 
d="M86 209l33 188h1040l-33 -188h-1040zM227 1016h426l43 237h189l-43 -237h426l-33 -189h-426l-43 -241h-188l43 241h-426z" />
    <glyph glyph-name="twosuperior" unicode="&#xb2;" horiz-adv-x="710" 
d="M516 1501q135 0 211 -83t55 -204q-12 -61 -50 -115t-76 -85t-107 -82l-256 -191h244l16 93h156l-41 -234h-625l25 141l395 306q4 4 21 16q53 37 71 59q18 23 31 38t21 60q9 45 -27 83q-37 37 -100 37q-64 0 -110 -44q-46 -43 -55 -104h-172q23 133 130 221q108 88 243 88
z" />
    <glyph glyph-name="threesuperior" unicode="&#xb3;" horiz-adv-x="710" 
d="M418 1143q150 0 170 112q8 49 -21 79t-79 30t-88 -28t-46 -72h-164q18 104 114 171t210 67q112 0 184 -64q72 -63 54 -166q-12 -56 -50 -106t-94 -74q70 -26 104 -90t19 -138q-20 -120 -135 -200t-247 -80t-218 72t-70 198h179q0 -53 34 -89t96 -36t114 41q52 42 64 104
t-31 102q-42 40 -114 40h-45l23 127h37z" />
    <glyph glyph-name="acute" unicode="&#xb4;" horiz-adv-x="940" 
d="M342 1229l-55 178l598 307l69 -219z" />
    <glyph glyph-name="mu" unicode="&#xb5;" horiz-adv-x="1308" 
d="M471 -29q-92 0 -152 29l-69 -399h-250l221 1259h-141l41 234h391l-104 -592q-51 -299 174 -299q46 0 114 32q136 64 168 252l66 373h-142l41 234h392l-152 -861h141l-41 -233h-370l24 135q-68 -78 -164 -121t-188 -43z" />
    <glyph glyph-name="paragraph" unicode="&#xb6;" horiz-adv-x="1103" 
d="M604 1462h656l-41 -233h-142l-264 -1493h-184l264 1493h-201l-264 -1493h-184l176 995q-154 3 -241 107t-57 266t171 268q118 90 311 90z" />
    <glyph glyph-name="periodcentered" unicode="&#xb7;" horiz-adv-x="612" 
d="M485 879l-51 -289h-258l51 289h258z" />
    <glyph glyph-name="cedilla" unicode="&#xb8;" horiz-adv-x="735" 
d="M210 -268q-36 0 -73 -33l-114 51l143 250h160l-82 -141l26 2q84 -1 129 -61t29 -152t-93 -157t-173 -65t-149 61q-52 60 -42 151h152q8 -61 61 -62q35 0 60 22q24 22 30 54t-11 56t-53 24z" />
    <glyph glyph-name="onesuperior" unicode="&#xb9;" horiz-adv-x="710" 
d="M604 1462l-131 -737h113l-25 -139h-399l24 139h111l106 598h-139l25 139h315z" />
    <glyph glyph-name="ordmasculine" unicode="&#xba;" horiz-adv-x="735" 
d="M438 977q76 0 139 53q62 53 75 128t-29 129q-43 54 -118 54t-137 -53t-76 -128q-13 -75 29 -129q41 -54 117 -54zM411 817q-141 -1 -223 101t-57 244t142 241q117 98 259 98t225 -99q83 -100 58 -240t-143 -242t-261 -103z" />
    <glyph glyph-name="guillemotright" unicode="&#xbb;" horiz-adv-x="735" 
d="M8 168l27 217l151 152l-98 151l55 244l197 -295l-33 -186zM334 158l28 221l156 160l-100 161l53 236l203 -291l-35 -194z" />
    <glyph glyph-name="onequarter" unicode="&#xbc;" horiz-adv-x="1779" 
d="M582 1462l-131 -737h112l-24 -139h-400l25 139h110l107 598h-139l24 139h316zM1339 360l56 318l-301 -318h245zM489 0h-204l917 1462h201zM1657 360l-23 -127h-143l-16 -94h110l-24 -139h-396l25 139h110l17 94h-438l22 127l500 517h203l-91 -517h144z" />
    <glyph glyph-name="onehalf" unicode="&#xbd;" horiz-adv-x="1779" 
d="M1404 739q-62 0 -111 -43q-48 -43 -56 -104h-172q23 133 130 221q108 88 244 88t211 -84t54 -203q-10 -59 -49 -114t-75 -85t-107 -83l-259 -191h244l17 92h155l-41 -233h-624l24 141l395 305q5 5 46 37q91 69 102 143q6 41 -30 77t-98 36zM604 1462l-131 -737h113
l-25 -139h-399l24 139h111l106 598h-139l25 139h315zM510 0h-205l918 1462h200z" />
    <glyph glyph-name="threequarters" unicode="&#xbe;" horiz-adv-x="1779" 
d="M422 1143q150 0 170 112q8 49 -21 79t-79 30t-88 -28t-46 -72h-163q18 104 114 171t209 67q112 0 184 -64q72 -63 54 -166q-12 -56 -50 -106t-94 -74q70 -26 104 -90t19 -138q-20 -120 -135 -200t-247 -80t-218 72t-69 198h178q0 -53 35 -89t96 -36t113 41q52 42 64 104
t-31 102q-42 40 -113 40h-46l23 127h37zM1380 360l56 318l-301 -318h245zM561 0h-205l918 1462h201zM1698 360l-23 -127h-143l-16 -94h110l-24 -139h-396l25 139h110l17 94h-438l22 127l500 517h203l-91 -517h144z" />
    <glyph glyph-name="questiondown" unicode="&#xbf;" horiz-adv-x="1103" 
d="M442 682h258q-20 -119 -86 -203q-66 -85 -154 -155t-114 -90t-56 -65q-30 -44 -38 -93q-16 -86 35 -151t145 -65t168 68q74 66 92 166h262q-36 -209 -202 -354q-166 -146 -368 -146t-320 142t-85 327q32 186 161 290q56 46 114 88q140 103 188 241zM463 805l51 289h258
l-51 -289h-258z" />
    <glyph glyph-name="Agrave" unicode="&#xc0;" horiz-adv-x="1591" 
d="M1307 1780l-115 -183l-520 256l139 222zM1006 639l-97 502h-2l-274 -502h373zM887 0l37 205h161l-47 219h-514l-123 -219h158l-37 -205h-596l41 233h156l602 996h-162l41 233h490l295 -1229h155l-41 -233h-616z" />
    <glyph glyph-name="Aacute" unicode="&#xc1;" horiz-adv-x="1591" 
d="M713 1597l-56 179l596 307l70 -219zM1006 639l-97 502h-2l-274 -502h373zM887 0l37 205h161l-47 219h-514l-123 -219h158l-37 -205h-596l41 233h156l602 996h-162l41 233h490l295 -1229h155l-41 -233h-616z" />
    <glyph glyph-name="Acircumflex" unicode="&#xc2;" horiz-adv-x="1591" 
d="M1415 1661h-282l-132 154l-184 -154h-282l415 344h172zM1006 639l-97 502h-2l-274 -502h373zM887 0l37 205h161l-47 219h-514l-123 -219h158l-37 -205h-596l41 233h156l602 996h-162l41 233h490l295 -1229h155l-41 -233h-616z" />
    <glyph glyph-name="Atilde" unicode="&#xc3;" horiz-adv-x="1591" 
d="M1133 1665q-59 0 -147 31t-128 30q-72 0 -147 -59l-101 184q109 76 221 76q59 0 145 -30t144 -29q96 0 168 55l90 -166q-121 -92 -245 -92zM1006 639l-97 502h-2l-274 -502h373zM887 0l37 205h161l-47 219h-514l-123 -219h158l-37 -205h-596l41 233h156l602 996h-162
l41 233h490l295 -1229h155l-41 -233h-616z" />
    <glyph glyph-name="Adieresis" unicode="&#xc4;" horiz-adv-x="1591" 
d="M1309 1831l-47 -264h-250l47 264h250zM928 1831l-47 -264h-250l47 264h250zM1006 639l-97 502h-2l-274 -502h373zM887 0l37 205h161l-47 219h-514l-123 -219h158l-37 -205h-596l41 233h156l602 996h-162l41 233h490l295 -1229h155l-41 -233h-616z" />
    <glyph glyph-name="Aring" unicode="&#xc5;" horiz-adv-x="1591" 
d="M996 1737q40 1 72 29t40 69t-16 69q-25 28 -65 28t-73 -30t-40 -70q-6 -40 18 -68t64 -27zM970 1593q-99 0 -157 71q-57 71 -40 171t101 170t182 70t155 -72q56 -72 40 -170t-99 -169t-182 -71zM1006 639l-97 502h-2l-274 -502h373zM887 0l37 205h161l-47 219h-514
l-123 -219h158l-37 -205h-596l41 233h156l602 996h-162l41 233h490l295 -1229h155l-41 -233h-616z" />
    <glyph glyph-name="AE" unicode="&#xc6;" horiz-adv-x="2058" 
d="M1057 635l84 475h-2l-389 -475h307zM786 0l35 197h158l41 233h-432l-195 -233h160l-35 -197h-592l41 233h162l856 996h-154l41 233h1258l-78 -440h-278l34 192h-370l-66 -368h428l-37 -211h-428l-69 -389h370l35 196h279l-78 -442h-1086z" />
    <glyph glyph-name="Ccedilla" unicode="&#xc7;" horiz-adv-x="1492" 
d="M698 260q127 0 246 58t205 163h301q-104 -211 -312 -350t-433 -156l-68 -116l27 2q84 -1 129 -61t29 -152t-94 -157q-77 -65 -173 -65t-148 61q-52 60 -42 151h151q8 -61 62 -62q36 0 60 22t30 54t-12 56t-53 24q-36 0 -73 -33l-114 51l131 230q-246 39 -393 217
q-182 223 -127 539t314 540t553 225q294 0 437 -180l25 147h229l-82 -467h-266q-43 103 -143 163t-222 61q-208 -1 -368 -139t-195 -340t79 -344t310 -142z" />
    <glyph glyph-name="Egrave" unicode="&#xc8;" horiz-adv-x="1222" 
d="M1139 1780l-115 -183l-520 256l139 222zM-47 0l41 233h160l176 996h-160l41 233h1083l-77 -440h-279l33 190h-367l-63 -364h426l-39 -217h-426l-68 -387h367l35 198h278l-78 -442h-1083z" />
    <glyph glyph-name="Eacute" unicode="&#xc9;" horiz-adv-x="1222" 
d="M545 1597l-56 179l596 307l70 -219zM-47 0l41 233h160l176 996h-160l41 233h1083l-77 -440h-279l33 190h-367l-63 -364h426l-39 -217h-426l-68 -387h367l35 198h278l-78 -442h-1083z" />
    <glyph glyph-name="Ecircumflex" unicode="&#xca;" horiz-adv-x="1222" 
d="M1227 1661h-283l-131 154l-184 -154h-283l416 344h172zM-47 0l41 233h160l176 996h-160l41 233h1083l-77 -440h-279l33 190h-367l-63 -364h426l-39 -217h-426l-68 -387h367l35 198h278l-78 -442h-1083z" />
    <glyph glyph-name="Edieresis" unicode="&#xcb;" horiz-adv-x="1222" 
d="M760 1831l-47 -264h-250l47 264h250zM1141 1831l-47 -264h-250l47 264h250zM-47 0l41 233h160l176 996h-160l41 233h1083l-77 -440h-279l33 190h-367l-63 -364h426l-39 -217h-426l-68 -387h367l35 198h278l-78 -442h-1083z" />
    <glyph glyph-name="Igrave" unicode="&#xcc;" horiz-adv-x="731" 
d="M893 1780l-115 -183l-520 256l139 222zM608 1229l-176 -996h158l-41 -233h-596l41 233h160l176 996h-160l41 233h596l-41 -233h-158z" />
    <glyph glyph-name="Iacute" unicode="&#xcd;" horiz-adv-x="731" 
d="M299 1597l-55 179l596 307l69 -219zM608 1229l-176 -996h158l-41 -233h-596l41 233h160l176 996h-160l41 233h596l-41 -233h-158z" />
    <glyph glyph-name="Icircumflex" unicode="&#xce;" horiz-adv-x="731" 
d="M1001 1661h-282l-131 154l-185 -154h-282l416 344h172zM608 1229l-176 -996h158l-41 -233h-596l41 233h160l176 996h-160l41 233h596l-41 -233h-158z" />
    <glyph glyph-name="Idieresis" unicode="&#xcf;" horiz-adv-x="731" 
d="M514 1831l-47 -264h-250l47 264h250zM895 1831l-47 -264h-250l47 264h250zM608 1229l-176 -996h158l-41 -233h-596l41 233h160l176 996h-160l41 233h596l-41 -233h-158z" />
    <glyph glyph-name="Eth" unicode="&#xd0;" horiz-adv-x="1472" 
d="M905 1462q162 0 276 -43t199 -149q170 -209 113 -543q-53 -299 -281 -513t-569 -214h-690l41 233h160l69 398h-160l39 217h160l68 381h-160l41 233h694zM655 252q119 0 209 27t170 102q139 133 180 356t-61 361q-57 72 -132 94t-192 22h-223l-65 -366h278l-39 -217h-278
l-66 -379h219z" />
    <glyph glyph-name="Ntilde" unicode="&#xd1;" horiz-adv-x="1632" 
d="M1194 1665q-59 0 -147 31t-127 30q-72 0 -148 -59l-100 184q109 76 221 76q59 0 144 -30q85 -29 163 -29t150 55l90 -166q-121 -92 -246 -92zM1559 1229l-218 -1229h-260l-518 963l-129 -730h160l-41 -233h-596l41 233h158l176 996h-158l41 233h410l524 -979l131 746
h-160l41 233h596l-41 -233h-157z" />
    <glyph glyph-name="Ograve" unicode="&#xd2;" horiz-adv-x="1529" 
d="M1286 1780l-115 -183l-520 256l140 222zM701 248q202 0 368 144t201 345t-81 342q-117 141 -315 141t-364 -140t-202 -343t78 -346t315 -143zM652 -31q-318 -1 -502 223t-128 542t320 542q264 223 582 223t502 -222q185 -222 129 -539q-57 -317 -321 -543t-582 -226z" />
    <glyph glyph-name="Oacute" unicode="&#xd3;" horiz-adv-x="1529" 
d="M692 1597l-55 179l596 307l70 -219zM701 248q202 0 368 144t201 345t-81 342q-117 141 -315 141t-364 -140t-202 -343t78 -346t315 -143zM652 -31q-318 -1 -502 223t-128 542t320 542q264 223 582 223t502 -222q185 -222 129 -539q-57 -317 -321 -543t-582 -226z" />
    <glyph glyph-name="Ocircumflex" unicode="&#xd4;" horiz-adv-x="1529" 
d="M1374 1661h-282l-131 154l-185 -154h-282l415 344h172zM701 248q202 0 368 144t201 345t-81 342q-117 141 -315 141t-364 -140t-202 -343t78 -346t315 -143zM652 -31q-318 -1 -502 223t-128 542t320 542q264 223 582 223t502 -222q185 -222 129 -539q-57 -317 -321 -543
t-582 -226z" />
    <glyph glyph-name="Otilde" unicode="&#xd5;" horiz-adv-x="1529" 
d="M1112 1665q-59 0 -147 31t-127 30q-72 0 -148 -59l-100 184q109 76 221 76q59 0 144 -30q85 -29 163 -29t150 55l90 -166q-121 -92 -246 -92zM701 248q202 0 368 144t201 345t-81 342q-117 141 -315 141t-364 -140t-202 -343t78 -346t315 -143zM652 -31q-318 -1 -502 223
t-128 542t320 542q264 223 582 223t502 -222q185 -222 129 -539q-57 -317 -321 -543t-582 -226z" />
    <glyph glyph-name="Odieresis" unicode="&#xd6;" horiz-adv-x="1529" 
d="M907 1831l-47 -264h-250l47 264h250zM1288 1831l-47 -264h-250l47 264h250zM701 248q202 0 368 144t201 345t-81 342q-117 141 -315 141t-364 -140t-202 -343t78 -346t315 -143zM652 -31q-318 -1 -502 223t-128 542t320 542q264 223 582 223t502 -222q185 -222 129 -539
q-57 -317 -321 -543t-582 -226z" />
    <glyph glyph-name="multiply" unicode="&#xd7;" horiz-adv-x="1308" 
d="M82 377l420 356l-293 357l156 133l294 -357l418 357l111 -133l-420 -357l293 -356l-156 -133l-293 356l-419 -356z" />
    <glyph glyph-name="Oslash" unicode="&#xd8;" horiz-adv-x="1626" 
d="M420 436l717 725q-116 62 -219 64q-195 1 -359 -147t-199 -347q-26 -143 60 -295zM754 248q202 0 366 141t199 344q14 103 2 163t-55 140l-723 -729q123 -59 211 -59zM981 1501q182 0 348 -98l25 -17l178 179l133 -123l-176 -178q168 -226 112 -540q-55 -314 -321 -534
t-586 -219q-184 0 -309 72l-66 37l-180 -184l-131 122l185 187q-170 223 -114 537t319 536q263 223 583 223z" />
    <glyph glyph-name="Ugrave" unicode="&#xd9;" horiz-adv-x="1443" 
d="M1231 1780l-115 -183l-520 256l139 222zM971 1462h569l-41 -233h-158l-129 -725q-22 -125 -66 -215t-134 -170q-168 -147 -411 -147t-355 134q-131 154 -74 406l127 717h-158l41 233h570l-41 -233h-133l-121 -688q-25 -141 6 -205q49 -102 175 -102t212 88q63 68 92 219
l121 688h-133z" />
    <glyph glyph-name="Uacute" unicode="&#xda;" horiz-adv-x="1443" 
d="M637 1597l-55 179l596 307l69 -219zM971 1462h569l-41 -233h-158l-129 -725q-22 -125 -66 -215t-134 -170q-168 -147 -411 -147t-355 134q-131 154 -74 406l127 717h-158l41 233h570l-41 -233h-133l-121 -688q-25 -141 6 -205q49 -102 175 -102t212 88q63 68 92 219
l121 688h-133z" />
    <glyph glyph-name="Ucircumflex" unicode="&#xdb;" horiz-adv-x="1443" 
d="M1339 1661h-282l-131 154l-185 -154h-282l415 344h173zM971 1462h569l-41 -233h-158l-129 -725q-22 -125 -66 -215t-134 -170q-168 -147 -411 -147t-355 134q-131 154 -74 406l127 717h-158l41 233h570l-41 -233h-133l-121 -688q-25 -141 6 -205q49 -102 175 -102t212 88
q63 68 92 219l121 688h-133z" />
    <glyph glyph-name="Udieresis" unicode="&#xdc;" horiz-adv-x="1443" 
d="M872 1831l-47 -264h-250l48 264h249zM1253 1831l-47 -264h-250l48 264h249zM971 1462h569l-41 -233h-158l-129 -725q-22 -125 -66 -215t-134 -170q-168 -147 -411 -147t-355 134q-131 154 -74 406l127 717h-158l41 233h570l-41 -233h-133l-121 -688q-25 -141 6 -205
q49 -102 175 -102t212 88q63 68 92 219l121 688h-133z" />
    <glyph glyph-name="Yacute" unicode="&#xdd;" horiz-adv-x="1398" 
d="M639 1597l-55 179l596 307l69 -219zM817 510l-49 -277h160l-41 -233h-596l41 233h157l50 277l-260 719h-148l41 233h565l-41 -233h-135l160 -484l330 484h-140l41 233h564l-41 -233h-146z" />
    <glyph glyph-name="Thorn" unicode="&#xde;" horiz-adv-x="1204" 
d="M657 547q135 0 209 38t92 148q14 78 -18 122q-33 44 -87 57t-140 14h-154l-67 -379h165zM743 1149q287 0 392 -77q106 -77 111 -186q3 -65 -7 -153q-37 -213 -193 -311t-393 -98h-200l-17 -91h160l-41 -233h-596l41 233h158l176 996h-158l41 233h596l-41 -233h-160
l-14 -80h145z" />
    <glyph glyph-name="germandbls" unicode="&#xdf;" horiz-adv-x="1271" 
d="M821 1501q183 0 289 -120t74 -302q-16 -94 -76 -172t-150 -112q141 -23 205 -131q63 -109 37 -261q-35 -193 -178 -315t-324 -121q-106 0 -200 39l41 234q67 -43 155 -43t165 62t95 169t-64 164q-83 57 -210 57h-55l39 221h32q86 0 152 54t80 137q14 84 -29 137t-128 53
q-114 0 -202 -139q-6 -10 -12 -26l-9 -24q-3 -7 -8 -32t-10 -49q-6 -23 -6 -27l-168 -954h-393l41 233h143l129 732q63 354 362 490q101 46 183 46z" />
    <glyph glyph-name="agrave" unicode="&#xe0;" horiz-adv-x="1368" 
d="M1128 1411l-114 -182l-520 256l139 221zM532 215q137 0 251 98q114 99 138 237q23 138 -57 233t-217 95t-251 -98q-114 -100 -138 -236t57 -232q80 -96 217 -97zM463 -29q-233 0 -368 168q-134 168 -93 405q41 238 239 408t428 170t316 -184l27 156h391l-41 -234h-137
l-111 -627h137l-41 -233h-391l27 147q-150 -176 -383 -176z" />
    <glyph glyph-name="aacute" unicode="&#xe1;" horiz-adv-x="1368" 
d="M535 1229l-56 178l598 307l70 -219zM532 215q137 0 251 98q114 99 138 237q23 138 -57 233t-217 95t-251 -98q-114 -100 -138 -236t57 -232q80 -96 217 -97zM463 -29q-233 0 -368 168q-134 168 -93 405q41 238 239 408t428 170t316 -184l27 156h391l-41 -234h-137
l-111 -627h137l-41 -233h-391l27 147q-150 -176 -383 -176z" />
    <glyph glyph-name="acircumflex" unicode="&#xe2;" horiz-adv-x="1368" 
d="M1214 1272h-282l-131 153l-185 -153h-282l414 344h172zM532 215q137 0 251 98q114 99 138 237q23 138 -57 233t-217 95t-251 -98q-114 -100 -138 -236t57 -232q80 -96 217 -97zM463 -29q-233 0 -368 168q-134 168 -93 405q41 238 239 408t428 170t316 -184l27 156h391
l-41 -234h-137l-111 -627h137l-41 -233h-391l27 147q-150 -176 -383 -176z" />
    <glyph glyph-name="atilde" unicode="&#xe3;" horiz-adv-x="1368" 
d="M659 1358q-72 0 -147 -60l-98 185q104 76 219 76q57 0 147 -29q80 -31 159 -31t151 55l92 -165q-121 -92 -246 -93q-58 0 -148 31t-129 31zM532 215q137 0 251 98q114 99 138 237q23 138 -57 233t-217 95t-251 -98q-114 -100 -138 -236t57 -232q80 -96 217 -97zM463 -29
q-233 0 -368 168q-134 168 -93 405q41 238 239 408t428 170t316 -184l27 156h391l-41 -234h-137l-111 -627h137l-41 -233h-391l27 147q-150 -176 -383 -176z" />
    <glyph glyph-name="adieresis" unicode="&#xe4;" horiz-adv-x="1368" 
d="M729 1462l-47 -264h-250l47 264h250zM1110 1462l-47 -264h-250l47 264h250zM532 215q137 0 251 98q114 99 138 237q23 138 -57 233t-217 95t-251 -98q-114 -100 -138 -236t57 -232q80 -96 217 -97zM463 -29q-233 0 -368 168q-134 168 -93 405q41 238 239 408t428 170
t316 -184l27 156h391l-41 -234h-137l-111 -627h137l-41 -233h-391l27 147q-150 -176 -383 -176z" />
    <glyph glyph-name="aring" unicode="&#xe5;" horiz-adv-x="1368" 
d="M757 1368q41 0 73 30t39 70t-16 67q-23 28 -63 28t-73 -30t-41 -70q-8 -39 16 -67t65 -28zM730 1225q-99 0 -157 70q-57 71 -40 171t101 170t183 70t155 -72t40 -170t-100 -168t-182 -71zM532 215q137 0 251 98q114 99 138 237q23 138 -57 233t-217 95t-251 -98
q-114 -100 -138 -236t57 -232q80 -96 217 -97zM463 -29q-233 0 -368 168q-134 168 -93 405q41 238 239 408t428 170t316 -184l27 156h391l-41 -234h-137l-111 -627h137l-41 -233h-391l27 147q-150 -176 -383 -176z" />
    <glyph glyph-name="ae" unicode="&#xe6;" horiz-adv-x="2111" 
d="M1556 893q-112 -1 -208 -65t-154 -175h641q-14 104 -90 172q-77 68 -189 68zM531 215q144 0 262 98q117 97 143 239t-62 242t-222 99q-134 0 -255 -99q-121 -100 -145 -238t55 -240q80 -102 224 -101zM659 1126q222 0 322 -172l25 140h249l-26 -154q162 186 388 186
t362 -169t96 -400q-16 -94 -23 -94h-889q2 -109 82 -179t207 -69q127 0 252 113h289q-96 -162 -258 -259t-336 -98q-105 1 -187 53t-120 140l-29 -164h-250l29 168q-68 -92 -163 -144t-198 -53q-242 0 -382 172q-140 171 -98 407t239 406t419 170z" />
    <glyph glyph-name="ccedilla" unicode="&#xe7;" horiz-adv-x="1187" 
d="M446 -268q-36 0 -73 -33l-115 51l131 232q-203 32 -313 192t-71 382t231 396t421 174q186 0 289 -137l19 105h215l-64 -365h-233q-33 66 -99 108t-147 42q-139 -1 -249 -97t-134 -235t55 -235q80 -96 217 -95q82 0 162 41t127 111h279q-72 -156 -226 -265t-319 -127
l-70 -118l27 2q84 -1 129 -61t29 -152t-94 -157t-173 -65q-96 0 -148 61q-52 60 -42 151h151q8 -61 62 -62q36 0 60 22t30 54t-11 56t-53 24z" />
    <glyph glyph-name="egrave" unicode="&#xe8;" horiz-adv-x="1173" 
d="M1024 1411l-115 -182l-520 256l139 221zM258 645h664q-12 117 -94 188t-200 71q-116 0 -222 -76q-106 -74 -148 -183zM672 1126q238 0 381 -176q125 -162 82 -409l-25 -88h-885q4 -113 84 -188t197 -75q176 1 289 132h260q-92 -158 -250 -254t-328 -97q-240 0 -379 166
t-96 408q43 241 237 411q195 170 433 170z" />
    <glyph glyph-name="eacute" unicode="&#xe9;" horiz-adv-x="1173" 
d="M451 1229l-56 178l598 307l70 -219zM258 645h664q-12 117 -94 188t-200 71q-116 0 -222 -76q-106 -74 -148 -183zM672 1126q238 0 381 -176q125 -162 82 -409l-25 -88h-885q4 -113 84 -188t197 -75q176 1 289 132h260q-92 -158 -250 -254t-328 -97q-240 0 -379 166
t-96 408q43 241 237 411q195 170 433 170z" />
    <glyph glyph-name="ecircumflex" unicode="&#xea;" horiz-adv-x="1173" 
d="M1130 1272h-282l-131 153l-185 -153h-282l414 344h172zM258 645h664q-12 117 -94 188t-200 71q-116 0 -222 -76q-106 -74 -148 -183zM672 1126q238 0 381 -176q125 -162 82 -409l-25 -88h-885q4 -113 84 -188t197 -75q176 1 289 132h260q-92 -158 -250 -254t-328 -97
q-240 0 -379 166t-96 408q43 241 237 411q195 170 433 170z" />
    <glyph glyph-name="edieresis" unicode="&#xeb;" horiz-adv-x="1173" 
d="M645 1462l-47 -264h-250l47 264h250zM1026 1462l-47 -264h-250l47 264h250zM258 645h664q-12 117 -94 188t-200 71q-116 0 -222 -76q-106 -74 -148 -183zM672 1126q238 0 381 -176q125 -162 82 -409l-25 -88h-885q4 -113 84 -188t197 -75q176 1 289 132h260
q-92 -158 -250 -254t-328 -97q-240 0 -379 166t-96 408q43 241 237 411q195 170 433 170z" />
    <glyph glyph-name="igrave" unicode="&#xec;" horiz-adv-x="632" 
d="M801 1411l-115 -182l-520 256l139 221zM547 1094l-152 -861h142l-41 -233h-535l41 233h143l111 627h-141l41 234h391z" />
    <glyph glyph-name="iacute" unicode="&#xed;" horiz-adv-x="632" 
d="M207 1229l-55 178l598 307l69 -219zM547 1094l-152 -861h142l-41 -233h-535l41 233h143l111 627h-141l41 234h391z" />
    <glyph glyph-name="icircumflex" unicode="&#xee;" horiz-adv-x="632" 
d="M887 1272h-283l-131 153l-184 -153h-283l414 344h172zM547 1094l-152 -861h142l-41 -233h-535l41 233h143l111 627h-141l41 234h391z" />
    <glyph glyph-name="idieresis" unicode="&#xef;" horiz-adv-x="632" 
d="M422 1462l-47 -264h-250l47 264h250zM803 1462l-47 -264h-250l47 264h250zM547 1094l-152 -861h142l-41 -233h-535l41 233h143l111 627h-141l41 234h391z" />
    <glyph glyph-name="eth" unicode="&#xf0;" horiz-adv-x="1191" 
d="M518 217q137 0 250 96q112 97 136 233t-52 235t-211 99t-251 -96t-140 -232t54 -236q77 -100 214 -99zM476 -29q-238 0 -376 171q-137 171 -95 410q42 238 242 406t437 168q51 0 86 -8q-47 53 -96 90l-312 -88l-147 109l295 86q-86 47 -193 80l308 80q80 -25 163 -78
l269 78l147 -117l-272 -76q297 -291 221 -729q-43 -242 -241 -412t-436 -170z" />
    <glyph glyph-name="ntilde" unicode="&#xf1;" horiz-adv-x="1357" 
d="M707 1358q-72 0 -148 -60l-98 185q104 76 219 76q57 0 147 -29q80 -31 159 -31t151 55l92 -165q-121 -92 -246 -93q-59 0 -148 31t-128 31zM874 1118q190 0 293 -135q89 -123 35 -321l-76 -429h142l-41 -233h-533l41 233h142l63 355q20 139 -8 196q-51 88 -180 88
t-213 -92q-55 -59 -88 -229l-56 -318h142l-41 -233h-533l41 233h141l111 627h-141l41 234h391l-27 -156q129 180 354 180z" />
    <glyph glyph-name="ograve" unicode="&#xf2;" horiz-adv-x="1167" 
d="M1049 1411l-115 -182l-520 256l139 221zM518 217q137 0 250 96q112 97 136 233t-52 235t-211 99t-251 -96t-140 -232t54 -236q77 -100 214 -99zM476 -29q-239 0 -376 171t-95 410q42 238 242 406q201 168 437 168t373 -169t95 -407t-240 -409q-198 -170 -436 -170z" />
    <glyph glyph-name="oacute" unicode="&#xf3;" horiz-adv-x="1167" 
d="M455 1229l-56 178l598 307l70 -219zM518 217q137 0 250 96q112 97 136 233t-52 235t-211 99t-251 -96t-140 -232t54 -236q77 -100 214 -99zM476 -29q-239 0 -376 171t-95 410q42 238 242 406q201 168 437 168t373 -169t95 -407t-240 -409q-198 -170 -436 -170z" />
    <glyph glyph-name="ocircumflex" unicode="&#xf4;" horiz-adv-x="1167" 
d="M1155 1272h-283l-131 153l-184 -153h-283l414 344h172zM518 217q137 0 250 96q112 97 136 233t-52 235t-211 99t-251 -96t-140 -232t54 -236q77 -100 214 -99zM476 -29q-239 0 -376 171t-95 410q42 238 242 406q201 168 437 168t373 -169t95 -407t-240 -409
q-198 -170 -436 -170z" />
    <glyph glyph-name="otilde" unicode="&#xf5;" horiz-adv-x="1167" 
d="M600 1358q-72 0 -147 -60l-99 185q104 76 219 76q57 0 148 -29q81 -31 159 -31t150 55l92 -165q-121 -92 -245 -93q-59 0 -149 31t-128 31zM518 217q137 0 250 96q112 97 136 233t-52 235t-211 99t-251 -96t-140 -232t54 -236q77 -100 214 -99zM476 -29q-239 0 -376 171
t-95 410q42 238 242 406q201 168 437 168t373 -169t95 -407t-240 -409q-198 -170 -436 -170z" />
    <glyph glyph-name="odieresis" unicode="&#xf6;" horiz-adv-x="1167" 
d="M649 1462l-47 -264h-250l47 264h250zM1030 1462l-47 -264h-250l47 264h250zM518 217q137 0 250 96q112 97 136 233t-52 235t-211 99t-251 -96t-140 -232t54 -236q77 -100 214 -99zM476 -29q-239 0 -376 171t-95 410q42 238 242 406q201 168 437 168t373 -169t95 -407
t-240 -409q-198 -170 -436 -170z" />
    <glyph glyph-name="divide" unicode="&#xf7;" 
d="M565 510h189l-39 -223h-189zM684 1180h188l-41 -224h-188zM162 639l33 188h1040l-33 -188h-1040z" />
    <glyph glyph-name="oslash" unicode="&#xf8;" horiz-adv-x="1185" 
d="M641 885q-141 1 -254 -97t-134 -224t40 -220l469 512q-72 29 -121 29zM524 213q143 0 258 95t140 239q18 102 -39 196l-465 -505q70 -25 106 -25zM692 1126q152 0 258 -63l127 139l125 -110l-127 -136q135 -174 96 -389q-43 -248 -239 -422t-445 -174q-127 1 -262 62
l-135 -146l-121 109l131 145l-12 15q-63 100 -76 147q-33 117 -10 242q43 241 245 411t445 170z" />
    <glyph glyph-name="ugrave" unicode="&#xf9;" horiz-adv-x="1298" 
d="M1100 1411l-115 -182l-520 256l139 221zM457 -29q-186 0 -279 140q-76 113 -41 317l76 432h-141l41 234h391l-105 -592q-25 -141 9 -205q44 -94 162 -94t204 90q57 63 86 215l62 352h-142l41 234h391l-151 -861h141l-41 -233h-370l24 135q-68 -78 -164 -121t-194 -43z
" />
    <glyph glyph-name="uacute" unicode="&#xfa;" horiz-adv-x="1298" 
d="M506 1229l-55 178l598 307l69 -219zM457 -29q-186 0 -279 140q-76 113 -41 317l76 432h-141l41 234h391l-105 -592q-25 -141 9 -205q44 -94 162 -94t204 90q57 63 86 215l62 352h-142l41 234h391l-151 -861h141l-41 -233h-370l24 135q-68 -78 -164 -121t-194 -43z" />
    <glyph glyph-name="ucircumflex" unicode="&#xfb;" horiz-adv-x="1298" 
d="M1186 1272h-283l-131 153l-184 -153h-283l414 344h172zM457 -29q-186 0 -279 140q-76 113 -41 317l76 432h-141l41 234h391l-105 -592q-25 -141 9 -205q44 -94 162 -94t204 90q57 63 86 215l62 352h-142l41 234h391l-151 -861h141l-41 -233h-370l24 135
q-68 -78 -164 -121t-194 -43z" />
    <glyph glyph-name="udieresis" unicode="&#xfc;" horiz-adv-x="1298" 
d="M721 1462l-47 -264h-250l47 264h250zM1102 1462l-47 -264h-250l47 264h250zM457 -29q-186 0 -279 140q-76 113 -41 317l76 432h-141l41 234h391l-105 -592q-25 -141 9 -205q44 -94 162 -94t204 90q57 63 86 215l62 352h-142l41 234h391l-151 -861h141l-41 -233h-370
l24 135q-68 -78 -164 -121t-194 -43z" />
    <glyph glyph-name="yacute" unicode="&#xfd;" horiz-adv-x="1249" 
d="M487 1229l-55 178l598 307l70 -219zM1139 860l-604 -1026h143l-41 -233h-533l41 233h138l104 180l-182 846h-144l41 234h516l-40 -234h-107l100 -534l301 534h-106l41 234h510l-41 -234h-137z" />
    <glyph glyph-name="thorn" unicode="&#xfe;" horiz-adv-x="1370" 
d="M708 215q136 0 250 96q114 95 137 231q25 136 -53 235t-215 99t-252 -96t-139 -234t56 -234t216 -97zM891 1106q235 0 369 -165t94 -395q-42 -230 -230 -396t-422 -166t-333 170l-56 -320h142l-41 -233h-533l41 233h139l246 1395h-139l41 233h391l-96 -540
q152 184 387 184z" />
    <glyph glyph-name="ydieresis" unicode="&#xff;" horiz-adv-x="1249" 
d="M702 1462l-47 -264h-249l47 264h249zM1083 1462l-47 -264h-250l48 264h249zM1139 860l-604 -1026h143l-41 -233h-533l41 233h138l104 180l-182 846h-144l41 234h516l-40 -234h-107l100 -534l301 534h-106l41 234h510l-41 -234h-137z" />
    <glyph glyph-name="dotlessi" unicode="&#x131;" horiz-adv-x="632" 
d="M547 1094l-152 -861h142l-41 -233h-535l41 233h143l111 627h-141l41 234h391z" />
    <glyph glyph-name="Lslash" unicode="&#x141;" horiz-adv-x="1167" 
d="M-61 0l41 233h159l66 373l-205 -123l33 189l205 121l77 436h-159l41 233h596l-41 -233h-158l-53 -297l301 164l-31 -181l-303 -172l-88 -495h350l35 194h276l-77 -442h-1065z" />
    <glyph glyph-name="lslash" unicode="&#x142;" horiz-adv-x="663" 
d="M502 0h-533l41 233h142l73 412l-200 -139l32 186l199 137l72 400h-133l41 233h382l-81 -465l204 140l-34 -191l-205 -139l-101 -574h142z" />
    <glyph glyph-name="OE" unicode="&#x152;" horiz-adv-x="2242" 
d="M690 250q196 0 359 142q165 142 199 340t-77 345t-311 147t-362 -144q-164 -146 -199 -347t80 -342t311 -141zM640 -29q-316 1 -496 223q-179 222 -124 538q54 316 316 542t570 227q308 0 448 -250l37 211h923l-76 -432h-278l33 189h-369l-65 -369h415l-39 -219h-415
l-68 -385h369l34 194h279l-78 -440h-923l38 217q-215 -246 -531 -246z" />
    <glyph glyph-name="oe" unicode="&#x153;" horiz-adv-x="2123" 
d="M528 215q141 0 259 99q118 100 142 238q23 138 -61 235t-224 97t-258 -98q-118 -100 -142 -237t59 -235q84 -98 225 -99zM1206 649h631q-23 111 -95 172q-74 61 -184 61t-208 -66q-98 -67 -144 -167zM694 1126q158 0 281 -82q49 -31 80 -65t53 -92q92 115 226 175t278 60
q236 0 378 -166t101 -399l-25 -94h-899q4 -111 82 -179t195 -67q160 0 285 117h284q-96 -166 -261 -264q-164 -98 -326 -98q-328 -1 -437 233q-90 -113 -223 -173t-272 -61q-246 0 -389 169q-142 169 -100 410q42 240 245 408t444 168z" />
    <glyph glyph-name="Scaron" unicode="&#x160;" horiz-adv-x="1193" 
d="M1249 1985l-418 -345h-186l-289 345h297l135 -154l179 154h282zM667 1493q177 0 242 -113l15 82h213l-70 -393h-250q12 82 -32 136q-44 55 -127 55q-82 0 -148 -50t-80 -133q-22 -113 81 -162q42 -19 122 -45q207 -59 289 -133q127 -117 92 -311t-190 -325
q-155 -130 -344 -130t-269 125l-16 -96h-222l76 434h254q-16 -94 33 -159t144 -65t166 55q71 54 85 147q26 134 -143 193q-20 7 -68 22q-186 57 -264 125q-139 117 -106 307t186 312q154 122 331 122z" />
    <glyph glyph-name="scaron" unicode="&#x161;" horiz-adv-x="989" 
d="M1139 1616l-416 -344h-186l-291 344h297l135 -154l178 154h283zM440 154q68 0 120 38t63 97q16 92 -88 129q-12 4 -77 21t-106 31t-97 42t-84 62q-69 82 -44 223t148 230q124 89 286 89t223 -98l13 76h184l-51 -297h-242q6 57 -26 93t-90 36t-106 -31t-55 -76t3 -71
q16 -40 89 -64q22 -6 76 -19t99 -27q132 -42 184 -106q69 -84 44 -230q-26 -147 -155 -239q-130 -92 -301 -92t-253 119l-17 -90h-190l55 317h256q-6 -75 33 -119q38 -44 106 -44z" />
    <glyph glyph-name="Ydieresis" unicode="&#x178;" horiz-adv-x="1398" 
d="M834 1831l-48 -264h-249l47 264h250zM1214 1831l-47 -264h-249l47 264h249zM817 510l-49 -277h160l-41 -233h-596l41 233h157l50 277l-260 719h-148l41 233h565l-41 -233h-135l160 -484l330 484h-140l41 233h564l-41 -233h-146z" />
    <glyph glyph-name="Zcaron" unicode="&#x17d;" horiz-adv-x="1245" 
d="M1290 1985l-418 -345h-186l-289 345h297l135 -154l179 154h282zM1104 444l-78 -444h-1063l39 219l872 1000h-413l-35 -201h-248l78 444h997l-36 -211l-879 -1007h475l35 200h256z" />
    <glyph glyph-name="zcaron" unicode="&#x17e;" horiz-adv-x="1030" 
d="M1155 1616l-416 -344h-186l-291 344h297l135 -154l178 154h283zM197 1094h839l-39 -226l-639 -635h336l23 121h219l-64 -354h-892l34 201l672 659h-311l-23 -129h-219z" />
    <glyph glyph-name="florin" unicode="&#x192;" horiz-adv-x="1185" 
d="M766 733l-227 -620q-76 -207 -211 -304t-361 -100l76 205q111 2 158 47t88 152l227 620h-143l82 217h141q52 152 74 204q57 131 141 208q156 137 410 137l-74 -203q-132 4 -189 -81q-46 -66 -72 -151q-27 -85 -40 -116h143l-80 -215h-143z" />
    <glyph glyph-name="circumflex" unicode="&#x2c6;" horiz-adv-x="1185" 
d="M1147 1292h-283l-131 154l-184 -154h-283l416 344h172z" />
    <glyph glyph-name="caron" unicode="&#x2c7;" horiz-adv-x="1185" 
d="M1221 1636l-418 -344h-187l-288 344h297l135 -153l178 153h283z" />
    <glyph glyph-name="uni02C9" unicode="&#x2c9;" horiz-adv-x="1062" 
d="M1092 1505l-37 -200h-787l37 200h787z" />
    <glyph glyph-name="breve" unicode="&#x2d8;" horiz-adv-x="1062" 
d="M698 1489q80 0 155 36t95 107h168q-29 -160 -157 -248q-127 -88 -293 -88t-265 88q-98 88 -69 248h170q-6 -72 55 -108t141 -35z" />
    <glyph glyph-name="dotaccent" unicode="&#x2d9;" horiz-adv-x="530" 
d="M543 1462l-47 -264h-250l47 264h250z" />
    <glyph glyph-name="ring" unicode="&#x2da;" horiz-adv-x="776" 
d="M523 1368q40 0 73 30t40 70t-16 67q-24 28 -64 28t-73 -30t-41 -70q-8 -39 16 -67t65 -28zM497 1225q-99 0 -157 70q-57 71 -40 171t101 170q85 70 183 70t154 -72t40 -170t-99 -168t-182 -71z" />
    <glyph glyph-name="ogonek" unicode="&#x2db;" horiz-adv-x="694" 
d="M336 -264q16 0 57 16l-26 -151q-76 -23 -121 -23q-100 0 -146 62t-28 174q20 110 104 186h158q-64 -44 -76 -108t7 -110t71 -46z" />
    <glyph glyph-name="tilde" unicode="&#x2dc;" horiz-adv-x="1062" 
d="M549 1358q-72 0 -148 -60l-98 185q104 76 219 76q57 0 148 -29q80 -31 158 -31t151 55l92 -165q-121 -92 -246 -93q-59 0 -148 31t-128 31z" />
    <glyph glyph-name="hungarumlaut" unicode="&#x2dd;" horiz-adv-x="980" 
d="M721 1206l-137 58l270 456l172 -67zM399 1206l-137 60l273 454l172 -67z" />
    <glyph glyph-name="uni03A9" unicode="&#x3a9;" horiz-adv-x="1509" 
d="M918 1497q194 0 324 -101t174 -252q44 -150 12 -332t-136 -342q-106 -160 -237 -261l-2 -6h299l-35 -203h-555l26 150q131 76 235 232q103 157 142 379t-35 375q-74 152 -250 152t-308 -147q-134 -147 -174 -371t10 -388q50 -163 151 -232l-27 -150h-555l35 203h295l2 6
q-223 244 -159 604q51 289 268 487t500 197z" />
    <glyph glyph-name="uni03BC" unicode="&#x3bc;" horiz-adv-x="1308" 
d="M471 -29q-92 0 -152 29l-69 -399h-250l221 1259h-141l41 234h391l-104 -592q-51 -299 174 -299q46 0 114 32q136 64 168 252l66 373h-142l41 234h392l-152 -861h141l-41 -233h-370l24 135q-68 -78 -164 -121t-188 -43z" />
    <glyph glyph-name="pi" unicode="&#x3c0;" horiz-adv-x="1265" 
d="M440 1106h885l-57 -213h-154l-102 -578q-37 -207 -27 -315h-244q-25 66 17 301l104 592h-309q-47 -209 -133 -477t-164 -416h-244q84 178 170 442t123 451q-143 0 -217 -23l-2 166q109 70 354 70z" />
    <glyph glyph-name="endash" unicode="&#x2013;" horiz-adv-x="1021" 
d="M1004 414h-1049l43 248h1049z" />
    <glyph glyph-name="emdash" unicode="&#x2014;" horiz-adv-x="2045" 
d="M2028 414h-2073l43 248h2073z" />
    <glyph glyph-name="quoteleft" unicode="&#x2018;" horiz-adv-x="380" 
d="M444 1462h39l-24 -139l-25 2q-55 0 -77 -34t-31 -95l-4 -29h110l-51 -288h-258l57 329q23 130 74 182t89 62t101 10z" />
    <glyph glyph-name="quoteright" unicode="&#x2019;" horiz-adv-x="411" 
d="M193 879h-39l24 139l23 -2q39 0 63 22t32 46q7 22 15 63l4 27h-112l51 288h260l-57 -329q-27 -131 -86 -191q-39 -41 -78 -52t-100 -11z" />
    <glyph glyph-name="quotesinglbase" unicode="&#x201a;" horiz-adv-x="452" 
d="M-2 -295h-39l25 139h26q39 0 62 22q24 22 30 44t15 63l4 27h-111l51 289h258l-57 -328q-27 -135 -76 -184t-88 -61t-100 -11z" />
    <glyph glyph-name="quotedblleft" unicode="&#x201c;" horiz-adv-x="761" 
d="M446 1462h39l-24 -139l-27 2q-38 1 -62 -21t-31 -46t-13 -64l-4 -27h110l-51 -288h-260l57 329q23 134 86 193q41 39 80 50t100 11zM825 1462h39l-24 -139l-27 2q-39 1 -63 -21t-30 -46q-7 -24 -13 -62l-5 -29h111l-51 -288h-260l57 329q23 130 75 182t90 62t101 10z" />
    <glyph glyph-name="quotedblright" unicode="&#x201d;" horiz-adv-x="790" 
d="M193 879h-39l24 139l23 -2q39 0 63 22t32 46q7 22 15 63l4 27h-112l51 288h260l-57 -329q-27 -131 -86 -191q-39 -41 -78 -52t-100 -11zM571 879h-39l25 139l23 -2q40 0 64 22t31 46q7 22 15 63l4 27h-112l51 288h260l-57 -329q-27 -131 -86 -191q-39 -41 -78 -52
t-101 -11z" />
    <glyph glyph-name="quotedblbase" unicode="&#x201e;" horiz-adv-x="829" 
d="M-2 -295h-39l25 139l22 -2q39 0 64 23q26 23 32 45t15 63l4 27h-113l51 289h258l-59 -330q-23 -133 -82 -192q-39 -39 -78 -51t-100 -11zM377 -295h-39l24 139h25q39 0 63 22t30 44t16 63l4 27h-113l51 289h258l-57 -328q-10 -51 -15 -74q-15 -70 -69 -118
q-39 -41 -78 -53t-100 -11z" />
    <glyph glyph-name="dagger" unicode="&#x2020;" horiz-adv-x="1185" 
d="M770 844l-197 -1112h-268l197 1112h-393l32 194h394l75 424h269l-76 -424h395l-33 -194h-395z" />
    <glyph glyph-name="daggerdbl" unicode="&#x2021;" horiz-adv-x="1185" 
d="M774 870l-37 -213h393l-34 -194h-394l-129 -731h-270l129 731h-389l35 194h389l37 213h-389l35 195h389l69 397h271l-70 -397h393l-35 -195h-393z" />
    <glyph glyph-name="bullet" unicode="&#x2022;" horiz-adv-x="1226" 
d="M1028 1098l-129 -731h-651l129 731h651z" />
    <glyph glyph-name="ellipsis" unicode="&#x2026;" horiz-adv-x="2045" 
d="M1780 289l-51 -289h-259l52 289h258zM1098 289l-51 -289h-259l52 289h258zM416 289l-51 -289h-259l52 289h258z" />
    <glyph glyph-name="perthousand" unicode="&#x2030;" horiz-adv-x="2619" 
d="M561 0h-203l918 1462h201zM2157 494q-61 0 -113 -43t-64 -107t24 -108q36 -46 98 -46t114 46t63 106q12 61 -24 107q-37 45 -98 45zM2065 -23q-153 0 -239 108t-60 258q28 149 154 255t274 106t238 -104q89 -106 61 -257q-27 -151 -151 -259t-277 -107zM511 979
q62 0 115 44q52 44 62 106t-25 107q-37 44 -99 44t-113 -43t-63 -107t25 -107q36 -44 98 -44zM474 766q-153 0 -240 108t-59 258t153 256q124 106 274 105t238 -107t61 -257t-151 -257t-276 -106zM1327 494q-61 0 -113 -43t-64 -107q-11 -64 26 -108q37 -46 99 -46
q61 0 113 46t62 106q12 60 -25 106t-98 46zM1237 -23q-152 0 -239 108t-59 258q28 149 153 255q124 106 274 106t239 -104q89 -106 61 -257t-152 -259t-277 -107z" />
    <glyph glyph-name="guilsinglleft" unicode="&#x2039;" horiz-adv-x="407" 
d="M248 158l-201 293l35 194l303 291l-31 -236l-159 -161l104 -160z" />
    <glyph glyph-name="guilsinglright" unicode="&#x203a;" horiz-adv-x="407" 
d="M6 158l29 221l155 160l-100 161l53 236l203 -291l-35 -194z" />
    <glyph glyph-name="fraction" unicode="&#x2044;" horiz-adv-x="1042" 
d="M166 0h-205l918 1462h200z" />
    <glyph glyph-name="Euro" unicode="&#x20ac;" horiz-adv-x="1228" 
d="M555 -29q-109 1 -204 53t-152 160q-78 152 -62 394h-141l20 116h134l8 49q10 55 12 60h-135l20 117h144q81 260 239 420t368 161q210 0 253 -180l24 147h189l-82 -475h-236q8 258 -180 258q-205 0 -307 -331h373l-21 -117h-381l-12 -62l-8 -47h383l-21 -116h-374
q-31 -356 194 -357q213 0 291 260h235q-152 -510 -571 -510z" />
    <glyph glyph-name="afii61289" unicode="&#x2113;" horiz-adv-x="1079" 
d="M553 1094l-61 -353q315 299 352 516q33 182 -90 183q-56 0 -112 -81t-89 -265zM766 1620q154 0 210 -103t28 -268q-59 -334 -553 -739l-15 -84q-18 -119 26 -182t128 -64q153 0 307 195l84 -105q-201 -291 -485 -290q-176 0 -251 98t-63 256q0 2 1 10t1 12
q-22 -14 -64 -45t-63 -43l-41 135q8 7 85 61t114 85l96 538q47 265 174 399t281 134z" />
    <glyph glyph-name="trademark" unicode="&#x2122;" horiz-adv-x="1935" 
d="M860 1462l-20 -116h-265l-126 -717h-146l127 717h-266l20 116h676zM1917 1462l-148 -833h-129l127 717l-415 -717h-78l-156 717l-127 -717h-131l148 833h213l133 -588l354 588h209z" />
    <glyph glyph-name="Omega" unicode="&#x2126;" horiz-adv-x="1509" 
d="M918 1497q194 0 324 -101t174 -252q44 -150 12 -332t-136 -342q-106 -160 -237 -261l-2 -6h299l-35 -203h-555l26 150q131 76 235 232q103 157 142 379t-35 375q-74 152 -250 152t-308 -147q-134 -147 -174 -371t10 -388q50 -163 151 -232l-27 -150h-555l35 203h295l2 6
q-223 244 -159 604q51 289 268 487t500 197z" />
    <glyph glyph-name="estimated" unicode="&#x212e;" horiz-adv-x="2105" 
d="M1618 770v418q0 29 -21 49q-223 217 -519 217t-515 -223q-20 -20 -20 -51v-410q0 -14 10 -14h1055q10 0 10 14zM1929 715h-1376q-10 0 -10 -8v-418q0 -25 16 -47q221 -226 535 -226t534 252h123q-115 -135 -293 -215t-379 -80q-352 -1 -601 223t-249 540t249 540t601 225
q352 0 601 -224t249 -542v-20z" />
    <glyph glyph-name="partialdiff" unicode="&#x2202;" horiz-adv-x="1208" 
d="M467 188h2q117 0 220 136t155 317q-10 66 -68 127t-158 61q-102 0 -194 -106q-92 -105 -116 -239t20 -215t139 -81zM728 1661q233 0 363 -211t61 -600q-68 -389 -268 -629t-476 -239q-141 0 -230 77q-88 78 -113 189q-26 111 -6 231q43 248 203 400t352 151
q117 0 191 -58t98 -118h4l13 74q37 218 -38 372t-234 154t-296 -100l-43 184q186 123 419 123z" />
    <glyph glyph-name="Delta" unicode="&#x2206;" horiz-adv-x="1390" 
d="M244 203h747l-129 651q-6 49 -29 190q-24 141 -28 191h-6q-16 -37 -82 -164t-92 -184zM-49 0l26 150l736 1357h297l243 -1355l-26 -152h-1276z" />
    <glyph glyph-name="product" unicode="&#x220f;" horiz-adv-x="1779" 
d="M1624 1245h-219v-1448h-250v1448h-481v-1448h-250v1448h-219v230h1419v-230z" />
    <glyph glyph-name="summation" unicode="&#x2211;" horiz-adv-x="1439" 
d="M1296 -205h-1093v164l522 676l-502 663v177h1039v-215h-699v-7l445 -577l-492 -639v-8h780v-234z" />
    <glyph glyph-name="minus" unicode="&#x2212;" 
d="M162 639l33 188h1040l-33 -188h-1040z" />
    <glyph glyph-name="uni2215" unicode="&#x2215;" horiz-adv-x="161" 
d="M-248 0h-205l918 1462h201z" />
    <glyph glyph-name="uni2219" unicode="&#x2219;" horiz-adv-x="612" 
d="M485 879l-51 -289h-258l51 289h258z" />
    <glyph glyph-name="radical" unicode="&#x221a;" horiz-adv-x="1511" 
d="M1425 1765l-475 -2064h-205l-319 932l-158 -62l-43 142l350 141l230 -690q35 -154 41 -176l4 -2q16 113 33 188l366 1591h176z" />
    <glyph glyph-name="infinity" unicode="&#x221e;" horiz-adv-x="1814" 
d="M1268 821h-2q-78 0 -142 -54q-65 -54 -108 -104q-43 -51 -49 -57q101 -125 165 -173t145 -48t133 67q52 68 52 156t-53 150t-141 63zM514 385h2q56 0 116 38t89 69t90 100q-63 84 -91 118t-88 72t-138 39q-78 0 -132 -63q-54 -62 -53 -156t59 -156t146 -61zM1608 610v-2
q0 -162 -102 -262t-236 -100q-98 0 -188 54t-193 187q-97 -119 -187 -180t-216 -61t-224 100t-98 255t100 255t250 100q111 0 201 -61t182 -176q111 125 166 164q100 76 219 73q142 0 234 -96t92 -250z" />
    <glyph glyph-name="integral" unicode="&#x222b;" horiz-adv-x="1087" 
d="M332 -170q144 0 145 348q0 222 -15 560q-16 338 -16 518q0 179 29 289t96 179q86 94 240 95q80 0 129 -25l-29 -172q-37 18 -75 18q-68 0 -107 -53q-59 -76 -59 -358q0 -168 15 -499t15 -521q0 -285 -79 -424q-78 -145 -263 -145q-98 0 -159 34l32 179q51 -23 101 -23z
" />
    <glyph glyph-name="approxequal" unicode="&#x2248;" horiz-adv-x="1335" 
d="M860 260q-59 0 -107 20t-132 66q-117 72 -173 72t-97 -27q-40 -27 -59 -51t-56 -78l-93 84q49 96 131 156t169 59q87 0 158 -38q51 -24 95 -51q44 -28 56 -34q60 -32 114 -32t96 35q42 36 95 116l90 -82q-115 -215 -287 -215zM862 649q-59 -1 -109 19q-49 20 -149 78
t-156 59q-90 0 -156 -76q-22 -25 -56 -76l-93 82q49 95 130 155t161 60t125 -19t55 -25t33 -19q23 -11 28 -15t24 -15t32 -20t26 -14q13 -6 25 -12t20 -7t22 -5q15 -4 56 -4q84 0 177 153l90 -84q-113 -215 -285 -215z" />
    <glyph glyph-name="notequal" unicode="&#x2260;" horiz-adv-x="1368" 
d="M1161 891v-148h-352l-129 -290h481v-146h-538l-107 -244l-117 50l88 194h-292v146h350l127 290h-477v148h532l107 237l116 -47l-86 -190h297z" />
    <glyph glyph-name="lessequal" unicode="&#x2264;" horiz-adv-x="1400" 
d="M1196 -20h-967v149h967v-149zM1188 209l-948 473v158l948 473v-172l-801 -377v-4l801 -379v-172z" />
    <glyph glyph-name="greaterequal" unicode="&#x2265;" horiz-adv-x="1398" 
d="M1192 -20h-961v149h961v-149zM242 1313l950 -473v-160l-948 -471v172l798 379v4l-800 377v172z" />
    <glyph glyph-name="lozenge" unicode="&#x25ca;" horiz-adv-x="1511" 
d="M1079 729l-252 518q-33 90 -39 123h-6q-18 -68 -41 -123l-254 -506l254 -526q25 -63 37 -117h8q18 74 37 115zM1303 735l-424 -837h-201l-412 837l422 840h201z" />
    <glyph glyph-name="fi" unicode="&#xfb01;" horiz-adv-x="1165" 
d="M678 233l110 627h-282l-111 -627h283zM1145 1462l-47 -264h-250l47 264h250zM928 233h141l-41 -233h-1065l41 233h141l111 627h-141l41 234h141q66 412 496 407l-39 -219q-184 6 -207 -188h532z" />
    <glyph glyph-name="fl" unicode="&#xfb02;" horiz-adv-x="1169" 
d="M807 1282q-125 0 -184 -34t-76 -154h143l-41 -234h-143l-111 -627h281l184 1049h-53zM817 1501h332l-223 -1268h141l-41 -233h-1063l41 233h141l111 627h-141l41 234h141q41 223 167 315t353 92z" />
    </font>
</defs>
</svg>
