<?xml version="1.0" standalone="no"?>
<!DOCTYPE svg PUBLIC "-//W3C//DTD SVG 1.1//EN" "http://www.w3.org/Graphics/SVG/1.1/DTD/svg11.dtd" >
<svg xmlns="http://www.w3.org/2000/svg">
<metadata>
Created by FontPrep 20130207 at Tue Jan 21 12:15:39 2014
 By fireant
Copyright (c) 1985, 1987, 1997, 1998, 2001 Adobe Systems Incorporated.  All Rights Reserved. Revised kerning Copyright 2010 International Typeface Corporation.
</metadata>
<defs>
<font id="f56892e95a499433af3757cc5bb5162a" horiz-adv-x='1024' >
  <font-face 
    font-family="LubalinforIBM-Book"
    font-weight="400"
    font-stretch="normal"
    units-per-em="2048"
    panose-1="2 6 5 2 2 2 5 2 4 4"
    ascent="1473"
    descent="-575"
    x-height="1075"
    cap-height="1462"
    bbox="-315 -516 2394 2011"
    underline-thickness="102"
    underline-position="-102"
    unicode-range="U+0020-FB02"
  />
<missing-glyph horiz-adv-x="1024" 
d="M102 1239v-1044l349 522zM164 102h696l-348 523zM573 717l349 -522v1044zM512 809l348 522h-696zM0 0v1434h1024v-1434h-1024z" />
    <glyph glyph-name=".notdef" horiz-adv-x="1024" 
d="M102 1239v-1044l349 522zM164 102h696l-348 523zM573 717l349 -522v1044zM512 809l348 522h-696zM0 0v1434h1024v-1434h-1024z" />
    <glyph glyph-name=".null" horiz-adv-x="0" 
 />
    <glyph glyph-name="nonmarkingreturn" horiz-adv-x="681" 
 />
    <glyph glyph-name="space" unicode=" " horiz-adv-x="569" 
 />
    <glyph glyph-name="exclam" unicode="!" horiz-adv-x="634" 
d="M389 1462v-1087h-141v1087h141zM389 223v-223h-141v223h141z" />
    <glyph glyph-name="quotedbl" unicode="&#x22;" horiz-adv-x="778" 
d="M301 997h-96l-23 465h144zM573 997h-98l-22 465h143z" />
    <glyph glyph-name="numbersign" unicode="#" horiz-adv-x="1193" 
d="M797 866h-248l-31 -239h248zM111 532v95h309l31 239h-285v97h301l70 499h96l-68 -499h248l72 499h94l-68 -499h269v-97h-287l-29 -239h264v-95h-282l-74 -532h-96l74 532h-250l-74 -532h-96l71 532h-290z" />
    <glyph glyph-name="dollar" unicode="$" horiz-adv-x="1079" 
d="M858 388q0 114 -72 188t-190 102v-580q114 14 188 94q74 82 74 196zM471 846v512q-94 -4 -162 -79q-67 -75 -67 -176t62 -167q63 -65 167 -90zM922 1114h-117q-1 82 -63 154t-146 90v-539q182 -27 297 -139t115 -288q0 -175 -120 -293t-292 -132v-190h-125v190
q-88 29 -142 64t-100 102v-133h-116v393h116q2 -102 71 -181t171 -114v607l-65 20q-314 92 -314 377q0 158 111 268t268 119v201h125v-201q152 -35 209 -148v119h117v-346z" />
    <glyph glyph-name="percent" unicode="%" horiz-adv-x="1687" 
d="M582 0h-119l649 1462h117zM431 934q93 0 157 65q63 66 63 156t-64 155q-65 64 -154 64t-155 -61t-67 -153q0 -92 63 -160q64 -66 157 -66zM429 815q-142 0 -240 101q-97 100 -97 242t102 238t238 97q136 0 236 -99q100 -100 100 -240t-98 -240q-99 -99 -241 -99zM1257 94
q92 0 156 65q63 65 63 155t-64 154q-66 64 -154 64t-154 -61t-66 -153t64 -158t155 -66zM1256 -27q-142 -1 -240 101t-98 243t101 237t239 97q138 0 238 -99q100 -100 99 -240t-99 -240t-240 -99z" />
    <glyph glyph-name="ampersand" unicode="&#x26;" horiz-adv-x="1419" 
d="M186 401q0 -125 87 -214t219 -89t208 83q75 83 134 214l-359 344q-289 -127 -289 -338zM743 1176q0 76 -60 138q-59 64 -149 64t-151 -59t-61 -148q0 -51 24 -98t44 -65q18 -18 73 -72l39 -35q68 33 112 62t87 83q42 54 42 130zM468 -29q-171 0 -299 124t-128 302
q0 262 344 434l-29 27q-88 82 -129 148t-41 161q0 141 100 237t241 97q141 0 241 -95t100 -232q0 -215 -282 -355l325 -311l193 416h264v-127h-178l-182 -385l350 -340l-94 -95l-334 326q-80 -162 -186 -247t-276 -85z" />
    <glyph glyph-name="quotesingle" unicode="'" horiz-adv-x="555" 
d="M326 997h-97l-22 465h143z" />
    <glyph glyph-name="parenleft" unicode="(" horiz-adv-x="847" 
d="M375 599q1 -214 105 -404t284 -301v-166q-246 114 -393 354t-147 530t173 537q164 236 367 313v-162q-182 -115 -286 -301t-103 -400z" />
    <glyph glyph-name="parenright" unicode=")" horiz-adv-x="849" 
d="M625 612q1 -290 -147 -530t-394 -354v166q180 111 285 301q104 190 104 404t-103 400q-104 186 -286 301v162q205 -82 373 -320q168 -240 168 -530z" />
    <glyph glyph-name="asterisk" unicode="*" horiz-adv-x="1069" 
d="M723 1153h-209l107 -170l-74 -45l-105 178l-98 -184l-74 41l103 180l-211 -4v86h207l-113 176l74 47l110 -186l107 190l76 -43l-109 -184l209 4v-86z" />
    <glyph glyph-name="plus" unicode="+" horiz-adv-x="1275" 
d="M117 795h456v456h127v-456h457v-125h-457v-457h-127v457h-456v125z" />
    <glyph glyph-name="comma" unicode="," horiz-adv-x="602" 
d="M246 -199h-129l151 377h129z" />
    <glyph glyph-name="hyphen" unicode="-" horiz-adv-x="630" 
d="M569 467h-508v135h508v-135z" />
    <glyph glyph-name="period" unicode="." horiz-adv-x="591" 
d="M326 223v-223h-142v223h142z" />
    <glyph glyph-name="slash" unicode="/" horiz-adv-x="1239" 
d="M174 -399h-108l911 1861h110z" />
    <glyph glyph-name="zero" unicode="0" horiz-adv-x="1230" 
d="M250 963v-455q0 -164 74 -260q104 -143 290 -144q88 0 168 40t131 110q66 94 66 254v455q0 168 -72 260q-104 143 -293 143q-88 0 -168 -40q-196 -98 -196 -363zM1124 965v-457q0 -225 -129 -369q-158 -168 -373 -168q-214 1 -366 149t-152 388v457q0 227 132 366
q158 170 374 170t364 -148q150 -148 150 -388z" />
    <glyph glyph-name="one" unicode="1" horiz-adv-x="677" 
d="M442 1462v-1335h193v-127h-529v127h193v1219h-283v116h426z" />
    <glyph glyph-name="two" unicode="2" horiz-adv-x="1171" 
d="M909 354h131v-354h-931v127l618 602q57 55 88 91t59 96q29 60 29 124q0 136 -93 228t-232 92q-138 0 -232 -102t-86 -246h-141q-8 205 130 347t343 142q84 0 171 -35t148 -92q135 -135 136 -338q0 -88 -37 -167t-77 -124t-120 -122l-516 -496h612v227z" />
    <glyph glyph-name="three" unicode="3" horiz-adv-x="1138" 
d="M566 1501q154 0 267 -101q112 -101 111 -257q0 -103 -51 -189t-145 -123q130 -41 208 -153t78 -248q0 -193 -139 -326t-334 -133t-334 125t-149 322h149q11 -131 103 -223q92 -93 227 -93t230 100t95 239t-104 233t-246 94h-73v115h69q121 1 200 63t79 176t-71 185
t-172 71t-171 -68t-74 -163h-137q2 152 116 253t268 101z" />
    <glyph glyph-name="four" unicode="4" horiz-adv-x="1212" 
d="M782 477v811l-557 -811h557zM1139 477v-119h-213v-231h192v-127h-526v127h190v231h-719v119l687 985h176v-985h213z" />
    <glyph glyph-name="five" unicode="5" horiz-adv-x="1206" 
d="M597 104q143 0 255 106t113 262q0 156 -108 264t-267 108q-197 0 -305 -154l-129 31l135 741h723v-127h-606l-93 -471q131 109 320 109q189 1 333 -145t144 -356t-154 -355t-360 -145t-349 117q-142 118 -175 308h151q25 -129 127 -211t245 -82z" />
    <glyph glyph-name="six" unicode="6" horiz-adv-x="1198" 
d="M225 488q-1 -155 109 -265t265 -110q155 1 265 109t111 262q0 154 -109 268q-110 112 -266 112t-266 -110t-109 -266zM633 985q201 0 341 -144t140 -354t-146 -363t-364 -153t-370 155q-151 155 -150 374q0 154 119 331l430 631h162l-375 -547q102 70 213 70z" />
    <glyph glyph-name="seven" unicode="7" horiz-adv-x="1015" 
d="M104 1462h889v-137l-600 -1325h-160l613 1335h-600v-264h-142v391z" />
    <glyph glyph-name="eight" unicode="8" horiz-adv-x="1142" 
d="M569 100q133 0 225 94t93 227q0 132 -94 226q-95 94 -227 94t-225 -94t-93 -227q0 -132 94 -226t227 -94zM565 868q104 0 178 75t74 178t-73 178t-177 75t-178 -74t-74 -178t73 -179t177 -75zM572 1501q158 0 268 -106t110 -256q0 -223 -198 -320q126 -41 206 -151
t80 -242q0 -193 -137 -324t-331 -131t-330 126t-136 317q0 134 79 244t206 153q-96 41 -151 124t-56 189q0 164 116 270t274 107z" />
    <glyph glyph-name="nine" unicode="9" horiz-adv-x="1206" 
d="M605 600q159 0 267 114t107 268q0 154 -110 266q-109 110 -263 110t-266 -109t-113 -267t109 -270t269 -112zM573 473q-203 0 -346 150q-143 151 -143 359t154 364t370 156t365 -156q150 -156 149 -371q0 -168 -118 -344l-422 -631h-179l377 541q-109 -68 -207 -68z" />
    <glyph glyph-name="colon" unicode=":" horiz-adv-x="671" 
d="M408 973v-223h-142v223h142zM408 223v-223h-142v223h142z" />
    <glyph glyph-name="semicolon" unicode=";" horiz-adv-x="616" 
d="M395 973v-223h-131v223h131zM246 -199h-129l151 377h129z" />
    <glyph glyph-name="less" unicode="&#x3c;" horiz-adv-x="1337" 
d="M1221 299v-129l-1106 504v119l1106 507v-129l-963 -440z" />
    <glyph glyph-name="equal" unicode="=" horiz-adv-x="1277" 
d="M119 643h1040v-125h-1040v125zM119 948h1040v-125h-1040v125z" />
    <glyph glyph-name="greater" unicode="&#x3e;" horiz-adv-x="1337" 
d="M115 299l962 432l-962 440v129l1106 -507v-119l-1106 -504v129z" />
    <glyph glyph-name="question" unicode="?" horiz-adv-x="1132" 
d="M498 369q0 131 51 224t135 169t110 103q26 28 50 80q25 52 24 114q0 129 -92 220t-221 91t-219 -94t-90 -223h-144q-2 188 131 324t323 136t324 -131q136 -131 136 -319q0 -82 -30 -150q-30 -67 -62 -103t-113 -112q-80 -76 -123 -151q-43 -76 -47 -178h-143zM641 223
v-223h-143v223h143z" />
    <glyph glyph-name="at" unicode="@" horiz-adv-x="1669" 
d="M569 653q0 -105 63 -175t167 -70t186 69q57 51 98 160q63 184 63 264t-56 129q-57 49 -144 49q-158 0 -268 -135t-109 -291zM957 -29q-171 1 -327 55t-273 152t-181 246t-63 307q0 319 244 545q245 225 577 225q291 0 501 -177t210 -452q0 -215 -111 -358
q-62 -80 -154 -133t-188 -53q-121 0 -127 123q-115 -133 -287 -134q-137 1 -223 103t-86 239q0 193 142 350t337 156q84 0 152 -43t92 -118l33 100h96l-154 -524q-23 -72 -22 -105q0 -70 76 -69q57 0 121 38t106 88q117 127 117 346q1 218 -181 382t-464 164t-498 -195
q-221 -203 -221 -501t212 -488t527 -191q168 -1 326 67t260 191l39 -59q-111 -137 -274 -207t-334 -70z" />
    <glyph glyph-name="A" unicode="A" 
d="M1122 592l-293 704l-299 -704h592zM1657 0h-537v135h191l-146 336h-678l-149 -336h184v-135h-522v135h182l531 1192h-195v135h383l574 -1327h182v-135z" />
    <glyph glyph-name="B" unicode="B" horiz-adv-x="1220" 
d="M395 135h252q188 0 264 49q101 64 101 224t-117 241q-64 47 -169 53q-34 2 -95 3h-236v-570zM395 831h226q99 -1 149 15q51 16 86 45q86 72 86 207t-124 206q-14 7 -32 11t-28 7q-17 5 -115 5h-248v-496zM61 1462h603q188 0 282 -71q143 -109 144 -289q0 -102 -56 -188
t-147 -132q127 -47 199 -149t73 -238q0 -180 -127 -297q-66 -58 -142 -78t-190 -20h-639v135h187v1192h-187v135z" />
    <glyph glyph-name="C" unicode="C" horiz-adv-x="1509" 
d="M1403 1106h-135q-80 120 -216 184t-288 64q-258 0 -437 -177t-179 -433t176 -441q178 -184 436 -184q154 -1 289 69t223 195h164q-92 -188 -276 -300t-396 -112q-150 -1 -292 59t-249 165q-223 221 -223 538t229 557q97 100 237 156t296 55q315 0 506 -211v172h135v-356z
" />
    <glyph glyph-name="D" unicode="D" horiz-adv-x="1460" 
d="M397 135h287q146 0 252 34t190 123t130 205q95 241 -2 479q-48 120 -138 205t-187 115t-239 31h-293v-1192zM250 135v1192h-189v135h652q163 0 285 -45t235 -153q217 -212 217 -524t-209 -533q-109 -113 -235 -160t-293 -47h-652v135h189z" />
    <glyph glyph-name="E" unicode="E" horiz-adv-x="1193" 
d="M944 377h148v-377h-1031v135h187v1192h-187v135h1031v-377h-148v242h-549v-528h566v-121h-566v-543h549v242z" />
    <glyph glyph-name="F" unicode="F" horiz-adv-x="1165" 
d="M395 674v-539h189v-135h-523v135h187v1192h-187v135h1033v-381h-148v246h-551v-532h557v-121h-557z" />
    <glyph glyph-name="G" unicode="G" horiz-adv-x="1636" 
d="M1432 1096h-136q-106 129 -239 192q-131 68 -289 68q-258 0 -439 -178t-181 -436t178 -441q178 -182 438 -182q209 0 372 121t216 319h-734v127h895v-686h-135v340q-90 -174 -256 -271t-360 -97t-374 102t-284 282t-104 361q0 347 217 555q242 229 555 229q150 0 289 -60
t235 -169v190h136v-366z" />
    <glyph glyph-name="H" unicode="H" horiz-adv-x="1517" 
d="M1122 797v530h-186v135h520v-135h-186v-1192h186v-135h-520v135h186v547h-727v-547h189v-135h-523v135h187v1192h-187v135h523v-135h-189v-530h727z" />
    <glyph glyph-name="I" unicode="I" horiz-adv-x="643" 
d="M395 1327v-1192h187v-135h-521v135h187v1192h-187v135h521v-135h-187z" />
    <glyph glyph-name="J" unicode="J" horiz-adv-x="1001" 
d="M647 446v881h-188v135h522v-135h-186v-911q1 -102 -15 -167t-67 -132q-111 -145 -316 -146q-159 -1 -271 103t-116 262h154q10 -96 76 -162t171 -66t181 97q27 33 40 79t14 74t1 88z" />
    <glyph glyph-name="K" unicode="K" horiz-adv-x="1447" 
d="M1397 135v-135h-537v135h170l-635 602v-602h187v-135h-521v135h187v1192h-187v135h521v-135h-187v-543l602 543h-163v135h528v-135h-176l-629 -563l668 -629h172z" />
    <glyph glyph-name="L" unicode="L" horiz-adv-x="1083" 
d="M874 377h148v-377h-961v135h187v1192h-187v135h521v-135h-187v-1192h479v242z" />
    <glyph glyph-name="M" unicode="M" horiz-adv-x="2050" 
d="M395 135h193v-135h-527v135h187v1192h-187v135h410l530 -1241l582 1241h406v-135h-189v-1192h189v-135h-525v135h189v1139l-598 -1274h-115l-545 1270v-1135z" />
    <glyph glyph-name="N" unicode="N" horiz-adv-x="1648" 
d="M1421 1327v-1327h-151l-875 1223v-1088h189v-135h-523v135h187v1192h-187v135h336l877 -1229v1094h-187v135h521v-135h-187z" />
    <glyph glyph-name="O" unicode="O" horiz-adv-x="1538" 
d="M770 119v-2q258 2 439 184t181 436t-180 435q-182 182 -439 182t-440 -180t-183 -436t180 -438q182 -181 442 -181zM772 -29q-320 -1 -546 223t-226 542t225 542t543 223q318 0 544 -222t226 -539t-224 -543t-542 -226z" />
    <glyph glyph-name="P" unicode="P" horiz-adv-x="1208" 
d="M395 713h264q166 0 248 67q113 94 113 238t-117 239q-92 70 -246 70h-262v-614zM395 578v-443h187v-135h-521v135h187v1192h-187v135h598q347 0 464 -245q44 -92 44 -193q0 -195 -141 -330q-72 -70 -154 -94t-198 -22h-279z" />
    <glyph glyph-name="Q" unicode="Q" horiz-adv-x="1703" 
d="M492 508q-148 0 -279 -53q77 -154 227 -245t334 -91t322 92l-41 35q-164 143 -267 190q-148 72 -296 72zM1192 293q194 176 194 437t-180 442q-180 182 -438 182t-439 -179t-182 -432q0 -63 31 -168q164 53 340 53t336 -85q160 -86 338 -250zM1567 258h116v-299
q-254 -4 -471 150q-207 -137 -448 -138q-322 1 -543 225t-221 541t222 541t541 223q319 0 545 -223t226 -541q0 -154 -58 -297t-169 -243q135 -88 260 -103v164z" />
    <glyph glyph-name="R" unicode="R" horiz-adv-x="1320" 
d="M1290 135v-135h-284l-453 631h55q176 0 230 18q140 47 203 162q44 78 44 168q0 164 -110 264q-57 53 -123 69t-168 15h-287v-1192h174v-135h-510v135h189v1192h-189v135h633q123 0 209 -22t164 -86q166 -141 166 -369q0 -186 -128 -318t-314 -132l305 -400h194z" />
    <glyph glyph-name="S" unicode="S" horiz-adv-x="1050" 
d="M924 1112h-123q-14 121 -94 191q-80 69 -196 69t-199 -72t-83 -194t97 -193q56 -43 252 -88t284 -120q137 -113 137 -285t-84 -277q-135 -172 -359 -172t-337 172v-143h-123v393h123q15 -131 103 -210t219 -79t221 82t90 207q0 172 -146 241q-65 31 -135 49
q-69 17 -101 25t-43 13q-11 4 -62 17t-132 69q-152 111 -151 305q0 129 66 219q126 170 364 170q92 0 173 -41t116 -117v119h123v-350z" />
    <glyph glyph-name="T" unicode="T" horiz-adv-x="1179" 
d="M664 1327v-1192h186v-135h-520v135h186v1192h-317v-256h-127v391h1036v-391h-127v256h-317z" />
    <glyph glyph-name="U" unicode="U" horiz-adv-x="1368" 
d="M1161 1327v-842q0 -225 -117 -360q-137 -154 -358 -154t-358 150q-72 80 -97 169t-24 214v823h-187v135h510v-135h-176v-807q0 -182 62 -272q92 -129 261 -129t261 112q76 96 76 287v809h-176v135h510v-135h-187z" />
    <glyph glyph-name="V" unicode="V" horiz-adv-x="1597" 
d="M10 1327v135h522v-135h-182l451 -1122l459 1122h-187v135h514v-135h-176l-537 -1327h-155l-524 1327h-185z" />
    <glyph glyph-name="W" unicode="W" horiz-adv-x="2101" 
d="M10 1327v135h522v-135h-190l313 -1102l342 1237h117l342 -1235l307 1100h-196v135h524v-135h-184l-369 -1327h-158l-323 1174l-330 -1174h-154l-385 1327h-178z" />
    <glyph glyph-name="X" unicode="X" horiz-adv-x="1505" 
d="M1464 135v-135h-524v135h186l-368 508l-369 -508h178v-135h-526v135h182l447 617l-420 575h-176v135h524v-135h-178l338 -469l334 469h-187v135h527v-135h-170l-418 -575l450 -617h170z" />
    <glyph glyph-name="Y" unicode="Y" horiz-adv-x="1380" 
d="M776 135h187v-135h-523v135h189v357l-445 835h-174v135h510v-135h-180l362 -696l345 696h-189v135h512v-135h-174l-420 -835v-357z" />
    <glyph glyph-name="Z" unicode="Z" horiz-adv-x="1142" 
d="M1071 379v-379h-989v121l760 1206h-609v-244h-127v379h916v-116l-762 -1211h684v244h127z" />
    <glyph glyph-name="bracketleft" unicode="[" horiz-adv-x="1015" 
d="M834 -127v-137h-461v1726h461v-131h-310v-1458h310z" />
    <glyph glyph-name="backslash" unicode="\" horiz-adv-x="968" 
d="M729 0l-614 1462h141l610 -1462h-137z" />
    <glyph glyph-name="bracketright" unicode="]" horiz-adv-x="1011" 
d="M180 -127h307v1458h-307v131h459v-1726h-459v137z" />
    <glyph glyph-name="asciicircum" unicode="^" horiz-adv-x="1392" 
d="M258 356h-125l504 1106h115l508 -1106h-127l-441 959z" />
    <glyph glyph-name="underscore" unicode="_" horiz-adv-x="1064" 
d="M20 -154h1024v-102h-1024v102z" />
    <glyph glyph-name="grave" unicode="`" horiz-adv-x="1198" 
d="M862 1321l-51 -102l-506 274l57 119z" />
    <glyph glyph-name="a" unicode="a" horiz-adv-x="1386" 
d="M585 961q-177 0 -305 -126q-128 -127 -128 -303t126 -303t305 -127t305 126t126 304t-126 304q-126 125 -303 125zM1012 0v223q-147 -252 -439 -252q-147 0 -274 68t-197 184q-92 152 -86 309q0 72 16 134t28 90q13 27 46 84q66 118 193 186t272 68q289 0 441 -254v235
h313v-127h-178v-821h178v-127h-313z" />
    <glyph glyph-name="b" unicode="b" horiz-adv-x="1370" 
d="M360 532q0 -182 128 -304t306 -122q179 0 303 126t124 302t-125 301q-125 123 -305 123t-306 -122q-125 -122 -125 -304zM367 1462v-626q67 122 179 190t247 68q235 0 399 -164t164 -400q0 -162 -90 -307q-60 -100 -188 -176t-268 -76t-258 66t-185 186v-223h-316v127
h180v1208h-180v127h316z" />
    <glyph glyph-name="c" unicode="c" horiz-adv-x="1165" 
d="M1069 1075v-323h-127q-60 96 -158 151t-211 55q-178 0 -301 -126q-122 -126 -122 -304t126 -300t308 -122q117 0 219 62t149 168h152q-58 -166 -206 -265t-327 -100q-227 0 -392 164t-165 394q0 229 163 397t387 168t378 -172v153h127z" />
    <glyph glyph-name="d" unicode="d" horiz-adv-x="1355" 
d="M585 98q179 0 304 128t125 308t-126 306q-126 125 -305 125t-307 -128q-128 -127 -126 -307q0 -180 128 -306t307 -126zM1010 0v227q-70 -121 -186 -189t-250 -67q-134 0 -265 73t-200 183q-94 150 -95 310q0 225 163 391t386 166q141 0 262 -71t185 -196v508h-181v127
h316v-1335h180v-127h-315z" />
    <glyph glyph-name="e" unicode="e" horiz-adv-x="1146" 
d="M150 598h856q-23 164 -149 268t-286 104q-159 0 -281 -108q-122 -110 -140 -264zM575 -29q-231 0 -396 163t-165 393q0 231 161 399t397 168t398 -164q163 -164 163 -402v-41h-983q8 -167 132 -281t289 -114q119 0 217 54t156 155h143q-69 -150 -207 -240t-305 -90z" />
    <glyph glyph-name="f" unicode="f" horiz-adv-x="645" 
d="M389 952v-825h184v-127h-501v127h182v825h-182v131h180v17q2 80 6 119t28 94t70 96q88 82 258 92v-121q-92 -6 -152 -54t-69 -131q-2 -28 -4 -85v-27h184v-131h-184z" />
    <glyph glyph-name="g" unicode="g" horiz-adv-x="1382" 
d="M586 98q178 0 304 129t126 307t-127 307q-127 128 -306 128t-307 -129q-128 -128 -126 -308q0 -180 129 -307t307 -127zM1006 121v115q-64 -125 -180 -195t-251 -70t-276 72t-205 193q-80 152 -80 316t87 287t211 189t262 66t255 -67t177 -181v229h315v-127h-180v-801
q0 -137 -27 -231t-106 -182q-162 -178 -418 -178q-168 0 -310 86t-192 241h156q49 -98 145 -154t209 -57q176 0 297 131q66 68 88 141q23 73 23 177z" />
    <glyph glyph-name="h" unicode="h" horiz-adv-x="1335" 
d="M356 1462v-588q54 102 148 160t209 60q193 0 321 -152q64 -76 82 -159t19 -210v-446h180v-127h-496v127h180v468q0 51 -3 69t-6 41q-7 57 -38 104q-42 72 -114 113t-154 41q-150 0 -244 -107q-70 -81 -81 -189q-3 -40 -3 -112v-428h181v-127h-496v127h180v1208h-180v127
h315z" />
    <glyph glyph-name="i" unicode="i" horiz-adv-x="602" 
d="M391 1462v-211h-135v211h135zM391 1075v-948h180v-127h-499v127h184v821h-180v127h315z" />
    <glyph glyph-name="j" unicode="j" horiz-adv-x="450" 
d="M307 1462v-211h-135v211h135zM307 1075v-1055q-1 -194 -71 -294t-256 -136v129q98 17 137 70q19 29 37 61t18 203v895h-180v127h315z" />
    <glyph glyph-name="k" unicode="k" horiz-adv-x="1218" 
d="M371 1462v-866l395 352h-162v127h506v-127h-176l-404 -366l453 -455h195v-127h-529v127h152l-430 434v-434h164v-127h-484v127h185v1208h-185v127h320z" />
    <glyph glyph-name="l" unicode="l" horiz-adv-x="587" 
d="M379 1462v-1335h178v-127h-506v127h193v1208h-181v127h316z" />
    <glyph glyph-name="m" unicode="m" horiz-adv-x="2054" 
d="M387 1075v-186q47 96 132 150t196 55q227 0 340 -205l22 -41q43 110 145 178t220 68q279 0 381 -246q31 -74 30 -240v-481h181v-127h-496v127h180v451q0 209 -65 282q-89 102 -229 102t-228 -100q-47 -55 -61 -109t-15 -143v-483h180v-127h-495v127h180v455
q1 182 -67 281t-218 99t-232 -96q-81 -96 -81 -270v-469h180v-127h-495v127h180v821h-180v127h315z" />
    <glyph glyph-name="n" unicode="n" horiz-adv-x="1378" 
d="M387 1075v-188q49 98 147 152q203 112 425 0q217 -107 219 -433v-479h180v-127h-496v127h180v430q0 184 -51 272q-76 131 -280 132q-156 0 -252 -113q-47 -54 -59 -116t-13 -159v-446h180v-127h-495v127h180v821h-180v127h315z" />
    <glyph glyph-name="o" unicode="o" horiz-adv-x="1155" 
d="M578 104q178 0 303 126t125 302t-124 302t-302 127q-178 0 -304 -125t-126 -301t124 -304q126 -127 304 -127zM1141 536q1 -232 -163 -398q-164 -167 -398 -167t-401 164q-165 163 -165 397t166 398t398 164t398 -163q165 -163 165 -395z" />
    <glyph glyph-name="p" unicode="p" horiz-adv-x="1376" 
d="M794 98q177 0 305 128t128 314t-126 312q-126 125 -304 115t-305 -126t-127 -301t125 -314q127 -128 304 -128zM367 1075v-239q145 258 444 258q139 0 264 -65t206 -206t81 -291q0 -233 -161 -397t-390 -164q-139 0 -260 69t-184 187v-499h180v-127h-496v127h180v1220
h-180v127h316z" />
    <glyph glyph-name="q" unicode="q" horiz-adv-x="1394" 
d="M583 98q177 0 303 127t128 301t-128 308t-311 133q-182 12 -304 -112q-121 -123 -121 -313t128 -317t305 -127zM1008 -272v497q-62 -119 -184 -187t-259 -67q-231 0 -391 163t-160 396q0 166 70 290t198 200q128 74 277 74t264 -68t185 -192v241h315v-127h-180v-1220h180
v-127h-496v127h181z" />
    <glyph glyph-name="r" unicode="r" horiz-adv-x="772" 
d="M387 1075v-219q35 106 128 160t216 59v-127q-344 -29 -344 -389v-432h180v-127h-495v127h180v821h-180v127h315z" />
    <glyph glyph-name="s" unicode="s" horiz-adv-x="882" 
d="M791 803h-111q-2 82 -69 131t-153 49t-148 -49t-62 -139t80 -132q55 -31 189 -58q134 -28 212 -75q133 -76 133 -235q0 -76 -42 -157t-132 -124t-186 -43q-205 0 -299 158v-129h-111v307h111q8 -98 87 -163q79 -64 180 -64t171 57t70 148q0 118 -109 160q-52 20 -181 48
q-130 29 -198 70q-127 82 -127 228q0 201 179 272q79 31 161 31q168 0 244 -119v100h111v-272z" />
    <glyph glyph-name="t" unicode="t" horiz-adv-x="667" 
d="M342 948v-821h254v-127h-389v948h-207v127h207v387h135v-387h238v-127h-238z" />
    <glyph glyph-name="u" unicode="u" horiz-adv-x="1329" 
d="M981 0v180q-51 -98 -147 -153t-210 -55t-214 60q-100 62 -154 150t-55 262v504h-181v127h316v-579q0 -120 18 -181t49 -102q97 -127 255 -115t245 117q51 59 65 119t13 158v456h-180v127h315v-948h182v-127h-317z" />
    <glyph glyph-name="v" unicode="v" horiz-adv-x="1302" 
d="M10 948v127h494v-127h-164l313 -786l322 786h-172v127h489v-127h-172l-393 -948h-152l-385 948h-180z" />
    <glyph glyph-name="w" unicode="w" horiz-adv-x="1839" 
d="M10 948v127h488v-127h-170l270 -772l276 795h113l252 -785l274 762h-174v127h490v-127h-180l-340 -948h-142l-239 743l-273 -743h-139l-326 948h-180z" />
    <glyph glyph-name="x" unicode="x" horiz-adv-x="1251" 
d="M1200 127v-127h-489v127h143l-229 315l-230 -315h144v-127h-488v127h176l305 412l-307 409h-168v127h482v-127h-148l234 -311l229 311h-156v127h484v-127h-166l-301 -409l307 -412h178z" />
    <glyph glyph-name="y" unicode="y" horiz-adv-x="1286" 
d="M768 -272v-127h-498v127h181l110 264l-379 956h-172v127h492v-127h-170l303 -786l321 786h-168v127h488v-127h-172l-512 -1220h176z" />
    <glyph glyph-name="z" unicode="z" horiz-adv-x="1021" 
d="M809 326h121v-326h-817v115l616 833h-463v-207h-121v334h754v-125l-604 -823h514v199z" />
    <glyph glyph-name="braceleft" unicode="{" horiz-adv-x="888" 
d="M547 354v-377q0 -98 34 -149t126 -80q-147 -4 -223 51t-74 215v377q0 71 -12 100q-39 95 -150 119q55 10 105 47t56 105q1 20 1 67v334q0 172 62 240t235 59q-88 -25 -124 -79t-36 -148v-352q0 -121 -35 -186t-143 -87q104 -23 141 -83t37 -173z" />
    <glyph glyph-name="bar" unicode="|" horiz-adv-x="491" 
d="M182 1536h127v-2048h-127v2048z" />
    <glyph glyph-name="braceright" unicode="}" horiz-adv-x="886" 
d="M338 883v352q0 94 -35 148t-123 79q172 8 234 -59q61 -68 61 -240v-334q0 -47 2 -67q7 -66 55 -104t105 -48q-75 -16 -107 -54t-44 -66t-11 -99v-377q0 -162 -74 -215q-57 -43 -140 -49q-28 -2 -81 -2q90 29 124 80t34 149v377q0 113 37 173t141 83q-106 22 -142 88
t-36 185z" />
    <glyph glyph-name="asciitilde" unicode="~" horiz-adv-x="1329" 
d="M926 590q-68 0 -203 49l-109 41q-142 53 -204 53t-109 -42t-98 -122l-97 62q70 109 142 166t169 57t269 -72q186 -72 234 -72t90 26q41 24 62 50t54 74l97 -61q-49 -68 -81 -105q-32 -36 -90 -70t-126 -34z" />
    <glyph glyph-name="uni00A0" unicode="&#xa0;" horiz-adv-x="1097" 
 />
    <glyph glyph-name="exclamdown" unicode="&#xa1;" horiz-adv-x="634" 
d="M248 -389v1089h141v-1089h-141zM248 852v223h141v-223h-141z" />
    <glyph glyph-name="cent" unicode="&#xa2;" horiz-adv-x="1185" 
d="M295 727q1 -119 77 -209t191 -110v636q-119 -18 -193 -108t-75 -209zM1010 907h-125q-70 117 -203 137v-636q127 35 199 135h151q-43 -109 -137 -179t-213 -92v-190h-119v190q-172 18 -290 150q-117 132 -117 306q0 175 116 305q117 130 291 153v192h119v-192
q145 -27 231 -129v114h97v-264z" />
    <glyph glyph-name="sterling" unicode="&#xa3;" horiz-adv-x="1245" 
d="M881 793v-115h-414q82 -82 124 -151t42 -158q0 -147 -105 -250h174q176 0 261 61q111 82 110 232q0 43 -14 77h133q12 -35 12 -86q0 -187 -127 -295t-356 -108h-598v119h235q62 33 94 101q66 137 -1 269q-33 63 -63 95t-95 94h-260v115h180q-80 111 -80 237
q0 188 143 326t345 139q202 0 337 -176v141h134v-354h-134q-16 116 -111 188t-228 72t-233 -100t-101 -238q0 -138 96 -235h500z" />
    <glyph glyph-name="currency" unicode="&#xa4;" horiz-adv-x="1187" 
d="M594 1055q-150 -1 -254 -105t-104 -252t103 -252q103 -106 251 -106t254 103t106 252t-103 255t-253 105zM113 696q0 170 102 295l-113 109l82 84l111 -111q131 103 299 103t293 -103l110 111l82 -84l-108 -109q100 -127 100 -290t-100 -300l108 -110l-84 -80l-108 108
q-131 -104 -290 -104t-302 104l-109 -108l-84 80l113 110q-102 125 -102 295z" />
    <glyph glyph-name="yen" unicode="&#xa5;" horiz-adv-x="1032" 
d="M750 0h-441v127h158v356l-35 74h-409v92h370l-49 115h-321v90h278l-211 481h-149v127h434v-127h-156l309 -706l289 706h-158v127h433v-127h-146l-196 -481h278v-90h-319l-50 -115h369v-92h-407l-29 -74v-356h158v-127z" />
    <glyph glyph-name="brokenbar" unicode="&#xa6;" horiz-adv-x="491" 
d="M182 358h127v-716h-127v716zM182 1382h127v-716h-127v716z" />
    <glyph glyph-name="section" unicode="&#xa7;" horiz-adv-x="1026" 
d="M297 614q-1 -92 69 -152t165 -61t164 57t69 147t-72 149t-160 61q-88 0 -161 -55q-74 -54 -74 -146zM768 64q0 100 -86 161q-47 31 -172 60q-330 70 -330 317q0 113 68 193t178 106q-211 82 -211 266q0 129 94 212q93 83 225 83t235 -72t105 -196l-120 4q0 74 -65 114
t-149 40t-142 -56q-60 -56 -60 -141q0 -143 235 -219q135 -43 189 -84q125 -98 125 -246q-1 -96 -59 -171t-150 -107q94 -31 151 -103t58 -170q0 -151 -108 -237q-109 -86 -261 -86t-266 89t-113 236v25l127 -4q-8 -111 67 -169q75 -59 184 -59t180 58q71 56 71 156z" />
    <glyph glyph-name="dieresis" unicode="&#xa8;" horiz-adv-x="1245" 
d="M563 1540v-256h-141v256h141zM823 1540v-256h-141v256h141z" />
    <glyph glyph-name="copyright" unicode="&#xa9;" horiz-adv-x="1622" 
d="M383 734q0 200 127 332t328 132q132 0 244 -66t139 -184l-140 -33q-16 93 -83 145t-167 52q-149 0 -231 -110t-82 -266t80 -258q80 -103 229 -103q201 0 271 207l123 -39q-41 -125 -156 -192t-254 -66q-193 0 -311 125q-118 124 -117 324zM811 74v4q266 -2 458 190
q191 192 191 468t-190 470t-460 193q-270 0 -460 -195q-192 -195 -192 -467t191 -468q192 -195 462 -195zM808 -29q-314 -1 -534 225t-219 542q0 316 220 540q221 224 533 223q312 0 533 -222t221 -541t-220 -543t-534 -224z" />
    <glyph glyph-name="ordfeminine" unicode="&#xaa;" horiz-adv-x="921" 
d="M414 913q102 0 174 73t72 176t-72 175t-173 72t-174 -73t-73 -174t72 -175t174 -74zM657 838v116q-39 -63 -107 -98t-140 -35t-148 40t-117 93q-73 98 -73 218t68 195t127 105q58 30 139 29q162 0 251 -133v117h201v-90h-106v-469h106v-88h-201z" />
    <glyph glyph-name="guillemotleft" unicode="&#xab;" horiz-adv-x="768" 
d="M598 170l-221 324v79l221 330l31 -119l-160 -254l160 -251zM352 141l-235 353v81l235 351l31 -115l-174 -281l174 -278z" />
    <glyph glyph-name="logicalnot" unicode="&#xac;" horiz-adv-x="1552" 
d="M1311 317v506h-1192v125h1315v-631h-123z" />
    <glyph glyph-name="uni00AD" unicode="&#xad;" horiz-adv-x="614" 
d="M561 467h-508v135h508v-135z" />
    <glyph glyph-name="registered" unicode="&#xae;" horiz-adv-x="1626" 
d="M629 801h235q176 0 219 75q21 34 21 83t-20 81q-42 68 -203 68h-252v-307zM629 702v-411h-127v911h409q145 0 215 -43q106 -61 106 -195q1 -253 -274 -262l259 -411h-148l-244 411h-196zM817 74v4q266 -2 457 194q190 197 190 469t-193 465q-194 193 -462 193
q-267 0 -459 -195q-192 -196 -192 -470t192 -467t467 -193zM813 1501q313 0 533 -224q220 -223 221 -541t-223 -542t-536 -223t-532 227t-221 542q1 316 223 538t535 223z" />
    <glyph glyph-name="macron" unicode="&#xaf;" horiz-adv-x="1089" 
d="M872 1470v-112h-655v112h655z" />
    <glyph glyph-name="degree" unicode="&#xb0;" horiz-adv-x="882" 
d="M668 1194q0 92 -67 159t-159 67t-158 -68q-66 -66 -67 -158q0 -92 67 -159q66 -67 158 -67t159 68q67 66 67 158zM750 1194q0 -127 -90 -217t-218 -90q-127 0 -217 90t-90 217q-2 127 89 217t218 90q128 0 218 -90t90 -217z" />
    <glyph glyph-name="plusminus" unicode="&#xb1;" horiz-adv-x="1275" 
d="M117 338h1040v-125h-1040v125zM117 920h456v331h127v-331h457v-125h-457v-332h-127v332h-456v125z" />
    <glyph glyph-name="twosuperior" unicode="&#xb2;" horiz-adv-x="792" 
d="M612 813h84v-213h-604v76l402 362q39 36 58 56q56 60 56 136q0 77 -60 132t-154 55t-148 -60q-55 -60 -56 -149h-92q0 125 87 209t215 84t214 -79t86 -199q0 -53 -24 -101t-50 -74q-26 -28 -77 -73l-336 -299h399v137z" />
    <glyph glyph-name="threesuperior" unicode="&#xb3;" horiz-adv-x="806" 
d="M389 1061h-49v69h66q63 0 112 38t49 106t-46 110t-111 43q-66 0 -112 -41t-48 -98h-90q2 92 77 152t174 61q99 0 172 -61t72 -154q0 -139 -127 -186q82 -25 135 -91q52 -67 52 -151q0 -114 -90 -194t-217 -80t-218 74q-90 75 -98 194h98q6 -78 66 -134t147 -56
q88 0 151 59q62 59 62 144t-68 141q-69 55 -159 55z" />
    <glyph glyph-name="acute" unicode="&#xb4;" horiz-adv-x="1208" 
d="M387 1223l-49 100l504 285l61 -117z" />
    <glyph glyph-name="mu" unicode="&#xb5;" horiz-adv-x="1411" 
d="M1022 0v180h-4q-50 -98 -144 -153t-210 -56q-160 0 -287 113v-483h-135v1347h-181v127h316v-604q0 -160 77 -266t248 -107q54 0 115 26t102 61q40 36 71 111q32 75 32 175v477h-180v127h315v-948h182v-127h-317z" />
    <glyph glyph-name="paragraph" unicode="&#xb6;" horiz-adv-x="1011" 
d="M465 1462h508v-127h-180v-1599h-107v1599h-168v-1599h-108v995q-154 3 -259 107t-105 265t124 269q61 54 129 72t166 18z" />
    <glyph glyph-name="periodcentered" unicode="&#xb7;" horiz-adv-x="671" 
d="M408 846v-223h-142v223h142z" />
    <glyph glyph-name="cedilla" unicode="&#xb8;" horiz-adv-x="1198" 
d="M618 -170q68 0 112 -48t44 -120t-50 -125t-122 -53t-120 42t-58 112h94q20 -59 80 -60q38 0 60 25t22 61t-25 61q-25 23 -67 23t-68 -37l-78 29l80 242h96l-53 -164q25 12 53 12z" />
    <glyph glyph-name="onesuperior" unicode="&#xb9;" horiz-adv-x="581" 
d="M379 1462v-800h131v-76h-356v76h129v731h-191v69h287z" />
    <glyph glyph-name="ordmasculine" unicode="&#xba;" horiz-adv-x="890" 
d="M446 911q104 0 178 74q72 74 72 177t-72 177q-73 74 -176 74q-104 0 -178 -73t-74 -177t74 -178q72 -74 176 -74zM784 1166q0 -140 -98 -242t-239 -101q-140 -1 -239 99t-99 240t99 240q100 100 240 99q140 0 238 -98q98 -97 98 -237z" />
    <glyph glyph-name="guillemotright" unicode="&#xbb;" horiz-adv-x="768" 
d="M170 170l-31 109l162 251l-162 254l31 119l223 -330v-79zM416 141l-31 111l174 278l-174 281l31 115l235 -351v-81z" />
    <glyph glyph-name="onequarter" unicode="&#xbc;" horiz-adv-x="1687" 
d="M1384 287v487l-362 -487h362zM379 659h131v-73h-354v73h127v732h-191v71h287v-803zM1616 287v-72h-139v-139h127v-76h-344v76h124v139h-466v72l446 590h113v-590h139zM522 0h-119l650 1462h116z" />
    <glyph glyph-name="onehalf" unicode="&#xbd;" horiz-adv-x="1779" 
d="M1585 213h84v-213h-604v76l401 362q38 36 58 56q56 59 57 136q0 77 -60 132q-59 55 -153 55t-149 -60t-56 -149h-92q0 125 87 209t215 84t214 -79t86 -199q1 -53 -23 -101t-51 -75q-27 -28 -77 -72l-336 -299h399v137zM379 1462v-800h131v-76h-356v76h129v731h-191v69
h287zM569 0h-118l649 1462h117z" />
    <glyph glyph-name="threequarters" unicode="&#xbe;" horiz-adv-x="1861" 
d="M389 1061h-49v69h66q63 0 112 38t49 106t-46 110t-111 43q-66 0 -112 -41t-48 -98h-90q2 92 77 152t174 61q99 0 172 -61t72 -154q0 -139 -127 -186q82 -25 135 -91q52 -67 52 -151q0 -114 -90 -194t-217 -80t-218 74q-90 75 -98 194h98q6 -78 66 -134t147 -56
q88 0 151 59q62 59 62 144t-68 141q-69 55 -159 55zM711 0h-119l649 1462h117zM1559 287v485l-363 -485h363zM1790 287v-72h-139v-139h127v-76h-344v76h125v139h-467v72l446 590h113v-590h139z" />
    <glyph glyph-name="questiondown" unicode="&#xbf;" horiz-adv-x="1173" 
d="M305 14q0 -129 92 -219t221 -90t220 94q90 94 90 224h143q2 -189 -131 -325q-132 -136 -322 -136t-325 131t-135 319q0 82 28 149q29 67 62 103q32 36 112 112q80 75 124 151t48 180h144q2 -131 -50 -225t-161 -191q-61 -57 -85 -83t-50 -78t-25 -116zM532 852v223h144
v-223h-144z" />
    <glyph glyph-name="Agrave" unicode="&#xc0;" 
d="M1098 1708l-51 -102l-506 274l57 119zM1122 592l-293 704l-299 -704h592zM1657 0h-537v135h191l-146 336h-678l-149 -336h184v-135h-522v135h182l531 1192h-195v135h383l574 -1327h182v-135z" />
    <glyph glyph-name="Aacute" unicode="&#xc1;" 
d="M590 1610l-49 100l503 285l62 -117zM1122 592l-293 704l-299 -704h592zM1657 0h-537v135h191l-146 336h-678l-149 -336h184v-135h-522v135h182l531 1192h-195v135h383l574 -1327h182v-135z" />
    <glyph glyph-name="Acircumflex" unicode="&#xc2;" 
d="M1227 1651h-176l-224 168l-219 -168h-170l353 282h79zM1122 592l-293 704l-299 -704h592zM1657 0h-537v135h191l-146 336h-678l-149 -336h184v-135h-522v135h182l531 1192h-195v135h383l574 -1327h182v-135z" />
    <glyph glyph-name="Atilde" unicode="&#xc3;" 
d="M952 1708q-57 0 -135 36t-112 36q-66 0 -123 -62l-80 101q31 35 81 57t95 22t127 -36t129 -35q92 -1 145 67l76 -92q-88 -94 -203 -94zM1122 592l-293 704l-299 -704h592zM1657 0h-537v135h191l-146 336h-678l-149 -336h184v-135h-522v135h182l531 1192h-195v135h383
l574 -1327h182v-135z" />
    <glyph glyph-name="Adieresis" unicode="&#xc4;" 
d="M766 1927v-256h-141v256h141zM1026 1927v-256h-141v256h141zM1122 592l-293 704l-299 -704h592zM1657 0h-537v135h191l-146 336h-678l-149 -336h184v-135h-522v135h182l531 1192h-195v135h383l574 -1327h182v-135z" />
    <glyph glyph-name="Aring" unicode="&#xc5;" 
d="M823 1667q53 0 89 38t36 91t-38 89t-91 36t-89 -38t-36 -91t38 -89t91 -36zM821 1577q-90 0 -153 63q-64 62 -64 154t65 154t153 63q88 0 153 -64q63 -65 63 -154t-63 -153q-64 -63 -154 -63zM1122 592l-293 704l-299 -704h592zM1657 0h-537v135h191l-146 336h-678
l-149 -336h184v-135h-522v135h182l531 1192h-195v135h383l574 -1327h182v-135z" />
    <glyph glyph-name="AE" unicode="&#xc6;" horiz-adv-x="2070" 
d="M1128 598v686l-466 -686h466zM1821 377h147v-377h-1026v135h186v348h-538l-254 -348h186v-135h-522v135h186l830 1192h-182v135h1134v-377h-147v242h-545v-528h571v-121h-571v-543h545v242z" />
    <glyph glyph-name="Ccedilla" unicode="&#xc7;" horiz-adv-x="1509" 
d="M1403 1106h-135q-80 120 -216 184t-288 64q-258 0 -437 -177t-179 -433t176 -441q178 -184 436 -184q154 -1 289 69t223 195h164q-92 -188 -276 -300t-396 -112q-25 0 -35 2l-51 -155q25 12 53 12q68 0 112 -48t44 -120t-50 -125t-122 -53t-120 42t-58 112h94
q20 -59 80 -60q37 0 59 25t23 61q0 36 -25 61q-26 23 -68 23t-67 -37l-78 29l82 246q-233 33 -414 209q-223 221 -223 538t229 557q97 100 237 156t296 55q315 0 506 -211v172h135v-356z" />
    <glyph glyph-name="Egrave" unicode="&#xc8;" horiz-adv-x="1193" 
d="M858 1708l-51 -102l-506 274l57 119zM944 377h148v-377h-1031v135h187v1192h-187v135h1031v-377h-148v242h-549v-528h566v-121h-566v-543h549v242z" />
    <glyph glyph-name="Eacute" unicode="&#xc9;" horiz-adv-x="1193" 
d="M350 1610l-49 100l504 285l61 -117zM944 377h148v-377h-1031v135h187v1192h-187v135h1031v-377h-148v242h-549v-528h566v-121h-566v-543h549v242z" />
    <glyph glyph-name="Ecircumflex" unicode="&#xca;" horiz-adv-x="1193" 
d="M987 1651h-176l-223 168l-219 -168h-170l352 282h80zM944 377h148v-377h-1031v135h187v1192h-187v135h1031v-377h-148v242h-549v-528h566v-121h-566v-543h549v242z" />
    <glyph glyph-name="Edieresis" unicode="&#xcb;" horiz-adv-x="1193" 
d="M526 1927v-256h-141v256h141zM786 1927v-256h-141v256h141zM944 377h148v-377h-1031v135h187v1192h-187v135h1031v-377h-148v242h-549v-528h566v-121h-566v-543h549v242z" />
    <glyph glyph-name="Igrave" unicode="&#xcc;" horiz-adv-x="643" 
d="M604 1708l-51 -102l-506 274l57 119zM408 1327v-1192h186v-135h-520v135h186v1192h-186v135h520v-135h-186z" />
    <glyph glyph-name="Iacute" unicode="&#xcd;" horiz-adv-x="653" 
d="M82 1610l-49 100l504 285l61 -117zM393 1327v-1192h187v-135h-521v135h187v1192h-187v135h521v-135h-187z" />
    <glyph glyph-name="Icircumflex" unicode="&#xce;" horiz-adv-x="598" 
d="M692 1651h-176l-223 168l-219 -168h-170l352 282h80zM367 1327v-1192h186v-135h-520v135h186v1192h-186v135h520v-135h-186z" />
    <glyph glyph-name="Idieresis" unicode="&#xcf;" horiz-adv-x="643" 
d="M260 1927v-256h-141v256h141zM520 1927v-256h-141v256h141zM395 1327v-1192h187v-135h-521v135h187v1192h-187v135h521v-135h-187z" />
    <glyph glyph-name="Eth" unicode="&#xd0;" horiz-adv-x="1480" 
d="M397 1327v-530h336v-115h-336v-547h287q146 0 252 34t190 123t130 205q95 241 -2 479q-48 120 -138 205t-187 115t-239 31h-293zM61 682v115h189v530h-189v135h652q163 0 285 -45t235 -153q217 -212 217 -524t-209 -533q-109 -113 -235 -160t-293 -47h-652v135h189v547
h-189z" />
    <glyph glyph-name="Ntilde" unicode="&#xd1;" horiz-adv-x="1648" 
d="M958 1708q-57 0 -135 36t-112 36q-66 0 -123 -62l-80 101q31 35 81 57t95 22t127 -36t129 -35q92 -1 145 67l76 -92q-88 -94 -203 -94zM1421 1327v-1327h-151l-875 1223v-1088h189v-135h-523v135h187v1192h-187v135h336l877 -1229v1094h-187v135h521v-135h-187z" />
    <glyph glyph-name="Ograve" unicode="&#xd2;" horiz-adv-x="1538" 
d="M1044 1708l-51 -102l-506 274l58 119zM770 119v-2q258 2 439 184t181 436t-180 435q-182 182 -439 182t-440 -180t-183 -436t180 -438q182 -181 442 -181zM772 -29q-320 -1 -546 223t-226 542t225 542t543 223q318 0 544 -222t226 -539t-224 -543t-542 -226z" />
    <glyph glyph-name="Oacute" unicode="&#xd3;" horiz-adv-x="1538" 
d="M537 1610l-50 100l504 285l62 -117zM770 119v-2q258 2 439 184t181 436t-180 435q-182 182 -439 182t-440 -180t-183 -436t180 -438q182 -181 442 -181zM772 -29q-320 -1 -546 223t-226 542t225 542t543 223q318 0 544 -222t226 -539t-224 -543t-542 -226z" />
    <glyph glyph-name="Ocircumflex" unicode="&#xd4;" horiz-adv-x="1538" 
d="M1174 1651h-177l-223 168l-219 -168h-170l352 282h80zM770 119v-2q258 2 439 184t181 436t-180 435q-182 182 -439 182t-440 -180t-183 -436t180 -438q182 -181 442 -181zM772 -29q-320 -1 -546 223t-226 542t225 542t543 223q318 0 544 -222t226 -539t-224 -543
t-542 -226z" />
    <glyph glyph-name="Otilde" unicode="&#xd5;" horiz-adv-x="1538" 
d="M899 1708q-57 0 -135 36t-113 36q-66 0 -123 -62l-79 101q31 35 81 57t94 22q46 0 128 -36t129 -35q92 -1 145 67l76 -92q-88 -94 -203 -94zM770 119v-2q258 2 439 184t181 436t-180 435q-182 182 -439 182t-440 -180t-183 -436t180 -438q182 -181 442 -181zM772 -29
q-320 -1 -546 223t-226 542t225 542t543 223q318 0 544 -222t226 -539t-224 -543t-542 -226z" />
    <glyph glyph-name="Odieresis" unicode="&#xd6;" horiz-adv-x="1538" 
d="M713 1927v-256h-142v256h142zM973 1927v-256h-142v256h142zM770 119v-2q258 2 439 184t181 436t-180 435q-182 182 -439 182t-440 -180t-183 -436t180 -438q182 -181 442 -181zM772 -29q-320 -1 -546 223t-226 542t225 542t543 223q318 0 544 -222t226 -539t-224 -543
t-542 -226z" />
    <glyph glyph-name="multiply" unicode="&#xd7;" horiz-adv-x="1155" 
d="M119 365l368 368l-368 369l90 90l369 -369l368 369l90 -90l-368 -369l368 -368l-90 -91l-368 369l-369 -369z" />
    <glyph glyph-name="Oslash" unicode="&#xd8;" horiz-adv-x="1533" 
d="M772 1354q-262 0 -443 -182t-181 -428q0 -248 192 -451l778 950q-178 111 -346 111zM764 119q262 0 442 181t180 431t-184 440l-776 -950q180 -102 338 -102zM0 727q0 328 225 551t551 223q205 0 412 -129l22 -12l166 203l88 -70l-166 -203q236 -228 236 -550t-224 -545
t-540 -224q-209 0 -379 95l-63 34l-176 -219l-89 72l181 219q-244 227 -244 555z" />
    <glyph glyph-name="Ugrave" unicode="&#xd9;" horiz-adv-x="1368" 
d="M958 1708l-51 -102l-506 274l58 119zM1161 1327v-842q0 -225 -117 -360q-137 -154 -358 -154t-358 150q-72 80 -97 169t-24 214v823h-187v135h510v-135h-176v-807q0 -182 62 -272q92 -129 261 -129t261 112q76 96 76 287v809h-176v135h510v-135h-187z" />
    <glyph glyph-name="Uacute" unicode="&#xda;" horiz-adv-x="1368" 
d="M451 1610l-50 100l504 285l62 -117zM1161 1327v-842q0 -225 -117 -360q-137 -154 -358 -154t-358 150q-72 80 -97 169t-24 214v823h-187v135h510v-135h-176v-807q0 -182 62 -272q92 -129 261 -129t261 112q76 96 76 287v809h-176v135h510v-135h-187z" />
    <glyph glyph-name="Ucircumflex" unicode="&#xdb;" horiz-adv-x="1368" 
d="M1087 1651h-176l-223 168l-219 -168h-170l352 282h80zM1161 1327v-842q0 -225 -117 -360q-137 -154 -358 -154t-358 150q-72 80 -97 169t-24 214v823h-187v135h510v-135h-176v-807q0 -182 62 -272q92 -129 261 -129t261 112q76 96 76 287v809h-176v135h510v-135h-187z
" />
    <glyph glyph-name="Udieresis" unicode="&#xdc;" horiz-adv-x="1368" 
d="M627 1927v-256h-142v256h142zM887 1927v-256h-142v256h142zM1161 1327v-842q0 -225 -117 -360q-137 -154 -358 -154t-358 150q-72 80 -97 169t-24 214v823h-187v135h510v-135h-176v-807q0 -182 62 -272q92 -129 261 -129t261 112q76 96 76 287v809h-176v135h510v-135
h-187z" />
    <glyph glyph-name="Yacute" unicode="&#xdd;" horiz-adv-x="1359" 
d="M446 1610l-49 100l504 285l62 -117zM766 135h186v-135h-522v135h188v357l-444 835h-174v135h510v-135h-180l362 -696l344 696h-188v135h512v-135h-174l-420 -835v-357z" />
    <glyph glyph-name="Thorn" unicode="&#xde;" horiz-adv-x="1187" 
d="M395 461h264q158 0 260 74q101 74 101 219t-104 218t-259 72h-262v-583zM395 326v-191h187v-135h-521v135h187v1192h-187v135h521v-135h-187v-147h264q219 0 363 -108t145 -312q0 -204 -139 -320q-139 -115 -354 -114h-279z" />
    <glyph glyph-name="germandbls" unicode="&#xdf;" horiz-adv-x="1198" 
d="M227 127v885q0 199 92 317q57 76 147 118t185 42q166 0 288 -115t122 -280q0 -113 -56 -203t-161 -127q150 -18 240 -127t92 -275q0 -166 -116 -280q-116 -115 -294 -115q-106 0 -203 51v132q92 -56 198 -56q107 0 189 83t82 202q0 63 -31 125t-79 104q-92 72 -252 72
h-52l-18 -2v127q129 -9 221 69t92 198t-77 199q-78 79 -203 79t-207 -115q-45 -67 -51 -156q-2 -31 -2 -90v-989h-326v127h180z" />
    <glyph glyph-name="agrave" unicode="&#xe0;" horiz-adv-x="1392" 
d="M942 1321l-51 -102l-506 274l57 119zM591 961q-177 0 -305 -126q-128 -127 -128 -303t126 -303t305 -127t305 126t126 304t-126 304q-126 125 -303 125zM1018 0v223q-147 -252 -438 -252q-146 0 -274 68t-197 184q-92 152 -86 309q0 72 15 134t29 90q13 27 46 84
q67 118 193 186t272 68q289 0 440 -254v235h313v-127h-178v-821h178v-127h-313z" />
    <glyph glyph-name="aacute" unicode="&#xe1;" horiz-adv-x="1392" 
d="M434 1223l-49 100l504 285l61 -117zM591 961q-177 0 -305 -126q-128 -127 -128 -303t126 -303t305 -127t305 126t126 304t-126 304q-126 125 -303 125zM1018 0v223q-147 -252 -438 -252q-146 0 -274 68t-197 184q-92 152 -86 309q0 72 15 134t29 90q13 27 46 84
q67 118 193 186t272 68q289 0 440 -254v235h313v-127h-178v-821h178v-127h-313z" />
    <glyph glyph-name="acircumflex" unicode="&#xe2;" horiz-adv-x="1392" 
d="M1071 1264h-176l-223 168l-219 -168h-170l352 282h80zM591 961q-177 0 -305 -126q-128 -127 -128 -303t126 -303t305 -127t305 126t126 304t-126 304q-126 125 -303 125zM1018 0v223q-147 -252 -438 -252q-146 0 -274 68t-197 184q-92 152 -86 309q0 72 15 134t29 90
q13 27 46 84q67 118 193 186t272 68q289 0 440 -254v235h313v-127h-178v-821h178v-127h-313z" />
    <glyph glyph-name="atilde" unicode="&#xe3;" horiz-adv-x="1392" 
d="M797 1321q-57 0 -135 36t-113 36q-66 0 -123 -62l-80 101q31 36 81 58t95 22t127 -36t129 -36q93 -1 146 67l75 -92q-88 -94 -202 -94zM591 961q-177 0 -305 -126q-128 -127 -128 -303t126 -303t305 -127t305 126t126 304t-126 304q-126 125 -303 125zM1018 0v223
q-147 -252 -438 -252q-146 0 -274 68t-197 184q-92 152 -86 309q0 72 15 134t29 90q13 27 46 84q67 118 193 186t272 68q289 0 440 -254v235h313v-127h-178v-821h178v-127h-313z" />
    <glyph glyph-name="adieresis" unicode="&#xe4;" horiz-adv-x="1392" 
d="M610 1540v-256h-141v256h141zM870 1540v-256h-141v256h141zM591 961q-177 0 -305 -126q-128 -127 -128 -303t126 -303t305 -127t305 126t126 304t-126 304q-126 125 -303 125zM1018 0v223q-147 -252 -438 -252q-146 0 -274 68t-197 184q-92 152 -86 309q0 72 15 134
t29 90q13 27 46 84q67 118 193 186t272 68q289 0 440 -254v235h313v-127h-178v-821h178v-127h-313z" />
    <glyph glyph-name="aring" unicode="&#xe5;" horiz-adv-x="1392" 
d="M668 1280q53 0 89 38t36 91t-38 89t-91 36q-54 0 -90 -38t-36 -91t39 -89q38 -36 91 -36zM667 1624q89 0 152 -64t63 -154q0 -88 -62 -152q-64 -64 -154 -64t-154 63q-63 63 -63 155t64 154q65 62 154 62zM591 961q-177 0 -305 -126q-128 -127 -128 -303t126 -303
t305 -127t305 126t126 304t-126 304q-126 125 -303 125zM1018 0v223q-147 -252 -438 -252q-146 0 -274 68t-197 184q-92 152 -86 309q0 72 15 134t29 90q13 27 46 84q67 118 193 186t272 68q289 0 440 -254v235h313v-127h-178v-821h178v-127h-313z" />
    <glyph glyph-name="ae" unicode="&#xe6;" horiz-adv-x="2164" 
d="M1579 958q-161 0 -281 -99t-149 -259h860q-23 154 -145 256q-123 102 -285 102zM1014 536q0 180 -125 302q-125 120 -301 120t-304 -122t-128 -297q0 -177 125 -305t307 -128t304 125t122 305zM1149 1075v-250q143 268 446 269q158 0 280 -75q121 -75 195 -206t74 -285
v-36h-995q12 -166 138 -277t292 -111q119 0 202 48t163 151h155l-43 -72q-72 -119 -190 -189t-264 -71q-146 0 -267 70t-186 190v-231h-135v244q-61 -129 -173 -201q-111 -72 -259 -72t-278 75t-207 200q-77 126 -77 298t94 294t213 190q120 66 255 66t251 -68t181 -186v235
h135z" />
    <glyph glyph-name="ccedilla" unicode="&#xe7;" horiz-adv-x="1202" 
d="M1075 1075v-323h-127q-59 96 -157 151t-211 55q-178 0 -301 -126t-123 -304t126 -300t308 -122q117 0 219 62t149 168h152q-60 -164 -206 -263t-322 -102l-50 -153q25 12 54 12q68 0 112 -48t43 -120q0 -72 -50 -125t-122 -53q-71 0 -119 42t-59 112h94q20 -59 80 -60
q37 0 60 25t23 61t-25 61q-25 23 -68 23t-68 -37l-77 29l79 242q-201 30 -335 186t-134 374t163 384q163 168 387 168t378 -172v153h127z" />
    <glyph glyph-name="egrave" unicode="&#xe8;" horiz-adv-x="1159" 
d="M860 1321l-51 -102l-506 274l57 119zM156 598h856q-23 164 -149 268t-286 104q-159 0 -281 -108q-122 -110 -140 -264zM582 -29q-231 0 -397 163q-165 163 -165 393q0 231 161 399t397 168t398 -164q163 -164 163 -402v-41h-983q8 -167 132 -281t290 -114q119 0 217 54
t155 155h144q-68 -150 -207 -240t-305 -90z" />
    <glyph glyph-name="eacute" unicode="&#xe9;" horiz-adv-x="1159" 
d="M352 1223l-49 100l504 285l61 -117zM156 598h856q-23 164 -149 268t-286 104q-159 0 -281 -108q-122 -110 -140 -264zM582 -29q-231 0 -397 163q-165 163 -165 393q0 231 161 399t397 168t398 -164q163 -164 163 -402v-41h-983q8 -167 132 -281t290 -114q119 0 217 54
t155 155h144q-68 -150 -207 -240t-305 -90z" />
    <glyph glyph-name="ecircumflex" unicode="&#xea;" horiz-adv-x="1159" 
d="M989 1264h-176l-223 168l-219 -168h-170l352 282h80zM156 598h856q-23 164 -149 268t-286 104q-159 0 -281 -108q-122 -110 -140 -264zM582 -29q-231 0 -397 163q-165 163 -165 393q0 231 161 399t397 168t398 -164q163 -164 163 -402v-41h-983q8 -167 132 -281t290 -114
q119 0 217 54t155 155h144q-68 -150 -207 -240t-305 -90z" />
    <glyph glyph-name="edieresis" unicode="&#xeb;" horiz-adv-x="1159" 
d="M528 1540v-256h-141v256h141zM788 1540v-256h-141v256h141zM156 598h856q-23 164 -149 268t-286 104q-159 0 -281 -108q-122 -110 -140 -264zM582 -29q-231 0 -397 163q-165 163 -165 393q0 231 161 399t397 168t398 -164q163 -164 163 -402v-41h-983q8 -167 132 -281
t290 -114q119 0 217 54t155 155h144q-68 -150 -207 -240t-305 -90z" />
    <glyph glyph-name="igrave" unicode="&#xec;" horiz-adv-x="589" 
d="M559 1321l-51 -102l-506 274l57 119zM371 1075v-948h180v-127h-500v127h185v821h-181v127h316z" />
    <glyph glyph-name="iacute" unicode="&#xed;" horiz-adv-x="649" 
d="M102 1223l-49 100l504 285l61 -117zM422 1075v-948h180v-127h-500v127h185v821h-181v127h316z" />
    <glyph glyph-name="icircumflex" unicode="&#xee;" horiz-adv-x="604" 
d="M686 1264h-176l-223 168l-219 -168h-170l352 282h80zM369 1075v-948h180v-127h-500v127h184v821h-180v127h316z" />
    <glyph glyph-name="idieresis" unicode="&#xef;" horiz-adv-x="602" 
d="M248 1540v-256h-142v256h142zM508 1540v-256h-141v256h141zM391 1075v-948h180v-127h-499v127h184v821h-180v127h315z" />
    <glyph glyph-name="eth" unicode="&#xf0;" horiz-adv-x="1216" 
d="M584 104q178 0 303 126t125 302t-124 302t-302 127q-178 0 -304 -125t-126 -301q0 -175 125 -303t303 -128zM586 -29q-235 0 -401 164q-165 163 -165 397t166 398t402 164q139 0 270 -107q-101 137 -289 250l-301 -119l-98 76l283 109q-139 70 -228 94l152 65
q113 -35 231 -100l260 100l93 -73l-244 -95q159 -110 294 -292q136 -181 136 -434t-163 -425t-398 -172z" />
    <glyph glyph-name="ntilde" unicode="&#xf1;" horiz-adv-x="1378" 
d="M844 1321q-57 0 -135 36t-113 36q-66 0 -123 -62l-80 101q31 36 81 58t95 22t127 -36t129 -36q93 -1 146 67l76 -92q-88 -94 -203 -94zM387 1075v-188q49 98 147 152q203 112 425 0q217 -107 219 -433v-479h180v-127h-496v127h180v430q0 184 -51 272q-76 131 -280 132
q-156 0 -252 -113q-47 -54 -59 -116t-13 -159v-446h180v-127h-495v127h180v821h-180v127h315z" />
    <glyph glyph-name="ograve" unicode="&#xf2;" horiz-adv-x="1167" 
d="M860 1321l-51 -102l-506 274l57 119zM584 104q178 0 303 126t125 302t-124 302t-302 127q-178 0 -304 -125t-126 -301q0 -175 125 -303t303 -128zM1147 536q1 -232 -163 -398q-164 -167 -398 -167t-401 164q-165 163 -165 397t166 398t398 164t398 -163
q165 -163 165 -395z" />
    <glyph glyph-name="oacute" unicode="&#xf3;" horiz-adv-x="1167" 
d="M352 1223l-49 100l504 285l61 -117zM584 104q178 0 303 126t125 302t-124 302t-302 127q-178 0 -304 -125t-126 -301q0 -175 125 -303t303 -128zM1147 536q1 -232 -163 -398q-164 -167 -398 -167t-401 164q-165 163 -165 397t166 398t398 164t398 -163q165 -163 165 -395
z" />
    <glyph glyph-name="ocircumflex" unicode="&#xf4;" horiz-adv-x="1167" 
d="M989 1264h-176l-223 168l-219 -168h-170l352 282h80zM584 104q178 0 303 126t125 302t-124 302t-302 127q-178 0 -304 -125t-126 -301q0 -175 125 -303t303 -128zM1147 536q1 -232 -163 -398q-164 -167 -398 -167t-401 164q-165 163 -165 397t166 398t398 164t398 -163
q165 -163 165 -395z" />
    <glyph glyph-name="otilde" unicode="&#xf5;" horiz-adv-x="1167" 
d="M715 1321q-57 0 -135 36t-113 36q-66 0 -123 -62l-80 101q31 36 81 58t95 22t127 -36t129 -36q93 -1 146 67l76 -92q-88 -94 -203 -94zM584 104q178 0 303 126t125 302t-124 302t-302 127q-178 0 -304 -125t-126 -301q0 -175 125 -303t303 -128zM1147 536
q1 -232 -163 -398q-164 -167 -398 -167t-401 164q-165 163 -165 397t166 398t398 164t398 -163q165 -163 165 -395z" />
    <glyph glyph-name="odieresis" unicode="&#xf6;" horiz-adv-x="1167" 
d="M528 1540v-256h-141v256h141zM788 1540v-256h-141v256h141zM584 104q178 0 303 126t125 302t-124 302t-302 127q-178 0 -304 -125t-126 -301q0 -175 125 -303t303 -128zM1147 536q1 -232 -163 -398q-164 -167 -398 -167t-401 164q-165 163 -165 397t166 398t398 164
t398 -163q165 -163 165 -395z" />
    <glyph glyph-name="divide" unicode="&#xf7;" horiz-adv-x="1269" 
d="M571 1178h127v-224h-127v224zM571 287v223h127v-223h-127zM1151 670h-1032v125h1032v-125z" />
    <glyph glyph-name="oslash" unicode="&#xf8;" horiz-adv-x="1173" 
d="M156 538q0 -178 145 -317l496 686q-106 57 -215 58q-174 0 -300 -124q-126 -125 -126 -303zM1018 532q0 176 -139 312l-494 -688q106 -49 205 -50q182 0 305 125t123 301zM20 524q0 244 166 407t404 163q156 0 289 -76l114 160l84 -64l-114 -158q190 -176 190 -414
t-164 -405q-164 -166 -405 -166q-148 0 -285 76l-113 -158l-84 64l113 156q-195 171 -195 415z" />
    <glyph glyph-name="ugrave" unicode="&#xf9;" horiz-adv-x="1329" 
d="M930 1321l-51 -102l-506 274l57 119zM981 0v180q-51 -98 -147 -153t-210 -55t-214 60q-100 62 -154 150t-55 262v504h-181v127h316v-579q0 -120 18 -181t49 -102q97 -127 255 -115t245 117q51 59 65 119t13 158v456h-180v127h315v-948h182v-127h-317z" />
    <glyph glyph-name="uacute" unicode="&#xfa;" horiz-adv-x="1329" 
d="M422 1223l-49 100l504 285l61 -117zM981 0v180q-51 -98 -147 -153t-210 -55t-214 60q-100 62 -154 150t-55 262v504h-181v127h316v-579q0 -120 18 -181t49 -102q97 -127 255 -115t245 117q51 59 65 119t13 158v456h-180v127h315v-948h182v-127h-317z" />
    <glyph glyph-name="ucircumflex" unicode="&#xfb;" horiz-adv-x="1329" 
d="M1059 1264h-176l-224 168l-219 -168h-170l353 282h79zM981 0v180q-51 -98 -147 -153t-210 -55t-214 60q-100 62 -154 150t-55 262v504h-181v127h316v-579q0 -120 18 -181t49 -102q97 -127 255 -115t245 117q51 59 65 119t13 158v456h-180v127h315v-948h182v-127h-317z
" />
    <glyph glyph-name="udieresis" unicode="&#xfc;" horiz-adv-x="1329" 
d="M598 1540v-256h-141v256h141zM858 1540v-256h-141v256h141zM981 0v180q-51 -98 -147 -153t-210 -55t-214 60q-100 62 -154 150t-55 262v504h-181v127h316v-579q0 -120 18 -181t49 -102q97 -127 255 -115t245 117q51 59 65 119t13 158v456h-180v127h315v-948h182v-127
h-317z" />
    <glyph glyph-name="yacute" unicode="&#xfd;" horiz-adv-x="1286" 
d="M416 1223l-49 100l503 285l62 -117zM768 -272v-127h-498v127h181l110 264l-379 956h-172v127h492v-127h-170l303 -786l321 786h-168v127h488v-127h-172l-512 -1220h176z" />
    <glyph glyph-name="thorn" unicode="&#xfe;" horiz-adv-x="1372" 
d="M354 540q0 -186 126 -314t303 -128t306 128q128 128 128 314t-126 312q-126 125 -304 115q-177 -10 -305 -126t-128 -301zM356 1462v-626h4q139 258 441 258q231 0 391 -164t160 -398t-161 -397q-161 -164 -390 -164q-139 0 -260 69t-181 187h-4v-499h181v-127h-496v127
h180v1607h-180v127h315z" />
    <glyph glyph-name="ydieresis" unicode="&#xff;" horiz-adv-x="1286" 
d="M592 1540v-256h-141v256h141zM852 1540v-256h-141v256h141zM768 -272v-127h-498v127h181l110 264l-379 956h-172v127h492v-127h-170l303 -786l321 786h-168v127h488v-127h-172l-512 -1220h176z" />
    <glyph glyph-name="dotlessi" unicode="&#x131;" horiz-adv-x="602" 
d="M391 1075v-948h180v-127h-499v127h184v821h-180v127h315z" />
    <glyph glyph-name="Lslash" unicode="&#x141;" horiz-adv-x="1103" 
d="M1042 377v-377h-960v135h186v516l-207 -155v145l207 152v534h-186v135h520v-135h-186v-457l260 183v-142l-260 -184v-592h479v242h147z" />
    <glyph glyph-name="lslash" unicode="&#x142;" horiz-adv-x="618" 
d="M559 0h-496v127h181v602l-183 -141v131l183 143v473h-176v127h311v-512l182 142v-134l-182 -141v-690h180v-127z" />
    <glyph glyph-name="OE" unicode="&#x152;" horiz-adv-x="2314" 
d="M1360 741q0 253 -174 433t-429 180t-433 -178t-177 -434q1 -257 177 -440t431 -183t430 184t175 438zM2064 1090v237h-544v-528h534v-121h-534v-543h544v242h146v-377h-838v379q-84 -188 -251 -298t-367 -110t-390 112q-364 216 -364 665q0 206 92 370t269 274t389 110
t376 -105q166 -104 246 -295v360h840v-372h-148z" />
    <glyph glyph-name="oe" unicode="&#x153;" horiz-adv-x="2168" 
d="M582 965q-180 0 -308 -128q-128 -129 -127 -307t129 -303t308 -125t307 127t127 307t-128 304q-128 125 -308 125zM1159 602h844q-29 156 -145 259q-117 103 -277 103q-159 0 -279 -102q-120 -104 -143 -260zM1586 -29q-167 0 -301 82t-198 228q-66 -143 -202 -227
q-137 -83 -299 -83q-233 0 -400 165q-166 164 -166 398t167 397t405 163q160 0 297 -87t198 -233q61 150 197 235t303 85q227 0 394 -164t167 -389v-49h-991q8 -164 131 -276t289 -112q115 0 213 54t160 149h153q-61 -152 -205 -244t-312 -92z" />
    <glyph glyph-name="Scaron" unicode="&#x160;" horiz-adv-x="1050" 
d="M948 1933l-358 -282h-80l-350 282h176l223 -168l219 168h170zM924 1112h-123q-14 121 -94 191q-80 69 -196 69t-199 -72t-83 -194t97 -193q56 -43 252 -88t284 -120q137 -113 137 -285t-84 -277q-135 -172 -359 -172t-337 172v-143h-123v393h123q15 -131 103 -210
t219 -79t221 82t90 207q0 172 -146 241q-65 31 -135 49q-69 17 -101 25t-43 13q-11 4 -62 17t-132 69q-152 111 -151 305q0 129 66 219q126 170 364 170q92 0 173 -41t116 -117v119h123v-350z" />
    <glyph glyph-name="scaron" unicode="&#x161;" horiz-adv-x="901" 
d="M881 1546l-359 -282h-80l-350 282h176l224 -168l219 168h170zM803 803h-111q-2 82 -68 131t-153 49q-86 0 -148 -49q-63 -49 -63 -138t80 -133q54 -31 189 -58q135 -28 212 -75q133 -76 133 -235q0 -76 -42 -157t-132 -124t-186 -43q-205 0 -299 158v-129h-111v307h111
q8 -98 87 -163q79 -64 180 -64t171 57t70 148q0 119 -109 160q-52 20 -181 48q-130 29 -197 70q-127 82 -127 228q0 202 179 272q79 31 161 31q168 0 243 -119v100h111v-272z" />
    <glyph glyph-name="Ydieresis" unicode="&#x178;" horiz-adv-x="1359" 
d="M623 1927v-256h-142v256h142zM883 1927v-256h-142v256h142zM766 135h186v-135h-522v135h188v357l-444 835h-174v135h510v-135h-180l362 -696l344 696h-188v135h512v-135h-174l-420 -835v-357z" />
    <glyph glyph-name="Zcaron" unicode="&#x17d;" horiz-adv-x="1142" 
d="M969 1933l-359 -282h-80l-350 282h176l224 -168l219 168h170zM1071 379v-379h-989v121l760 1206h-609v-244h-127v379h916v-116l-762 -1211h684v244h127z" />
    <glyph glyph-name="zcaron" unicode="&#x17e;" horiz-adv-x="1021" 
d="M918 1546l-359 -282h-80l-350 282h176l223 -168l220 168h170zM809 326h121v-326h-817v115l616 833h-463v-207h-121v334h754v-125l-604 -823h514v199z" />
    <glyph glyph-name="florin" unicode="&#x192;" horiz-adv-x="1024" 
d="M621 813l-142 -743q-18 -96 -49 -158t-100 -113q-104 -80 -281 -90l21 113q155 9 222 107q24 36 32 62t20 81l139 741h-178l19 102h180q6 29 23 129q36 210 89 287q111 156 363 170l-23 -115q-154 -6 -227 -110q-35 -50 -59 -192q-23 -142 -29 -169h182l-18 -102h-184z
" />
    <glyph glyph-name="circumflex" unicode="&#x2c6;" horiz-adv-x="1153" 
d="M971 1264h-176l-224 168l-219 -168h-170l353 282h79z" />
    <glyph glyph-name="caron" unicode="&#x2c7;" horiz-adv-x="1153" 
d="M971 1546l-359 -282h-80l-350 282h176l224 -168l219 168h170z" />
    <glyph glyph-name="uni02C9" unicode="&#x2c9;" horiz-adv-x="942" 
d="M801 1470v-112h-656v112h656z" />
    <glyph glyph-name="breve" unicode="&#x2d8;" horiz-adv-x="1040" 
d="M520 1380q84 0 155 42t77 120h98q-2 -127 -100 -199q-98 -71 -230 -71t-230 72t-100 198h99q6 -78 77 -120q70 -42 154 -42z" />
    <glyph glyph-name="dotaccent" unicode="&#x2d9;" horiz-adv-x="1214" 
d="M676 1540v-256h-137v256h137z" />
    <glyph glyph-name="ring" unicode="&#x2da;" horiz-adv-x="1212" 
d="M608 1280q53 0 89 38t36 91t-38 89t-91 36t-89 -38t-36 -91t38 -89t91 -36zM606 1190q-90 0 -153 63t-63 155t64 154q66 62 154 62t152 -64q63 -65 63 -154t-63 -153q-64 -63 -154 -63z" />
    <glyph glyph-name="ogonek" unicode="&#x2db;" horiz-adv-x="1140" 
d="M410 -178q0 96 82 178h96q-74 -56 -74 -124t37 -116t96 -47q29 1 82 21v-99q-57 -23 -113 -22q-92 0 -149 57q-57 56 -57 152z" />
    <glyph glyph-name="tilde" unicode="&#x2dc;" horiz-adv-x="1083" 
d="M662 1321q-58 0 -136 36t-112 36q-66 0 -123 -62l-80 101q31 36 81 58t95 22t127 -36t129 -36q92 -1 145 67l76 -92q-88 -94 -202 -94z" />
    <glyph glyph-name="hungarumlaut" unicode="&#x2dd;" horiz-adv-x="1077" 
d="M649 1219l-82 45l277 383l98 -50zM387 1229l-82 45l277 385l98 -49z" />
    <glyph glyph-name="uni03A9" unicode="&#x3a9;" horiz-adv-x="1546" 
d="M436 111v6q-129 113 -213 285t-84 384q1 313 185 512t458 199t448 -206t175 -496q0 -219 -88 -397t-213 -281v-6h330v-111h-502v82q141 92 238 272t98 418q0 148 -54 284t-167 232q-115 96 -269 96q-225 0 -363 -177q-139 -177 -139 -421t100 -430q100 -188 236 -274v-82
h-501v111h325z" />
    <glyph glyph-name="uni03BC" unicode="&#x3bc;" horiz-adv-x="1310" 
d="M979 0v180h-4q-49 -98 -143 -153t-211 -56q-160 0 -287 113v-483h-135v1347h-181v127h316v-604q0 -160 77 -266t248 -107q54 0 115 26t102 61q40 36 71 111q32 75 32 175v477h-180v127h315v-948h182v-127h-317z" />
    <glyph glyph-name="pi" unicode="&#x3c0;" horiz-adv-x="1413" 
d="M1071 979v-668q0 -207 31 -311h-131q-35 61 -35 297v682h-410q-10 -233 -57 -537t-102 -442h-134q59 160 105 452q45 292 55 527q-166 0 -246 -29l-22 90q92 53 295 54h842l-15 -115h-176z" />
    <glyph glyph-name="endash" unicode="&#x2013;" horiz-adv-x="1228" 
d="M1139 467h-1049v135h1049v-135z" />
    <glyph glyph-name="emdash" unicode="&#x2014;" horiz-adv-x="2252" 
d="M2163 467h-2073v135h2073v-135z" />
    <glyph glyph-name="quoteleft" unicode="&#x2018;" horiz-adv-x="362" 
d="M170 1462l152 -375h-129l-152 375h129z" />
    <glyph glyph-name="quoteright" unicode="&#x2019;" horiz-adv-x="362" 
d="M170 1087h-129l152 375h129z" />
    <glyph glyph-name="quotesinglbase" unicode="&#x201a;" horiz-adv-x="444" 
d="M211 -199h-129l151 377h129z" />
    <glyph glyph-name="quotedblleft" unicode="&#x201c;" horiz-adv-x="626" 
d="M434 1462l152 -375h-129l-154 375h131zM170 1462l152 -375h-129l-152 375h129z" />
    <glyph glyph-name="quotedblright" unicode="&#x201d;" horiz-adv-x="628" 
d="M170 1087h-129l152 375h129zM434 1087h-129l154 375h129z" />
    <glyph glyph-name="quotedblbase" unicode="&#x201e;" horiz-adv-x="708" 
d="M211 -199h-129l151 377h129zM475 -199h-131l154 377h129z" />
    <glyph glyph-name="dagger" unicode="&#x2020;" horiz-adv-x="1384" 
d="M764 897v-1167h-141v1167h-439v113h439v452h141v-452h436v-113h-436z" />
    <glyph glyph-name="daggerdbl" unicode="&#x2021;" horiz-adv-x="1374" 
d="M756 909v-252h434v-110h-434v-817h-144v817h-428v110h428v252h-428v111h428v442h144v-442h434v-111h-434z" />
    <glyph glyph-name="bullet" unicode="&#x2022;" horiz-adv-x="831" 
d="M741 1098v-731h-651v731h651z" />
    <glyph glyph-name="ellipsis" unicode="&#x2026;" horiz-adv-x="2148" 
d="M1827 223v-223h-141v223h141zM1145 223v-223h-141v223h141zM463 223v-223h-141v223h141z" />
    <glyph glyph-name="perthousand" unicode="&#x2030;" horiz-adv-x="2486" 
d="M582 0h-119l649 1462h117zM2057 532q-89 0 -155 -61t-67 -153t63 -158t157 -66t157 65q63 65 63 155t-64 155q-65 63 -154 63zM2054 -27q-141 -1 -239 101q-99 102 -99 243t102 237t239 97q137 0 237 -99q100 -98 100 -238t-100 -240t-240 -101zM431 934q93 0 157 65
q63 66 63 156t-63 155q-64 64 -154 64t-156 -61t-67 -153q0 -92 63 -160q64 -66 157 -66zM429 815q-142 0 -240 101q-97 100 -97 242t102 238t238 97q136 0 236 -99q100 -100 100 -240t-98 -240q-99 -99 -241 -99zM1257 94q92 0 156 65q63 65 63 155t-64 154q-66 64 -154 64
t-154 -61t-66 -153t64 -158t155 -66zM1256 -27q-142 -1 -239 101t-97 243t100 237t238 97q138 0 238 -99q100 -100 99 -240t-99 -240t-240 -99z" />
    <glyph glyph-name="guilsinglleft" unicode="&#x2039;" horiz-adv-x="538" 
d="M360 141l-235 353v81l235 351l31 -115l-174 -281l174 -278z" />
    <glyph glyph-name="guilsinglright" unicode="&#x203a;" horiz-adv-x="540" 
d="M176 141l-29 111l175 278l-175 281l29 115l238 -351v-81z" />
    <glyph glyph-name="fraction" unicode="&#x2044;" horiz-adv-x="1011" 
d="M242 0h-119l649 1462h117z" />
    <glyph glyph-name="Euro" unicode="&#x20ac;" horiz-adv-x="1280" 
d="M915 594h-540q20 -186 88 -311q106 -188 305 -189q123 0 211 73t113 216h131q-29 -201 -148 -306t-311 -106q-266 0 -410 234q-98 164 -123 389h-157v92h151q-2 20 -2 61t2 64h-151v90h159q29 219 125 371q145 229 404 229q229 0 340 -211v172h104v-356h-137
q-92 272 -307 272q-190 0 -297 -188q-66 -113 -88 -289h538v-90h-546q-2 -23 -2 -65t2 -60h546v-92z" />
    <glyph glyph-name="afii61289" unicode="&#x2113;" horiz-adv-x="1019" 
d="M360 1137v-500q164 176 256 334t93 311q0 238 -162 238q-75 0 -131 -93t-56 -290zM580 -18q-168 0 -254 112t-90 287v29q-20 -16 -64 -52t-61 -51l-45 80q150 129 167 148v587q1 266 93 383t221 117t195 -94t65 -242q0 -354 -447 -784v-66q2 -176 72 -261t169 -85t176 62
t124 147l68 -57q-137 -260 -389 -260z" />
    <glyph glyph-name="trademark" unicode="&#x2122;" horiz-adv-x="1894" 
d="M735 1462v-116h-264v-717h-145v717h-267v116h676zM1792 1462v-833h-129v717l-289 -717h-78l-282 717v-717h-131v833h213l237 -588l250 588h209z" />
    <glyph glyph-name="Omega" unicode="&#x2126;" horiz-adv-x="1576" 
d="M453 111v6q-129 113 -213 285t-84 384q0 313 184 512t458 199t449 -206q174 -206 174 -496q0 -219 -88 -397t-213 -281v-6h330v-111h-502v82q141 92 239 272q97 180 97 418q0 148 -53 284t-168 232t-268 96q-225 0 -363 -177t-139 -421q0 -244 99 -430q99 -188 237 -274
v-82h-502v111h326z" />
    <glyph glyph-name="estimated" unicode="&#x212e;" horiz-adv-x="1845" 
d="M1458 770v418q0 31 -20 49q-221 217 -518 217t-517 -223q-20 -25 -20 -51v-410q0 -14 12 -14h1055q8 0 8 14zM1772 715h-1377q-12 0 -12 -8v-418q0 -20 18 -47q219 -226 535 -226t534 252h121q-117 -137 -293 -216t-378 -79q-350 -1 -599 223t-249 540t249 540t601 225
q352 0 601 -224t249 -542v-20z" />
    <glyph glyph-name="partialdiff" unicode="&#x2202;" horiz-adv-x="1249" 
d="M557 92h2q154 0 256 160t127 393q-29 88 -119 167t-218 79t-227 -124t-99 -294q1 -169 77 -275t201 -106zM572 1649q212 0 367 -207t155 -590t-142 -628t-405 -244q-193 0 -298 144t-105 362t132 365q133 148 320 148q133 -1 228 -71t134 -142h3q2 27 2 99
q0 289 -120 470t-286 181t-289 -102l-51 96q143 119 355 119z" />
    <glyph glyph-name="Delta" unicode="&#x2206;" horiz-adv-x="1433" 
d="M227 111h961l-328 850q-14 43 -72 193t-75 204h-8q-11 -44 -65 -186t-67 -177zM90 0v98l549 1418h154l540 -1418v-98h-1243z" />
    <glyph glyph-name="product" unicode="&#x220f;" horiz-adv-x="1816" 
d="M1593 1352h-239v-1555h-131v1555h-629v-1555h-133v1555h-238v121h1370v-121z" />
    <glyph glyph-name="summation" unicode="&#x2211;" horiz-adv-x="1212" 
d="M1147 -203h-1084v90l588 744l-559 749v93h1022v-117h-833v-6l526 -701l-565 -719v-6h905v-127z" />
    <glyph glyph-name="minus" unicode="&#x2212;" horiz-adv-x="1265" 
d="M1147 670h-1030v125h1030v-125z" />
    <glyph glyph-name="uni2215" unicode="&#x2215;" horiz-adv-x="122" 
d="M-197 0h-118l649 1462h117z" />
    <glyph glyph-name="uni2219" unicode="&#x2219;" horiz-adv-x="614" 
d="M379 846v-223h-141v223h141z" />
    <glyph glyph-name="radical" unicode="&#x221a;" horiz-adv-x="1306" 
d="M1280 1747l-473 -2066h-125l-346 991l-160 -60l-29 84l275 107l285 -813q27 -106 34 -148h2q6 41 29 144l404 1761h104z" />
    <glyph glyph-name="infinity" unicode="&#x221e;" horiz-adv-x="1712" 
d="M1257 850h-2q-51 0 -107 -30t-88 -58t-84 -85q-52 -56 -63 -67q127 -135 197 -188t159 -53q89 -1 148 71t59 176t-61 168q-62 66 -158 66zM467 369h2q64 0 125 34t170 151q37 40 45 48q-4 6 -56 66t-64 70q-13 9 -53 45q-75 67 -178 67q-102 0 -162 -73t-59 -173t64 -168
q64 -67 166 -67zM1573 614v-2q0 -147 -96 -239t-226 -92q-96 0 -182 59t-211 197q-101 -113 -165 -165q-111 -91 -239 -91t-222 94q-93 94 -93 233q0 138 94 232q93 94 219 94t219 -69t195 -189q127 141 189 186q100 72 225 72t209 -90t84 -230z" />
    <glyph glyph-name="integral" unicode="&#x222b;" horiz-adv-x="1036" 
d="M746 1694q-172 0 -173 -430q1 -162 15 -533t14 -538q0 -291 -94 -429q-66 -98 -197 -98q-74 0 -133 35l27 98q59 -27 98 -26q176 0 176 422q0 171 -14 545t-14 542t25 271q26 103 85 163q74 80 189 80q69 0 112 -31l-24 -94q-34 23 -92 23z" />
    <glyph glyph-name="approxequal" unicode="&#x2248;" horiz-adv-x="1216" 
d="M840 299q-81 0 -158 40q-27 13 -96 50q-125 74 -199 74t-122 -42t-97 -120l-62 49q49 94 125 148q77 54 159 53q82 0 144 -31q22 -10 60 -32t45 -26q8 -4 63 -34q74 -41 142 -41t114 38t95 122l57 -51q-102 -197 -270 -197zM840 653q-75 0 -158 40q-27 13 -96 50
q-125 74 -198 74t-121 -41t-99 -119l-62 50q106 199 291 198q83 0 196 -64q38 -22 74 -40t51 -26q59 -34 125 -34q67 0 115 38t95 122l57 -51q-102 -197 -270 -197z" />
    <glyph glyph-name="notequal" unicode="&#x2260;" horiz-adv-x="1220" 
d="M1102 848v-90h-383l-148 -318h531v-90h-570l-116 -254l-74 35l102 219h-327v90h366l148 318h-514v90h551l116 250l72 -35l-98 -215h344z" />
    <glyph glyph-name="lessequal" unicode="&#x2264;" horiz-adv-x="1220" 
d="M1102 16h-985v95h985v-95zM1098 199l-969 481v94l969 479v-110l-869 -412v-4l869 -418v-110z" />
    <glyph glyph-name="greaterequal" unicode="&#x2265;" horiz-adv-x="1218" 
d="M1100 16h-983v95h983v-95zM129 1253l967 -479v-94l-967 -481v110l864 416v4l-864 414v110z" />
    <glyph glyph-name="lozenge" unicode="&#x25ca;" horiz-adv-x="1251" 
d="M989 733l-319 615q-6 14 -41 104h-4q-23 -68 -41 -104l-318 -609l322 -618q27 -55 39 -105h6q20 70 39 105zM1114 735l-432 -831h-111l-428 831l432 834h111z" />
    <glyph glyph-name="fi" unicode="&#xfb01;" horiz-adv-x="1064" 
d="M719 127v825h-332v-825h332zM854 1462v-211h-135v211h135zM854 127h180v-127h-962v127h180v825h-180v131h180v19q2 80 6 119t28 93t70 95q88 82 258 92v-121q-92 -6 -138 -42q-74 -58 -83 -141q-2 -28 -4 -85v-29h465v-956z" />
    <glyph glyph-name="fl" unicode="&#xfb02;" horiz-adv-x="1062" 
d="M387 952v-825h330v1253h-51q-204 0 -255 -120q-17 -41 -19 -68t-5 -90v-19h184v-131h-184zM852 1501v-1374h180v-127h-960v127h180v825h-180v131h180v19q2 84 7 124t31 95t77 96q100 84 272 84h213z" />
    </font>
</defs>
</svg>
