<?xml version="1.0" standalone="no"?>
<!DOCTYPE svg PUBLIC "-//W3C//DTD SVG 1.1//EN" "http://www.w3.org/Graphics/SVG/1.1/DTD/svg11.dtd" >
<svg xmlns="http://www.w3.org/2000/svg">
<metadata>
Created by FontPrep 20130207 at Tue Jan 21 12:15:40 2014
 By fireant
Copyright (c) 1985, 1987, 1997, 1998, 2001 Adobe Systems Incorporated.  All Rights Reserved. Revised kerning Copyright 2010 International Typeface Corporation.
</metadata>
<defs>
<font id="e47386410fe15ca27878b09e9e9cb86c" horiz-adv-x='1024' >
  <font-face 
    font-family="LubalinforIBM-Demi"
    font-weight="600"
    font-stretch="normal"
    units-per-em="2048"
    panose-1="2 6 7 3 2 2 5 2 4 4"
    ascent="1473"
    descent="-575"
    x-height="1094"
    cap-height="1462"
    bbox="-326 -574 2560 2083"
    underline-thickness="102"
    underline-position="-102"
    unicode-range="U+0020-FB02"
  />
<missing-glyph horiz-adv-x="1064" 
d="M123 1239v-1044l348 522zM184 102h697l-349 523zM594 717l348 -522v1044zM532 809l349 522h-697zM20 0v1434h1024v-1434h-1024z" />
    <glyph glyph-name=".notdef" horiz-adv-x="1064" 
d="M123 1239v-1044l348 522zM184 102h697l-349 523zM594 717l348 -522v1044zM532 809l349 522h-697zM20 0v1434h1024v-1434h-1024z" />
    <glyph glyph-name=".null" horiz-adv-x="0" 
 />
    <glyph glyph-name="nonmarkingreturn" horiz-adv-x="681" 
 />
    <glyph glyph-name="space" unicode=" " horiz-adv-x="589" 
 />
    <glyph glyph-name="exclam" unicode="!" horiz-adv-x="708" 
d="M483 1462v-1024h-258v1024h258zM483 289v-289h-258v289h258z" />
    <glyph glyph-name="quotedbl" unicode="&#x22;" horiz-adv-x="860" 
d="M297 874h-150l-53 588h258zM694 874h-149l-53 588h258z" />
    <glyph glyph-name="numbersign" unicode="#" horiz-adv-x="1228" 
d="M743 852h-211l-28 -209h209zM76 489v154h272l31 209h-244v154h266l66 456h154l-64 -456h211l66 456h155l-65 -456h231v-154h-254l-29 -209h224v-154h-248l-72 -489h-155l69 489h-211l-69 -489h-156l70 489h-248z" />
    <glyph glyph-name="dollar" unicode="$" horiz-adv-x="1081" 
d="M90 434h244q-4 -96 60 -165t157 -69q92 0 151 55q60 54 60 144q0 89 -60 137t-165 78q-221 66 -300 122t-122 144t-43 185q0 157 104 273t258 137v215h213v-238q74 -12 121 -78v88h193v-401h-228q-4 82 -59 134t-136 52q-82 0 -138 -48t-56 -131t53 -125t150 -66
q223 -57 317 -125q176 -125 176 -338q0 -174 -110 -297t-283 -152v-211h-213v246l-16 2q-80 27 -121 82v-84h-207v434z" />
    <glyph glyph-name="percent" unicode="%" horiz-adv-x="1802" 
d="M672 0h-203l659 1462h201zM600 1129q0 63 -44 107t-106 44t-106 -43t-45 -107q1 -64 45 -107q44 -44 106 -44t106 44t44 106zM450 766q-153 0 -259 107q-105 109 -105 259t106 256t256 105t258 -107t108 -257t-106 -257q-105 -106 -258 -106zM1354 494q-60 0 -106 -44
t-46 -106t46 -108t107 -46q62 0 105 46t43 106t-44 106t-105 46zM1352 -23q-152 0 -257 108t-105 258q0 149 106 255t256 106t258 -104q108 -106 106 -257q0 -151 -106 -259t-258 -107z" />
    <glyph glyph-name="ampersand" unicode="&#x26;" horiz-adv-x="1515" 
d="M748 1141q0 59 -38 102t-98 43t-97 -41q-38 -41 -38 -102q1 -90 103 -180l18 -17q150 94 150 195zM576 209q87 0 144 45q56 45 103 129l-272 268q-188 -96 -189 -237q0 -86 64 -146t150 -59zM559 -29q-186 0 -326 121q-139 121 -139 303q0 137 79 233t220 183
q-84 84 -122 159t-38 169q0 156 110 259q109 103 263 103t262 -98t109 -246q0 -111 -65 -201t-169 -149l236 -232l143 312h303v-228h-145l-127 -258l250 -251l-172 -170l-232 229q-174 -238 -440 -238z" />
    <glyph glyph-name="quotesingle" unicode="'" horiz-adv-x="450" 
d="M297 874h-150l-53 588h258z" />
    <glyph glyph-name="parenleft" unicode="(" horiz-adv-x="778" 
d="M94 596q0 290 168 532q168 244 438 334v-305q-150 -87 -236 -237t-87 -322q1 -172 87 -326t236 -233v-311q-272 98 -439 338t-167 530z" />
    <glyph glyph-name="parenright" unicode=")" horiz-adv-x="778" 
d="M700 594q0 -290 -166 -530t-440 -336v311q150 79 237 233t87 326t-87 322t-237 237v305q270 -90 438 -334t168 -534z" />
    <glyph glyph-name="asterisk" unicode="*" horiz-adv-x="778" 
d="M688 1245v-129l-186 4l104 -153l-110 -74l-101 174l-90 -174l-112 63l98 160l-201 -12v131l193 -6l-113 160l113 73l106 -176l96 176l117 -69l-102 -158z" />
    <glyph glyph-name="plus" unicode="+" 
d="M176 827h426v426h189v-426h426v-188h-426v-426h-189v426h-426v188z" />
    <glyph glyph-name="comma" unicode="," horiz-adv-x="579" 
d="M233 0h-110v289h258v-328q0 -133 -49 -192q-33 -41 -71 -53t-99 -11h-39v139h27q39 0 58 22t22 44t3 63v27z" />
    <glyph glyph-name="hyphen" unicode="-" horiz-adv-x="630" 
d="M578 414h-525v248h525v-248z" />
    <glyph glyph-name="period" unicode="." horiz-adv-x="579" 
d="M381 289v-289h-258v289h258z" />
    <glyph glyph-name="slash" unicode="/" horiz-adv-x="1228" 
d="M274 -399h-180l916 1861h182z" />
    <glyph glyph-name="zero" unicode="0" horiz-adv-x="1243" 
d="M367 528q0 -307 254 -307q147 0 215 113q39 66 38 194v414q0 141 -49 209q-67 100 -209 100t-210 -114q-39 -62 -39 -195v-414zM1149 942v-410q0 -127 -29 -217t-108 -172q-168 -172 -386 -172t-378 152q-90 84 -123 178t-33 231v410q0 129 28 218t107 171
q164 170 384 170t380 -149q90 -84 124 -180t34 -230z" />
    <glyph glyph-name="one" unicode="1" horiz-adv-x="718" 
d="M524 1462v-1229h172v-233h-614v233h172v996h-215v233h485z" />
    <glyph glyph-name="two" unicode="2" horiz-adv-x="1099" 
d="M778 389h240v-389h-961v233q527 510 551 533q23 22 30 30t26 26q18 20 25 30t21 28q50 63 50 147q0 83 -66 143t-160 60t-158 -71q-64 -72 -61 -174h-264q-2 221 140 369q141 148 351 147q210 0 348 -139t138 -340q0 -100 -44 -192t-91 -141q-47 -50 -143 -138l-347 -318
h375v156z" />
    <glyph glyph-name="three" unicode="3" horiz-adv-x="1130" 
d="M560 215q94 0 163 69q70 68 70 172t-74 170t-184 66h-56l-12 -2v213h57q100 0 164 46q64 47 64 135t-52 139t-130 51q-77 0 -128 -47t-53 -123h-252q2 174 131 286t304 112t301 -107q126 -106 126 -277q0 -92 -45 -176t-125 -125q113 -41 182 -146t68 -231
q0 -190 -147 -329q-148 -139 -358 -139t-362 122q-152 123 -163 328h277q14 -90 77 -148t157 -59z" />
    <glyph glyph-name="four" unicode="4" horiz-adv-x="1286" 
d="M739 602v531l-377 -531h377zM1229 602v-213h-219v-156h170v-233h-611v233h170v156h-673v213l630 860h314v-860h219z" />
    <glyph glyph-name="five" unicode="5" horiz-adv-x="1183" 
d="M840 496q0 116 -81 192t-196 76q-164 0 -235 -143l-230 59l131 782h779v-233h-564l-57 -309q111 78 256 77q205 0 342 -147t137 -365q0 -217 -164 -365t-379 -148t-360 112q-145 114 -186 307h286q67 -168 261 -168q100 0 180 79t80 194z" />
    <glyph glyph-name="six" unicode="6" horiz-adv-x="1187" 
d="M592 236q112 0 194 78t82 190q0 114 -78 194t-193 80q-114 0 -195 -78q-80 -78 -80 -190t78 -194q79 -80 192 -80zM670 1010q198 0 330 -150t132 -362t-156 -370q-157 -157 -384 -157q-100 0 -202 43t-177 113q-160 160 -160 397q0 168 129 361l393 577h306l-340 -485
q57 33 129 33z" />
    <glyph glyph-name="seven" unicode="7" horiz-adv-x="1019" 
d="M49 1462h971v-235l-545 -1227h-301l565 1229h-426v-236h-264v469z" />
    <glyph glyph-name="eight" unicode="8" horiz-adv-x="1140" 
d="M559 897q78 0 132 54t54 130t-54 132q-54 57 -130 57t-131 -54t-55 -133q0 -78 53 -132t131 -54zM565 209q96 0 163 70q67 71 67 165t-70 163t-166 69t-164 -69q-67 -69 -67 -166t70 -165q71 -67 167 -67zM565 -29q-207 0 -357 125t-149 330q0 121 71 225t183 150
q-84 37 -133 118t-49 175q0 182 131 295t305 113t298 -112q124 -110 124 -274q0 -199 -166 -301q115 -37 186 -143t70 -230q1 -205 -153 -338t-361 -133z" />
    <glyph glyph-name="nine" unicode="9" horiz-adv-x="1200" 
d="M600 686q117 0 196 81q78 81 78 195t-82 192t-193 79q-111 0 -193 -79q-82 -78 -82 -192t80 -195t196 -81zM53 970q0 212 164 372t381 159q217 0 379 -149q168 -160 168 -402q0 -104 -29 -184t-92 -176l-391 -590h-338l364 485q-70 -35 -129 -34q-205 -1 -341 153
t-136 366z" />
    <glyph glyph-name="colon" unicode=":" horiz-adv-x="655" 
d="M457 1053v-289h-258v289h258zM457 289v-289h-258v289h258z" />
    <glyph glyph-name="semicolon" unicode=";" horiz-adv-x="655" 
d="M457 1053v-289h-258v289h258zM457 289v-328q0 -133 -49 -192q-33 -41 -71 -53t-99 -11h-39v139h26q39 0 59 22t22 44q3 22 3 63v27h-110v289h258z" />
    <glyph glyph-name="less" unicode="&#x3c;" 
d="M1239 324v-187l-1106 506v180l1106 510v-188l-922 -414z" />
    <glyph glyph-name="equal" unicode="=" 
d="M176 668h1041v-191h-1041v191zM176 987h1041v-190h-1041v190z" />
    <glyph glyph-name="greater" unicode="&#x3e;" 
d="M133 324l922 407l-922 414v188l1106 -510v-180l-1106 -506v187z" />
    <glyph glyph-name="question" unicode="?" horiz-adv-x="1146" 
d="M455 410q0 120 50 204q51 84 123 151t110 104q57 56 58 146q2 89 -62 155t-156 65q-92 0 -154 -68t-66 -168h-264q-4 209 139 355t345 147q202 0 345 -142q142 -142 142 -327t-112 -292q-48 -46 -97 -88q-122 -104 -143 -242h-258zM713 289v-289h-258v289h258z" />
    <glyph glyph-name="at" unicode="@" horiz-adv-x="1710" 
d="M770 477q152 0 225 203q41 111 41 183q0 71 -35 111t-98 40q-119 0 -201 -117t-81 -240q1 -76 39 -128t110 -52zM905 -29q-153 -1 -303 51q-309 106 -437 397q-67 148 -67 302q0 319 236 549t557 231q279 0 477 -174t199 -448q0 -211 -107 -359q-59 -82 -150 -137
t-186 -55q-127 0 -145 129q-95 -121 -231 -121t-212 96t-77 232q0 178 134 332t310 155q66 0 121 -35t80 -92l22 63h148l-152 -491q-18 -59 -18 -90q0 -61 61 -62q47 0 101 36t88 79q98 121 98 301q0 240 -161 380t-419 140t-450 -190q-193 -190 -193 -466t193 -455
t477 -179q320 0 537 217l43 -92q-221 -244 -574 -244z" />
    <glyph glyph-name="A" unicode="A" horiz-adv-x="1642" 
d="M999 639l-184 502h-2l-186 -502h372zM993 0v205h162l-86 219h-514l-84 -219h158v-205h-596v233h155l426 996h-161v233h489l512 -1229h156v-233h-617z" />
    <glyph glyph-name="B" unicode="B" horiz-adv-x="1265" 
d="M500 649v-405h153q147 0 203 37q82 53 82 159t-80 166q-59 43 -203 43h-155zM502 1229v-350h163q60 0 66 1q5 1 19 3t22 5t21 8t38 19q66 47 66 141t-76 144q-45 29 -176 29h-143zM63 0v233h158v996h-158v233h650q201 0 303 -76q137 -104 137 -290q0 -102 -50 -186
t-140 -126q121 -49 187 -147t67 -229q0 -190 -138 -310q-113 -98 -336 -98h-680z" />
    <glyph glyph-name="C" unicode="C" horiz-adv-x="1464" 
d="M1407 1001h-266q-59 103 -171 163t-233 61q-207 -1 -343 -139t-136 -340t139 -344t336 -142q127 0 236 58t176 163h301q-72 -223 -274 -366t-437 -144q-147 1 -289 61t-247 165q-221 225 -221 540t218 539q220 224 514 225q294 0 468 -180v147h229v-467z" />
    <glyph glyph-name="D" unicode="D" horiz-adv-x="1452" 
d="M502 1214v-962h219q119 0 204 27t152 102q119 137 119 359t-127 358q-71 72 -149 94t-195 22h-223zM63 0v233h160v996h-160v233h695q162 0 282 -43t228 -149q207 -210 207 -526t-191 -530t-530 -214h-691z" />
    <glyph glyph-name="E" unicode="E" horiz-adv-x="1224" 
d="M63 0v233h160v996h-160v233h1084v-440h-279v190h-366v-364h426v-217h-426v-387h366v198h279v-442h-1084z" />
    <glyph glyph-name="F" unicode="F" horiz-adv-x="1224" 
d="M223 233v996h-160v233h1092v-440h-278v190h-375v-374h424v-215h-424v-390h160v-233h-599v233h160z" />
    <glyph glyph-name="G" unicode="G" horiz-adv-x="1560" 
d="M739 1223q-203 -1 -342 -141t-139 -343t139 -346t340 -143q147 0 262 76t168 211h-540v235h850v-772h-232v225q-82 -123 -217 -189t-291 -65q-315 -1 -537 223t-222 537t206 533q106 111 252 174t297 63q258 0 461 -174v135h229v-430h-303q-146 191 -381 191z" />
    <glyph glyph-name="H" unicode="H" horiz-adv-x="1536" 
d="M1051 877v352h-158v233h594v-233h-158v-996h158v-233h-594v233h158v365h-564v-365h158v-233h-596v233h160v996h-160v233h596v-233h-158v-352h564z" />
    <glyph glyph-name="I" unicode="I" horiz-adv-x="733" 
d="M502 1229v-996h157v-233h-596v233h160v996h-160v233h596v-233h-157z" />
    <glyph glyph-name="J" unicode="J" horiz-adv-x="1105" 
d="M637 494v735h-160v233h596v-233h-158v-770q0 -115 -18 -191q-17 -76 -79 -148t-155 -110q-93 -39 -190 -39q-201 0 -331 122t-122 319h291q2 -74 45 -128t124 -54t128 79q29 51 29 185z" />
    <glyph glyph-name="K" unicode="K" horiz-adv-x="1495" 
d="M1456 233v-233h-622v233h143l-475 453v-453h157v-233h-596v233h160v996h-160v233h596v-233h-157v-428l452 428h-131v233h602v-233h-125l-520 -479l547 -517h129z" />
    <glyph glyph-name="L" unicode="L" horiz-adv-x="1183" 
d="M63 0v233h160v996h-160v233h596v-233h-157v-979h350v192h278v-442h-1067z" />
    <glyph glyph-name="M" unicode="M" horiz-adv-x="2002" 
d="M1788 1229v-996h160v-233h-596v233h157v850l-403 -1083h-197l-415 1083v-850h170v-233h-609v233h160v996h-160v233h549l397 -1032l398 1032h549v-233h-160z" />
    <glyph glyph-name="N" unicode="N" horiz-adv-x="1630" 
d="M1434 1229v-1229h-260l-689 963v-730h160v-233h-596v233h158v996h-158v233h410l696 -979v746h-160v233h596v-233h-157z" />
    <glyph glyph-name="O" unicode="O" horiz-adv-x="1488" 
d="M744 248q202 0 341 144t139 345t-140 342t-338 141t-340 -140t-142 -343t139 -346t341 -143zM1511 738q-1 -317 -225 -543t-542 -226q-318 -1 -542 223t-224 542t224 542q226 223 544 223t541 -222q224 -222 224 -539z" />
    <glyph glyph-name="P" unicode="P" horiz-adv-x="1265" 
d="M502 758h166q131 0 188 49q80 69 80 181t-92 175q-61 45 -189 45h-153v-450zM66 1462h581q258 0 389 -96q180 -133 181 -381q0 -207 -142 -344q-133 -135 -373 -135h-200v-273h160v-233h-596v233h157v996h-157v233z" />
    <glyph glyph-name="Q" unicode="Q" horiz-adv-x="1753" 
d="M737 250q123 0 211 55q-217 225 -438 225q-102 0 -184 -45q64 -113 176 -174t235 -61zM526 756q309 0 590 -305q102 121 103 278q1 205 -139 349t-346 144t-343 -147q-127 -133 -127 -293l6 -75q119 49 256 49zM1499 332h205v-371l-86 -6q-262 0 -451 147
q-201 -131 -428 -131q-321 -1 -541 225t-220 542t222 540q224 224 539 223q315 0 541 -222t225 -540q0 -281 -174 -477q84 -59 168 -65v135z" />
    <glyph glyph-name="R" unicode="R" horiz-adv-x="1347" 
d="M500 684h151q164 0 244 59q100 78 100 211t-96 207q-50 43 -130 49q-26 2 -77 2h-192v-528zM221 233v996h-158v233h654q125 0 214 -22t169 -90q174 -150 174 -385q0 -166 -102 -296t-261 -145l228 -291h166v-233h-342l-463 657v-424h125v-233h-562v233h158z" />
    <glyph glyph-name="S" unicode="S" horiz-adv-x="1083" 
d="M80 434h254q0 -94 59 -159t155 -65t157 55q61 54 61 157t-116 157q-48 22 -134 48q-195 55 -287 125q-159 119 -159 308t131 311t308 122t263 -113v82h213v-393h-250q-2 82 -55 136q-53 55 -136 55q-82 0 -140 -50t-58 -143q0 -94 82 -136q58 -31 158 -61
q215 -59 313 -133q145 -117 145 -311t-131 -325q-131 -130 -321 -130t-291 125v-96h-221v434z" />
    <glyph glyph-name="T" unicode="T" horiz-adv-x="1277" 
d="M778 1214v-981h160v-233h-598v233h160v981h-215v-213h-222v461h1151v-461h-221v213h-215z" />
    <glyph glyph-name="U" unicode="U" horiz-adv-x="1435" 
d="M827 1462h570v-233h-158v-725q0 -125 -29 -215t-104 -170q-141 -147 -384 -147t-380 134q-84 82 -115 178t-30 228v717h-158v233h569v-233h-133v-688q0 -141 43 -205q68 -102 194 -102q247 -1 249 307v688h-134v233z" />
    <glyph glyph-name="V" unicode="V" horiz-adv-x="1550" 
d="M33 1229v233h592v-233h-140l289 -844l309 844h-141v233h576v-233h-156l-447 -1229h-305l-420 1229h-157z" />
    <glyph glyph-name="W" unicode="W" horiz-adv-x="2138" 
d="M45 1229v233h594v-233h-160l207 -768l264 1001h236l280 -993l197 760h-164v233h594v-233h-162l-325 -1229h-265l-270 965l-270 -965h-260l-351 1229h-145z" />
    <glyph glyph-name="X" unicode="X" horiz-adv-x="1552" 
d="M1495 233v-233h-600v215h143l-262 334l-264 -334h145v-215h-600v233h144l407 508l-385 488h-149v233h602v-215h-135l235 -311l236 311h-135v215h604v-233h-148l-393 -488l406 -508h149z" />
    <glyph glyph-name="Y" unicode="Y" horiz-adv-x="1409" 
d="M846 233h160v-233h-596v233h157v277l-387 719h-147v233h565v-233h-135l246 -484l243 484h-139v233h563v-233h-145l-385 -719v-277z" />
    <glyph glyph-name="Z" unicode="Z" horiz-adv-x="1193" 
d="M1133 444v-444h-1063v219l696 1000h-414v-201h-248v444h998v-211l-701 -1007h476v200h256z" />
    <glyph glyph-name="bracketleft" unicode="[" horiz-adv-x="819" 
d="M715 -29v-235h-611v1726h611v-235h-330v-1256h330z" />
    <glyph glyph-name="backslash" unicode="\" horiz-adv-x="1310" 
d="M866 0l-624 1462h207l622 -1462h-205z" />
    <glyph glyph-name="bracketright" unicode="]" horiz-adv-x="819" 
d="M104 -29h330v1256h-330v235h611v-1726h-611v235z" />
    <glyph glyph-name="asciicircum" unicode="^" 
d="M285 356h-187l506 1106h180l510 -1106h-186l-416 908z" />
    <glyph glyph-name="underscore" unicode="_" horiz-adv-x="1064" 
d="M20 -154h1024v-102h-1024v102z" />
    <glyph glyph-name="grave" unicode="`" horiz-adv-x="983" 
d="M815 1411l-84 -182l-565 256l100 221z" />
    <glyph glyph-name="a" unicode="a" horiz-adv-x="1372" 
d="M594 215q137 0 233 98q97 99 97 237t-98 233t-234 95t-232 -98q-96 -100 -96 -236t96 -233q97 -96 234 -96zM920 0v147q-118 -176 -352 -176t-398 168t-164 405q0 238 168 408t398 170t348 -184v156h391v-234h-137v-627h137v-233h-391z" />
    <glyph glyph-name="b" unicode="b" horiz-adv-x="1363" 
d="M768 883q-137 -1 -234 -97q-98 -96 -98 -236t98 -238t238 -97q139 0 234 100q94 101 94 237t-98 234t-234 97zM446 1462v-526q119 174 344 174q226 0 392 -166t166 -394t-148 -388q-74 -82 -177 -130t-210 -48q-240 0 -367 180v-164h-391v233h142v996h-142v233h391z" />
    <glyph glyph-name="c" unicode="c" horiz-adv-x="1189" 
d="M584 -29q-240 0 -409 168q-169 167 -169 403t161 410t390 174q186 0 313 -137v105h215v-365h-233q-45 66 -117 108t-155 42q-140 -1 -232 -97t-92 -235t96 -235t234 -95q82 0 154 41t108 111h278q-52 -172 -206 -285t-336 -113z" />
    <glyph glyph-name="d" unicode="d" horiz-adv-x="1353" 
d="M597 213q138 0 234 99q97 98 97 236t-98 234t-233 96q-136 0 -233 -98q-98 -98 -98 -235t96 -235q97 -97 235 -97zM922 0v164q-122 -180 -354 -180t-397 168t-165 397t163 396t392 167q105 0 201 -47t160 -131v295h-144v233h393v-1229h142v-233h-391z" />
    <glyph glyph-name="e" unicode="e" horiz-adv-x="1155" 
d="M244 645h663q-33 117 -127 188t-211 71t-209 -76q-92 -74 -116 -183zM6 545q0 241 164 411t405 170q113 0 222 -47t188 -129q154 -162 154 -409l-9 -88h-884q25 -113 118 -188t209 -75q175 1 265 132h260q-66 -158 -206 -254t-310 -97q-240 0 -408 166t-168 408z" />
    <glyph glyph-name="f" unicode="f" horiz-adv-x="661" 
d="M453 860v-627h143v-233h-535v233h142v627h-142v234h142q-2 203 106 305q109 102 318 102v-223q-182 4 -174 -184h143v-234h-143z" />
    <glyph glyph-name="g" unicode="g" horiz-adv-x="1337" 
d="M262 550q0 -138 97 -236t237 -99q140 0 235 99q97 100 97 238t-98 234t-236 96q-136 0 -234 -96q-98 -98 -98 -236zM909 125v41q-113 -182 -347 -182t-395 167t-161 396t165 397t403 168t352 -178v160h370v-234h-141v-715q0 -147 -26 -242t-111 -182q-168 -166 -428 -165
q-184 0 -333 91q-148 91 -189 259h288q31 -66 100 -101t146 -34q143 0 232 100q49 57 62 111t13 143z" />
    <glyph glyph-name="h" unicode="h" horiz-adv-x="1355" 
d="M453 1462v-532q106 188 327 188q193 0 310 -160q55 -76 72 -154t18 -194v-377h141v-233h-533v233h142v378q0 90 -22 131q-7 15 -15 30q-66 100 -192 100t-195 -88q-49 -56 -52 -137q-1 -25 -1 -82v-332h141v-233h-533v233h142v996h-142v233h392z" />
    <glyph glyph-name="i" unicode="i" horiz-adv-x="634" 
d="M453 1462v-264h-250v264h250zM453 1094v-861h141v-233h-535v233h144v627h-142v234h392z" />
    <glyph glyph-name="j" unicode="j" horiz-adv-x="497" 
d="M416 1462v-264h-250v264h250zM416 1094v-1078q0 -213 -104 -314t-322 -114v232q93 4 132 55t43 141q1 28 1 62v782h-141v234h391z" />
    <glyph glyph-name="k" unicode="k" horiz-adv-x="1253" 
d="M616 885v209h539v-234h-133l-301 -291l319 -336h172v-233h-596v233h93l-260 287v-287h98v-233h-492v233h144v996h-144v233h394v-858l280 281h-113z" />
    <glyph glyph-name="l" unicode="l" horiz-adv-x="641" 
d="M459 1462v-1229h141v-233h-543v233h152v996h-141v233h391z" />
    <glyph glyph-name="m" unicode="m" horiz-adv-x="2027" 
d="M203 233v627h-142v234h369v-164q115 190 315 190q113 0 203 -62t137 -167q45 101 145 165t214 64q193 0 315 -139q41 -47 61 -107t22 -103q3 -42 3 -124v-414h142v-233h-533v233h141v353q0 135 -32 198q-61 90 -179 90t-184 -81q-35 -45 -43 -88t-8 -119v-353h141v-233
h-532v233h141v336q0 147 -33 205q-53 100 -171 100q-242 0 -242 -303v-338h141v-233h-533v233h142z" />
    <glyph glyph-name="n" unicode="n" horiz-adv-x="1359" 
d="M203 233v627h-142v234h392v-156q98 180 323 180q190 0 316 -135q74 -81 88 -202q4 -42 4 -119v-429h141v-233h-532v233h141v355q0 137 -43 196q-68 88 -196 88t-195 -92q-47 -61 -47 -229v-318h141v-233h-533v233h142z" />
    <glyph glyph-name="o" unicode="o" horiz-adv-x="1169" 
d="M578 217q137 0 233 96q96 97 96 233t-94 235t-229 99q-136 0 -234 -96t-98 -232t94 -236q95 -99 232 -99zM6 552q0 238 169 406t407 168t404 -169t167 -407t-167 -408q-168 -171 -407 -171t-406 171t-167 410z" />
    <glyph glyph-name="p" unicode="p" horiz-adv-x="1378" 
d="M773 215q136 0 234 96q97 95 97 231t-94 235t-232 99t-235 -96q-99 -96 -99 -234t96 -234t233 -97zM195 -166v1026h-140v234h391v-172q118 184 354 184t399 -165t163 -395t-160 -396t-392 -166t-364 170v-320h142v-233h-533v233h140z" />
    <glyph glyph-name="q" unicode="q" horiz-adv-x="1353" 
d="M266 543q0 -135 98 -231t232 -97q135 0 231 96q97 95 97 235t-98 235t-235 95t-231 -98q-94 -100 -94 -235zM922 -166v320q-132 -170 -364 -170t-392 166t-160 395t164 395t398 166t354 -184v172h391v-234h-139v-1026h139v-233h-533v233h142z" />
    <glyph glyph-name="r" unicode="r" horiz-adv-x="735" 
d="M428 1094v-187q92 188 328 199v-256q-133 -6 -215 -80q-94 -80 -95 -260v-277h142v-233h-533v233h142v627h-142v234h373z" />
    <glyph glyph-name="s" unicode="s" horiz-adv-x="978" 
d="M80 317h256q6 -75 53 -119t115 -44t112 38q46 38 46 91q0 54 -18 73t-23 26t-21 14t-31 16t-31 11q-16 3 -38 9t-61 15q-199 47 -282 131t-81 208q0 152 108 241t270 89t240 -98v76h185v-297h-242q-2 57 -42 93t-97 36q-58 0 -100 -31t-42 -76t20 -78t70 -48t106 -28
q222 -51 308 -134t84 -216q0 -160 -115 -252t-285 -92t-274 119v-90h-190v317z" />
    <glyph glyph-name="t" unicode="t" horiz-adv-x="681" 
d="M422 860v-627h199v-233h-449v860h-172v234h172v368h250v-368h186v-234h-186z" />
    <glyph glyph-name="u" unicode="u" horiz-adv-x="1316" 
d="M1135 1094v-861h141v-233h-371v135q-53 -78 -142 -121t-188 -43q-186 0 -303 140q-96 113 -96 317v432h-141v234h391v-592q0 -143 43 -205q61 -94 180 -94t189 90q47 66 47 215v352h-142v234h392z" />
    <glyph glyph-name="v" unicode="v" horiz-adv-x="1265" 
d="M31 860v234h510v-234h-111l201 -553h2l215 553h-117v234h504v-234h-129l-344 -860h-262l-336 860h-133z" />
    <glyph glyph-name="w" unicode="w" horiz-adv-x="1814" 
d="M31 860v234h506v-234h-121l157 -514h2l230 707h205l213 -707h2l168 514h-125v234h516v-234h-146l-299 -860h-241l-199 643l-235 -643h-234l-262 860h-137z" />
    <glyph glyph-name="x" unicode="x" horiz-adv-x="1316" 
d="M1249 233v-233h-516v205h86l-160 194l-161 -194h86v-205h-516v233h129l288 320l-282 307h-123v234h504v-193h-92l167 -190l166 190h-92v193h498v-234h-123l-279 -307l293 -320h127z" />
    <glyph glyph-name="y" unicode="y" horiz-adv-x="1275" 
d="M827 -166v-233h-532v233h137l74 180l-332 846h-143v234h516v-234h-107l195 -534l207 534h-107v234h510v-234h-137l-424 -1026h143z" />
    <glyph glyph-name="z" unicode="z" horiz-adv-x="1015" 
d="M86 1094h840v-226l-527 -635h336v121h219v-354h-893v201l555 659h-311v-129h-219v363z" />
    <glyph glyph-name="braceleft" unicode="{" horiz-adv-x="696" 
d="M461 346v-379q0 -98 34 -150t126 -81h-69q-76 0 -94 5t-45 11q-28 6 -77 38t-65 84q-15 52 -15 130v379q0 70 -11 98q-11 29 -44 67t-107 56q55 10 105 45q53 42 56 107q1 20 1 67v336q0 172 61 234q37 35 99 51t92 17q31 1 113 1q-88 -27 -124 -81t-36 -150v-354
q0 -121 -35 -186t-143 -87q104 -25 141 -85t37 -173z" />
    <glyph glyph-name="bar" unicode="|" 
d="M602 1536h189v-2048h-189v2048z" />
    <glyph glyph-name="braceright" unicode="}" horiz-adv-x="696" 
d="M254 877v354q0 96 -35 150t-123 79h105q125 0 196 -67q61 -61 62 -234v-336q0 -47 1 -67t14 -52t52 -62q39 -28 95 -38q-75 -18 -107 -56t-44 -66t-11 -99v-379q1 -78 -15 -130q-20 -68 -106 -108q-18 -8 -41 -14t-36 -10q-19 -6 -71 -6h-94q90 29 124 81t34 150v379
q0 113 37 173t141 85q-106 22 -142 88t-36 185z" />
    <glyph glyph-name="asciitilde" unicode="~" 
d="M627 670q-12 4 -71 26t-105 23q-46 -1 -69 -17q-24 -16 -36 -25t-28 -31t-23 -31q-5 -9 -23 -35t-22 -33l-148 96q76 119 155 187t183 69q104 0 274 -69q171 -69 224 -68q72 0 137 86q6 8 27 38q20 30 22 32l148 -95q-39 -53 -53 -73q-15 -20 -53 -62q-97 -108 -224 -108
q-80 0 -217 51z" />
    <glyph glyph-name="uni00A0" unicode="&#xa0;" horiz-adv-x="614" 
 />
    <glyph glyph-name="exclamdown" unicode="&#xa1;" horiz-adv-x="708" 
d="M225 -371v1024h258v-1024h-258zM225 805v289h258v-289h-258z" />
    <glyph glyph-name="cent" unicode="&#xa2;" horiz-adv-x="1228" 
d="M729 1407v-199q104 -27 172 -100v80h158v-332h-238q-25 51 -78 79t-112 28q-96 0 -164 -67t-68 -165t69 -164q69 -65 170 -65t175 90h274q-37 -129 -131 -213t-227 -121v-199h-205v207q-164 29 -274 162t-109 300q0 167 110 305t273 171v203h205z" />
    <glyph glyph-name="sterling" unicode="&#xa3;" horiz-adv-x="1228" 
d="M834 819v-205h-252q94 -120 94 -226t-92 -173h127q127 0 178 43q72 55 72 166q0 35 -13 76h215q20 -53 21 -109q0 -184 -140 -297q-111 -94 -319 -94h-590v215h152q59 10 95 53q36 44 36 100t-21 103q-20 47 -37 70q-16 23 -59 73h-254v205h137q-61 96 -61 215
q0 193 139 326t320 133q137 0 241 -115v84h230v-405h-230q-4 92 -65 147q-60 56 -152 56t-158 -70t-65 -176q0 -106 76 -195h375z" />
    <glyph glyph-name="currency" unicode="&#xa4;" horiz-adv-x="1228" 
d="M623 975q-113 0 -193 -80t-80 -193q0 -114 79 -194t192 -80t193 79t81 193t-79 194q-80 81 -193 81zM125 702q0 160 84 273l-111 108l142 142l106 -109q120 84 270 84t283 -82l107 107l141 -142l-109 -106q82 -117 82 -265t-82 -284l109 -109l-141 -137l-107 107
q-133 -86 -279 -86t-272 86l-108 -107l-144 137l113 111q-84 112 -84 272z" />
    <glyph glyph-name="yen" unicode="&#xa5;" horiz-adv-x="1228" 
d="M881 0h-525v233h140v275l-17 31h-399v116h342l-39 88h-303v117h246l-174 371h-132v231h498v-231h-117l217 -488l216 488h-117v231h491v-231h-129l-170 -371h238v-117h-295l-43 -88h338v-116h-395l-13 -31v-275h142v-233z" />
    <glyph glyph-name="brokenbar" unicode="&#xa6;" 
d="M602 358h189v-716h-189v716zM602 1382h189v-716h-189v716z" />
    <glyph glyph-name="section" unicode="&#xa7;" horiz-adv-x="983" 
d="M326 611q0 -67 50 -109t116 -41q66 0 114 44q49 45 49 109t-49 108q-50 44 -116 44t-115 -44t-49 -111zM96 115h219q-8 -84 42 -131q49 -47 131 -47q82 1 135 41t53 114q0 100 -95 136q-45 17 -114 34q-348 80 -348 354q0 100 57 178t154 111q-201 76 -201 246
q0 137 105 224t252 87q148 0 258 -86t108 -235h-209q8 57 -38 93t-107 36q-60 0 -106 -38t-46 -90t14 -71q14 -21 23 -31q7 -10 25 -20t28 -16t33 -14t31 -10q8 -3 32 -10q167 -48 228 -104q111 -94 110 -245q0 -188 -182 -285q199 -70 199 -266q0 -150 -116 -244
q-117 -94 -277 -94t-279 99t-119 253v31z" />
    <glyph glyph-name="dieresis" unicode="&#xa8;" horiz-adv-x="983" 
d="M426 1462v-264h-250v264h250zM807 1462v-264h-250v264h250z" />
    <glyph glyph-name="copyright" unicode="&#xa9;" horiz-adv-x="1720" 
d="M428 734q0 200 129 332t332 132q133 0 247 -66t140 -184l-139 -33q-16 93 -84 145t-170 52q-150 0 -234 -110t-84 -266t81 -258q81 -103 233 -103q204 0 274 207l123 -39q-41 -125 -158 -192t-256 -66q-198 0 -316 124q-118 125 -118 325zM860 78q272 0 466 191t194 466
t-193 467t-466 193q-273 0 -467 -193t-194 -465t194 -466q194 -193 466 -193zM1624 738q0 -318 -223 -542t-541 -224t-540 226t-222 541t224 539t538 223q315 0 540 -222q224 -223 224 -541z" />
    <glyph glyph-name="ordfeminine" unicode="&#xaa;" horiz-adv-x="901" 
d="M399 967q78 0 132 55q55 55 55 133t-54 132t-133 54q-78 0 -132 -55t-54 -133t54 -132t132 -54zM586 825v72q-72 -90 -207 -90t-234 101q-98 100 -98 242t98 246q97 104 233 105q136 0 208 -92v74h245v-152h-83v-354h83v-152h-245z" />
    <glyph glyph-name="guillemotleft" unicode="&#xab;" horiz-adv-x="778" 
d="M674 168l-250 283v186l250 295l12 -244l-127 -151l127 -152zM346 158l-252 293v194l252 291l12 -236l-131 -161l131 -160z" />
    <glyph glyph-name="logicalnot" unicode="&#xac;" 
d="M1102 356v441h-1002v190h1192v-631h-190z" />
    <glyph glyph-name="uni00AD" unicode="&#xad;" horiz-adv-x="696" 
d="M610 414h-524v248h524v-248z" />
    <glyph glyph-name="registered" unicode="&#xae;" horiz-adv-x="1720" 
d="M676 801h237q70 0 117 8t87 46q40 37 40 95q0 108 -72 133t-155 25h-254v-307zM676 702v-411h-129v909h416q145 0 217 -41q106 -61 106 -195q0 -253 -276 -262l260 -411h-150l-246 411h-198zM862 78q274 0 466 195q192 196 192 468q0 271 -195 463t-467 192t-464 -193
q-192 -195 -191 -469q0 -274 192 -465q193 -191 467 -191zM1624 735q0 -317 -225 -540t-541 -223t-540 226q-222 226 -222 542t226 538t540 223q315 0 539 -224q223 -225 223 -542z" />
    <glyph glyph-name="macron" unicode="&#xaf;" horiz-adv-x="1105" 
d="M952 1505v-200h-786v200h786z" />
    <glyph glyph-name="degree" unicode="&#xb0;" horiz-adv-x="860" 
d="M594 1194q0 70 -47 117t-117 47t-117 -47t-47 -116t47 -115t117 -48t117 45t47 117zM737 1193q0 -126 -90 -216t-217 -90t-217 90t-90 217t90 217t217 90t217 -91t90 -217z" />
    <glyph glyph-name="plusminus" unicode="&#xb1;" 
d="M176 209v188h1041v-188h-1041zM176 1016h426v237h189v-237h426v-189h-426v-241h-189v241h-426v189z" />
    <glyph glyph-name="twosuperior" unicode="&#xb2;" horiz-adv-x="753" 
d="M688 600h-625v141l343 306q20 20 45 41t35 37t22 36t12 63q0 44 -43 80t-105 36t-104 -44q-41 -43 -37 -104h-172q-3 133 91 221t229 88t225 -84t90 -203q0 -61 -28 -115t-61 -85q-32 -31 -93 -82l-223 -191h243v93h156v-234z" />
    <glyph glyph-name="threesuperior" unicode="&#xb3;" horiz-adv-x="753" 
d="M307 1016v127h37q150 0 150 112q0 49 -34 79t-84 30t-83 -28t-35 -72h-164q0 104 85 171t198 67t195 -64q82 -63 81 -166q0 -55 -29 -106q-30 -50 -81 -74q74 -28 119 -90t45 -138q-1 -120 -101 -200t-232 -80t-232 72q-99 73 -105 198h178q10 -53 51 -89q40 -36 102 -36
t107 42q45 41 45 103t-48 102t-120 40h-45z" />
    <glyph glyph-name="acute" unicode="&#xb4;" horiz-adv-x="983" 
d="M252 1229l-86 178l543 307l108 -219z" />
    <glyph glyph-name="mu" unicode="&#xb5;" horiz-adv-x="1351" 
d="M1155 1094v-861h141v-233h-370v135q-52 -78 -142 -121t-181 -43t-157 29v-399h-249v1259h-142v234h391v-592q0 -299 228 -299q41 0 85 19q45 19 73 47t51 85t22 133v373h-141v234h391z" />
    <glyph glyph-name="paragraph" unicode="&#xb6;" horiz-adv-x="1146" 
d="M473 1462h655v-233h-141v-1493h-184v1493h-201v-1493h-184v995q-154 3 -259 107t-105 265t124 269q61 54 129 72t166 18z" />
    <glyph glyph-name="periodcentered" unicode="&#xb7;" horiz-adv-x="655" 
d="M457 879v-289h-258v289h258z" />
    <glyph glyph-name="cedilla" unicode="&#xb8;" horiz-adv-x="778" 
d="M616 -352q0 -92 -66 -157t-161 -65q-96 0 -159 61q-62 60 -68 151h151q18 -61 74 -62q35 0 55 22t20 54t-21 56q-23 24 -59 24t-65 -33l-122 51l98 250h160l-58 -141l27 2q82 -1 138 -61t56 -152z" />
    <glyph glyph-name="onesuperior" unicode="&#xb9;" horiz-adv-x="753" 
d="M473 1462v-737h113v-139h-400v139h111v598h-139v139h315z" />
    <glyph glyph-name="ordmasculine" unicode="&#xba;" horiz-adv-x="778" 
d="M215 1160q0 -75 52 -129t127 -54t128 53t53 128t-52 129t-127 54t-128 -53t-53 -128zM394 817q-142 -1 -241 101t-99 244t100 240t241 99q141 0 241 -99q100 -100 101 -240q-1 -140 -101 -242t-242 -103z" />
    <glyph glyph-name="guillemotright" unicode="&#xbb;" horiz-adv-x="778" 
d="M106 168l-12 217l125 152l-125 151l12 244l248 -295v-186zM432 158l-10 221l129 160l-129 161l10 236l254 -291v-194z" />
    <glyph glyph-name="onequarter" unicode="&#xbc;" horiz-adv-x="1822" 
d="M451 1462v-737h112v-139h-399v139h110v598h-139v139h316zM1403 360v318l-246 -318h246zM616 0h-204l659 1462h201zM1720 360v-127h-143v-94h111v-139h-396v139h111v94h-438v127l409 517h203v-517h143z" />
    <glyph glyph-name="onehalf" unicode="&#xbd;" horiz-adv-x="1822" 
d="M1716 0h-624v141l342 305q25 25 37 35q77 64 77 125t-43 97t-105 36t-104 -43q-41 -43 -36 -104h-173q-3 133 91 221t229 88t225 -84t90 -203q0 -61 -28 -115t-61 -85q-32 -31 -93 -82l-223 -191h244v92h155v-233zM473 1462v-737h113v-139h-400v139h111v598h-139v139h315
zM637 0h-205l660 1462h200z" />
    <glyph glyph-name="threequarters" unicode="&#xbe;" horiz-adv-x="1822" 
d="M311 1016v127h37q150 0 150 112q0 49 -34 79t-84 30t-83 -28t-35 -72h-164q0 104 85 171t198 67t195 -64q82 -63 81 -166q0 -55 -29 -106q-30 -50 -81 -74q74 -28 119 -90t45 -138q-1 -120 -101 -200t-232 -80t-232 72q-99 73 -105 198h178q10 -53 51 -89q40 -36 102 -36
t107 42q45 41 45 103t-48 102t-120 40h-45zM1444 360v318l-246 -318h246zM688 0h-205l660 1462h200zM1761 360v-127h-143v-94h111v-139h-396v139h111v94h-438v127l409 517h203v-517h143z" />
    <glyph glyph-name="questiondown" unicode="&#xbf;" horiz-adv-x="1146" 
d="M707 682q-1 -119 -51 -203q-50 -85 -122 -151t-85 -78q-12 -12 -48 -55t-36 -124t62 -146q63 -65 157 -65t155 68q61 66 64 166h262q4 -209 -138 -354q-143 -146 -345 -146t-344 142t-144 326q0 186 112 291q48 46 98 88q124 104 145 241h258zM449 805v289h258v-289h-258
z" />
    <glyph glyph-name="Agrave" unicode="&#xc0;" horiz-adv-x="1642" 
d="M1100 1780l-84 -183l-565 256l100 222zM999 639l-184 502h-2l-186 -502h372zM993 0v205h162l-86 219h-514l-84 -219h158v-205h-596v233h155l426 996h-161v233h489l512 -1229h156v-233h-617z" />
    <glyph glyph-name="Aacute" unicode="&#xc1;" horiz-adv-x="1642" 
d="M537 1597l-86 179l542 307l109 -219zM999 639l-184 502h-2l-186 -502h372zM993 0v205h162l-86 219h-514l-84 -219h158v-205h-596v233h155l426 996h-161v233h489l512 -1229h156v-233h-617z" />
    <glyph glyph-name="Acircumflex" unicode="&#xc2;" horiz-adv-x="1642" 
d="M1229 1661h-283l-158 154l-157 -154h-283l354 344h172zM999 639l-184 502h-2l-186 -502h372zM993 0v205h162l-86 219h-514l-84 -219h158v-205h-596v233h155l426 996h-161v233h489l512 -1229h156v-233h-617z" />
    <glyph glyph-name="Atilde" unicode="&#xc3;" horiz-adv-x="1642" 
d="M946 1665q-59 0 -153 31t-134 30q-72 0 -137 -59l-131 184q94 76 207 76q57 0 152 -29q88 -31 147 -30q97 0 158 55l121 -166q-104 -92 -230 -92zM999 639l-184 502h-2l-186 -502h372zM993 0v205h162l-86 219h-514l-84 -219h158v-205h-596v233h155l426 996h-161v233h489
l512 -1229h156v-233h-617z" />
    <glyph glyph-name="Adieresis" unicode="&#xc4;" horiz-adv-x="1642" 
d="M1092 1831v-264h-250v264h250zM711 1831v-264h-250v264h250zM999 639l-184 502h-2l-186 -502h372zM993 0v205h162l-86 219h-514l-84 -219h158v-205h-596v233h155l426 996h-161v233h489l512 -1229h156v-233h-617z" />
    <glyph glyph-name="Aring" unicode="&#xc5;" horiz-adv-x="1642" 
d="M698 1832q0 -40 29 -68t69 -27q40 -1 68 29t27 70q0 40 -29 68q-28 28 -68 28t-68 -30t-28 -70zM796 1593q-99 0 -170 71t-71 171t72 170t170 70t168 -72q69 -72 69 -170t-70 -169t-168 -71zM999 639l-184 502h-2l-186 -502h372zM993 0v205h162l-86 219h-514l-84 -219
h158v-205h-596v233h155l426 996h-161v233h489l512 -1229h156v-233h-617z" />
    <glyph glyph-name="AE" unicode="&#xc6;" horiz-adv-x="2056" 
d="M1051 635v475h-2l-306 -475h308zM893 0v197h158v233h-433l-153 -233h160v-197h-592v233h162l679 996h-153v233h1257v-440h-278v192h-371v-368h428v-211h-428v-389h371v196h278v-442h-1085z" />
    <glyph glyph-name="Ccedilla" unicode="&#xc7;" horiz-adv-x="1505" 
d="M1407 1001h-266q-59 103 -171 163t-233 61q-207 -1 -343 -139t-136 -340t139 -344t336 -142q127 0 236 58t176 163h301q-68 -211 -251 -350t-407 -156l-47 -116l27 2q82 -1 138 -61t56 -152t-65 -157q-66 -65 -162 -65t-158 61q-62 60 -69 151h151q18 -61 74 -62
q33 0 55 22t21 54q0 32 -22 56q-23 24 -59 24t-64 -33l-123 51l90 230q-254 39 -432 217q-221 225 -221 540t218 539q220 224 514 225q294 0 468 -180v147h229v-467z" />
    <glyph glyph-name="Egrave" unicode="&#xc8;" horiz-adv-x="1224" 
d="M936 1780l-84 -183l-565 256l100 222zM63 0v233h160v996h-160v233h1084v-440h-279v190h-366v-364h426v-217h-426v-387h366v198h279v-442h-1084z" />
    <glyph glyph-name="Eacute" unicode="&#xc9;" horiz-adv-x="1224" 
d="M373 1597l-86 179l542 307l109 -219zM63 0v233h160v996h-160v233h1084v-440h-279v190h-366v-364h426v-217h-426v-387h366v198h279v-442h-1084z" />
    <glyph glyph-name="Ecircumflex" unicode="&#xca;" horiz-adv-x="1224" 
d="M1044 1661h-282l-158 154l-158 -154h-282l354 344h172zM63 0v233h160v996h-160v233h1084v-440h-279v190h-366v-364h426v-217h-426v-387h366v198h279v-442h-1084z" />
    <glyph glyph-name="Edieresis" unicode="&#xcb;" horiz-adv-x="1224" 
d="M547 1831v-264h-250v264h250zM928 1831v-264h-250v264h250zM63 0v233h160v996h-160v233h1084v-440h-279v190h-366v-364h426v-217h-426v-387h366v198h279v-442h-1084z" />
    <glyph glyph-name="Igrave" unicode="&#xcc;" horiz-adv-x="733" 
d="M690 1780l-84 -183l-565 256l100 222zM502 1229v-996h157v-233h-596v233h160v996h-160v233h596v-233h-157z" />
    <glyph glyph-name="Iacute" unicode="&#xcd;" horiz-adv-x="733" 
d="M127 1597l-86 179l543 307l108 -219zM502 1229v-996h157v-233h-596v233h160v996h-160v233h596v-233h-157z" />
    <glyph glyph-name="Icircumflex" unicode="&#xce;" horiz-adv-x="733" 
d="M819 1661h-282l-158 154l-158 -154h-282l354 344h172zM502 1229v-996h157v-233h-596v233h160v996h-160v233h596v-233h-157z" />
    <glyph glyph-name="Idieresis" unicode="&#xcf;" horiz-adv-x="733" 
d="M301 1831v-264h-250v264h250zM682 1831v-264h-250v264h250zM502 1229v-996h157v-233h-596v233h160v996h-160v233h596v-233h-157z" />
    <glyph glyph-name="Eth" unicode="&#xd0;" horiz-adv-x="1452" 
d="M63 0v233h160v398h-160v217h160v381h-160v233h695q162 0 282 -43t228 -149q207 -210 207 -526t-191 -530t-530 -214h-691zM780 848v-217h-278v-379h219q119 0 204 27t152 102q119 137 119 359t-127 358q-71 72 -149 94t-195 22h-223v-366h278z" />
    <glyph glyph-name="Ntilde" unicode="&#xd1;" horiz-adv-x="1630" 
d="M993 1665q-59 0 -153 31t-133 30q-72 0 -138 -59l-131 184q94 76 207 76q57 0 152 -29q88 -31 147 -30q97 0 158 55l121 -166q-104 -92 -230 -92zM1434 1229v-1229h-260l-689 963v-730h160v-233h-596v233h158v996h-158v233h410l696 -979v746h-160v233h596v-233h-157z" />
    <glyph glyph-name="Ograve" unicode="&#xd2;" horiz-adv-x="1488" 
d="M1059 1780l-84 -183l-565 256l100 222zM744 248q202 0 341 144t139 345t-140 342t-338 141t-340 -140t-142 -343t139 -346t341 -143zM1511 738q-1 -317 -225 -543t-542 -226q-318 -1 -542 223t-224 542t224 542q226 223 544 223t541 -222q224 -222 224 -539z" />
    <glyph glyph-name="Oacute" unicode="&#xd3;" horiz-adv-x="1488" 
d="M496 1597l-86 179l542 307l109 -219zM744 248q202 0 341 144t139 345t-140 342t-338 141t-340 -140t-142 -343t139 -346t341 -143zM1511 738q-1 -317 -225 -543t-542 -226q-318 -1 -542 223t-224 542t224 542q226 223 544 223t541 -222q224 -222 224 -539z" />
    <glyph glyph-name="Ocircumflex" unicode="&#xd4;" horiz-adv-x="1488" 
d="M1167 1661h-282l-158 154l-158 -154h-282l354 344h172zM744 248q202 0 341 144t139 345t-140 342t-338 141t-340 -140t-142 -343t139 -346t341 -143zM1511 738q-1 -317 -225 -543t-542 -226q-318 -1 -542 223t-224 542t224 542q226 223 544 223t541 -222
q224 -222 224 -539z" />
    <glyph glyph-name="Otilde" unicode="&#xd5;" horiz-adv-x="1488" 
d="M905 1665q-59 0 -153 31t-134 30q-72 0 -137 -59l-131 184q94 76 207 76q57 0 152 -29q88 -31 147 -30q97 0 158 55l121 -166q-104 -92 -230 -92zM744 248q202 0 341 144t139 345t-140 342t-338 141t-340 -140t-142 -343t139 -346t341 -143zM1511 738q-1 -317 -225 -543
t-542 -226q-318 -1 -542 223t-224 542t224 542q226 223 544 223t541 -222q224 -222 224 -539z" />
    <glyph glyph-name="Odieresis" unicode="&#xd6;" horiz-adv-x="1488" 
d="M670 1831v-264h-250v264h250zM1051 1831v-264h-250v264h250zM744 248q202 0 341 144t139 345t-140 342t-338 141t-340 -140t-142 -343t139 -346t341 -143zM1511 738q-1 -317 -225 -543t-542 -226q-318 -1 -542 223t-224 542t224 542q226 223 544 223t541 -222
q224 -222 224 -539z" />
    <glyph glyph-name="multiply" unicode="&#xd7;" 
d="M207 377l356 356l-356 357l133 133l356 -357l357 357l133 -133l-357 -357l357 -356l-133 -133l-357 356l-356 -356z" />
    <glyph glyph-name="Oslash" unicode="&#xd8;" horiz-adv-x="1519" 
d="M391 436l590 725q-133 63 -229 64q-197 1 -334 -147t-137 -347q-1 -145 110 -295zM760 248q203 0 341 141t138 344q-1 91 -25 157t-81 146l-594 -729q133 -59 221 -59zM-2 740q0 314 224 538q224 223 544 223q180 0 364 -98l29 -17l146 179l155 -123l-145 -178
q207 -226 207 -540t-228 -534t-546 -219q-180 0 -322 72l-72 37l-147 -184l-154 122l152 187q-207 221 -207 535z" />
    <glyph glyph-name="Ugrave" unicode="&#xd9;" horiz-adv-x="1435" 
d="M1032 1780l-84 -183l-565 256l100 222zM827 1462h570v-233h-158v-725q0 -125 -29 -215t-104 -170q-141 -147 -384 -147t-380 134q-84 82 -115 178t-30 228v717h-158v233h569v-233h-133v-688q0 -141 43 -205q68 -102 194 -102q247 -1 249 307v688h-134v233z" />
    <glyph glyph-name="Uacute" unicode="&#xda;" horiz-adv-x="1435" 
d="M469 1597l-86 179l543 307l108 -219zM827 1462h570v-233h-158v-725q0 -125 -29 -215t-104 -170q-141 -147 -384 -147t-380 134q-84 82 -115 178t-30 228v717h-158v233h569v-233h-133v-688q0 -141 43 -205q68 -102 194 -102q247 -1 249 307v688h-134v233z" />
    <glyph glyph-name="Ucircumflex" unicode="&#xdb;" horiz-adv-x="1435" 
d="M1161 1661h-282l-158 154l-158 -154h-282l354 344h172zM827 1462h570v-233h-158v-725q0 -125 -29 -215t-104 -170q-141 -147 -384 -147t-380 134q-84 82 -115 178t-30 228v717h-158v233h569v-233h-133v-688q0 -141 43 -205q68 -102 194 -102q247 -1 249 307v688h-134v233
z" />
    <glyph glyph-name="Udieresis" unicode="&#xdc;" horiz-adv-x="1435" 
d="M664 1831v-264h-250v264h250zM1044 1831v-264h-249v264h249zM827 1462h570v-233h-158v-725q0 -125 -29 -215t-104 -170q-141 -147 -384 -147t-380 134q-84 82 -115 178t-30 228v717h-158v233h569v-233h-133v-688q0 -141 43 -205q68 -102 194 -102q247 -1 249 307v688
h-134v233z" />
    <glyph glyph-name="Yacute" unicode="&#xdd;" horiz-adv-x="1409" 
d="M475 1597l-86 179l543 307l108 -219zM846 233h160v-233h-596v233h157v277l-387 719h-147v233h565v-233h-135l246 -484l243 484h-139v233h563v-233h-145l-385 -719v-277z" />
    <glyph glyph-name="Thorn" unicode="&#xde;" horiz-adv-x="1183" 
d="M502 547h166q136 0 202 38q66 37 66 149t-74 152t-207 40h-153v-379zM66 1229v233h596v-233h-160v-80h145q131 0 226 -16q95 -15 177 -59q166 -88 167 -341q1 -213 -139 -311t-376 -98h-200v-91h160v-233h-596v233h157v996h-157z" />
    <glyph glyph-name="germandbls" unicode="&#xdf;" horiz-adv-x="1226" 
d="M188 233v732q0 117 24 201t90 164q66 79 161 125q94 46 176 46q182 0 309 -120t127 -302q0 -94 -45 -172t-129 -112q145 -23 227 -131t82 -261q0 -193 -122 -315t-302 -121q-104 0 -208 39v234q78 -43 164 -43t153 62q66 62 66 155q1 121 -93 178t-221 57h-55v221h33
q86 0 141 54t55 137q0 84 -51 137t-137 53t-152 -92q-35 -51 -39 -102q-4 -50 -4 -103v-954h-393v233h143z" />
    <glyph glyph-name="agrave" unicode="&#xe0;" horiz-adv-x="1372" 
d="M981 1411l-84 -182l-565 256l100 221zM594 215q137 0 233 98q97 99 97 237t-98 233t-234 95t-232 -98q-96 -100 -96 -236t96 -233q97 -96 234 -96zM920 0v147q-118 -176 -352 -176t-398 168t-164 405q0 238 168 408t398 170t348 -184v156h391v-234h-137v-627h137v-233
h-391z" />
    <glyph glyph-name="aacute" unicode="&#xe1;" horiz-adv-x="1372" 
d="M418 1229l-86 178l542 307l109 -219zM594 215q137 0 233 98q97 99 97 237t-98 233t-234 95t-232 -98q-96 -100 -96 -236t96 -233q97 -96 234 -96zM920 0v147q-118 -176 -352 -176t-398 168t-164 405q0 238 168 408t398 170t348 -184v156h391v-234h-137v-627h137v-233
h-391z" />
    <glyph glyph-name="acircumflex" unicode="&#xe2;" horiz-adv-x="1372" 
d="M1090 1272h-283l-158 153l-157 -153h-283l354 344h172zM594 215q137 0 233 98q97 99 97 237t-98 233t-234 95t-232 -98q-96 -100 -96 -236t96 -233q97 -96 234 -96zM920 0v147q-118 -176 -352 -176t-398 168t-164 405q0 238 168 408t398 170t348 -184v156h391v-234h-137
v-627h137v-233h-391z" />
    <glyph glyph-name="atilde" unicode="&#xe3;" horiz-adv-x="1372" 
d="M520 1358q-72 0 -137 -60l-131 185q94 76 207 76q57 0 148 -30t169 -30t139 55l121 -165q-104 -92 -229 -93q-59 0 -153 31t-134 31zM594 215q137 0 233 98q97 99 97 237t-98 233t-234 95t-232 -98q-96 -100 -96 -236t96 -233q97 -96 234 -96zM920 0v147
q-118 -176 -352 -176t-398 168t-164 405q0 238 168 408t398 170t348 -184v156h391v-234h-137v-627h137v-233h-391z" />
    <glyph glyph-name="adieresis" unicode="&#xe4;" horiz-adv-x="1372" 
d="M571 1462v-264h-249v264h249zM952 1462v-264h-250v264h250zM594 215q137 0 233 98q97 99 97 237t-98 233t-234 95t-232 -98q-96 -100 -96 -236t96 -233q97 -96 234 -96zM920 0v147q-118 -176 -352 -176t-398 168t-164 405q0 238 168 408t398 170t348 -184v156h391v-234
h-137v-627h137v-233h-391z" />
    <glyph glyph-name="aring" unicode="&#xe5;" horiz-adv-x="1372" 
d="M613 1563q-39 0 -67 -30t-28 -70q0 -39 28 -67t69 -28q40 0 68 30t28 70t-29 67q-29 28 -69 28zM854 1464q0 -98 -70 -168t-169 -71q-99 1 -170 71t-71 170t72 170t170 70t168 -72t70 -170zM594 215q137 0 233 98q97 99 97 237t-98 233t-234 95t-232 -98
q-96 -100 -96 -236t96 -233q97 -96 234 -96zM920 0v147q-118 -176 -352 -176t-398 168t-164 405q0 238 168 408t398 170t348 -184v156h391v-234h-137v-627h137v-233h-391z" />
    <glyph glyph-name="ae" unicode="&#xe6;" horiz-adv-x="2095" 
d="M1501 893q-113 -1 -197 -65t-122 -175h641q-33 104 -121 172t-201 68zM595 215q144 0 245 98q100 97 100 239t-104 242t-238 99q-134 0 -238 -99q-104 -100 -104 -238t97 -240q98 -101 242 -101zM915 0v168q-51 -92 -137 -144t-190 -53q-242 0 -412 172
q-170 171 -170 407t167 406t388 170t354 -172v140h250v-154q127 186 355 186t394 -170q165 -170 165 -399q0 -94 -6 -94h-889q20 -109 112 -179t219 -69q127 0 234 113h289q-68 -162 -213 -259t-320 -98q-104 1 -195 53t-145 140v-164h-250z" />
    <glyph glyph-name="ccedilla" unicode="&#xe7;" horiz-adv-x="1189" 
d="M823 -352q1 -92 -65 -157t-162 -65t-159 61q-62 60 -68 151h151q18 -61 74 -62q32 0 54 22t22 54t-22 56t-58 24t-66 -33l-123 51l91 232q-209 33 -348 192q-138 160 -138 382t161 396t390 174q186 0 313 -137v105h215v-365h-233q-45 66 -117 108t-155 42
q-140 -1 -232 -97t-92 -235t96 -235t234 -95q82 0 154 41t108 111h278q-45 -156 -179 -265t-296 -127l-49 -118l27 2q82 -1 138 -61t56 -152z" />
    <glyph glyph-name="egrave" unicode="&#xe8;" horiz-adv-x="1155" 
d="M877 1411l-84 -182l-566 256l101 221zM244 645h663q-33 117 -127 188t-211 71t-209 -76q-92 -74 -116 -183zM6 545q0 241 164 411t405 170q113 0 222 -47t188 -129q154 -162 154 -409l-9 -88h-884q25 -113 118 -188t209 -75q175 1 265 132h260q-66 -158 -206 -254
t-310 -97q-240 0 -408 166t-168 408z" />
    <glyph glyph-name="eacute" unicode="&#xe9;" horiz-adv-x="1155" 
d="M334 1229l-86 178l543 307l108 -219zM244 645h663q-33 117 -127 188t-211 71t-209 -76q-92 -74 -116 -183zM6 545q0 241 164 411t405 170q113 0 222 -47t188 -129q154 -162 154 -409l-9 -88h-884q25 -113 118 -188t209 -75q175 1 265 132h260q-66 -158 -206 -254
t-310 -97q-240 0 -408 166t-168 408z" />
    <glyph glyph-name="ecircumflex" unicode="&#xea;" horiz-adv-x="1155" 
d="M1006 1272h-283l-158 153l-157 -153h-283l354 344h172zM244 645h663q-33 117 -127 188t-211 71t-209 -76q-92 -74 -116 -183zM6 545q0 241 164 411t405 170q113 0 222 -47t188 -129q154 -162 154 -409l-9 -88h-884q25 -113 118 -188t209 -75q175 1 265 132h260
q-66 -158 -206 -254t-310 -97q-240 0 -408 166t-168 408z" />
    <glyph glyph-name="edieresis" unicode="&#xeb;" horiz-adv-x="1155" 
d="M487 1462v-264h-249v264h249zM868 1462v-264h-250v264h250zM244 645h663q-33 117 -127 188t-211 71t-209 -76q-92 -74 -116 -183zM6 545q0 241 164 411t405 170q113 0 222 -47t188 -129q154 -162 154 -409l-9 -88h-884q25 -113 118 -188t209 -75q175 1 265 132h260
q-66 -158 -206 -254t-310 -97q-240 0 -408 166t-168 408z" />
    <glyph glyph-name="igrave" unicode="&#xec;" horiz-adv-x="655" 
d="M651 1411l-84 -182l-565 256l100 221zM453 1094v-861h141v-233h-535v233h144v627h-142v234h392z" />
    <glyph glyph-name="iacute" unicode="&#xed;" horiz-adv-x="655" 
d="M88 1229l-86 178l543 307l108 -219zM453 1094v-861h141v-233h-535v233h144v627h-142v234h392z" />
    <glyph glyph-name="icircumflex" unicode="&#xee;" horiz-adv-x="655" 
d="M760 1272h-283l-158 153l-157 -153h-283l354 344h173zM453 1094v-861h141v-233h-535v233h144v627h-142v234h392z" />
    <glyph glyph-name="idieresis" unicode="&#xef;" horiz-adv-x="655" 
d="M262 1462v-264h-250v264h250zM643 1462v-264h-250v264h250zM453 1094v-861h141v-233h-535v233h144v627h-142v234h392z" />
    <glyph glyph-name="eth" unicode="&#xf0;" horiz-adv-x="1189" 
d="M578 217q137 0 233 96q96 97 96 233t-94 235t-229 99q-136 0 -234 -96t-98 -232t94 -236q95 -99 232 -99zM1153 553q0 -240 -168 -411q-169 -171 -407 -171t-405 171t-167 410q0 238 169 406t409 168q49 0 88 -8q-56 51 -113 90l-295 -88l-168 109l281 86q-98 47 -207 80
l293 80q82 -25 178 -78l254 78l168 -117l-258 -76q348 -289 348 -729z" />
    <glyph glyph-name="ntilde" unicode="&#xf1;" horiz-adv-x="1359" 
d="M565 1358q-72 0 -137 -60l-131 185q94 76 207 76q57 0 148 -30q92 -30 170 -30t139 55l120 -165q-104 -92 -229 -93q-60 0 -154 31t-133 31zM203 233v627h-142v234h392v-156q98 180 323 180q190 0 316 -135q74 -81 88 -202q4 -42 4 -119v-429h141v-233h-532v233h141v355
q0 137 -43 196q-68 88 -196 88t-195 -92q-47 -61 -47 -229v-318h141v-233h-533v233h142z" />
    <glyph glyph-name="ograve" unicode="&#xf2;" horiz-adv-x="1169" 
d="M899 1411l-84 -182l-565 256l100 221zM578 217q137 0 233 96q96 97 96 233t-94 235t-229 99q-136 0 -234 -96t-98 -232t94 -236q95 -99 232 -99zM6 552q0 238 169 406t407 168t404 -169t167 -407t-167 -408q-168 -171 -407 -171t-406 171t-167 410z" />
    <glyph glyph-name="oacute" unicode="&#xf3;" horiz-adv-x="1169" 
d="M336 1229l-86 178l543 307l108 -219zM578 217q137 0 233 96q96 97 96 233t-94 235t-229 99q-136 0 -234 -96t-98 -232t94 -236q95 -99 232 -99zM6 552q0 238 169 406t407 168t404 -169t167 -407t-167 -408q-168 -171 -407 -171t-406 171t-167 410z" />
    <glyph glyph-name="ocircumflex" unicode="&#xf4;" horiz-adv-x="1169" 
d="M1028 1272h-283l-157 153l-158 -153h-283l355 344h172zM578 217q137 0 233 96q96 97 96 233t-94 235t-229 99q-136 0 -234 -96t-98 -232t94 -236q95 -99 232 -99zM6 552q0 238 169 406t407 168t404 -169t167 -407t-167 -408q-168 -171 -407 -171t-406 171t-167 410z" />
    <glyph glyph-name="otilde" unicode="&#xf5;" horiz-adv-x="1169" 
d="M459 1358q-72 0 -137 -60l-132 185q94 76 207 76q57 0 152 -29q88 -31 166 -31t139 55l121 -165q-104 -92 -230 -93q-59 0 -153 31t-133 31zM578 217q137 0 233 96q96 97 96 233t-94 235t-229 99q-136 0 -234 -96t-98 -232t94 -236q95 -99 232 -99zM6 552q0 238 169 406
t407 168t404 -169t167 -407t-167 -408q-168 -171 -407 -171t-406 171t-167 410z" />
    <glyph glyph-name="odieresis" unicode="&#xf6;" horiz-adv-x="1169" 
d="M489 1462v-264h-249v264h249zM870 1462v-264h-249v264h249zM578 217q137 0 233 96q96 97 96 233t-94 235t-229 99q-136 0 -234 -96t-98 -232t94 -236q95 -99 232 -99zM6 552q0 238 169 406t407 168t404 -169t167 -407t-167 -408q-168 -171 -407 -171t-406 171t-167 410z
" />
    <glyph glyph-name="divide" unicode="&#xf7;" 
d="M602 510h189v-223h-189v223zM602 1180h189v-224h-189v224zM176 639v188h1041v-188h-1041z" />
    <glyph glyph-name="oslash" unicode="&#xf8;" horiz-adv-x="1187" 
d="M586 885q-140 -1 -236 -97t-96 -223t78 -221l379 512q-76 29 -125 29zM588 213q143 0 240 95t98 239q0 102 -74 196l-375 -505q74 -25 111 -25zM6 545q0 241 172 411t416 170q154 0 268 -63l103 139l145 -110l-102 -136q164 -174 163 -389q1 -248 -165 -422t-414 -174
q-123 1 -273 62l-108 -146l-141 109l106 145l-14 15q-78 94 -103 147q-53 119 -53 242z" />
    <glyph glyph-name="ugrave" unicode="&#xf9;" horiz-adv-x="1316" 
d="M967 1411l-84 -182l-566 256l101 221zM1135 1094v-861h141v-233h-371v135q-53 -78 -142 -121t-188 -43q-186 0 -303 140q-96 113 -96 317v432h-141v234h391v-592q0 -143 43 -205q61 -94 180 -94t189 90q47 66 47 215v352h-142v234h392z" />
    <glyph glyph-name="uacute" unicode="&#xfa;" horiz-adv-x="1316" 
d="M403 1229l-86 178l543 307l109 -219zM1135 1094v-861h141v-233h-371v135q-53 -78 -142 -121t-188 -43q-186 0 -303 140q-96 113 -96 317v432h-141v234h391v-592q0 -143 43 -205q61 -94 180 -94t189 90q47 66 47 215v352h-142v234h392z" />
    <glyph glyph-name="ucircumflex" unicode="&#xfb;" horiz-adv-x="1316" 
d="M1075 1272h-282l-158 153l-158 -153h-282l354 344h172zM1135 1094v-861h141v-233h-371v135q-53 -78 -142 -121t-188 -43q-186 0 -303 140q-96 113 -96 317v432h-141v234h391v-592q0 -143 43 -205q61 -94 180 -94t189 90q47 66 47 215v352h-142v234h392z" />
    <glyph glyph-name="udieresis" unicode="&#xfc;" horiz-adv-x="1316" 
d="M578 1462v-264h-250v264h250zM958 1462v-264h-249v264h249zM1135 1094v-861h141v-233h-371v135q-53 -78 -142 -121t-188 -43q-186 0 -303 140q-96 113 -96 317v432h-141v234h391v-592q0 -143 43 -205q61 -94 180 -94t189 90q47 66 47 215v352h-142v234h392z" />
    <glyph glyph-name="yacute" unicode="&#xfd;" horiz-adv-x="1275" 
d="M391 1229l-86 178l543 307l108 -219zM827 -166v-233h-532v233h137l74 180l-332 846h-143v234h516v-234h-107l195 -534l207 534h-107v234h510v-234h-137l-424 -1026h143z" />
    <glyph glyph-name="thorn" unicode="&#xfe;" horiz-adv-x="1378" 
d="M773 215q136 0 234 96q97 95 97 231t-94 235t-232 99t-235 -96q-99 -96 -99 -234t96 -234t233 -97zM195 -166v1395h-140v233h391v-540q118 184 354 184t399 -165t163 -395t-160 -396t-392 -166t-364 170v-320h142v-233h-533v233h140z" />
    <glyph glyph-name="ydieresis" unicode="&#xff;" horiz-adv-x="1275" 
d="M565 1462v-264h-250v264h250zM946 1462v-264h-250v264h250zM827 -166v-233h-532v233h137l74 180l-332 846h-143v234h516v-234h-107l195 -534l207 534h-107v234h510v-234h-137l-424 -1026h143z" />
    <glyph glyph-name="dotlessi" unicode="&#x131;" horiz-adv-x="655" 
d="M453 1094v-861h141v-233h-535v233h144v627h-142v234h392z" />
    <glyph glyph-name="Lslash" unicode="&#x141;" horiz-adv-x="1206" 
d="M88 0v233h160v373l-185 -123v189l185 121v436h-160v233h596v-233h-158v-297l273 164v-181l-273 -172v-495h351v194h276v-442h-1065z" />
    <glyph glyph-name="lslash" unicode="&#x142;" horiz-adv-x="720" 
d="M625 0h-533v233h141v412l-176 -139v186l176 137v400h-133v233h383v-465l181 140v-191l-181 -139v-574h142v-233z" />
    <glyph glyph-name="OE" unicode="&#x152;" horiz-adv-x="2240" 
d="M276 733q0 -201 140 -342t335 -141q197 0 335 142t138 340t-135 345q-136 147 -336 147q-201 0 -339 -144q-138 -146 -138 -347zM1239 0v217q-169 -246 -487 -246q-318 1 -536 223t-218 538t221 542t529 227q308 0 491 -250v211h924v-432h-279v189h-368v-369h415v-219
h-415v-385h368v194h279v-440h-924z" />
    <glyph glyph-name="oe" unicode="&#x153;" horiz-adv-x="2107" 
d="M589 215q140 0 240 98q101 97 101 237t-102 237t-241 97q-141 0 -241 -98q-100 -100 -100 -237t101 -236q102 -98 242 -98zM1190 649h631q-41 111 -125 172t-194 61t-197 -66q-86 -67 -115 -167zM6 550q0 240 173 408t415 168q156 0 295 -82q88 -49 162 -157
q73 115 195 175t265 60q236 0 408 -166t172 -399l-8 -94h-899q26 -111 114 -179t205 -67q160 0 264 117h285q-68 -166 -215 -264t-309 -98q-324 -1 -477 233q-68 -113 -192 -173t-263 -61q-246 0 -418 169t-172 410z" />
    <glyph glyph-name="Scaron" unicode="&#x160;" horiz-adv-x="1083" 
d="M1006 1985l-357 -345h-186l-350 345h297l161 -154l152 154h283zM80 434h254q0 -94 59 -159t155 -65t157 55q61 54 61 157t-116 157q-48 22 -134 48q-195 55 -287 125q-159 119 -159 308t131 311t308 122t263 -113v82h213v-393h-250q-2 82 -55 136q-53 55 -136 55
q-82 0 -140 -50t-58 -143q0 -94 82 -136q58 -31 158 -61q215 -59 313 -133q145 -117 145 -311t-131 -325q-131 -130 -321 -130t-291 125v-96h-221v434z" />
    <glyph glyph-name="scaron" unicode="&#x161;" horiz-adv-x="1003" 
d="M969 1616l-357 -344h-186l-350 344h297l162 -154l151 154h283zM104 317h256q6 -75 54 -119t114 -44q68 0 113 38t45 92q0 55 -17 73t-23 25t-22 14q-15 7 -32 16t-31 12q-14 2 -37 8q-22 6 -60 15q-197 47 -280 127q-84 87 -84 225q0 139 109 228t271 89t239 -98v76h184
v-297h-241q-2 57 -42 93t-98 36t-99 -31q-42 -31 -42 -76t19 -78t98 -57q23 -6 79 -19q221 -51 307 -133q85 -83 85 -230t-115 -239q-116 -92 -286 -92t-273 119v-90h-191v317z" />
    <glyph glyph-name="Ydieresis" unicode="&#x178;" horiz-adv-x="1409" 
d="M629 1831v-264h-250v264h250zM1010 1831v-264h-250v264h250zM846 233h160v-233h-596v233h157v277l-387 719h-147v233h565v-233h-135l246 -484l243 484h-139v233h563v-233h-145l-385 -719v-277z" />
    <glyph glyph-name="Zcaron" unicode="&#x17d;" horiz-adv-x="1193" 
d="M1047 1985l-357 -345h-186l-350 345h297l161 -154l152 154h283zM1133 444v-444h-1063v219l696 1000h-414v-201h-248v444h998v-211l-701 -1007h476v200h256z" />
    <glyph glyph-name="zcaron" unicode="&#x17e;" horiz-adv-x="1017" 
d="M954 1616l-356 -344h-186l-351 344h297l162 -154l152 154h282zM88 1094h840v-226l-527 -635h336v121h219v-354h-893v201l555 659h-311v-129h-219v363z" />
    <glyph glyph-name="florin" unicode="&#x192;" horiz-adv-x="1228" 
d="M764 733l-119 -620q-39 -207 -157 -304t-343 -100l39 205q111 2 151 47t60 152l119 620h-143l43 217h141q21 148 37 201q41 137 106 211q131 137 385 137l-39 -203q-131 4 -174 -79q-28 -58 -43 -148q-14 -90 -22 -121h143l-41 -215h-143z" />
    <glyph glyph-name="circumflex" unicode="&#x2c6;" horiz-adv-x="1228" 
d="M1047 1292h-283l-158 154l-157 -154h-283l354 344h172z" />
    <glyph glyph-name="caron" unicode="&#x2c7;" horiz-adv-x="1228" 
d="M1059 1636l-357 -344h-186l-350 344h297l162 -153l151 153h283z" />
    <glyph glyph-name="uni02C9" unicode="&#x2c9;" horiz-adv-x="1105" 
d="M952 1505v-200h-786v200h786z" />
    <glyph glyph-name="breve" unicode="&#x2d8;" horiz-adv-x="1105" 
d="M170 1632h170q6 -72 75 -108t147 -35q78 0 149 36q70 36 75 107h168q2 -160 -112 -248t-279 -88t-279 88t-114 248z" />
    <glyph glyph-name="dotaccent" unicode="&#x2d9;" horiz-adv-x="573" 
d="M412 1462v-264h-250v264h250z" />
    <glyph glyph-name="ring" unicode="&#x2da;" horiz-adv-x="819" 
d="M311 1463q0 -39 29 -67t69 -28q39 0 67 30t28 70t-29 67q-29 28 -69 28t-67 -30q-28 -30 -28 -70zM409 1225q-99 1 -170 71t-71 170t72 170t170 70t168 -72t70 -170t-70 -169q-70 -70 -169 -70z" />
    <glyph glyph-name="ogonek" unicode="&#x2db;" horiz-adv-x="737" 
d="M510 -264q16 0 53 16v-151q-72 -23 -117 -23q-100 0 -157 62t-57 172t71 188h158q-57 -44 -57 -108t27 -110q28 -46 79 -46z" />
    <glyph glyph-name="tilde" unicode="&#x2dc;" horiz-adv-x="1105" 
d="M436 1358q-72 0 -137 -60l-131 185q94 76 207 76q57 0 148 -30t169 -30t139 55l121 -165q-104 -92 -229 -93q-59 0 -153 31t-134 31z" />
    <glyph glyph-name="hungarumlaut" unicode="&#x2dd;" horiz-adv-x="1024" 
d="M635 1206l-148 58l191 456l184 -67zM313 1206l-147 60l192 454l185 -67z" />
    <glyph glyph-name="uni03A9" unicode="&#x3a9;" horiz-adv-x="1552" 
d="M399 203v6q-115 104 -190 259q-76 155 -76 345q0 289 182 487t465 197q146 0 270 -59q124 -60 200 -156q162 -205 163 -457q0 -195 -78 -355t-190 -261v-6h299v-203h-555v150q117 76 193 232t77 379q0 222 -101 375q-102 152 -278 152t-284 -147t-107 -371
q0 -224 78 -388q78 -163 192 -232v-150h-555v203h295z" />
    <glyph glyph-name="uni03BC" unicode="&#x3bc;" horiz-adv-x="1351" 
d="M1155 1094v-861h141v-233h-370v135q-52 -78 -142 -121t-181 -43t-157 29v-399h-249v1259h-142v234h391v-592q0 -299 228 -299q41 0 85 19q45 19 73 47t51 85t22 133v373h-141v234h391z" />
    <glyph glyph-name="pi" unicode="&#x3c0;" horiz-adv-x="1308" 
d="M1083 893v-578q0 -205 29 -315h-244q-37 66 -37 301v592h-309q-8 -203 -47 -473t-92 -420h-244q53 178 92 443t43 450q-141 0 -213 -23l-30 166q94 70 342 70h884l-20 -213h-154z" />
    <glyph glyph-name="endash" unicode="&#x2013;" horiz-adv-x="1064" 
d="M1057 414h-1049v248h1049v-248z" />
    <glyph glyph-name="emdash" unicode="&#x2014;" horiz-adv-x="2088" 
d="M2081 414h-2073v248h2073v-248z" />
    <glyph glyph-name="quoteleft" unicode="&#x2018;" horiz-adv-x="442" 
d="M92 879v329q0 130 41 182t78 62t100 10h39v-139l-24 2q-39 0 -60 -21q-20 -22 -23 -44t-3 -64v-29h110v-288h-258z" />
    <glyph glyph-name="quoteright" unicode="&#x2019;" horiz-adv-x="444" 
d="M352 1462v-329q0 -129 -51 -191q-33 -41 -70 -52t-98 -11h-39v139l25 -2q39 0 59 22t24 44q4 24 3 65v27h-113v288h260z" />
    <glyph glyph-name="quotesinglbase" unicode="&#x201a;" horiz-adv-x="483" 
d="M371 289v-328q0 -133 -49 -192q-33 -41 -71 -53t-99 -11h-39v139h26q39 0 59 22t22 44q3 22 3 63v27h-110v289h258z" />
    <glyph glyph-name="quotedblleft" unicode="&#x201c;" horiz-adv-x="823" 
d="M92 879v329q0 84 14 124t42 74t66 45t99 11h39v-139l-26 2q-39 0 -59 -21q-19 -22 -22 -46t-3 -64v-27h110v-288h-260zM471 879v329q0 126 42 180t79 64t100 10h39v-139l-26 2q-39 0 -59 -21q-19 -22 -22 -44t-3 -64v-29h110v-288h-260z" />
    <glyph glyph-name="quotedblright" unicode="&#x201d;" horiz-adv-x="823" 
d="M352 1462v-329q0 -129 -51 -191q-33 -41 -70 -52t-98 -11h-39v139l25 -2q39 0 59 22t24 44q4 24 3 65v27h-113v288h260zM731 1462v-329q0 -129 -51 -191q-33 -41 -70 -52t-98 -11h-39v139l25 -2q39 0 59 22q19 22 23 44q4 24 4 65v27h-113v288h260z" />
    <glyph glyph-name="quotedblbase" unicode="&#x201e;" horiz-adv-x="862" 
d="M371 289v-330q0 -133 -41 -182t-78 -61t-98 -11h-39v139l24 -2q39 0 60 22q20 22 23 46t3 63v27h-112v289h258zM750 289v-328q0 -86 -14 -126q-14 -39 -41 -73q-29 -34 -65 -46t-98 -11h-38v139h24q40 0 60 22t23 44t3 63v27h-112v289h258z" />
    <glyph glyph-name="dagger" unicode="&#x2020;" horiz-adv-x="1228" 
d="M748 844v-1112h-269v1112h-393v194h393v424h269v-424h395v-194h-395z" />
    <glyph glyph-name="daggerdbl" unicode="&#x2021;" horiz-adv-x="1228" 
d="M748 870v-213h393v-194h-393v-731h-271v731h-389v194h389v213h-389v195h389v397h271v-397h393v-195h-393z" />
    <glyph glyph-name="bullet" unicode="&#x2022;" horiz-adv-x="1269" 
d="M961 1098v-731h-652v731h652z" />
    <glyph glyph-name="ellipsis" unicode="&#x2026;" horiz-adv-x="2088" 
d="M1855 289v-289h-258v289h258zM1174 289v-289h-259v289h259zM492 289v-289h-259v289h259z" />
    <glyph glyph-name="perthousand" unicode="&#x2030;" horiz-adv-x="2662" 
d="M688 0h-203l660 1462h201zM2198 494q-60 0 -106 -44t-46 -106t44 -108t107 -46q62 0 106 46t44 106t-44 106t-105 46zM2560 343q0 -151 -105 -259t-258 -107q-153 0 -259 108q-105 108 -105 258t107 256q108 105 256 105t256 -104q108 -106 108 -257zM616 1129
q0 63 -44 107t-106 44t-106 -43t-45 -107q1 -64 45 -107q44 -44 106 -44t106 44t44 106zM466 766q-153 0 -258 108q-106 108 -106 258t106 256t257 105q149 -1 257 -107t108 -257t-106 -257q-105 -106 -258 -106zM1217 344q0 -62 45 -108t107 -46q61 0 105 46t44 106
t-44 106t-106 46t-106 -44q-45 -44 -45 -106zM1006 343q0 149 106 255t256 106t258 -104q108 -106 107 -257t-107 -259t-258 -107q-152 0 -257 108t-105 258z" />
    <glyph glyph-name="guilsinglleft" unicode="&#x2039;" horiz-adv-x="450" 
d="M346 158l-252 293v194l252 291l12 -236l-131 -161l131 -160z" />
    <glyph glyph-name="guilsinglright" unicode="&#x203a;" horiz-adv-x="450" 
d="M104 158l-10 221l129 160l-129 161l10 236l254 -291v-194z" />
    <glyph glyph-name="fraction" unicode="&#x2044;" horiz-adv-x="1044" 
d="M297 0h-205l660 1462h200z" />
    <glyph glyph-name="Euro" unicode="&#x20ac;" horiz-adv-x="1228" 
d="M805 578h-375q33 -356 258 -357q213 0 246 260h235q-63 -510 -483 -510q-109 1 -213 53t-180 160q-104 150 -131 394h-142v116h134v49q0 39 2 60h-136v117h144q35 260 165 420t341 161q211 0 282 -180v147h189v-475h-236q-37 258 -225 258q-205 0 -248 -331h373v-117
h-381q-2 -20 -2 -62v-47h383v-116z" />
    <glyph glyph-name="afii61289" unicode="&#x2113;" horiz-adv-x="1122" 
d="M487 1094v-353q262 297 263 516q0 182 -123 183q-57 0 -99 -81t-41 -265zM246 1087q0 265 104 399t258 134t228 -103t73 -268q0 -334 -422 -739v-84q1 -119 57 -182t140 -64q153 0 274 195l103 -105q-150 -291 -434 -290q-176 0 -269 98q-92 98 -108 256q0 14 -2 22
q-18 -14 -56 -45t-55 -43l-65 135q172 143 174 146v538z" />
    <glyph glyph-name="trademark" unicode="&#x2122;" horiz-adv-x="1896" 
d="M737 1462v-116h-264v-717h-145v717h-267v116h676zM1794 1462v-833h-129v717l-289 -717h-78l-282 717v-717h-131v833h213l237 -588l250 588h209z" />
    <glyph glyph-name="Omega" unicode="&#x2126;" horiz-adv-x="1552" 
d="M399 203v6q-115 104 -190 259q-76 155 -76 345q0 289 182 487t465 197q146 0 270 -59q124 -60 200 -156q162 -205 163 -457q0 -195 -78 -355t-190 -261v-6h299v-203h-555v150q117 76 193 232t77 379q0 222 -101 375q-102 152 -278 152t-284 -147t-107 -371
q0 -224 78 -388q78 -163 192 -232v-150h-555v203h295z" />
    <glyph glyph-name="estimated" unicode="&#x212e;" horiz-adv-x="1886" 
d="M1479 770v418q0 31 -21 49q-221 217 -518 217t-516 -223q-20 -25 -21 -51v-410q0 -14 13 -14h1054q9 0 9 14zM1792 715h-1376q-12 0 -13 -8v-418q0 -20 19 -47q218 -226 534 -226t535 252h121q-117 -137 -293 -216t-379 -79q-350 -1 -599 223t-249 540t249 540t601 225
q352 0 601 -224t249 -542v-20z" />
    <glyph glyph-name="partialdiff" unicode="&#x2202;" horiz-adv-x="1251" 
d="M561 188h2q117 0 196 136t99 317q-20 66 -89 127t-171 61t-174 -106q-74 -105 -74 -239t58 -215t153 -81zM562 1661q234 0 400 -211t166 -600t-156 -629t-433 -239q-207 0 -322 152t-115 345q0 248 132 400t325 151q117 0 202 -58t118 -118h4v74q-1 218 -103 372
t-260 154t-280 -100l-74 184q162 123 396 123z" />
    <glyph glyph-name="Delta" unicode="&#x2206;" horiz-adv-x="1433" 
d="M336 203h747l-245 651q-16 54 -64 194t-59 187h-6q-9 -37 -53 -163t-60 -185zM78 0v150l495 1357h297l484 -1355v-152h-1276z" />
    <glyph glyph-name="product" unicode="&#x220f;" horiz-adv-x="1566" 
d="M1491 1247h-219v-1450h-248v1450h-485v-1450h-246v1450h-221v228h1419v-228z" />
    <glyph glyph-name="summation" unicode="&#x2211;" horiz-adv-x="1224" 
d="M1163 -205h-1093v162l522 678l-502 665v175h1038v-213h-702v-9l448 -577l-493 -641v-8h782v-232z" />
    <glyph glyph-name="minus" unicode="&#x2212;" 
d="M176 639v188h1041v-188h-1041z" />
    <glyph glyph-name="uni2215" unicode="&#x2215;" horiz-adv-x="204" 
d="M-121 0h-205l660 1462h201z" />
    <glyph glyph-name="uni2219" unicode="&#x2219;" horiz-adv-x="655" 
d="M457 879v-289h-258v289h258z" />
    <glyph glyph-name="radical" unicode="&#x221a;" horiz-adv-x="1292" 
d="M1288 1765l-477 -2064h-203l-319 934l-158 -62l-43 140l350 141l230 -694q32 -138 41 -174l2 -2q4 18 9 48l12 72l11 66l369 1595h176z" />
    <glyph glyph-name="infinity" unicode="&#x221e;" horiz-adv-x="1687" 
d="M1227 821h-4q-56 0 -111 -32q-56 -32 -150 -142q-30 -35 -36 -41q102 -125 167 -173t145 -48t131 67q52 68 52 156t-54 150t-140 63zM471 385h4q55 0 115 38t90 69q29 31 90 100q-134 180 -216 213q-42 16 -91 16q-89 0 -143 -63q-54 -62 -54 -156t58 -156t147 -61z
M1565 610v-2q-1 -162 -101 -261t-237 -99q-97 0 -187 55t-194 186q-96 -117 -186 -179t-216 -62t-224 99q-97 99 -97 254t99 255t249 100q111 0 201 -61t182 -176q160 183 239 210q80 27 148 27q139 0 231 -96t93 -250z" />
    <glyph glyph-name="integral" unicode="&#x222b;" horiz-adv-x="864" 
d="M193 -172q147 0 147 347q0 222 -15 562t-15 519t28 289q29 110 96 179q86 94 238 95q70 0 129 -25l-29 -172q-37 18 -76 18q-70 0 -106 -53q-59 -72 -60 -358q0 -166 16 -498t15 -522q0 -285 -80 -424q-78 -145 -262 -145q-94 0 -160 34l33 179q49 -25 101 -25z" />
    <glyph glyph-name="approxequal" unicode="&#x2248;" horiz-adv-x="1212" 
d="M819 260q-57 0 -107 20t-150 78q-100 60 -156 60t-96 -26t-60 -52t-55 -78l-93 84q49 94 131 154t173 59q91 0 167 -43q46 -23 59 -32q113 -78 181 -78q69 0 112 36q42 37 91 115l90 -82q-115 -215 -287 -215zM821 649q-96 0 -228 78q-133 78 -187 78q-89 0 -155 -76
q-22 -25 -56 -76l-93 82q49 97 130 155t173 58t185 -53q6 -4 23 -14q17 -9 23 -13t29 -17t29 -16t39 -20q39 -20 93 -20q54 -1 98 37t92 114l90 -82q-113 -215 -285 -215z" />
    <glyph glyph-name="notequal" unicode="&#x2260;" horiz-adv-x="1212" 
d="M1090 891v-148h-353l-129 -290h482v-146h-539l-107 -244l-114 50l86 194h-293v146h350l127 290h-477v148h532l107 237l115 -47l-84 -190h297z" />
    <glyph glyph-name="lessequal" unicode="&#x2264;" horiz-adv-x="1212" 
d="M1092 -20h-967v149h967v-149zM1083 209l-948 473v158l948 471v-170l-800 -377v-4l800 -381v-170z" />
    <glyph glyph-name="greaterequal" unicode="&#x2265;" horiz-adv-x="1212" 
d="M1087 -20h-960v149h960v-149zM137 1311l950 -473v-158l-948 -471v170l801 379v4l-803 379v170z" />
    <glyph glyph-name="lozenge" unicode="&#x25ca;" horiz-adv-x="1292" 
d="M942 729l-252 520q-27 66 -41 123h-6q-18 -68 -41 -123l-254 -508l256 -526q25 -66 37 -117h8q25 84 37 113zM1163 735l-424 -837h-198l-412 837l422 840h199z" />
    <glyph glyph-name="fi" unicode="&#xfb01;" horiz-adv-x="1146" 
d="M729 233v627h-283v-627h283zM979 1462v-264h-250v264h250zM979 233h141v-233h-1065v233h142v627h-142v234h142q-6 412 424 407v-219q-188 4 -175 -188h533v-861z" />
    <glyph glyph-name="fl" unicode="&#xfb02;" horiz-adv-x="1146" 
d="M446 860v-627h281v1049h-53q-125 0 -178 -34t-50 -154h144v-234h-144zM977 1501v-1268h141v-233h-1063v233h142v627h-142v234h142q2 223 111 315q110 92 337 92h332z" />
    </font>
</defs>
</svg>
