<?xml version="1.0" standalone="no"?>
<!DOCTYPE svg PUBLIC "-//W3C//DTD SVG 1.1//EN" "http://www.w3.org/Graphics/SVG/1.1/DTD/svg11.dtd" >
<svg xmlns="http://www.w3.org/2000/svg">
<metadata>
Created by FontPrep 20130207 at Tue Jan 21 12:15:43 2014
 By fireant
Font software Copyright 1992 Adobe Systems Incorporated. Typeface designs Copyright 2005, 2010 International Typeface Corporation. All rights reserved.
</metadata>
<defs>
<font id="fa8c60cb0d62dd92fa6b7d192bb55039" horiz-adv-x='1024' >
  <font-face 
    font-family="LubalinforIBM-ExtraLight"
    font-weight="300"
    font-stretch="normal"
    units-per-em="2048"
    panose-1="2 6 2 2 2 2 5 2 4 4"
    ascent="1462"
    descent="-586"
    x-height="1049"
    cap-height="1462"
    bbox="-250 -481 2447 1882"
    underline-thickness="102"
    underline-position="-102"
    unicode-range="U+0020-FB02"
  />
<missing-glyph horiz-adv-x="1064" 
d="M862 98l-330 496l-331 -496h661zM922 1178l-332 -496l332 -498v994zM143 1178v-992q82 125 246 371l84 125zM201 1266l331 -498l330 498h-661zM45 0v1362h973v-1362h-973z" />
    <glyph glyph-name=".notdef" horiz-adv-x="1064" 
d="M862 98l-330 496l-331 -496h661zM922 1178l-332 -496l332 -498v994zM143 1178v-992q82 125 246 371l84 125zM201 1266l331 -498l330 498h-661zM45 0v1362h973v-1362h-973z" />
    <glyph glyph-name=".null" horiz-adv-x="0" 
 />
    <glyph glyph-name="nonmarkingreturn" horiz-adv-x="681" 
 />
    <glyph glyph-name="space" unicode=" " horiz-adv-x="548" 
 />
    <glyph glyph-name="exclam" unicode="!" horiz-adv-x="552" 
d="M307 160v-160h-59v160h59zM307 1464v-1095h-59v1095h59z" />
    <glyph glyph-name="quotedbl" unicode="&#x22;" horiz-adv-x="700" 
d="M510 877h-51l-8 585h67zM242 877h-52l-8 585h68z" />
    <glyph glyph-name="numbersign" unicode="#" 
d="M750 592l55 311h-340l-55 -311h340zM801 539l-88 -539h-54l84 539h-342l-84 -539h-59l90 539h-237l8 53h235l54 311h-236l10 55h234l84 504h55l-84 -504h342l84 504h55l-84 -504h256l-8 -55h-258l-51 -311h256l-4 -53h-258z" />
    <glyph glyph-name="dollar" unicode="$" horiz-adv-x="989" 
d="M147 0h-55v369h58q61 -299 346 -299q170 0 264 95t94 241t-92 221t-284 117t-282 125t-90 233t98 252t257 114v222h61v-222q219 -14 289 -186v174h55v-328h-55q-23 135 -109 210t-224 75t-224 -91q-84 -91 -84 -225t92 -201t272 -106q180 -40 282 -128t102 -256
t-112 -278q-112 -112 -284 -120v-244h-61v244q-113 4 -193 60t-121 147v-215z" />
    <glyph glyph-name="percent" unicode="%" horiz-adv-x="1751" 
d="M141 1167v-295q0 -118 74 -184t170 -66t176 61q80 60 80 189v302q0 102 -63 177t-178 75t-187 -70q-72 -68 -72 -189zM92 866v303q0 94 35 161q35 66 89 96q92 50 173 53q127 0 215 -84t88 -215v-314q0 -84 -34 -146t-85 -93q-201 -123 -383 13q-98 74 -98 226zM1108 584
v-295q0 -117 74 -184t170 -67t176 61q80 60 80 190v301q0 102 -64 177t-178 75t-186 -68t-72 -190zM1059 283v303q0 94 35 160t89 97q94 52 173 52q127 0 215 -84t88 -215v-313q0 -85 -34 -147t-85 -93q-200 -121 -383 14q-98 74 -98 226zM1231 1464l-658 -1464h-59
l660 1464h57z" />
    <glyph glyph-name="ampersand" unicode="&#x26;" horiz-adv-x="1402" 
d="M807 1177q0 103 -71 179q-70 76 -188 76t-187 -77t-69 -179t101 -205l99 -105q170 74 242 141t73 170zM461 29q117 0 199 57t153 199l53 110l-389 404q-215 -83 -295 -181t-82 -237q2 -156 102 -254t259 -98zM1352 899v-55h-215l-197 -436l381 -390l-43 -41l-367 375
l-47 -92q-34 -61 -60 -100t-74 -88q-97 -99 -277 -99t-296 114t-116 300t133 300q106 90 262 155l-74 80q-70 78 -98 129q-29 51 -31 129q1 125 93 217t229 92t224 -90t87 -219t-83 -205t-251 -152l365 -372l201 448h254z" />
    <glyph glyph-name="quotesingle" unicode="'" horiz-adv-x="479" 
d="M266 877h-51l-8 585h67z" />
    <glyph glyph-name="parenleft" unicode="(" horiz-adv-x="882" 
d="M287 538q0 -298 145 -553t367 -393v-73q-168 106 -277 229q-139 162 -219 367t-80 424q0 311 159 586t417 425v-67q-221 -137 -367 -392t-145 -553z" />
    <glyph glyph-name="parenright" unicode=")" horiz-adv-x="882" 
d="M594 532q0 296 -144 553q-144 256 -366 394v71q168 -109 274 -229q299 -342 299 -789q-1 -311 -159 -587t-414 -426v67q222 138 366 394t144 552z" />
    <glyph glyph-name="asterisk" unicode="*" horiz-adv-x="1175" 
d="M471 1454h53l2 -307q83 25 287 96q1 -4 16 -49l-290 -94q48 -65 182 -254l-45 -31l-178 256q-52 -79 -183 -258l-47 33l191 254q-53 14 -162 50t-135 44q17 43 18 47l295 -94q-4 98 -4 307z" />
    <glyph glyph-name="plus" unicode="+" 
d="M1020 565h-424v-473h-55v473h-424v56h424v473h55v-473h424v-56z" />
    <glyph glyph-name="comma" unicode="," horiz-adv-x="589" 
d="M117 -207l194 367h60l-195 -367h-59z" />
    <glyph glyph-name="hyphen" unicode="-" horiz-adv-x="649" 
d="M61 592h527v-57h-527v57z" />
    <glyph glyph-name="period" unicode="." horiz-adv-x="589" 
d="M326 160v-160h-60v160h60z" />
    <glyph glyph-name="slash" unicode="/" horiz-adv-x="1064" 
d="M913 1464l-782 -1859h-65l782 1859h65z" />
    <glyph glyph-name="zero" unicode="0" 
d="M158 1020v-586q0 -188 122 -299t289 -110q131 0 258 85q68 44 111 128t43 196v596q0 164 -109 288t-294 124q-184 0 -302 -112t-118 -310zM98 434v580q0 119 39 211t93 141t144 89t189 40q199 0 337 -129t138 -336v-596q0 -106 -37 -191t-90 -134t-140 -93t-178 -46
q-93 -1 -169 23t-152 74t-125 145t-49 222z" />
    <glyph glyph-name="one" unicode="1" horiz-adv-x="780" 
d="M61 0v53h326v1358h-326v53h385v-1411h314v-53h-699z" />
    <glyph glyph-name="two" unicode="2" horiz-adv-x="1060" 
d="M72 0v53l628 652q188 190 197 356q2 169 -104 277q-105 108 -263 108t-266 -106t-110 -308h-60q4 231 136 349t309 118t299 -127t118 -321q-8 -103 -59 -193t-156 -194l-589 -611h751v277h53v-330h-884z" />
    <glyph glyph-name="three" unicode="3" horiz-adv-x="1058" 
d="M542 25q158 0 267 104q109 103 109 269t-112 274t-317 108h-77v54h77q166 0 256 91q91 91 91 217t-78 212t-206 86t-217 -77t-97 -202h-56q8 156 119 244t259 88t241 -101q94 -102 94 -230t-68 -220t-168 -129v-4q139 -37 229 -143t89 -246q0 -190 -121 -320t-324 -131
q-204 0 -326 130t-124 323h59q6 -193 125 -295q118 -102 276 -102z" />
    <glyph glyph-name="four" unicode="4" horiz-adv-x="1153" 
d="M807 428v965h-4l-692 -965h696zM616 0v53h191v322h-766v51l745 1038h80v-1036h236v-53h-236v-322h191v-53h-441z" />
    <glyph glyph-name="five" unicode="5" horiz-adv-x="1099" 
d="M946 1462v-53h-622l-95 -555q150 117 322 117q209 1 343 -143t134 -353t-146 -355t-326 -146t-331 118q-150 119 -174 338h60q23 -186 149 -294t291 -108q164 0 292 131q128 130 128 313t-120 314q-119 132 -313 132t-331 -170l-51 14l120 700h670z" />
    <glyph glyph-name="six" unicode="6" horiz-adv-x="1087" 
d="M121 476q0 -194 115 -321q115 -126 303 -126t308 129q120 128 120 324t-128 314t-295 118t-295 -122t-128 -316zM555 967q197 -1 334 -139t137 -348t-137 -358t-335 -148t-327 109q-162 142 -166 370q0 182 125 366l441 643h67l-389 -567l6 -2q106 74 244 74z" />
    <glyph glyph-name="seven" unicode="7" horiz-adv-x="917" 
d="M135 1409v-276h-53v329h836v-53l-654 -1409h-61l651 1409h-719z" />
    <glyph glyph-name="eight" unicode="8" horiz-adv-x="1048" 
d="M526 766q-166 0 -276 -106t-109 -260q0 -156 110 -264q109 -108 273 -108t274 106q110 105 110 259q0 153 -108 263t-274 110zM526 1438q-136 0 -221 -90q-86 -90 -86 -223q0 -132 89 -219t219 -87t218 90q89 90 89 217q0 128 -86 220t-222 92zM160 1126q0 154 107 259
q109 105 263 105t258 -104q104 -106 105 -260q-1 -104 -63 -194t-166 -135q135 -43 219 -151t84 -251q0 -176 -129 -299q-130 -123 -316 -123t-313 122t-127 287t87 269t218 146q-104 45 -166 134q-61 89 -61 195z" />
    <glyph glyph-name="nine" unicode="9" horiz-adv-x="1087" 
d="M967 1008q0 176 -115 302t-302 126t-308 -129t-121 -325t128 -314t278 -117q150 0 288 101q68 50 110 144t42 212zM1026 1001q0 -175 -125 -356l-442 -645h-68l391 569l-2 2q-113 -74 -245 -73q-197 0 -335 138t-138 347t138 357t345 149q121 0 217 -45t151 -118
q113 -150 113 -325z" />
    <glyph glyph-name="colon" unicode=":" horiz-adv-x="589" 
d="M326 1016v-160h-60v160h60zM326 160v-160h-60v160h60z" />
    <glyph glyph-name="semicolon" unicode=";" horiz-adv-x="589" 
d="M117 -207l194 367h60l-195 -367h-59zM324 1016v-160h-60v160h60z" />
    <glyph glyph-name="less" unicode="&#x3c;" 
d="M121 593l901 468v-70l-780 -393v-4l780 -399v-68zM121 593l-6 -3v6z" />
    <glyph glyph-name="equal" unicode="=" 
d="M1020 360h-901v56h901v-56zM1020 772h-901v55h901v-55z" />
    <glyph glyph-name="greater" unicode="&#x3e;" 
d="M1016 593l6 3v-6zM1016 593l-901 -468v70l780 393v6l-780 397v68z" />
    <glyph glyph-name="question" unicode="?" horiz-adv-x="1101" 
d="M586 160v-160h-58v160h58zM588 369h-60q0 113 41 187t146 157q211 164 211 356q0 162 -110 265q-110 104 -266 104t-270 -106q-116 -106 -120 -265h-60q8 186 138 309t318 123q187 0 308 -123t121 -307q0 -221 -242 -401q-91 -70 -123 -134t-32 -165z" />
    <glyph glyph-name="at" unicode="@" horiz-adv-x="1615" 
d="M785 352q137 0 225 112t88 262q0 148 -69 238t-205 91q-136 0 -233 -111t-97 -264t77 -241q78 -87 214 -87zM1165 369q150 0 266 137t115 338q0 268 -177 434t-477 166t-514 -215t-214 -525t194 -498q194 -189 504 -190q266 0 496 95l12 -39q-229 -100 -510 -101
q-342 0 -545 206q-203 205 -203 531t229 554q227 228 549 229q322 0 512 -178t189 -467q0 -203 -123 -362t-313 -158h-119l25 137q-111 -160 -295 -160q-142 1 -234 105t-92 277t118 295t276 122q114 0 194 -70t100 -184q0 6 10 55q9 49 17 99l12 75h179l-9 -41h-129
l-116 -667h73z" />
    <glyph glyph-name="A" unicode="A" horiz-adv-x="1669" 
d="M829 1407l-356 -846h715zM1217 0v53h194l-197 455h-765l-197 -455h201v-53h-453v53h188l582 1356h-254v53h354l605 -1409h194v-53h-452z" />
    <glyph glyph-name="B" unicode="B" horiz-adv-x="1196" 
d="M322 1409v-616h294q154 0 220 36q150 84 149 275q0 92 -44 162q-43 70 -117 106t-210 37h-292zM322 739v-686h350q193 0 297 85t106 251q0 227 -196 316q-84 35 -258 34h-299zM61 1409v53h553q164 0 258 -53q172 -96 172 -319t-202 -312v-4q139 -41 216 -139t76 -257
q-1 -158 -115 -268t-349 -110h-609v53h201v1356h-201z" />
    <glyph glyph-name="C" unicode="C" horiz-adv-x="1492" 
d="M1335 1466h54v-307h-52q-86 119 -228 197t-329 80q-296 0 -498 -202t-202 -503t203 -502t497 -200q297 0 509 218q36 35 63 72h67q-84 -141 -255 -243t-384 -103q-317 0 -538 216t-222 542q0 326 220 542t550 215t545 -239v217z" />
    <glyph glyph-name="D" unicode="D" horiz-adv-x="1445" 
d="M322 1409v-1356h303q348 -1 539 183q192 184 192 487t-188 495t-543 191h-303zM262 53v1356h-201v53h564q387 0 589 -205t201 -531q0 -326 -210 -526t-580 -200h-564v53h201z" />
    <glyph glyph-name="E" unicode="E" horiz-adv-x="1157" 
d="M1001 53v295h54v-348h-994v53h201v1356h-201v53h994v-348h-54v295h-679v-645h630v-53h-630v-658h679z" />
    <glyph glyph-name="F" unicode="F" horiz-adv-x="1105" 
d="M522 53v-53h-461v53h201v1356h-201v53h973v-348h-53v295h-659v-645h610v-53h-610v-658h200z" />
    <glyph glyph-name="G" unicode="G" horiz-adv-x="1626" 
d="M1370 1466h53v-317h-51q-217 287 -584 287q-296 0 -502 -202t-206 -503t203 -502t482 -201t459 159q179 159 222 378h-832v53h889v-618h-57v399q-90 -195 -257 -311t-409 -115q-317 0 -538 216t-222 542q0 326 224 542t544 216q168 1 326 -65t256 -185v227z" />
    <glyph glyph-name="H" unicode="H" horiz-adv-x="1460" 
d="M1399 1409h-201v-1356h201v-53h-461v53h201v658h-820v-658h203v-53h-461v53h199v1356h-199v53h461v-53h-203v-645h820v645h-201v53h461v-53z" />
    <glyph glyph-name="I" unicode="I" horiz-adv-x="583" 
d="M522 1409h-203v-1356h203v-53h-461v53h199v1356h-199v53h461v-53z" />
    <glyph glyph-name="J" unicode="J" horiz-adv-x="976" 
d="M956 1409h-202v-989q0 -152 -35 -242q-41 -82 -101 -129q-102 -76 -233 -76t-235 81t-130 225h66q18 -77 59 -133t108 -86t154 -30q86 1 158 51t101 125t28 214v989h-198v53h460v-53z" />
    <glyph glyph-name="K" unicode="K" horiz-adv-x="1325" 
d="M1305 1409h-187l-737 -680l737 -676h187v-53h-461v53h192l-717 656v-656h203v-53h-461v53h199v1356h-199v53h461v-53h-203v-664l719 664h-194v53h461v-53z" />
    <glyph glyph-name="L" unicode="L" horiz-adv-x="999" 
d="M938 0h-877v53h197v1356h-197v53h461v-53h-205v-1356h568v295h53v-348z" />
    <glyph glyph-name="M" unicode="M" horiz-adv-x="2062" 
d="M2001 1409h-203v-1356h203v-53h-461v53h199v1352h-4l-688 -1405h-35l-690 1405h-5v-1352h205v-53h-461v53h197v1356h-197v53h293l676 -1368l676 1368h295v-53z" />
    <glyph glyph-name="N" unicode="N" horiz-adv-x="1650" 
d="M1356 80v1329h-207v53h461v-53h-195v-1409h-76l-1017 1405h-5v-1352h205v-53h-461v53h197v1356h-197v53h287l1004 -1382h4z" />
    <glyph glyph-name="O" unicode="O" horiz-adv-x="1558" 
d="M80 731q0 -301 203 -502t497 -201t497 202q204 200 204 501t-204 503t-498 202q-295 0 -497 -202t-202 -503zM20 731q0 326 220 542t539 216t539 -216t220 -542t-220 -542t-538 -216t-538 216q-222 216 -222 542z" />
    <glyph glyph-name="P" unicode="P" horiz-adv-x="1155" 
d="M319 1409v-725h283q123 0 197 18t131 60t91 121t34 163t-34 163q-60 140 -221 182q-73 18 -198 18h-283zM61 1462h539q135 0 215 -18q185 -42 258 -208q41 -91 41 -189q0 -97 -41 -189q-74 -165 -259 -209q-81 -18 -214 -18h-281v-578h203v-53h-461v53h199v1356h-199v53z
" />
    <glyph glyph-name="Q" unicode="Q" horiz-adv-x="1671" 
d="M788 29q233 0 404 129q-213 154 -242 182q-233 154 -495 154q-134 -1 -310 -64q49 -102 121 -179q208 -222 522 -222zM1481 717q0 315 -204 517t-497 202q-292 0 -496 -202t-204 -503q0 -125 41 -244q193 59 342 60q286 0 528 -168q49 -35 248 -184q242 207 242 522z
M1608 260h53v-287q-238 16 -424 148q-207 -147 -451 -148q-340 -1 -553 223t-213 542t220 535q220 216 540 216t540 -216t220 -542t-254 -573q142 -98 322 -123v225z" />
    <glyph glyph-name="R" unicode="R" horiz-adv-x="1288" 
d="M61 1462h580q269 0 407 -119t138 -317t-130 -324t-345 -129h-19l371 -520h194v-53h-225l-450 627h110q203 -1 319 107q115 108 115 281t-118 283t-367 111h-324v-1356h205v-53h-461v53h197v1356h-197v53z" />
    <glyph glyph-name="S" unicode="S" horiz-adv-x="993" 
d="M92 354h51q53 -260 268 -313q48 -12 97 -12q145 0 255 98t109 250q0 76 -27 137q-28 61 -63 96t-97 65t-96 40t-95 26q-184 47 -263 103q-131 96 -134 266t114 273t285 104q94 0 177 -41t134 -123v139h53v-303h-51q-47 191 -173 248q-60 27 -144 27q-142 0 -238 -88
t-96 -222t82 -211q33 -31 96 -59t105 -41q41 -12 149 -42t170 -66q172 -109 172 -322q0 -174 -127 -292t-295 -118q-254 0 -365 222v-195h-53v354z" />
    <glyph glyph-name="T" unicode="T" horiz-adv-x="1079" 
d="M72 1462h936v-352h-54v299h-385v-1356h201v-53h-461v53h201v1356h-385v-299h-53v352z" />
    <glyph glyph-name="U" unicode="U" horiz-adv-x="1341" 
d="M1321 1409h-205v-895q2 -88 -5 -153t-49 -153t-122 -145q-122 -90 -272 -90t-273 90q-80 55 -122 145t-49 154t-5 152v895h-199v53h461v-53h-202v-895q0 -88 3 -131q8 -111 89 -221q47 -61 130 -97t169 -36t168 36q142 62 192 215q20 60 24 103q3 43 3 131v895h-197v53
h461v-53z" />
    <glyph glyph-name="V" unicode="V" horiz-adv-x="1656" 
d="M1647 1409h-199l-604 -1409h-41l-602 1409h-191v53h461v-53h-203l557 -1311l557 1311h-196v53h461v-53z" />
    <glyph glyph-name="W" unicode="W" horiz-adv-x="2095" 
d="M2085 1409h-201l-405 -1409h-76l-359 1307h-4l-354 -1307h-80l-401 1409h-195v53h461v-53h-203l377 -1327h4l373 1380h43l377 -1380h4l377 1327h-199v53h461v-53z" />
    <glyph glyph-name="X" unicode="X" horiz-adv-x="1466" 
d="M1407 1409h-199l-446 -668l465 -688h198v-53h-460v53h194l-430 637l-430 -637h203v-53h-461v53h192l463 688l-448 668h-193v53h461v-53h-197l410 -612l410 612h-193v53h461v-53z" />
    <glyph glyph-name="Y" unicode="Y" horiz-adv-x="1400" 
d="M1391 1409h-199l-463 -905v-451h203v-53h-461v53h199v451l-463 905h-197v53h461v-53h-199l428 -838l424 838h-194v53h461v-53z" />
    <glyph glyph-name="Z" unicode="Z" horiz-adv-x="1089" 
d="M96 1462h901l-817 -1409h785v299h53v-352h-936l819 1409h-751v-299h-54v352z" />
    <glyph glyph-name="bracketleft" unicode="[" horiz-adv-x="882" 
d="M436 1040v-1007q0 -307 264 -439v-71q-328 156 -327 510v1007q0 154 42 236q22 43 55 94q69 104 230 180v-69q-264 -133 -264 -441z" />
    <glyph glyph-name="backslash" unicode="\" horiz-adv-x="1064" 
d="M897 -393l-782 1857h65l783 -1857h-66z" />
    <glyph glyph-name="bracketright" unicode="]" horiz-adv-x="882" 
d="M446 33v1007q0 309 -266 441v69q330 -160 330 -510v-1007q0 -352 -330 -510v71q266 131 266 439z" />
    <glyph glyph-name="asciicircum" unicode="^" 
d="M1006 778h-68l-365 586h-6l-366 -586h-68l428 680h19z" />
    <glyph glyph-name="underscore" unicode="_" horiz-adv-x="1030" 
d="M1010 -248h-990v53h990v-53z" />
    <glyph glyph-name="grave" unicode="`" 
d="M334 1516l469 -273l-27 -47l-471 274z" />
    <glyph glyph-name="a" unicode="a" horiz-adv-x="1396" 
d="M566 27q226 0 364 145q139 145 139 355q0 211 -143 353q-144 142 -354 142t-353 -140t-142 -348t132 -357q131 -150 357 -150zM1063 0v262h-4q-70 -135 -197 -212t-291 -77q-247 0 -399 164t-152 388t153 387t398 163q177 0 311 -90t177 -203h4v267h272v-50h-217v-950
h217v-49h-272z" />
    <glyph glyph-name="b" unicode="b" horiz-adv-x="1386" 
d="M822 27q226 1 356 151q131 150 132 356q2 206 -142 348q-144 140 -354 140t-353 -142t-143 -352t138 -356q140 -145 366 -145zM51 1413v49h273v-680h4q61 125 185 208t302 85q247 0 399 -163t152 -387t-152 -388t-399 -164q-164 0 -291 77t-196 212h-4v-262h-273v49h217
v1364h-217z" />
    <glyph glyph-name="c" unicode="c" horiz-adv-x="1183" 
d="M1069 743h-53q-49 131 -165 206t-278 73q-201 -2 -354 -139q-63 -59 -103 -155t-40 -204q0 -217 145 -357t333 -139t311 89q124 88 165 213h62q-54 -162 -194 -258t-327 -99q-233 0 -392 154q-159 155 -159 393t157 396t394 159q301 0 445 -215v189h53v-306z" />
    <glyph glyph-name="d" unicode="d" horiz-adv-x="1366" 
d="M566 27q226 0 364 145q139 145 139 355q0 211 -143 353q-144 142 -354 142t-353 -140t-142 -348t132 -357q131 -150 357 -150zM846 1413v49h272v-1413h217v-49h-272v262h-4q-70 -135 -197 -212t-291 -77q-247 0 -399 164t-152 388t153 387t398 163q177 0 311 -90
t177 -203h4v631h-217z" />
    <glyph glyph-name="e" unicode="e" horiz-adv-x="1144" 
d="M80 569h987q-8 189 -158 325t-336 128q-197 0 -339 -128t-154 -325zM566 1075q226 0 387 -145t171 -381l-2 -31h-1044q2 -123 50 -221q48 -99 123 -155q156 -118 313 -116q156 1 277 73q120 73 181 204h61q-72 -162 -209 -247t-303 -83q-238 -1 -394 157
q-157 158 -157 393t160 393t386 159z" />
    <glyph glyph-name="f" unicode="f" horiz-adv-x="632" 
d="M72 0v49h217v948h-217v52h217v102q0 326 327 338v-53q-272 -8 -272 -279v-108h227v-52h-227v-948h227v-49h-499z" />
    <glyph glyph-name="g" unicode="g" horiz-adv-x="1372" 
d="M1075 527q0 211 -143 353t-355 142q-213 0 -357 -140t-143 -348t134 -358t359 -150t366 146q139 145 139 355zM1069 106v156h-6q-68 -135 -195 -212t-290 -77q-252 0 -405 164t-153 388t154 387t404 163q178 0 311 -90t176 -203h4v267h272v-50h-217v-882q0 -125 -41 -227
t-100 -161q-172 -175 -408 -175q-147 0 -290 84t-209 237h63q161 -272 445 -270q193 0 339 140t146 361z" />
    <glyph glyph-name="h" unicode="h" horiz-adv-x="1456" 
d="M41 1413v49h274v-616h4q47 109 168 170t254 59q203 0 328 -106q154 -127 154 -416v-504h213v-49h-488v49h219v504q0 254 -129 371q-108 98 -302 96t-308 -112t-113 -304v-555h213v-49h-487v49h219v1364h-219z" />
    <glyph glyph-name="i" unicode="i" horiz-adv-x="589" 
d="M344 1462v-178h-55v178h55zM72 999v50h272v-1000h215v-49h-487v49h217v950h-217z" />
    <glyph glyph-name="j" unicode="j" horiz-adv-x="395" 
d="M252 1462v-178h-55v178h55zM-20 999v50h272v-1037q0 -202 -34 -268q-49 -101 -124 -135q-49 -23 -114 -31v60q94 14 143 67t61 121t13 186v987h-217z" />
    <glyph glyph-name="k" unicode="k" horiz-adv-x="1206" 
d="M51 1413v49h273v-884l516 421h-203v50h487v-50h-213l-524 -428l567 -522h232v-49h-488v49h183l-557 512v-512h215v-49h-488v49h217v1364h-217z" />
    <glyph glyph-name="l" unicode="l" horiz-adv-x="569" 
d="M51 1413v49h273v-1413h215v-49h-488v49h217v1364h-217z" />
    <glyph glyph-name="m" unicode="m" horiz-adv-x="2093" 
d="M344 598v-549h215v-49h-487v49h217v950h-217v50h272v-187h4q71 137 189 179q95 34 159 34q199 0 310 -129q47 -51 69 -123h4q27 74 74 123q117 129 300 129t290 -106q121 -115 121 -381v-539h209v-49h-488v49h223v539q0 434 -352 434q-178 0 -270 -121q-50 -63 -66 -125
t-16 -188v-539h213v-49h-488v49h220v539q12 422 -353 434q-74 2 -144 -30t-110 -85q-98 -109 -98 -309z" />
    <glyph glyph-name="n" unicode="n" horiz-adv-x="1486" 
d="M72 999v50h272v-203h4q47 109 168 170t254 59q203 0 328 -106q154 -127 153 -416v-504h215v-49h-487v49h217v504q0 254 -129 371q-109 98 -303 96t-306 -112q-114 -110 -114 -304v-555h215v-49h-487v49h217v950h-217z" />
    <glyph glyph-name="o" unicode="o" horiz-adv-x="1144" 
d="M76 524q0 -213 141 -355t354 -142t356 142q142 142 142 355q0 214 -142 356q-141 142 -355 142t-355 -142t-141 -356zM20 524q0 236 158 394t394 158t394 -158t158 -394t-158 -394t-394 -157q-236 -1 -394 157t-158 394z" />
    <glyph glyph-name="p" unicode="p" horiz-adv-x="1386" 
d="M822 1022q-226 0 -365 -145t-139 -355t142 -353q144 -142 354 -142t353 140t143 347q0 208 -132 358q-130 150 -356 150zM51 999v50h273v-263h4q70 135 196 212q127 77 291 77q247 0 399 -164t152 -388t-153 -387t-398 -163q-178 0 -311 90t-176 203h-4v-639h215v-49
h-488v49h217v1372h-217z" />
    <glyph glyph-name="q" unicode="q" horiz-adv-x="1366" 
d="M1069 521q0 209 -139 355q-138 146 -364 146t-357 -151t-132 -357t142 -347q143 -140 353 -140t354 142q143 142 143 352zM844 -422v49h219v639h-4q-43 -113 -176 -203t-312 -90q-247 0 -399 163t-152 387t152 388t399 164q164 0 291 -77t197 -212h4v263h272v-50h-217
v-1372h213v-49h-487z" />
    <glyph glyph-name="r" unicode="r" horiz-adv-x="755" 
d="M72 999v50h272v-191h4q67 141 190 181q89 29 177 36v-55q-135 -4 -230 -72q-85 -78 -113 -166t-28 -215v-518h215v-49h-487v49h217v950h-217z" />
    <glyph glyph-name="s" unicode="s" horiz-adv-x="835" 
d="M657 799v12q-6 106 -76 159q-71 52 -179 52t-174 -62q-64 -62 -64 -151q0 -88 55 -135t216 -89t245 -109t84 -196t-94 -218t-240 -89q-203 0 -295 146v-119h-53v291h55q2 -121 87 -193t207 -72t200 72q78 70 78 173t-65 163q-64 60 -224 99q-160 41 -236 97t-76 177
t91 195q90 74 215 73q164 0 243 -112v86h54v-250h-54z" />
    <glyph glyph-name="t" unicode="t" horiz-adv-x="626" 
d="M231 1049v415h56v-415h268v-52h-268v-948h268v-49h-324v997h-231v52h231z" />
    <glyph glyph-name="u" unicode="u" horiz-adv-x="1447" 
d="M928 1049h272v-1000h217v-49h-272v211h-4q-47 -117 -165 -178t-257 -60q-203 0 -328 107q-154 127 -153 416v503h-218v50h273v-553q0 -252 129 -371q108 -98 302 -97q194 0 308 112t113 313v546h-217v50z" />
    <glyph glyph-name="v" unicode="v" horiz-adv-x="1331" 
d="M834 999v50h487v-50h-209l-412 -999h-71l-410 999h-209v50h488v-50h-222l390 -933l383 933h-215z" />
    <glyph glyph-name="w" unicode="w" horiz-adv-x="1867" 
d="M1370 999v50h488v-50h-211l-371 -999h-64l-280 795h-4l-277 -795h-63l-367 999h-211v50h488v-50h-215l335 -915h3l290 821h43l291 -821h4l334 915h-213z" />
    <glyph glyph-name="x" unicode="x" horiz-adv-x="1228" 
d="M51 0v49h211l318 477l-318 473h-211v50h488v-50h-207l280 -419l283 419h-205v50h488v-50h-215l-318 -473l318 -477h215v-49h-488v49h205l-283 424l-280 -424h207v-49h-488z" />
    <glyph glyph-name="y" unicode="y" horiz-adv-x="1329" 
d="M238 -422v49h213l163 375l-395 997h-209v50h488v-50h-217l368 -921l393 921h-211v50h488v-50h-213l-592 -1372h211v-49h-487z" />
    <glyph glyph-name="z" unicode="z" horiz-adv-x="929" 
d="M72 0v47l649 950h-569v-254h-54v306h695v-54l-652 -944h643v254h54v-305h-766z" />
    <glyph glyph-name="braceleft" unicode="{" horiz-adv-x="882" 
d="M700 -477h-129q-92 0 -128 59t-35 191v362q0 147 -34 235t-126 132v55q72 19 116 123t44 258v371q0 129 35 185q36 56 128 56h129v-51h-106q-78 0 -100 -44t-23 -183v-367q0 -113 -40 -223t-120 -152q72 -33 116 -133t44 -229v-363q0 -147 24 -189t99 -42h106v-51z" />
    <glyph glyph-name="bar" unicode="|" horiz-adv-x="419" 
d="M238 -481h-56v2048h56v-2048z" />
    <glyph glyph-name="braceright" unicode="}" horiz-adv-x="882" 
d="M180 -477v51h107q79 0 101 42t22 189v363q0 129 44 230t117 132q-80 43 -120 154q-41 111 -41 221v367q0 141 -23 184t-100 43h-107v51h131q92 0 127 -56t35 -185v-371q0 -154 44 -258t116 -123v-55q-92 -45 -126 -132t-34 -235v-362q0 -133 -36 -191t-126 -59h-131z" />
    <glyph glyph-name="asciitilde" unicode="~" 
d="M360 641q-123 0 -213 -137l-41 33q119 160 259 159q106 0 219 -74t192 -73q123 0 215 137l41 -31q-109 -160 -260 -159q-104 0 -216 72t-196 73z" />
    <glyph glyph-name="uni00A0" unicode="&#xa0;" horiz-adv-x="1097" 
 />
    <glyph glyph-name="exclamdown" unicode="&#xa1;" horiz-adv-x="552" 
d="M248 891v160h59v-160h-59zM248 -414v1137h59v-1137h-59z" />
    <glyph glyph-name="cent" unicode="&#xa2;" 
d="M973 928h-53q-102 186 -324 186q-172 0 -277 -110q-104 -111 -104 -268q0 -156 100 -272t279 -116q127 0 209 55t117 121h65q-35 -70 -99 -132t-186 -90q-37 -9 -71 -11v-213h-60v213q-197 12 -305 146t-108 292q0 222 176 355q98 75 237 87v189h60v-191
q193 -27 291 -153v145h51v-229q0 -4 2 -4z" />
    <glyph glyph-name="sterling" unicode="&#xa3;" 
d="M819 778v-53h-481v-4q76 -55 140 -153t65 -238q0 -140 -88 -277h180q125 0 186 22t113 68q104 111 104 250q0 51 -12 101h61q10 -47 11 -99q0 -174 -117 -291q-75 -64 -143 -84t-211 -20h-535v53h293q2 4 26 41t48 94q24 56 24 160q0 105 -56 195t-173 182h-221v53h170
q-80 100 -82 240q0 201 133 335t338 134q160 0 288 -95t171 -266h-62q-39 137 -147 223q-109 85 -250 85q-180 -4 -293 -117t-119 -299q4 -135 101 -240h538z" />
    <glyph glyph-name="currency" unicode="&#xa4;" horiz-adv-x="1255" 
d="M170 729q0 -188 135 -323q135 -136 323 -136t324 136q135 136 135 323t-135 323t-323 136t-324 -135q-135 -136 -135 -324zM119 728q0 196 129 341l-160 162l41 41l160 -162q145 129 339 129t339 -129l159 160l41 -41l-159 -160q131 -143 131 -339t-129 -341l157 -156
l-41 -40l-157 155q-145 -129 -341 -129t-341 129l-158 -158l-41 41l158 158q-127 143 -127 339z" />
    <glyph glyph-name="yen" unicode="&#xa5;" 
d="M1198 1409h-199l-266 -600h291v-51h-313l-95 -213h408v-51h-426v-441h203v-53h-461v53h199v441h-430v51h411l-94 213h-317v51h294l-266 600h-196v53h460v-53h-198l366 -842l363 842h-195v53h461v-53z" />
    <glyph glyph-name="brokenbar" unicode="&#xa6;" horiz-adv-x="419" 
d="M238 -481h-56v837h56v-837zM238 725h-56v842h56v-842z" />
    <glyph glyph-name="section" unicode="&#xa7;" horiz-adv-x="1175" 
d="M772 719l-391 186q-184 -88 -186 -270q4 -166 151 -238l447 -204q63 27 125 102q61 75 62 149t-17 117q-27 64 -119 119q-21 12 -72 39zM963 1159h-56q-14 154 -94 212q-80 59 -212 59t-214 -74t-84 -195q4 -113 65 -165t136 -87l297 -139q236 -113 235 -305
q0 -94 -51 -176t-137 -131q137 -96 137 -249t-111 -251t-266 -98t-240 48q-46 26 -94 63q-47 38 -74 108q-28 70 -28 160v63h55v-61q3 -164 107 -244t257 -79t244 78t95 212q-4 84 -48 142t-157 108l-385 178q-92 49 -131 94q-70 84 -70 190q0 222 201 324q-92 82 -92 224
t100 231q100 90 259 90t257 -87t99 -243z" />
    <glyph glyph-name="dieresis" unicode="&#xa8;" 
d="M717 1452v-229h-58v229h58zM479 1452v-229h-57v229h57z" />
    <glyph glyph-name="copyright" unicode="&#xa9;" horiz-adv-x="1624" 
d="M811 1434q-301 0 -501 -206t-200 -499t204 -497q202 -204 497 -204t497 204q202 202 202 497t-199 500t-500 205zM55 727q0 317 216 537t539 221q323 0 539 -219q216 -218 216 -536t-219 -535q-220 -217 -536 -217t-536 216t-219 533zM829 289q-182 0 -310 125t-128 313
t127 312t311 124t304 -119v107h51v-195h-45q-109 156 -310 156q-161 0 -273 -111t-112 -275t112 -276q112 -110 273 -110q197 0 320 164h57q-51 -88 -152 -152t-225 -63z" />
    <glyph glyph-name="ordfeminine" unicode="&#xaa;" horiz-adv-x="970" 
d="M127 1152q0 -122 84 -212t218 -90t219 87t85 208t-90 207t-212 86t-213 -82t-91 -204zM733 815v164h-4q-31 -76 -117 -133q-78 -47 -182 -47q-156 0 -257 103q-101 102 -101 244t103 242t247 101q144 0 233 -82q49 -47 74 -100h4v168h174v-48h-119v-565h119v-47h-174z
" />
    <glyph glyph-name="guillemotleft" unicode="&#xab;" horiz-adv-x="735" 
d="M338 547l221 381l37 -51l-190 -330l190 -330l-37 -51zM117 547l221 381l39 -51l-191 -330l191 -330l-39 -51z" />
    <glyph glyph-name="logicalnot" unicode="&#xac;" 
d="M1020 356h-55v443h-846v55h901v-498z" />
    <glyph glyph-name="uni00AD" unicode="&#xad;" horiz-adv-x="567" 
d="M20 592h527v-57h-527v57z" />
    <glyph glyph-name="registered" unicode="&#xae;" horiz-adv-x="1624" 
d="M811 1434q-301 0 -501 -206t-200 -499t204 -497q202 -204 497 -204t497 204q202 202 202 497t-199 500t-500 205zM55 727q0 317 216 537t539 221q323 0 539 -219q216 -218 216 -536t-219 -535q-220 -217 -536 -217t-536 216t-219 533zM1174 365v-52h-144l-270 377h82
q113 0 175 58t62 152q0 93 -65 154q-66 60 -201 60h-174v-749h117v-52h-283v52h113v749h-113v51h340q158 1 239 -69t81 -187t-74 -191t-199 -79q155 -212 199 -274h115z" />
    <glyph glyph-name="macron" unicode="&#xaf;" 
d="M922 1366v-59h-705v59h705z" />
    <glyph glyph-name="degree" unicode="&#xb0;" horiz-adv-x="831" 
d="M188 1120q0 -96 66 -162t162 -66t162 66t65 162q0 96 -65 162q-66 66 -162 66t-162 -66t-66 -162zM698 1120q0 -118 -82 -200t-200 -82t-201 82q-82 82 -82 200t82 201q82 82 201 82q118 0 200 -82t82 -201z" />
    <glyph glyph-name="plusminus" unicode="&#xb1;" 
d="M1020 643h-424v-430h-55v430h-424v55h424v430h55v-430h424v-55zM1020 0h-903v55h903v-55z" />
    <glyph glyph-name="twosuperior" unicode="&#xb2;" horiz-adv-x="749" 
d="M92 586v45l391 375q113 111 113 211t-54 156q-54 57 -154 57t-156 -66q-58 -66 -58 -176h-55q0 145 84 219q83 74 201 74t183 -76t64 -186q1 -70 -31 -126t-98 -122l-354 -336h442v168h47v-217h-565z" />
    <glyph glyph-name="threesuperior" unicode="&#xb3;" horiz-adv-x="733" 
d="M471 1075q170 -69 170 -255q0 -102 -77 -176q-78 -75 -192 -75t-196 72t-84 203h55q2 -117 71 -171q69 -55 160 -55t149 60q59 60 59 156q0 94 -64 154t-174 61h-59v49h59q94 0 144 49q49 49 49 116t-44 115t-118 49q-74 2 -124 -45t-54 -120h-56q4 94 73 155t164 61
q94 0 154 -62q60 -64 60 -152q0 -129 -125 -189z" />
    <glyph glyph-name="acute" unicode="&#xb4;" 
d="M338 1243l469 273l27 -46l-472 -274z" />
    <glyph glyph-name="mu" unicode="&#xb5;" horiz-adv-x="1529" 
d="M969 1049h272v-1000h217v-49h-272v211h-4q-47 -117 -165 -178t-257 -60q-209 0 -324 107q-66 59 -98 133h-4l2 -612h-57v1398h-218v50h273v-553q0 -252 129 -371q109 -98 303 -97q194 0 306 112q114 112 114 313v546h-217v50z" />
    <glyph glyph-name="paragraph" unicode="&#xb6;" horiz-adv-x="1150" 
d="M248 -250v55h246v873h-39q-188 0 -299 114t-111 277q0 109 50 197t141 143t272 55h485v-55h-127v-1604h246v-55h-305v1655h-254v-1655h-305z" />
    <glyph glyph-name="periodcentered" unicode="&#xb7;" horiz-adv-x="589" 
d="M326 586v-160h-60v160h60z" />
    <glyph glyph-name="cedilla" unicode="&#xb8;" 
d="M715 -250q0 -57 -38 -102t-106 -45q-125 0 -147 123h53q18 -70 94 -70q35 0 62 25t27 67t-26 69q-26 25 -70 25t-75 -49l-43 8l91 199h57l-51 -111l4 -2q12 6 26 7q66 0 104 -44t38 -100z" />
    <glyph glyph-name="onesuperior" unicode="&#xb9;" horiz-adv-x="591" 
d="M92 586v45h189v782h-189v49h244v-831h184v-45h-428z" />
    <glyph glyph-name="ordmasculine" unicode="&#xba;" horiz-adv-x="909" 
d="M164 1147q0 -125 84 -211t204 -86t206 84t90 211q-2 121 -84 207t-205 86t-209 -83t-86 -208zM109 1142q0 144 98 244t248 102q151 2 249 -100q98 -101 98 -248t-104 -244q-106 -97 -246 -97t-242 99q-101 100 -101 244z" />
    <glyph glyph-name="guillemotright" unicode="&#xbb;" horiz-adv-x="735" 
d="M176 928l223 -381l-223 -381l-37 51l191 330l-191 330zM399 928l219 -381l-219 -381l-41 51l191 330l-191 330z" />
    <glyph glyph-name="onequarter" unicode="&#xbc;" horiz-adv-x="1542" 
d="M92 586v45h189v782h-189v49h244v-831h184v-45h-428zM1114 1464l-653 -1464h-58l652 1464h59zM1249 268v537l-2 2l-383 -539h385zM1118 0v47h131v172h-450v41l440 619h66v-611h165v-49h-165v-172h125v-47h-312z" />
    <glyph glyph-name="onehalf" unicode="&#xbd;" horiz-adv-x="1599" 
d="M92 586v45h189v782h-189v49h244v-831h184v-45h-428zM928 0v45l391 375q113 111 113 211t-54 156q-54 57 -154 57q-98 0 -156 -66t-58 -176h-56q0 145 84 219t202 74t182 -76t65 -186q0 -70 -32 -126t-97 -122l-354 -336h442v168h47v-217h-565zM1112 1464l-653 -1464h-58
l652 1464h59z" />
    <glyph glyph-name="threequarters" unicode="&#xbe;" horiz-adv-x="1632" 
d="M471 1075q170 -69 170 -255q0 -102 -77 -176q-78 -75 -192 -75t-196 72t-84 203h55q2 -117 71 -171q69 -55 160 -55t149 60q59 60 59 156q0 94 -64 154t-174 61h-59v49h59q94 0 144 49q49 49 49 116t-44 115t-118 49q-74 2 -124 -45t-54 -120h-56q4 94 73 155t164 61
q94 0 154 -62q60 -64 60 -152q0 -129 -125 -189zM1339 268v537l-2 2l-383 -539h385zM1208 0v47h131v172h-450v41l440 619h66v-611h166v-49h-166v-172h125v-47h-312zM1192 1464l-653 -1464h-58l652 1464h59z" />
    <glyph glyph-name="questiondown" unicode="&#xbf;" horiz-adv-x="1101" 
d="M543 889v160h57v-160h-57zM541 721h59q-2 -86 -9 -134t-49 -129t-122 -157l-49 -49q-102 -102 -117 -139q-33 -80 -37 -142q0 -143 102 -246q101 -103 245 -103t258 87q114 88 120 264h59q-4 -113 -49 -197q-74 -137 -245 -193q-68 -22 -132 -21q-169 0 -293 116
t-124 297q0 116 80 214q43 54 68 81q26 26 92 90t100 140q35 76 39 116t4 105z" />
    <glyph glyph-name="Agrave" unicode="&#xc0;" horiz-adv-x="1669" 
d="M526 1882l469 -272l-26 -47l-471 274zM829 1407l-356 -846h715zM1217 0v53h194l-197 455h-765l-197 -455h201v-53h-453v53h188l582 1356h-254v53h354l605 -1409h194v-53h-452z" />
    <glyph glyph-name="Aacute" unicode="&#xc1;" horiz-adv-x="1669" 
d="M612 1610l469 272l27 -45l-471 -274zM829 1407l-356 -846h715zM1217 0v53h194l-197 455h-765l-197 -455h201v-53h-453v53h188l582 1356h-254v53h354l605 -1409h194v-53h-452z" />
    <glyph glyph-name="Acircumflex" unicode="&#xc2;" horiz-adv-x="1669" 
d="M803 1847l387 -219l-51 -29l-336 187l-338 -187l-49 29zM829 1407l-356 -846h715zM1217 0v53h194l-197 455h-765l-197 -455h201v-53h-453v53h188l582 1356h-254v53h354l605 -1409h194v-53h-452z" />
    <glyph glyph-name="Atilde" unicode="&#xc3;" horiz-adv-x="1669" 
d="M922 1714q92 0 174 64l37 -37q-90 -74 -170 -82q-13 -2 -61 -2t-120 33q-102 37 -141 36q-102 0 -180 -71l-37 33q97 92 221 92q53 0 137 -29q90 -37 140 -37zM829 1407l-356 -846h715zM1217 0v53h194l-197 455h-765l-197 -455h201v-53h-453v53h188l582 1356h-254v53h354
l605 -1409h194v-53h-452z" />
    <glyph glyph-name="Adieresis" unicode="&#xc4;" horiz-adv-x="1669" 
d="M971 1819v-230h-58v230h58zM733 1819v-230h-57v230h57zM829 1407l-356 -846h715zM1217 0v53h194l-197 455h-765l-197 -455h201v-53h-453v53h188l582 1356h-254v53h354l605 -1409h194v-53h-452z" />
    <glyph glyph-name="Aring" unicode="&#xc5;" horiz-adv-x="1669" 
d="M827 1802q-51 0 -88 -37t-37 -88t37 -88t88 -37t88 37t37 88t-37 88t-88 37zM828 1855q75 0 127 -53q53 -53 53 -128t-52 -127t-129 -52q-76 0 -128 52t-52 128t53 128t128 52zM829 1407l-356 -846h715zM1217 0v53h194l-197 455h-765l-197 -455h201v-53h-453v53h188
l582 1356h-254v53h354l605 -1409h194v-53h-452z" />
    <glyph glyph-name="AE" unicode="&#xc6;" horiz-adv-x="2099" 
d="M1204 561v846l-592 -846h592zM1944 53v295h53v-348h-993v53h200v455h-629l-317 -455h201v-53h-459v53h188l953 1356h-256v53h1112v-348h-53v295h-680v-645h630v-53h-630v-658h680z" />
    <glyph glyph-name="Ccedilla" unicode="&#xc7;" horiz-adv-x="1492" 
d="M20 740q0 316 220 533q220 216 550 215t545 -239v217h54v-307h-52q-86 119 -228 197t-329 80q-296 0 -498 -202t-202 -503t203 -502t497 -200q297 0 509 218q36 36 63 72h67q-84 -141 -255 -243t-384 -103h-10l-41 -84l4 -2q12 6 27 7q66 0 104 -44t37 -100
q0 -57 -38 -102t-105 -45q-125 0 -148 123h56q16 -70 92 -70q36 0 62 25t26 67t-26 69q-26 25 -70 25t-74 -49l-43 8l82 176q-297 23 -496 235t-199 528z" />
    <glyph glyph-name="Egrave" unicode="&#xc8;" horiz-adv-x="1157" 
d="M326 1882l469 -272l-27 -47l-471 274zM1001 53v295h54v-348h-994v53h201v1356h-201v53h994v-348h-54v295h-679v-645h630v-53h-630v-658h679z" />
    <glyph glyph-name="Eacute" unicode="&#xc9;" horiz-adv-x="1157" 
d="M371 1610l469 272l26 -45l-471 -274zM1001 53v295h54v-348h-994v53h201v1356h-201v53h994v-348h-54v295h-679v-645h630v-53h-630v-658h679z" />
    <glyph glyph-name="Ecircumflex" unicode="&#xca;" horiz-adv-x="1157" 
d="M582 1847l387 -219l-51 -29l-336 187l-338 -187l-49 29zM1001 53v295h54v-348h-994v53h201v1356h-201v53h994v-348h-54v295h-679v-645h630v-53h-630v-658h679z" />
    <glyph glyph-name="Edieresis" unicode="&#xcb;" horiz-adv-x="1157" 
d="M750 1819v-230h-58v230h58zM512 1819v-230h-57v230h57zM1001 53v295h54v-348h-994v53h201v1356h-201v53h994v-348h-54v295h-679v-645h630v-53h-630v-658h679z" />
    <glyph glyph-name="Igrave" unicode="&#xcc;" horiz-adv-x="583" 
d="M76 1882l469 -272l-27 -47l-471 274zM522 1409h-203v-1356h203v-53h-461v53h199v1356h-199v53h461v-53z" />
    <glyph glyph-name="Iacute" unicode="&#xcd;" horiz-adv-x="583" 
d="M33 1610l469 272l26 -45l-471 -274zM522 1409h-203v-1356h203v-53h-461v53h199v1356h-199v53h461v-53z" />
    <glyph glyph-name="Icircumflex" unicode="&#xce;" horiz-adv-x="583" 
d="M291 1847l387 -219l-51 -29l-336 187l-338 -187l-49 29zM522 1409h-203v-1356h203v-53h-461v53h199v1356h-199v53h461v-53z" />
    <glyph glyph-name="Idieresis" unicode="&#xcf;" horiz-adv-x="583" 
d="M438 1819v-230h-57v230h57zM201 1819v-230h-58v230h58zM522 1409h-203v-1356h203v-53h-461v53h199v1356h-199v53h461v-53z" />
    <glyph glyph-name="Eth" unicode="&#xd0;" horiz-adv-x="1445" 
d="M322 1409v-645h497v-53h-497v-658h303q348 -1 539 183q192 184 192 487t-188 495t-543 191h-303zM262 53v658h-151v53h151v645h-201v53h564q387 0 589 -205t201 -531q0 -326 -210 -526t-580 -200h-564v53h201z" />
    <glyph glyph-name="Ntilde" unicode="&#xd1;" horiz-adv-x="1650" 
d="M952 1714q92 0 174 64l37 -37q-90 -74 -170 -82q-13 -2 -61 -2t-119 33q-102 37 -141 36q-102 0 -180 -71l-37 33q97 92 221 92q53 0 137 -29q90 -37 139 -37zM1356 80v1329h-207v53h461v-53h-195v-1409h-76l-1017 1405h-5v-1352h205v-53h-461v53h197v1356h-197v53h287
l1004 -1382h4z" />
    <glyph glyph-name="Ograve" unicode="&#xd2;" horiz-adv-x="1558" 
d="M578 1882l469 -272l-27 -47l-471 274zM80 731q0 -301 203 -502t497 -201t497 202q204 200 204 501t-204 503t-498 202q-295 0 -497 -202t-202 -503zM20 731q0 326 220 542t539 216t539 -216t220 -542t-220 -542t-538 -216t-538 216q-222 216 -222 542z" />
    <glyph glyph-name="Oacute" unicode="&#xd3;" horiz-adv-x="1558" 
d="M559 1610l469 272l27 -45l-471 -274zM80 731q0 -301 203 -502t497 -201t497 202q204 200 204 501t-204 503t-498 202q-295 0 -497 -202t-202 -503zM20 731q0 326 220 542t539 216t539 -216t220 -542t-220 -542t-538 -216t-538 216q-222 216 -222 542z" />
    <glyph glyph-name="Ocircumflex" unicode="&#xd4;" horiz-adv-x="1558" 
d="M791 1847l387 -219l-52 -29l-335 187l-338 -187l-50 29zM80 731q0 -301 203 -502t497 -201t497 202q204 200 204 501t-204 503t-498 202q-295 0 -497 -202t-202 -503zM20 731q0 326 220 542t539 216t539 -216t220 -542t-220 -542t-538 -216t-538 216q-222 216 -222 542z
" />
    <glyph glyph-name="Otilde" unicode="&#xd5;" horiz-adv-x="1558" 
d="M930 1714q92 0 174 64l37 -37q-90 -74 -170 -82q-13 -2 -61 -2t-119 33q-102 37 -142 36q-102 0 -180 -71l-37 33q97 92 221 92q53 0 138 -29q88 -37 139 -37zM80 731q0 -301 203 -502t497 -201t497 202q204 200 204 501t-204 503t-498 202q-295 0 -497 -202t-202 -503z
M20 731q0 326 220 542t539 216t539 -216t220 -542t-220 -542t-538 -216t-538 216q-222 216 -222 542z" />
    <glyph glyph-name="Odieresis" unicode="&#xd6;" horiz-adv-x="1558" 
d="M938 1819v-230h-57v230h57zM700 1819v-230h-57v230h57zM80 731q0 -301 203 -502t497 -201t497 202q204 200 204 501t-204 503t-498 202q-295 0 -497 -202t-202 -503zM20 731q0 326 220 542t539 216t539 -216t220 -542t-220 -542t-538 -216t-538 216q-222 216 -222 542z
" />
    <glyph glyph-name="multiply" unicode="&#xd7;" 
d="M1018 162l-41 -41l-410 407l-403 -407l-41 41l403 405l-407 412l43 41l405 -412l410 412l43 -39l-410 -414z" />
    <glyph glyph-name="Oslash" unicode="&#xd8;" horiz-adv-x="1558" 
d="M1538 731q0 -326 -220 -542t-538 -216q-229 0 -415 121l-195 -264l-45 35l190 262q-137 104 -216 261t-79 343q0 326 220 542t540 216q239 0 432 -127l174 237l48 -34l-174 -240q130 -104 204 -258t74 -336zM1481 731q1 169 -67 311t-187 238l-830 -1139
q168 -113 383 -112q293 1 497 201t204 501zM780 1436q-296 0 -498 -202t-202 -503q0 -175 72 -319t196 -240l832 1143q-178 121 -400 121z" />
    <glyph glyph-name="Ugrave" unicode="&#xd9;" horiz-adv-x="1341" 
d="M434 1882l469 -272l-26 -47l-471 274zM1321 1409h-205v-895q2 -88 -5 -153t-49 -153t-122 -145q-122 -90 -272 -90t-273 90q-80 55 -122 145t-49 154t-5 152v895h-199v53h461v-53h-202v-895q0 -88 3 -131q8 -111 89 -221q47 -61 130 -97t169 -36t168 36q142 62 192 215
q20 60 24 103q3 43 3 131v895h-197v53h461v-53z" />
    <glyph glyph-name="Uacute" unicode="&#xda;" horiz-adv-x="1341" 
d="M424 1610l469 272l27 -45l-471 -274zM1321 1409h-205v-895q2 -88 -5 -153t-49 -153t-122 -145q-122 -90 -272 -90t-273 90q-80 55 -122 145t-49 154t-5 152v895h-199v53h461v-53h-202v-895q0 -88 3 -131q8 -111 89 -221q47 -61 130 -97t169 -36t168 36q142 62 192 215
q20 60 24 103q3 43 3 131v895h-197v53h461v-53z" />
    <glyph glyph-name="Ucircumflex" unicode="&#xdb;" horiz-adv-x="1341" 
d="M670 1847l387 -219l-51 -29l-336 187l-338 -187l-49 29zM1321 1409h-205v-895q2 -88 -5 -153t-49 -153t-122 -145q-122 -90 -272 -90t-273 90q-80 55 -122 145t-49 154t-5 152v895h-199v53h461v-53h-202v-895q0 -88 3 -131q8 -111 89 -221q47 -61 130 -97t169 -36t168 36
q142 62 192 215q20 60 24 103q3 43 3 131v895h-197v53h461v-53z" />
    <glyph glyph-name="Udieresis" unicode="&#xdc;" horiz-adv-x="1341" 
d="M817 1819v-230h-57v230h57zM580 1819v-230h-58v230h58zM1321 1409h-205v-895q2 -88 -5 -153t-49 -153t-122 -145q-122 -90 -272 -90t-273 90q-80 55 -122 145t-49 154t-5 152v895h-199v53h461v-53h-202v-895q0 -88 3 -131q8 -111 89 -221q47 -61 130 -97t169 -36t168 36
q142 62 192 215q20 60 24 103q3 43 3 131v895h-197v53h461v-53z" />
    <glyph glyph-name="Yacute" unicode="&#xdd;" horiz-adv-x="1380" 
d="M481 1610l469 272l27 -45l-471 -274zM1380 1409h-198l-463 -905v-451h203v-53h-461v53h198v451l-462 905h-197v53h461v-53h-199l428 -838l424 838h-194v53h460v-53z" />
    <glyph glyph-name="Thorn" unicode="&#xde;" horiz-adv-x="1134" 
d="M319 1145v-725h283q123 0 197 18q160 39 222 180q34 78 34 163t-34 164t-91 121t-130 60t-198 19h-283zM319 1198h281q135 0 215 -18q185 -42 258 -208q41 -92 41 -190t-41 -189q-74 -165 -259 -208q-81 -18 -214 -18h-281v-314h203v-53h-461v53h199v1356h-199v53h258
v-264z" />
    <glyph glyph-name="germandbls" unicode="&#xdf;" horiz-adv-x="1146" 
d="M1069 372q0 156 -123 257q-56 39 -116 57t-183 21h-55v51h53q125 0 221 98t96 250t-90 241t-239 89q-74 0 -145 -35q-70 -35 -112 -97t-55 -140q-13 -77 -14 -230v-934h-260v47h205v887q0 168 16 253t62 144q47 74 130 115t171 41q178 0 282 -108t105 -281
q0 -56 -13 -112t-65 -130t-141 -108v-5q157 -20 241 -130t84 -246q0 -170 -118 -282q-118 -111 -262 -111q-142 0 -230 51v67q90 -66 222 -66t233 95q100 95 100 251z" />
    <glyph glyph-name="agrave" unicode="&#xe0;" horiz-adv-x="1396" 
d="M401 1516l469 -273l-26 -47l-471 274zM566 27q226 0 364 145q139 145 139 355q0 211 -143 353q-144 142 -354 142t-353 -140t-142 -348t132 -357q131 -150 357 -150zM1063 0v262h-4q-70 -135 -197 -212t-291 -77q-247 0 -399 164t-152 388t153 387t398 163q177 0 311 -90
t177 -203h4v267h272v-50h-217v-950h217v-49h-272z" />
    <glyph glyph-name="aacute" unicode="&#xe1;" horiz-adv-x="1396" 
d="M395 1243l469 273l27 -46l-471 -274zM566 27q226 0 364 145q139 145 139 355q0 211 -143 353q-144 142 -354 142t-353 -140t-142 -348t132 -357q131 -150 357 -150zM1063 0v262h-4q-70 -135 -197 -212t-291 -77q-247 0 -399 164t-152 388t153 387t398 163q177 0 311 -90
t177 -203h4v267h272v-50h-217v-950h217v-49h-272z" />
    <glyph glyph-name="acircumflex" unicode="&#xe2;" horiz-adv-x="1396" 
d="M637 1481l387 -219l-51 -29l-336 186l-338 -186l-49 29zM566 27q226 0 364 145q139 145 139 355q0 211 -143 353q-144 142 -354 142t-353 -140t-142 -348t132 -357q131 -150 357 -150zM1063 0v262h-4q-70 -135 -197 -212t-291 -77q-247 0 -399 164t-152 388t153 387
t398 163q177 0 311 -90t177 -203h4v267h272v-50h-217v-950h217v-49h-272z" />
    <glyph glyph-name="atilde" unicode="&#xe3;" horiz-adv-x="1396" 
d="M776 1329q92 0 174 64l37 -37q-90 -74 -170 -82q-13 -2 -61 -2t-119 33q-102 37 -141 36q-102 0 -181 -71l-36 33q97 92 221 92q53 0 137 -29q88 -37 139 -37zM566 27q226 0 364 145q139 145 139 355q0 211 -143 353q-144 142 -354 142t-353 -140t-142 -348t132 -357
q131 -150 357 -150zM1063 0v262h-4q-70 -135 -197 -212t-291 -77q-247 0 -399 164t-152 388t153 387t398 163q177 0 311 -90t177 -203h4v267h272v-50h-217v-950h217v-49h-272z" />
    <glyph glyph-name="adieresis" unicode="&#xe4;" horiz-adv-x="1396" 
d="M784 1452v-229h-57v229h57zM547 1452v-229h-58v229h58zM566 27q226 0 364 145q139 145 139 355q0 211 -143 353q-144 142 -354 142t-353 -140t-142 -348t132 -357q131 -150 357 -150zM1063 0v262h-4q-70 -135 -197 -212t-291 -77q-247 0 -399 164t-152 388t153 387
t398 163q177 0 311 -90t177 -203h4v267h272v-50h-217v-950h217v-49h-272z" />
    <glyph glyph-name="aring" unicode="&#xe5;" horiz-adv-x="1396" 
d="M637 1481q-51 0 -88 -37t-37 -88t37 -88t88 -37t88 37t37 88t-37 88t-88 37zM638 1534q75 0 127 -53t52 -128t-52 -127t-128 -52t-128 52t-52 128t53 128t128 52zM566 27q226 0 364 145q139 145 139 355q0 211 -143 353q-144 142 -354 142t-353 -140t-142 -348t132 -357
q131 -150 357 -150zM1063 0v262h-4q-70 -135 -197 -212t-291 -77q-247 0 -399 164t-152 388t153 387t398 163q177 0 311 -90t177 -203h4v267h272v-50h-217v-950h217v-49h-272z" />
    <glyph glyph-name="ae" unicode="&#xe6;" horiz-adv-x="2160" 
d="M1063 522q0 200 -144 350q-143 150 -351 150t-350 -142t-142 -356t142 -355q142 -142 348 -142t352 147q145 147 145 348zM1583 1022q-201 0 -340 -162q-63 -70 -87 -136t-38 -155h961q-35 219 -165 336t-331 117zM1116 1049v-306h4q25 68 39 93q156 240 432 239
q249 0 397 -164t152 -393h-1024q10 -115 51 -206t95 -143t141 -97q88 -45 221 -45q132 0 242 81t178 195h65q-59 -131 -191 -230t-306 -100q-135 -3 -250 57t-191 173q-33 47 -51 116h-4v-319h-55v319h-4q-25 -82 -51 -118q-84 -125 -208 -175t-227 -53q-236 -1 -393 157
q-158 158 -158 393t158 393t389 159q137 0 256 -61t193 -180q12 -18 41 -93h4v308h55z" />
    <glyph glyph-name="ccedilla" unicode="&#xe7;" horiz-adv-x="1183" 
d="M1069 1049v-306h-53q-49 131 -165 206t-278 73q-201 -2 -354 -139q-63 -59 -103 -155t-40 -204q0 -217 145 -357t333 -139t311 89q124 88 165 213h62q-54 -162 -194 -258t-327 -99h-4l-39 -84l4 -2q12 6 25 7q66 0 105 -44q38 -44 38 -100q0 -57 -38 -102t-107 -45
q-123 0 -145 123h53q18 -70 92 -70q37 0 63 25t27 67q0 42 -27 69q-26 25 -70 25t-73 -49l-43 8l80 179q-211 18 -351 168q-141 150 -141 380t157 388t394 159q301 0 445 -215v189h53z" />
    <glyph glyph-name="egrave" unicode="&#xe8;" horiz-adv-x="1144" 
d="M346 1516l469 -273l-27 -47l-471 274zM80 569h987q-8 189 -158 325t-336 128q-197 0 -339 -128t-154 -325zM566 1075q226 0 387 -145t171 -381l-2 -31h-1044q2 -123 50 -221q48 -99 123 -155q156 -118 313 -116q156 1 277 73q120 73 181 204h61q-72 -162 -209 -247
t-303 -83q-238 -1 -394 157q-157 158 -157 393t160 393t386 159z" />
    <glyph glyph-name="eacute" unicode="&#xe9;" horiz-adv-x="1144" 
d="M340 1243l469 273l27 -46l-471 -274zM80 569h987q-8 189 -158 325t-336 128q-197 0 -339 -128t-154 -325zM566 1075q226 0 387 -145t171 -381l-2 -31h-1044q2 -123 50 -221q48 -99 123 -155q156 -118 313 -116q156 1 277 73q120 73 181 204h61q-72 -162 -209 -247
t-303 -83q-238 -1 -394 157q-157 158 -157 393t160 393t386 159z" />
    <glyph glyph-name="ecircumflex" unicode="&#xea;" horiz-adv-x="1144" 
d="M582 1481l387 -219l-51 -29l-336 186l-338 -186l-49 29zM80 569h987q-8 189 -158 325t-336 128q-197 0 -339 -128t-154 -325zM566 1075q226 0 387 -145t171 -381l-2 -31h-1044q2 -123 50 -221q48 -99 123 -155q156 -118 313 -116q156 1 277 73q120 73 181 204h61
q-72 -162 -209 -247t-303 -83q-238 -1 -394 157q-157 158 -157 393t160 393t386 159z" />
    <glyph glyph-name="edieresis" unicode="&#xeb;" horiz-adv-x="1144" 
d="M719 1452v-229h-57v229h57zM481 1452v-229h-57v229h57zM80 569h987q-8 189 -158 325t-336 128q-197 0 -339 -128t-154 -325zM566 1075q226 0 387 -145t171 -381l-2 -31h-1044q2 -123 50 -221q48 -99 123 -155q156 -118 313 -116q156 1 277 73q120 73 181 204h61
q-72 -162 -209 -247t-303 -83q-238 -1 -394 157q-157 158 -157 393t160 393t386 159z" />
    <glyph glyph-name="igrave" unicode="&#xec;" horiz-adv-x="589" 
d="M31 1516l469 -273l-27 -47l-471 274zM72 997v50h272v-998h215v-49h-487v49h217v948h-217z" />
    <glyph glyph-name="iacute" unicode="&#xed;" horiz-adv-x="589" 
d="M53 1243l469 273l27 -46l-471 -274zM72 997v50h272v-998h215v-49h-487v49h217v948h-217z" />
    <glyph glyph-name="icircumflex" unicode="&#xee;" horiz-adv-x="589" 
d="M285 1481l387 -219l-51 -29l-336 186l-338 -186l-49 29zM72 997v50h272v-998h215v-49h-487v49h217v948h-217z" />
    <glyph glyph-name="idieresis" unicode="&#xef;" horiz-adv-x="589" 
d="M453 1452v-229h-58v229h58zM215 1452v-229h-57v229h57zM72 997v50h272v-998h215v-49h-487v49h217v948h-217z" />
    <glyph glyph-name="eth" unicode="&#xf0;" horiz-adv-x="1196" 
d="M1126 538q0 -264 -168 -412t-387 -153q-223 1 -386 147t-165 402q4 246 159 398t394 155q276 0 439 -227l4 4q-55 152 -182 288q-128 136 -265 195l-399 -192l-31 39l371 184q-137 61 -348 84l31 47q242 -35 380 -102l312 147l30 -39l-282 -137q229 -131 361 -348
q132 -216 132 -480zM572 27q214 0 357 143q142 143 142 355t-149 355q-150 142 -357 141t-349 -143t-142 -354q0 -213 142 -355t356 -142z" />
    <glyph glyph-name="ntilde" unicode="&#xf1;" horiz-adv-x="1486" 
d="M885 1329q92 0 174 64l37 -37q-90 -74 -170 -82q-14 -2 -62 -2t-119 33q-102 37 -141 36q-102 0 -180 -71l-37 33q97 92 221 92q53 0 137 -29q90 -37 140 -37zM72 999v50h272v-203h4q47 109 168 170t254 59q203 0 328 -106q154 -127 153 -416v-504h215v-49h-487v49h217
v504q0 254 -129 371q-109 98 -303 96t-306 -112q-114 -110 -114 -304v-555h215v-49h-487v49h217v950h-217z" />
    <glyph glyph-name="ograve" unicode="&#xf2;" horiz-adv-x="1144" 
d="M369 1516l469 -273l-27 -47l-471 274zM76 524q0 -213 141 -355t354 -142t356 142q142 142 142 355q0 214 -142 356q-141 142 -355 142t-355 -142t-141 -356zM20 524q0 236 158 394t394 158t394 -158t158 -394t-158 -394t-394 -157q-236 -1 -394 157t-158 394z" />
    <glyph glyph-name="oacute" unicode="&#xf3;" horiz-adv-x="1144" 
d="M362 1243l469 273l27 -46l-471 -274zM76 524q0 -213 141 -355t354 -142t356 142q142 142 142 355q0 214 -142 356q-141 142 -355 142t-355 -142t-141 -356zM20 524q0 236 158 394t394 158t394 -158t158 -394t-158 -394t-394 -157q-236 -1 -394 157t-158 394z" />
    <glyph glyph-name="ocircumflex" unicode="&#xf4;" horiz-adv-x="1144" 
d="M563 1481l387 -219l-51 -29l-336 186l-338 -186l-49 29zM76 524q0 -213 141 -355t354 -142t356 142q142 142 142 355q0 214 -142 356q-141 142 -355 142t-355 -142t-141 -356zM20 524q0 236 158 394t394 158t394 -158t158 -394t-158 -394t-394 -157q-236 -1 -394 157
t-158 394z" />
    <glyph glyph-name="otilde" unicode="&#xf5;" horiz-adv-x="1144" 
d="M743 1329q93 0 175 64l36 -37q-90 -74 -170 -82q-14 -2 -62 -2t-118 33q-102 37 -141 36q-102 0 -180 -71l-37 33q97 92 221 92q53 0 137 -29q90 -37 139 -37zM76 524q0 -213 141 -355t354 -142t356 142q142 142 142 355q0 214 -142 356q-141 142 -355 142t-355 -142
t-141 -356zM20 524q0 236 158 394t394 158t394 -158t158 -394t-158 -394t-394 -157q-236 -1 -394 157t-158 394z" />
    <glyph glyph-name="odieresis" unicode="&#xf6;" horiz-adv-x="1144" 
d="M713 1452v-229h-58v229h58zM475 1452v-229h-57v229h57zM76 524q0 -213 141 -355t354 -142t356 142q142 142 142 355q0 214 -142 356q-141 142 -355 142t-355 -142t-141 -356zM20 524q0 236 158 394t394 158t394 -158t158 -394t-158 -394t-394 -157q-236 -1 -394 157
t-158 394z" />
    <glyph glyph-name="divide" unicode="&#xf7;" 
d="M633 252q1 -25 -17 -44q-18 -20 -45 -20t-45 18t-18 46q0 27 18 43t44 16t44 -17t19 -42zM1020 565h-901v56h901v-56zM570 999q26 0 44 -17t19 -43t-17 -45q-18 -20 -45 -20t-45 18t-18 46q0 27 18 44t44 17z" />
    <glyph glyph-name="oslash" unicode="&#xf8;" horiz-adv-x="1144" 
d="M20 524q0 236 158 394t393 157q170 0 303 -88l123 170l41 -33l-118 -166q205 -168 204 -434q0 -236 -158 -394t-395 -157q-166 0 -303 88l-118 -163l-44 32l119 162q-205 158 -205 432zM1069 524q0 246 -180 389l-590 -811q121 -76 272 -75q213 0 356 142
q142 142 142 355zM76 524q0 -248 180 -389l586 809q-115 78 -271 78q-213 0 -354 -142t-141 -356z" />
    <glyph glyph-name="ugrave" unicode="&#xf9;" horiz-adv-x="1447" 
d="M481 1516l469 -273l-26 -47l-471 274zM928 1049h272v-1000h217v-49h-272v211h-4q-47 -117 -165 -178t-257 -60q-203 0 -328 107q-154 127 -153 416v503h-218v50h273v-553q0 -252 129 -371q108 -98 302 -97q194 0 308 112t113 313v546h-217v50z" />
    <glyph glyph-name="uacute" unicode="&#xfa;" horiz-adv-x="1447" 
d="M444 1243l469 273l27 -46l-471 -274zM928 1049h272v-1000h217v-49h-272v211h-4q-47 -117 -165 -178t-257 -60q-203 0 -328 107q-154 127 -153 416v503h-218v50h273v-553q0 -252 129 -371q108 -98 302 -97q194 0 308 112t113 313v546h-217v50z" />
    <glyph glyph-name="ucircumflex" unicode="&#xfb;" horiz-adv-x="1447" 
d="M676 1481l387 -219l-51 -29l-336 186l-338 -186l-49 29zM928 1049h272v-1000h217v-49h-272v211h-4q-47 -117 -165 -178t-257 -60q-203 0 -328 107q-154 127 -153 416v503h-218v50h273v-553q0 -252 129 -371q108 -98 302 -97q194 0 308 112t113 313v546h-217v50z" />
    <glyph glyph-name="udieresis" unicode="&#xfc;" horiz-adv-x="1447" 
d="M823 1452v-229h-57v229h57zM586 1452v-229h-58v229h58zM928 1049h272v-1000h217v-49h-272v211h-4q-47 -117 -165 -178t-257 -60q-203 0 -328 107q-154 127 -153 416v503h-218v50h273v-553q0 -252 129 -371q108 -98 302 -97q194 0 308 112t113 313v546h-217v50z" />
    <glyph glyph-name="yacute" unicode="&#xfd;" horiz-adv-x="1329" 
d="M438 1243l469 273l27 -46l-471 -274zM238 -422v49h213l163 375l-395 997h-209v50h488v-50h-217l368 -921l393 921h-211v50h488v-50h-213l-592 -1372h211v-49h-487z" />
    <glyph glyph-name="thorn" unicode="&#xfe;" horiz-adv-x="1376" 
d="M812 1022q-226 0 -366 -145t-139 -355q-1 -210 143 -353q144 -142 354 -142t353 140t142 347q-1 208 -131 358t-356 150zM41 1413v49h272v-676h4q70 135 197 212t291 77q247 0 399 -164t152 -388t-153 -387t-398 -163q-178 0 -311 90t-177 203h-4v-639h215v-49h-487v49
h217v1786h-217z" />
    <glyph glyph-name="ydieresis" unicode="&#xff;" horiz-adv-x="1329" 
d="M811 1452v-229h-57v229h57zM573 1452v-229h-57v229h57zM238 -422v49h213l163 375l-395 997h-209v50h488v-50h-217l368 -921l393 921h-211v50h488v-50h-213l-592 -1372h211v-49h-487z" />
    <glyph glyph-name="dotlessi" unicode="&#x131;" horiz-adv-x="589" 
d="M72 997v50h272v-998h215v-49h-487v49h217v948h-217z" />
    <glyph glyph-name="Lslash" unicode="&#x141;" horiz-adv-x="999" 
d="M938 0h-877v53h197v617l-160 -117v70l160 116v670h-197v53h461v-53h-205v-625l312 230v-70l-312 -229v-662h568v295h53v-348z" />
    <glyph glyph-name="lslash" unicode="&#x142;" horiz-adv-x="606" 
d="M61 1413v49h273v-608l184 133v-57l-184 -135v-746h215v-49h-488v49h218v707l-168 -119v59l168 117v600h-218z" />
    <glyph glyph-name="OE" unicode="&#x152;" horiz-adv-x="2361" 
d="M80 732q0 -306 199 -505t491 -198q209 0 371 104t240 257q79 153 85 323v43q-8 250 -180 454q-84 100 -219 162t-297 64q-294 0 -492 -199t-198 -505zM2206 53v295h53v-348h-993v53h200v400h-4q-62 -205 -254 -342t-434 -138q-319 0 -536 213t-218 545q0 332 216 545
t530 213q246 0 436 -133t260 -344h4v397h-200v53h993v-348h-53v295h-680v-645h631v-53h-631v-658h680z" />
    <glyph glyph-name="oe" unicode="&#x153;" horiz-adv-x="2166" 
d="M1599 1016q-183 0 -319 -125t-156 -320h957q-8 139 -121 282q-54 71 -150 117t-211 46zM1063 519q0 195 -138 349q-139 154 -353 154t-355 -142t-141 -356t141 -355q141 -142 352 -142t353 149q141 149 141 343zM2146 520h-1024q10 -236 154 -364t334 -129q141 1 264 73
t170 207h61q-23 -51 -38 -80t-58 -80t-100 -90q-141 -84 -299 -84q-218 0 -383 158q-94 90 -131 221h-4q-80 -199 -222 -289t-299 -90q-236 -1 -393 157q-158 158 -158 393t158 393t402 159q244 0 409 -196q68 -90 98 -189l5 8q98 281 379 353q67 16 131 16q232 0 388 -163
t156 -384z" />
    <glyph glyph-name="Scaron" unicode="&#x160;" horiz-adv-x="1024" 
d="M516 1599l-389 218l51 30l338 -186l336 186l49 -28zM102 354h52q53 -261 267 -313q48 -12 97 -12q145 0 255 98t110 250q0 76 -28 137t-62 96q-35 35 -97 65t-97 40q-34 10 -95 26q-184 47 -262 103q-131 96 -134 266t113 273q117 103 285 104q94 0 177 -41t134 -123v139
h53v-303h-51q-47 191 -173 248q-60 27 -144 27q-142 0 -238 -88t-96 -221t82 -212q33 -31 96 -59q64 -28 106 -41q42 -12 149 -42t169 -66q172 -109 172 -322q0 -174 -127 -292t-295 -118q-254 0 -364 222v-195h-54v354z" />
    <glyph glyph-name="scaron" unicode="&#x161;" horiz-adv-x="835" 
d="M428 1233l-389 217l51 31l338 -187l336 187l49 -29zM657 799v12q-6 106 -76 159q-71 52 -179 52t-174 -62q-64 -62 -64 -151q0 -88 55 -135t216 -89t245 -109t84 -196t-94 -218t-240 -89q-203 0 -295 146v-119h-53v291h55q2 -121 87 -193t207 -72t200 72q78 70 78 173
t-65 163q-64 60 -224 99q-160 41 -236 97t-76 177t91 195q90 74 215 73q164 0 243 -112v86h54v-250h-54z" />
    <glyph glyph-name="Ydieresis" unicode="&#x178;" horiz-adv-x="1380" 
d="M836 1819v-230h-58v230h58zM598 1819v-230h-57v230h57zM1380 1409h-198l-463 -905v-451h203v-53h-461v53h198v451l-462 905h-197v53h461v-53h-199l428 -838l424 838h-194v53h460v-53z" />
    <glyph glyph-name="Zcaron" unicode="&#x17d;" horiz-adv-x="1089" 
d="M528 1599l-389 218l51 30l338 -186l336 186l49 -28zM96 1462h901l-817 -1409h785v299h53v-352h-936l819 1409h-751v-299h-54v352z" />
    <glyph glyph-name="zcaron" unicode="&#x17e;" horiz-adv-x="929" 
d="M432 1233l-389 217l51 31l338 -187l336 187l49 -29zM72 0v47l649 950h-569v-254h-54v306h695v-54l-652 -944h643v254h54v-305h-766z" />
    <glyph glyph-name="florin" unicode="&#x192;" 
d="M168 -301q-63 0 -119 16l12 56q74 -18 107 -19q131 0 199 70t100 239l188 998h-284l12 53h281l20 100q37 223 137 318q96 78 217 78q31 0 56 -6l-13 -52q-29 4 -47 4q-119 -10 -182 -73t-89 -182q-3 -13 -11 -48t-9 -39l-18 -100h279l-15 -53h-272l-187 -985
q-37 -186 -112 -281q-76 -94 -250 -94z" />
    <glyph glyph-name="circumflex" unicode="&#x2c6;" 
d="M569 1481l387 -219l-51 -29l-336 186l-338 -186l-49 29z" />
    <glyph glyph-name="caron" unicode="&#x2c7;" 
d="M571 1233l-389 217l51 31l338 -187l336 187l49 -29z" />
    <glyph glyph-name="uni02C9" unicode="&#x2c9;" 
d="M922 1366v-59h-705v59h705z" />
    <glyph glyph-name="breve" unicode="&#x2d8;" 
d="M569 1311q104 0 174 20q69 21 89 39t40 47h76q-18 -33 -36 -52t-58 -50q-79 -60 -285 -62q-287 0 -379 164h76q72 -106 303 -106z" />
    <glyph glyph-name="dotaccent" unicode="&#x2d9;" 
d="M600 1452v-229h-61v229h61z" />
    <glyph glyph-name="ring" unicode="&#x2da;" 
d="M569 1485q-51 0 -88 -37t-37 -88t37 -88t88 -37t88 37t37 88t-37 88t-88 37zM570 1538q75 0 127 -53q53 -53 53 -128t-52 -127t-129 -52q-76 0 -128 52t-52 128t53 128t128 52z" />
    <glyph glyph-name="ogonek" unicode="&#x2db;" 
d="M471 -220q0 -52 43 -91t94 -39t119 26v-57q-49 -27 -127 -27t-134 54t-56 139q0 135 174 215h57q-74 -53 -100 -77q-70 -62 -70 -143z" />
    <glyph glyph-name="tilde" unicode="&#x2dc;" 
d="M709 1329q92 0 174 64l37 -37q-90 -74 -170 -82q-14 -2 -62 -2t-119 33q-102 37 -141 36q-102 0 -180 -71l-37 33q97 92 221 92q53 0 137 -29q90 -37 140 -37z" />
    <glyph glyph-name="hungarumlaut" unicode="&#x2dd;" 
d="M524 1243l449 316l31 -43l-447 -320zM305 1243l447 316l32 -43l-446 -320z" />
    <glyph glyph-name="uni03A9" unicode="&#x3a9;" horiz-adv-x="1548" 
d="M1421 0h-450v68q53 42 94 78t97 105t94 139q92 168 92 384q0 270 -150 444t-412 175q-262 0 -425 -172t-162 -441q0 -420 381 -712v-68h-451v68h340q-137 106 -240 282q-102 176 -102 426q0 295 183 489q183 193 475 193t463 -187t171 -493q0 -232 -104 -418t-240 -292
h346v-68z" />
    <glyph glyph-name="uni03BC" unicode="&#x3bc;" horiz-adv-x="1529" 
d="M969 1049h272v-1000h217v-49h-272v211h-4q-47 -117 -165 -178t-257 -60q-209 0 -324 107q-66 59 -98 133h-4l2 -612h-57v1398h-218v50h273v-553q0 -252 129 -371q109 -98 303 -97q194 0 306 112q114 112 114 313v546h-217v50z" />
    <glyph glyph-name="pi" unicode="&#x3c0;" horiz-adv-x="1464" 
d="M1210 -12q-104 0 -158 63t-55 174v727h-536v-700q0 -125 -25 -252h-78q27 104 27 250v702q-121 0 -233 -45q-14 35 -27 68q117 49 274 49h914v-72h-242v-725q0 -168 150 -168q32 1 67 13l21 -64q-41 -20 -99 -20z" />
    <glyph glyph-name="endash" unicode="&#x2013;" horiz-adv-x="1030" 
d="M90 575h850v-57h-850v57z" />
    <glyph glyph-name="emdash" unicode="&#x2014;" horiz-adv-x="2019" 
d="M90 575h1839v-57h-1839v57z" />
    <glyph glyph-name="quoteleft" unicode="&#x2018;" horiz-adv-x="274" 
d="M106 1464l127 -305h-65l-127 305h65z" />
    <glyph glyph-name="quoteright" unicode="&#x2019;" horiz-adv-x="274" 
d="M41 1159l127 305h65l-127 -305h-65z" />
    <glyph glyph-name="quotesinglbase" unicode="&#x201a;" horiz-adv-x="356" 
d="M82 -143l127 305h65l-127 -305h-65z" />
    <glyph glyph-name="quotedblleft" unicode="&#x201c;" horiz-adv-x="450" 
d="M283 1464l127 -305h-66l-127 305h66zM106 1464l127 -305h-65l-127 305h65z" />
    <glyph glyph-name="quotedblright" unicode="&#x201d;" horiz-adv-x="450" 
d="M41 1159l127 305h65l-127 -305h-65zM217 1159l127 305h66l-127 -305h-66z" />
    <glyph glyph-name="quotedblbase" unicode="&#x201e;" horiz-adv-x="532" 
d="M82 -143l127 305h65l-127 -305h-65zM258 -143l127 305h66l-127 -305h-66z" />
    <glyph glyph-name="dagger" unicode="&#x2020;" horiz-adv-x="1175" 
d="M616 1464v-424h375v-59h-375v-1180h-59v1180h-373v59h373v424h59z" />
    <glyph glyph-name="daggerdbl" unicode="&#x2021;" horiz-adv-x="1175" 
d="M621 1464v-366h370v-60h-370v-811h370v-59h-370v-367h-60v367h-377v59h377v811h-377v60h377v366h60z" />
    <glyph glyph-name="bullet" unicode="&#x2022;" horiz-adv-x="782" 
d="M90 745q0 125 88 217t214 91q126 0 213 -90q87 -89 87 -217t-88 -218t-213 -90t-213 91t-88 216z" />
    <glyph glyph-name="ellipsis" unicode="&#x2026;" horiz-adv-x="2019" 
d="M1698 162v-162h-60v162h60zM1038 162v-162h-57v162h57zM381 162v-162h-59v162h59z" />
    <glyph glyph-name="perthousand" unicode="&#x2030;" horiz-adv-x="2539" 
d="M1108 584v-295q0 -117 74 -184t170 -67t176 61q80 60 80 190v301q0 102 -64 177t-178 75t-186 -68t-72 -190zM1059 283v303q0 94 35 160t89 97q94 52 173 52q127 0 215 -84t88 -215v-313q0 -85 -34 -147t-85 -93q-200 -121 -383 14q-98 74 -98 226zM141 1167v-295
q0 -118 74 -184t170 -66t176 61q80 60 80 189v302q0 102 -63 177t-178 75t-187 -70q-72 -68 -72 -189zM92 866v303q0 94 35 161q35 66 89 96q92 50 173 53q127 0 215 -84t88 -215v-314q0 -84 -34 -146t-85 -93q-201 -123 -383 13q-98 74 -98 226zM1896 584v-295
q0 -117 74 -184t170 -67t176 61q80 60 80 190v301q0 102 -63 177t-178 75t-187 -68t-72 -190zM1847 283v303q0 94 35 160t89 97q94 52 173 52q127 0 215 -84t88 -215v-313q0 -220 -215 -285q-45 -14 -82 -14q-106 0 -204 74t-99 225zM1231 1464l-658 -1464h-59l660 1464h57z
" />
    <glyph glyph-name="guilsinglleft" unicode="&#x2039;" horiz-adv-x="532" 
d="M125 545l219 383l41 -51l-190 -332l190 -328l-41 -51z" />
    <glyph glyph-name="guilsinglright" unicode="&#x203a;" horiz-adv-x="532" 
d="M186 928l220 -383l-220 -379l-39 51l191 328l-191 332z" />
    <glyph glyph-name="fraction" unicode="&#x2044;" horiz-adv-x="954" 
d="M831 1464l-651 -1464h-57l649 1464h59z" />
    <glyph glyph-name="Euro" unicode="&#x20ac;" 
d="M233 639v76q0 90 3 137h-162l10 51h154q31 586 450 586q244 0 332 -176v149h55v-305h-57q-20 127 -101 203t-231 76q-190 0 -282 -140t-107 -393h602l-10 -51h-594q-2 -41 -2 -119l2 -94h555l-10 -51h-543q16 -309 117 -443q90 -117 263 -117t259 87q61 61 86 186h59
q-54 -326 -395 -328q-206 -1 -320 141t-130 474h-162l10 51h149z" />
    <glyph glyph-name="litre" unicode="&#x2113;" horiz-adv-x="1089" 
d="M684 1288q0 57 -22 94q-23 37 -66 37q-125 0 -125 -262v-371q213 284 213 502zM774 1298q0 -262 -303 -641v-424q0 -92 38 -139t105 -47q98 0 209 125q37 -33 51 -47q-127 -150 -268 -150q-94 0 -154 66t-61 213v295l-135 -150q-18 16 -59 50q131 147 194 221v508
q0 154 55 234q56 80 150 79q94 0 136 -61t42 -132z" />
    <glyph glyph-name="trademark" unicode="&#x2122;" horiz-adv-x="1998" 
d="M217 586v47h127v784h-240v-184h-45l2 231h625v-231h-43v184h-244v-784h127v-47h-309zM745 1417v47h205l371 -794l373 794h202v-47h-131v-784h125v-47h-309v47h129v753h-4l-369 -800h-32l-371 798h-4v-751h125v-47h-310v47h132v784h-132z" />
    <glyph glyph-name="Omega" unicode="&#x2126;" horiz-adv-x="1548" 
d="M1421 0h-450v68q53 42 94 78t97 105t94 139q92 168 92 384q0 270 -150 444t-412 175q-262 0 -425 -172t-162 -441q0 -420 381 -712v-68h-451v68h340q-137 106 -240 282q-102 176 -102 426q0 295 183 489q183 193 475 193t463 -187t171 -493q0 -232 -104 -418t-240 -292
h346v-68z" />
    <glyph glyph-name="estimated" unicode="&#x212e;" horiz-adv-x="1425" 
d="M1067 713v358q-147 143 -353 143t-345 -141v-360h698zM715 -25q-273 1 -445 191t-172 470t170 468t453 188t451 -188t171 -471h-974v-436q145 -141 327 -141t294 73q110 74 196 213l76 -45q-104 -160 -230 -241t-317 -81z" />
    <glyph glyph-name="partialdiff" unicode="&#x2202;" horiz-adv-x="1273" 
d="M705 956q-197 0 -341 -173t-145 -427q0 -139 74 -223t194 -84q176 0 318 182q141 183 209 502q-27 95 -106 159t-203 64zM737 1483q165 0 273 -120q108 -121 108 -325t-42 -369q-121 -476 -381 -631q-99 -58 -212 -58q-151 0 -245 101t-95 273q0 289 176 482t394 192
q121 0 201 -52t112 -128h4q12 90 12 162q0 195 -86 299t-241 104q-113 0 -211 -59l-33 63q102 66 266 66z" />
    <glyph glyph-name="Delta" unicode="&#x2206;" horiz-adv-x="1353" 
d="M1159 72q-150 383 -452 1153q-25 79 -33 106h-4q-16 -63 -70 -201t-418 -1058h977zM1253 0h-1163v53q492 1236 549 1381h66l548 -1381v-53z" />
    <glyph glyph-name="product" unicode="&#x220f;" horiz-adv-x="1581" 
d="M1358 -471h-74v1839h-985v-1839h-76v1905h1135v-1905z" />
    <glyph glyph-name="summation" unicode="&#x2211;" horiz-adv-x="1388" 
d="M1323 -403v-68h-1260v22q565 676 787 938l-729 910v35h1143v-68h-1022l702 -877q-500 -594 -747 -892h1126z" />
    <glyph glyph-name="minus" unicode="&#x2212;" 
d="M1020 565h-903v56h903v-56z" />
    <glyph glyph-name="uni2215" unicode="&#x2215;" horiz-adv-x="210" 
d="M459 1464l-652 -1464h-57l649 1464h60z" />
    <glyph glyph-name="uni2219" unicode="&#x2219;" horiz-adv-x="589" 
d="M326 586v-160h-60v160h60z" />
    <glyph glyph-name="radical" unicode="&#x221a;" horiz-adv-x="1163" 
d="M147 727l187 102q52 -119 158 -359t159 -359q270 922 404 1380h82q-45 -150 -449 -1516h-67q-165 381 -330 756q-37 -23 -115 -67z" />
    <glyph glyph-name="infinity" unicode="&#x221e;" horiz-adv-x="1724" 
d="M450 846q-108 0 -167 -72t-59 -180t68 -175q69 -67 171 -67q200 0 362 248q-68 110 -167 178q-100 68 -208 68zM901 600q151 -248 371 -248q110 0 171 71q60 71 60 177t-60 176t-181 70q-195 0 -361 -246zM1585 608q0 -139 -85 -233t-236 -94q-242 0 -400 251h-4
q-76 -116 -177 -184t-214 -67q-158 0 -244 90t-86 226t85 228t237 93q236 0 401 -252h4q166 252 387 252q147 0 240 -85q92 -86 92 -225z" />
    <glyph glyph-name="integral" unicode="&#x222b;" horiz-adv-x="1083" 
d="M582 -166q0 -145 -77 -221t-202 -76q-76 0 -125 23q12 45 21 67q53 -20 106 -20q201 0 201 231v1401q0 137 77 215t203 78q78 0 123 -25q-16 -50 -20 -67q-45 23 -105 22q-203 0 -202 -231v-1397z" />
    <glyph glyph-name="approxequal" unicode="&#x2248;" 
d="M772 291q-104 0 -216 73t-196 72q-123 0 -213 -137l-41 35q115 158 259 158q113 0 217 -72q117 -74 194 -74q125 0 215 137l41 -32q-109 -160 -260 -160zM772 698q-104 0 -218 74t-194 74q-121 0 -213 -139l-41 32q54 76 114 119t158 43t204 -74q117 -74 194 -73
q123 0 215 137l41 -33q-111 -160 -260 -160z" />
    <glyph glyph-name="notequal" unicode="&#x2260;" 
d="M1020 360h-545l-153 -321h-56l158 321h-307v56h334l170 356h-504v55h530l148 308h53l-150 -308h322v-55h-348l-170 -356h518v-56z" />
    <glyph glyph-name="lessequal" unicode="&#x2264;" 
d="M1020 0h-903v55h903v-55zM123 691l897 439v-67l-766 -367v-6l766 -368v-70zM123 691l-6 -3v6z" />
    <glyph glyph-name="greaterequal" unicode="&#x2265;" 
d="M1020 0h-903v55h903v-55zM1014 691l6 3v-6zM1014 691l-897 -439v70l764 364v6l-764 369v69z" />
    <glyph glyph-name="lozenge" unicode="&#x25ca;" horiz-adv-x="1245" 
d="M1016 715q-55 88 -389 612q-211 -328 -391 -612q258 -406 389 -611q334 523 391 611zM143 715l457 719h51q250 -391 457 -717q-207 -326 -457 -717h-51l-228 357q-153 239 -229 358z" />
    <glyph glyph-name="f_i" unicode="&#xfb01;" horiz-adv-x="935" 
d="M680 1464v-180h-55v180h55zM244 997h-172v52h172v102q0 324 327 338v-53q-39 -4 -58 -6t-67 -18t-76 -44q-26 -27 -50 -81t-21 -130v-108h381v-1000h215v-49h-487v49h217v948h-326v-997h-227v49h172v948z" />
    <glyph glyph-name="f_l" unicode="&#xfb02;" horiz-adv-x="952" 
d="M244 997h-172v52h172v102q0 324 327 338v-53q-39 -4 -58 -6t-67 -18t-76 -44q-26 -27 -50 -81t-21 -130v-108h326v415h55v-1415h215v-49h-487v49h217v948h-326v-997h-227v49h172v948z" />
    </font>
</defs>
</svg>
