<?xml version="1.0" standalone="no"?>
<!DOCTYPE svg PUBLIC "-//W3C//DTD SVG 1.1//EN" "http://www.w3.org/Graphics/SVG/1.1/DTD/svg11.dtd" >
<svg xmlns="http://www.w3.org/2000/svg">
<metadata>
Created by FontPrep 20130207 at Tue Jan 21 12:15:42 2014
 By fireant
Font software Copyright 1992 Adobe Systems Incorporated. Typeface designs Copyright 2005, 2010 International Typeface Corporation. All rights reserved.
</metadata>
<defs>
<font id="2c596c26fbd774c96138d86a89a45ed9" horiz-adv-x='1024' >
  <font-face 
    font-family="LubalinforIBM-ExLightItalic"
    font-weight="300"
    font-style="italic"
    font-stretch="normal"
    units-per-em="2048"
    panose-1="2 6 2 2 2 2 5 9 4 4"
    ascent="1462"
    descent="-586"
    x-height="1049"
    cap-height="1462"
    bbox="-399 -481 2408.01 1882"
    underline-thickness="102"
    underline-position="-102"
    slope="-12"
    unicode-range="U+0020-FB02"
  />
<missing-glyph horiz-adv-x="1024" 
d="M842 98l-330 496l-332 -496h662zM901 1178l-332 -496l332 -498v994zM123 1178v-992q82 125 246 371l84 125zM180 1266l332 -498l330 498h-662zM25 0v1362h972v-1362h-972z" />
    <glyph glyph-name=".notdef" horiz-adv-x="1024" 
d="M842 98l-330 496l-332 -496h662zM901 1178l-332 -496l332 -498v994zM123 1178v-992q82 125 246 371l84 125zM180 1266l332 -498l330 498h-662zM25 0v1362h972v-1362h-972z" />
    <glyph glyph-name=".null" horiz-adv-x="0" 
 />
    <glyph glyph-name="nonmarkingreturn" horiz-adv-x="681" 
 />
    <glyph glyph-name="space" unicode=" " horiz-adv-x="548" 
 />
    <glyph glyph-name="exclam" unicode="!" horiz-adv-x="512" 
d="M184 160l-28 -160h-60l29 160h59zM414 1464l-193 -1095h-59l192 1095h60z" />
    <glyph glyph-name="quotedbl" unicode="&#x22;" horiz-adv-x="659" 
d="M436 877h-51l96 585h68zM168 877h-51l96 585h68z" />
    <glyph glyph-name="numbersign" unicode="#" horiz-adv-x="1142" 
d="M705 592l108 311h-340l-108 -311h340zM745 539l-182 -539h-53l178 539h-342l-178 -539h-59l184 539h-238l19 53h235l107 311h-236l21 55h233l172 504h56l-173 -504h342l173 504h55l-172 -504h256l-19 -55h-258l-104 -311h256l-14 -53h-259z" />
    <glyph glyph-name="dollar" unicode="$" 
d="M444 70q170 0 281 95q141 121 141 304q0 117 -79 176t-239 98t-239 106q-78 67 -78 183q0 191 149 323q116 101 275 113l39 222h62l-39 -222q109 -8 173 -58t83 -128l31 174h55l-58 -328h-55v7q0 133 -73 205t-210 73q-137 0 -238 -90q-130 -116 -130 -276
q0 -113 80 -166t233 -89t239 -107q85 -71 85 -206q0 -208 -167 -351q-130 -112 -304 -120l-43 -244h-62l43 244q-221 8 -278 207l-37 -215h-55l65 369h58q10 -299 292 -299z" />
    <glyph glyph-name="percent" unicode="%" horiz-adv-x="1710" 
d="M141 821q-1 -94 59 -146t150 -52t181 60t114 189l53 302q4 33 4 49q0 86 -52 144t-158 58t-190 -67q-82 -68 -105 -191l-52 -295q-4 -37 -4 -51zM756 1239q0 -29 -6 -59l-56 -314q-14 -84 -59 -146t-103 -93q-107 -58 -194 -59q-88 0 -169 58t-81 179q0 30 6 61l53 303
q15 94 63 161q73 103 211 137q44 11 79 12q112 0 184 -67t72 -173zM1004 238q0 -94 60 -146t150 -53q90 0 181 60q90 60 112 190l54 301q6 29 6 53q1 84 -53 141q-54 58 -159 58t-189 -68t-105 -190l-53 -295q-4 -37 -4 -51zM1620 653q0 -27 -6 -57l-55 -313
q-15 -85 -61 -147q-74 -100 -206 -138q-47 -14 -84 -14q-94 0 -175 58t-81 177q0 29 6 64l54 303q16 94 63 160t107 97q103 52 198 52q96 0 168 -67t72 -175zM1339 1464l-915 -1464h-59l917 1464h57z" />
    <glyph glyph-name="ampersand" unicode="&#x26;" horiz-adv-x="1445" 
d="M952 1227q0 86 -57 145t-162 62q-117 -2 -209 -88t-92 -205q0 -88 66 -170l80 -105q182 74 267 141q107 84 107 220zM96 317q0 -129 82 -209t210 -79q128 0 221 57t188 199l73 110l-319 404q-229 -83 -327 -181q-128 -130 -128 -301zM35 299q0 27 12 103t61 154
q79 127 260 219q67 34 150 67l-59 80q-88 124 -88 186q0 34 4 72q23 125 131 217q110 92 238 92t199 -72t71 -180q0 -27 -6 -57q-23 -129 -120 -205t-278 -152l299 -372l281 448h254l-10 -55h-215l-273 -436l311 -390l-49 -41l-301 375l-63 -92q-45 -61 -78 -100t-90 -88
q-115 -99 -284 -99t-263 88t-94 238z" />
    <glyph glyph-name="quotesingle" unicode="'" horiz-adv-x="438" 
d="M193 877h-52l97 585h67z" />
    <glyph glyph-name="parenleft" unicode="(" horiz-adv-x="841" 
d="M184 336q0 102 19 203q55 311 261 586t492 425l-12 -67q-246 -137 -436 -392q-258 -346 -258 -749q0 -240 99 -438t261 -312l-12 -73q-414 297 -414 817z" />
    <glyph glyph-name="parenright" unicode=")" horiz-adv-x="841" 
d="M653 737q0 -419 -280 -792q-207 -276 -488 -426l13 67q244 138 433 394q255 344 259 749q0 241 -100 439t-261 311l13 71q147 -104 233 -229q178 -256 178 -584z" />
    <glyph glyph-name="asterisk" unicode="*" horiz-adv-x="1134" 
d="M457 1147q14 104 49 307h53l-51 -307q52 16 158 50t145 46q4 -29 8 -49l-307 -94l137 -254q-45 -27 -51 -31l-133 256l-227 -258l-41 33l235 254q-53 16 -162 53t-118 41l26 47z" />
    <glyph glyph-name="plus" unicode="+" 
d="M963 565h-424l-82 -473h-56l82 473h-424l11 56h424l79 473h56l-80 -473h424z" />
    <glyph glyph-name="comma" unicode="," horiz-adv-x="501" 
d="M0 -207l258 367h59l-258 -367h-59z" />
    <glyph glyph-name="hyphen" unicode="-" horiz-adv-x="526" 
d="M4 592h526l-10 -57h-524z" />
    <glyph glyph-name="period" unicode="." horiz-adv-x="372" 
d="M147 160l-26 -160h-60l27 160h59z" />
    <glyph glyph-name="slash" unicode="/" horiz-adv-x="1024" 
d="M1057 1464l-1110 -1859h-66l1110 1859h66z" />
    <glyph glyph-name="zero" unicode="0" horiz-adv-x="1138" 
d="M96 350q0 -152 100 -238t239 -87q140 0 281 85q75 44 133 128t79 196l104 596q8 53 8 80q0 140 -88 236t-261 96t-311 -112t-173 -310l-103 -586q-8 -57 -8 -84zM696 1495q176 0 289 -102t113 -273q0 -49 -8 -90l-105 -596q-19 -106 -71 -191t-114 -134t-156 -93
t-181 -46q-88 -2 -154 18t-129 60t-103 116t-40 152t8 118l102 580q20 119 76 211q55 92 117 141t160 89q97 40 196 40z" />
    <glyph glyph-name="one" unicode="1" horiz-adv-x="761" 
d="M-70 0l11 53h325l240 1358h-326l8 53h385l-247 -1411h313l-10 -53h-699z" />
    <glyph glyph-name="two" unicode="2" horiz-adv-x="1058" 
d="M640 1446q-146 0 -270 -106q-126 -106 -165 -308h-60q45 231 198 349t318 118t262 -96t97 -254q0 -41 -10 -98q-24 -101 -92 -191t-191 -196l-696 -611h751l47 277h54l-58 -330h-882l10 53l741 652q223 193 258 356q8 39 9 82q1 137 -87 220t-234 83z" />
    <glyph glyph-name="three" unicode="3" horiz-adv-x="1058" 
d="M78 348q0 -158 98 -240t248 -83q150 0 276 104t158 279q6 35 6 65q0 133 -93 220t-275 87h-78l8 54h78q166 0 272 91t129 224q6 31 6 57q0 100 -62 167t-182 67q-121 0 -223 -77t-133 -202h-55q35 156 161 244t263 88t214 -79t77 -215t-110 -257q-83 -92 -189 -129l-2 -4
q116 -33 186 -120t70 -204q0 -31 -6 -65q-34 -190 -178 -320t-336 -131q-192 1 -289 103q-98 102 -99 264q1 43 7 86h59q-6 -41 -6 -74z" />
    <glyph glyph-name="four" unicode="4" horiz-adv-x="1150" 
d="M915 1393l-862 -965h697l170 965h-5zM483 0l11 53h190l57 322h-764l9 51l925 1038h80l-182 -1036h235l-8 -53h-235l-58 -322h191l-10 -53h-441z" />
    <glyph glyph-name="five" unicode="5" horiz-adv-x="1101" 
d="M599 971q177 0 285 -113t107 -287q0 -267 -218 -451q-173 -146 -370 -147q-153 0 -279 108t-126 308q0 27 2 41h57v-31q1 -172 107 -271t266 -99t310 130q192 165 192 398q0 156 -96 258t-256 103q-203 0 -371 -170l-49 14l246 700h669l-10 -53h-623l-192 -555
q172 117 349 117z" />
    <glyph glyph-name="six" unicode="6" horiz-adv-x="1089" 
d="M66 375q0 -150 92 -248t268 -98t319 129q183 165 183 405q0 168 -104 259t-260 91t-305 -121q-148 -122 -187 -335q-6 -43 -6 -82zM596 967q172 0 283 -109t110 -285q0 -262 -209 -451q-164 -148 -370 -148t-305 117q-99 118 -99 280q0 119 44 214t74 136t77 98l555 643
h67l-489 -567l4 -2q123 74 258 74z" />
    <glyph glyph-name="seven" unicode="7" horiz-adv-x="915" 
d="M252 1409l-49 -276h-53l57 329h835l-8 -53l-901 -1409h-61l899 1409h-719z" />
    <glyph glyph-name="eight" unicode="8" horiz-adv-x="1034" 
d="M82 336q0 -131 89 -219t244 -88t283 105q160 132 160 327q0 129 -87 217t-243 88t-285 -106q-128 -106 -157 -265q-4 -20 -4 -59zM289 1067q-1 -109 71 -179t195 -69q123 0 226 90q132 115 132 273q1 112 -69 184t-197 72t-229 -90q-129 -114 -129 -281zM918 471
q0 -221 -188 -375q-151 -123 -327 -123q-176 1 -279 99t-104 250q0 37 7 73q27 152 133 256t243 146q-84 37 -129 109t-45 161q0 187 158 318q127 105 271 105t230 -83q85 -84 85 -221t-102 -253q-79 -91 -191 -136q110 -37 174 -122t64 -204z" />
    <glyph glyph-name="nine" unicode="9" horiz-adv-x="1087" 
d="M1022 1090q0 150 -92 248t-268 98t-320 -129q-184 -164 -184 -406q0 -168 103 -259t251 -91t304 115t198 342q8 57 8 82zM96 893q0 259 210 447q165 148 370 148t305 -116q100 -117 100 -276q0 -49 -8 -84q-31 -182 -188 -367l-557 -645h-68l492 569v2q-127 -74 -260 -73
q-172 0 -284 108t-112 287z" />
    <glyph glyph-name="colon" unicode=":" horiz-adv-x="548" 
d="M393 1016l-28 -160h-60l29 160h59zM244 160l-29 -160h-59l28 160h60z" />
    <glyph glyph-name="semicolon" unicode=";" horiz-adv-x="548" 
d="M-10 -207l256 367h59l-258 -367h-57zM410 1016l-29 -160h-59l28 160h60z" />
    <glyph glyph-name="less" unicode="&#x3c;" 
d="M68 593l983 468l-13 -70l-848 -393l-2 -4l713 -399l-12 -68zM68 593l-7 -3l2 6z" />
    <glyph glyph-name="equal" unicode="=" 
d="M928 360h-901l8 56h901zM997 772h-901l10 55h902z" />
    <glyph glyph-name="greater" unicode="&#x3e;" 
d="M964 593l7 3l-2 -6zM964 593l-982 -468l12 70l848 393v6l-711 397l10 68z" />
    <glyph glyph-name="question" unicode="?" horiz-adv-x="1060" 
d="M461 160l-29 -160h-57l28 160h58zM967 1139q0 135 -89 217t-236 82t-281 -106t-166 -265h-60q39 186 192 309t328 123t274 -96t99 -250q0 -274 -321 -485q-103 -70 -147 -136t-60 -163h-60q20 113 74 189t172 155q281 190 281 426z" />
    <glyph glyph-name="at" unicode="@" horiz-adv-x="1574" 
d="M1085 819q0 106 -55 171t-181 65t-243 -111q-151 -143 -151 -348q0 -112 62 -178t169 -66q146 0 254 112t137 273q8 39 8 82zM1079 369q150 0 290 137t175 338q12 66 12 121q0 219 -147 349t-401 130q-312 0 -564 -215t-305 -512q-14 -94 -14 -152q0 -256 160 -402
q160 -147 428 -147t514 95l6 -39q-249 -100 -537 -100t-455 159q-167 160 -167 426q0 418 339 706q269 228 603 228q272 0 429 -140t157 -376q-5 -286 -198 -491q-151 -159 -341 -158h-119l47 137q-139 -160 -321 -160q-125 0 -197 81t-72 208q0 35 7 76q35 190 173 312
t296 122q113 0 181 -70t70 -184q2 6 20 55q17 49 34 99l24 75h178l-14 -41h-129l-235 -667h73z" />
    <glyph glyph-name="A" unicode="A" horiz-adv-x="1669" 
d="M948 1407l-506 -846h715zM1087 0l9 53h194l-116 455h-766l-277 -455h201l-8 -53h-451l8 53h187l821 1356h-254l8 53h354l357 -1409h194l-8 -53h-453z" />
    <glyph glyph-name="B" unicode="B" horiz-adv-x="1196" 
d="M627 793q152 0 225 36q203 103 203 349q0 54 -31 109q-31 54 -78 79q-78 43 -213 43h-293l-108 -616h295zM551 53q193 0 311 85t152 251q6 37 6 74q0 170 -148 242q-78 35 -251 34h-299l-121 -686h350zM741 1462q166 0 250 -53q123 -76 123 -238q0 -39 -6 -75
q-41 -229 -258 -318l-2 -4q233 -70 233 -301q0 -43 -8 -84q-33 -173 -165 -281t-367 -108h-607l9 53h198l240 1356h-201l8 53h553z" />
    <glyph glyph-name="C" unicode="C" horiz-adv-x="1492" 
d="M653 29q349 0 623 290h67q-109 -141 -297 -243t-403 -103q-281 0 -459 173t-178 446q0 68 12 139q54 326 314 542t590 215t501 -239l39 217h54l-56 -307h-51q-63 119 -192 197t-316 80q-295 0 -533 -202t-290 -503q-12 -68 -12 -133q0 -252 164 -411t423 -158z" />
    <glyph glyph-name="D" unicode="D" horiz-adv-x="1447" 
d="M504 53q348 -1 572 183t278 491q14 72 14 147q0 242 -158 388t-467 147h-303l-239 -1356h303zM752 1462q338 0 508 -158t170 -419q0 -80 -15 -154q-59 -331 -304 -531t-615 -200h-562l9 53h198l240 1356h-201l8 53h564z" />
    <glyph glyph-name="E" unicode="E" horiz-adv-x="1157" 
d="M881 53l53 295h53l-61 -348h-992l9 53h198l240 1356h-201l8 53h994l-62 -348h-53l53 295h-680l-114 -645h630l-8 -53h-631l-116 -658h680z" />
    <glyph glyph-name="F" unicode="F" horiz-adv-x="1105" 
d="M401 53l-8 -53h-459l9 53h198l240 1356h-201l8 53h973l-61 -348h-53l53 295h-660l-114 -645h610l-8 -53h-611l-116 -658h200z" />
    <glyph glyph-name="G" unicode="G" horiz-adv-x="1624" 
d="M909 1436q-295 0 -537 -202t-294 -503q-12 -68 -12 -133q0 -252 164 -411t426 -159q261 0 469 160q208 158 288 377h-831l10 53h889l-109 -618h-57l69 399q-125 -195 -312 -311t-429 -115q-281 0 -459 173t-178 446q0 68 12 139q54 326 318 542t584 216q168 1 313 -65
t223 -185l41 227h53l-57 -317h-51q-164 287 -533 287z" />
    <glyph glyph-name="H" unicode="H" horiz-adv-x="1460" 
d="M1518 1409h-201l-240 -1356h201l-8 -53h-461l8 53h201l117 658h-820l-116 -658h202l-8 -53h-459l9 53h196l240 1356h-199l8 53h461l-8 -53h-203l-114 -645h819l114 645h-200l8 53h461z" />
    <glyph glyph-name="I" unicode="I" horiz-adv-x="583" 
d="M641 1409h-203l-239 -1356h202l-8 -53h-459l9 53h196l240 1356h-199l8 53h461z" />
    <glyph glyph-name="J" unicode="J" horiz-adv-x="976" 
d="M251 -27q-130 0 -219 80t-89 221v5h63q16 -252 281 -249q81 1 163 51t122 125t67 214l174 989h-199l11 53h460l-10 -53h-203l-174 -989q-27 -150 -77 -242q-55 -82 -123 -129q-117 -76 -247 -76z" />
    <glyph glyph-name="K" unicode="K" horiz-adv-x="1325" 
d="M1423 1409h-186l-858 -680l618 -676h187l-8 -53h-461l8 53h192l-600 656l-116 -656h202l-8 -53h-459l9 53h196l240 1356h-199l8 53h461l-8 -53h-203l-116 -664l835 664h-194l8 53h461z" />
    <glyph glyph-name="L" unicode="L" horiz-adv-x="999" 
d="M809 0h-875l9 53h194l240 1356h-197l8 53h461l-8 -53h-205l-239 -1356h567l53 295h53z" />
    <glyph glyph-name="M" unicode="M" horiz-adv-x="2062" 
d="M2120 1409h-203l-240 -1356h203l-8 -53h-461l8 53h199l240 1352h-5l-935 -1405h-35l-443 1405h-4l-239 -1352h204l-8 -53h-459l9 53h194l240 1356h-197l8 53h293l437 -1368l915 1368h295z" />
    <glyph glyph-name="N" unicode="N" horiz-adv-x="1650" 
d="M475 1462l760 -1382h4l236 1329h-207l8 53h461l-8 -53h-195l-248 -1409h-76l-770 1405h-4l-239 -1352h204l-8 -53h-459l9 53h194l240 1356h-197l8 53h287z" />
    <glyph glyph-name="O" unicode="O" horiz-adv-x="1558" 
d="M66 598q0 -252 164 -411t423 -158q293 1 533 201t293 501q12 68 12 129q0 254 -166 415t-424 161q-295 0 -533 -202t-290 -503q-12 -68 -12 -133zM911 1489q281 0 459 -172t178 -447q0 -66 -12 -139q-57 -326 -316 -542q-258 -216 -558 -216t-478 173t-178 446
q0 67 12 139q54 326 314 542t579 216z" />
    <glyph glyph-name="P" unicode="P" horiz-adv-x="1155" 
d="M592 684q223 0 346 82q60 39 118 134t58 231q0 137 -76 196q-53 45 -123 63t-194 19h-283l-129 -725h283zM727 1462q135 0 213 -18t139 -70q97 -84 97 -236t-70 -262t-146 -159q-77 -49 -161 -67t-217 -19h-281l-102 -578h202l-8 -53h-459l9 53h196l240 1356h-199l8 53
h539z" />
    <glyph glyph-name="Q" unicode="Q" horiz-adv-x="1669" 
d="M1087 158q-182 156 -208 182q-205 154 -469 154q-134 -1 -320 -64q31 -102 88 -179q56 -77 118 -118q156 -104 377 -104q220 0 414 129zM1491 860q0 254 -166 415q-165 161 -441 161t-516 -202t-290 -503q-12 -61 -12 -119t10 -125q203 59 352 60q233 0 414 -109
q61 -35 299 -243q279 209 338 536q12 68 12 129zM1550 870q0 -413 -368 -712q123 -98 301 -123l39 225h53l-51 -287q-121 8 -213 41t-185 107q-229 -147 -477 -148q-299 1 -471 177t-172 442q0 68 12 139q54 326 314 542t561 216t479 -172t178 -447z" />
    <glyph glyph-name="R" unicode="R" horiz-adv-x="1290" 
d="M768 1462q238 0 356 -92t119 -260q0 -248 -193 -409q-153 -126 -368 -128h-18l278 -520h195l-9 -53h-225l-340 627h111q203 -1 337 107t165 278q8 53 8 80q0 143 -102 230t-322 87h-324l-239 -1356h204l-8 -53h-459l9 53h194l240 1356h-197l8 53h580z" />
    <glyph glyph-name="S" unicode="S" horiz-adv-x="1001" 
d="M825 446q0 166 -156 238q-57 27 -193 65q-136 37 -200 82q-109 78 -108 209q0 33 6 66q27 174 162 277t303 104q209 0 281 -164l24 139h53l-53 -303h-51q-4 92 -47 174q-54 101 -209 101t-266 -88q-135 -107 -142 -291q0 -89 72 -161q57 -55 281 -114q12 0 40 -10t53 -19
q26 -9 67 -33q88 -52 117 -121q30 -69 30 -122q0 -235 -188 -384q-148 -118 -316 -118q-252 0 -326 222l-32 -195h-52l60 354h51q2 -98 34 -168t82 -102q88 -55 191 -55q145 0 273 98q159 123 159 319z" />
    <glyph glyph-name="T" unicode="T" horiz-adv-x="1089" 
d="M199 1462h936l-62 -352h-53l53 299h-385l-239 -1356h200l-8 -53h-461l8 53h201l240 1356h-385l-54 -299h-53z" />
    <glyph glyph-name="U" unicode="U" horiz-adv-x="1341" 
d="M532 -27q-150 0 -256 90q-117 94 -116 273q-2 41 20 178l158 895h-199l11 53h460l-10 -53h-203l-157 -895q-20 -132 -20 -200t42 -140q43 -72 120 -109q77 -36 163 -36t174 36q153 62 231 214q31 59 42 103t26 132l158 895h-197l10 53h461l-10 -53h-205l-158 -895
q-35 -229 -139 -350q-49 -57 -117 -101q-139 -90 -289 -90z" />
    <glyph glyph-name="V" unicode="V" horiz-adv-x="1658" 
d="M1765 1409h-198l-852 -1409h-41l-355 1409h-190l8 53h461l-8 -53h-203l326 -1311l788 1311h-196l8 53h461z" />
    <glyph glyph-name="W" unicode="W" horiz-adv-x="2093" 
d="M2202 1409h-201l-653 -1409h-76l-129 1307h-4l-584 -1307h-80l-153 1409h-195l8 53h461l-8 -53h-203l143 -1327h4l615 1380h43l135 -1380h4l610 1327h-198l8 53h461z" />
    <glyph glyph-name="X" unicode="X" horiz-adv-x="1468" 
d="M1528 1409h-199l-565 -668l344 -688h199l-9 -53h-460l8 53h194l-317 637l-543 -637h203l-8 -53h-459l8 53h191l583 688l-329 668h-193l8 53h461l-8 -53h-197l301 -612l519 612h-193l8 53h461z" />
    <glyph glyph-name="Y" unicode="Y" horiz-adv-x="1400" 
d="M1509 1409h-198l-623 -905l-80 -451h203l-8 -53h-461l8 53h199l80 451l-303 905h-197l8 53h461l-8 -53h-199l281 -838l571 838h-194l8 53h461z" />
    <glyph glyph-name="Z" unicode="Z" horiz-adv-x="1101" 
d="M221 1462h901l-1065 -1409h785l53 299h53l-61 -352h-934l1065 1409h-752l-53 -299h-53z" />
    <glyph glyph-name="bracketleft" unicode="[" horiz-adv-x="841" 
d="M252 -88q0 68 10 121l178 1007q43 245 207 382q86 73 211 128l-12 -69q-289 -133 -342 -441l-178 -1007q-10 -72 -11 -113q0 -219 197 -326l-12 -71q-248 129 -248 389z" />
    <glyph glyph-name="backslash" unicode="\" horiz-adv-x="1024" 
d="M711 -393l-455 1857h66l454 -1857h-65z" />
    <glyph glyph-name="bracketright" unicode="]" horiz-adv-x="841" 
d="M526 1153q0 219 -200 328l12 69q252 -133 252 -391q0 -53 -12 -119l-179 -1007q-59 -352 -417 -510l12 71q289 131 342 439l178 1007q12 61 12 113z" />
    <glyph glyph-name="asciicircum" unicode="^" 
d="M985 778h-61l-265 586h-12l-467 -586h-67l544 680h19z" />
    <glyph glyph-name="underscore" unicode="_" horiz-adv-x="989" 
d="M983 -248h-987l8 53h989z" />
    <glyph glyph-name="grave" unicode="`" 
d="M340 1516l422 -273l-35 -47l-424 274z" />
    <glyph glyph-name="a" unicode="a" horiz-adv-x="1388" 
d="M55 434q1 -172 107 -290t317 -117q211 0 376 145t202 352q8 43 8 92q0 180 -117 293q-116 113 -314 113t-366 -140t-205 -358q-8 -61 -8 -90zM461 -27q-217 0 -339 129t-122 320q0 285 228 490q181 163 427 163q178 0 295 -90t142 -203h4l47 267h272l-10 -50h-217
l-166 -950h217l-10 -49h-273l48 262h-5q-94 -135 -234 -212t-304 -77z" />
    <glyph glyph-name="b" unicode="b" horiz-adv-x="1386" 
d="M717 27q237 1 395 151q202 194 203 443q0 181 -117 291q-118 110 -314 110t-365 -142t-206 -356q-8 -41 -8 -94q0 -174 113 -288t299 -115zM1372 625q0 -43 -10 -101q-41 -223 -221 -387t-428 -164q-164 0 -277 77t-160 212h-4l-45 -262h-270l8 49h215l240 1364h-217
l10 49h272l-120 -680h4q82 125 221 208q138 83 336 84t322 -127t124 -322z" />
    <glyph glyph-name="c" unicode="c" horiz-adv-x="1179" 
d="M655 1022h-6q-199 -2 -379 -139q-74 -59 -130 -157q-80 -139 -81 -307q-2 -169 116 -281t293 -110t314 89q139 88 203 213h62q-86 -162 -242 -258q-155 -96 -351 -98t-325 122q-129 123 -129 322q0 57 8 104q41 236 226 394t423 159q303 0 406 -215l35 189h53l-55 -306
h-54q-25 129 -124 204q-100 75 -263 75z" />
    <glyph glyph-name="d" unicode="d" horiz-adv-x="1357" 
d="M55 434q1 -172 107 -290t317 -117q211 0 376 145t202 352q8 43 8 92q0 180 -116 293q-115 113 -313 113t-367 -140t-206 -358q-8 -61 -8 -90zM461 -27q-217 0 -339 130t-122 321q0 57 8 100q41 225 221 388t426 163q178 0 296 -90t141 -203h4l110 631h-217l10 49h273
l-250 -1413h217l-8 -49h-273l46 262h-5q-94 -135 -234 -212t-304 -77z" />
    <glyph glyph-name="e" unicode="e" horiz-adv-x="1136" 
d="M1063 625q0 165 -117 281t-282 116h-19q-197 0 -361 -128t-212 -325h987q4 37 4 56zM53 428q0 -193 128 -297t286 -104h4q147 1 279 73t217 203h61q-98 -162 -249 -246t-314 -84h-6q-209 0 -335 125t-126 322q0 57 8 104l-2 -2q41 236 229 394q187 158 405 159
q218 0 350 -122t132 -326q0 -37 -6 -78l-8 -31h-1045q-8 -61 -8 -90z" />
    <glyph glyph-name="f" unicode="f" horiz-adv-x="632" 
d="M-25 0l11 49h215l166 948h-217l10 52h217l16 102q57 326 389 338l-10 -53q-272 -8 -321 -279l-19 -108h227l-10 -52h-227l-166 -948h227l-10 -49h-498z" />
    <glyph glyph-name="g" unicode="g" horiz-adv-x="1366" 
d="M1071 621q0 177 -116 289q-115 112 -315 112t-369 -139t-208 -359q-6 -43 -6 -86q0 -172 109 -292q108 -120 320 -120t376 146q209 185 209 449zM469 -27q-223 0 -346 130t-123 323q0 55 8 98q41 225 223 388t433 163q178 0 294 -90t142 -203h4l47 267h272l-10 -50h-217
l-156 -882q-24 -125 -80 -227t-127 -161q-207 -175 -441 -175q-146 0 -274 84t-167 237h63q41 -102 107 -162q117 -109 299 -109t354 141q172 140 211 361l27 156h-6q-92 -135 -232 -212t-305 -77z" />
    <glyph glyph-name="h" unicode="h" horiz-adv-x="1456" 
d="M827 1075h7q203 0 303 -99t100 -271q0 -74 -14 -152l-88 -504h213l-9 -49h-487l8 49h219l88 504q14 72 15 139q0 150 -85 240t-279 88t-326 -112t-166 -304l-99 -555h213l-8 -49h-485l8 49h217l240 1364h-219l8 49h274l-108 -616h4q67 109 195 169t261 60z" />
    <glyph glyph-name="i" unicode="i" horiz-adv-x="589" 
d="M504 1462l-31 -178h-55l31 178h55zM150 997l10 50h272l-176 -998h215l-8 -49h-486l9 49h215l166 948h-217z" />
    <glyph glyph-name="j" unicode="j" horiz-adv-x="393" 
d="M412 1464l-33 -182h-55l32 182h56zM57 999l9 50h272l-182 -1037q-46 -236 -115 -316q-33 -38 -93 -73t-141 -45l11 60q137 20 194 108t88 266l174 987h-217z" />
    <glyph glyph-name="k" unicode="k" horiz-adv-x="1183" 
d="M203 1413l8 49h272l-155 -884l592 421h-203l8 50h487l-8 -50h-213l-600 -428l475 -522h232l-8 -49h-488l8 49h183l-467 512l-90 -512h215l-9 -49h-485l8 49h215l240 1364h-217z" />
    <glyph glyph-name="l" unicode="l" horiz-adv-x="569" 
d="M203 1413l8 49h272l-247 -1413h215l-9 -49h-485l8 49h215l240 1364h-217z" />
    <glyph glyph-name="m" unicode="m" horiz-adv-x="2095" 
d="M1831 733q0 289 -291 289q-178 0 -291 -121q-61 -63 -88 -125t-49 -188l-96 -539h213l-8 -49h-488l8 49h220l96 539q20 111 18 157q0 90 -37 154q-74 117 -258 123h-12q-154 0 -262 -115q-117 -109 -152 -309l-98 -549h215l-8 -49h-486l9 49h215l168 950h-217l8 50h272
l-33 -187h4q61 88 147 139t139 63q54 12 102 11q199 0 286 -129q37 -49 47 -123h4q35 68 97 123q135 129 319 129t275 -106q68 -80 67 -230q0 -59 -14 -151l-96 -539h209l-9 -49h-487l8 49h223l97 539q14 90 14 145z" />
    <glyph glyph-name="n" unicode="n" horiz-adv-x="1488" 
d="M1210 688q0 334 -356 334q-199 -4 -332 -114t-168 -304l-98 -555h215l-8 -49h-486l9 49h215l168 950h-217l8 50h272l-35 -203h4q66 109 195 169t262 60h6q204 0 304 -99t100 -276q0 -74 -15 -147l-90 -504h215l-8 -49h-487l8 49h217l90 504q12 74 12 135z" />
    <glyph glyph-name="o" unicode="o" horiz-adv-x="1136" 
d="M55 428q0 -178 115 -290q114 -112 314 -112t367 143q167 142 206 355q8 43 8 92q0 178 -116 292q-117 114 -317 114t-366 -142t-203 -356q-8 -43 -8 -96zM1120 625q0 -53 -8 -101q-43 -236 -228 -394q-186 -158 -408 -157q-222 0 -349 124t-127 323q0 300 233 498
q187 158 409 158t350 -127q128 -126 128 -324z" />
    <glyph glyph-name="p" unicode="p" horiz-adv-x="1384" 
d="M1313 614q-1 172 -107 290t-317 118t-376 -145t-202 -353q-8 -41 -8 -92q0 -178 117 -292q116 -114 314 -114t366 141q168 140 205 357q8 41 8 90zM907 1075q219 0 341 -129t122 -319q0 -45 -10 -103q-39 -225 -220 -388t-427 -163q-178 0 -295 90t-142 203h-4l-112 -639
h215l-8 -49h-486l8 49h215l242 1372h-217l10 50h273l-47 -263h4q94 135 234 212t304 77z" />
    <glyph glyph-name="q" unicode="q" horiz-adv-x="1359" 
d="M653 1022q-237 0 -395 -151q-202 -194 -203 -441q0 -180 118 -292q119 -112 315 -112t364 143q168 142 205 355q8 43 8 94q0 174 -113 289t-299 115zM463 -27q-217 0 -340 129t-123 324q0 55 8 98q41 223 221 387t428 164q164 0 277 -77t160 -212h4l47 263h272l-10 -50
h-217l-242 -1372h213l-8 -49h-487l8 49h219l113 639h-5q-61 -113 -211 -203t-327 -90z" />
    <glyph glyph-name="r" unicode="r" horiz-adv-x="757" 
d="M152 999l8 50h272l-33 -191h4q91 142 221 181q94 29 185 36l-10 -55q-135 -4 -242 -72q-100 -78 -144 -167t-65 -214l-92 -518h215l-8 -49h-486l9 49h215l168 950h-217z" />
    <glyph glyph-name="s" unicode="s" horiz-adv-x="890" 
d="M713 844q-1 90 -61 134t-164 44t-190 -70q-85 -70 -85 -188q0 -63 50 -102q51 -39 187 -77t208 -92t71 -161q0 -160 -138 -271q-110 -88 -255 -88q-205 0 -268 146l-23 -119h-51l49 291h55q-4 -33 -4 -45q0 -100 72 -160t188 -59t205 71q113 89 113 224q0 80 -58 129
t-191 83q-134 34 -201 81q-67 48 -66 139q0 155 130 247q103 74 228 74q164 0 223 -112l17 86h53l-45 -250h-53q4 24 4 45z" />
    <glyph glyph-name="t" unicode="t" horiz-adv-x="626" 
d="M319 1049l72 415h55l-71 -415h268l-10 -52h-268l-166 -948h268l-10 -49h-324l176 997h-231l10 52h231z" />
    <glyph glyph-name="u" unicode="u" horiz-adv-x="1429" 
d="M252 365q0 -338 356 -338q199 1 332 113t170 313l96 546h-217l8 50h273l-176 -1000h217l-8 -49h-273l37 211h-4q-66 -115 -193 -176t-266 -62h-6q-203 1 -303 101t-100 274q0 53 14 148l90 503h-217l8 50h272l-98 -553q-12 -74 -12 -131z" />
    <glyph glyph-name="v" unicode="v" horiz-adv-x="1310" 
d="M895 999l10 50h488l-11 -50h-208l-588 -999h-72l-233 999h-209l10 50h487l-10 -50h-221l225 -933l547 933h-215z" />
    <glyph glyph-name="w" unicode="w" horiz-adv-x="1859" 
d="M1436 999l10 50h487l-10 -50h-211l-547 -999h-63l-139 795h-5l-417 -795h-64l-190 999h-211l10 50h487l-10 -50h-215l176 -915h2l435 821h43l147 -821h4l494 915h-213z" />
    <glyph glyph-name="x" unicode="x" horiz-adv-x="1255" 
d="M-33 0l10 49h209l402 477l-236 473h-211l11 50h487l-10 -50h-207l207 -419l356 419h-205l11 50h487l-10 -50h-215l-400 -473l234 -477h215l-10 -49h-488l10 49h205l-209 424l-354 -424h207l-10 -49h-486z" />
    <glyph glyph-name="y" unicode="y" horiz-adv-x="1304" 
d="M45 -422l8 49h213l232 375l-219 997h-209l8 50h487l-8 -50h-217l205 -921l557 921h-211l8 50h487l-8 -50h-213l-835 -1372h211l-9 -49h-487z" />
    <glyph glyph-name="z" unicode="z" horiz-adv-x="929" 
d="M-39 0l8 47l815 950h-569l-45 -254h-53l55 306h694l-10 -54l-817 -944h643l45 254h53l-55 -305h-764z" />
    <glyph glyph-name="braceleft" unicode="{" horiz-adv-x="841" 
d="M371 -477q-70 0 -101 34q-49 53 -18 216l63 362q16 92 17 154q0 156 -111 213l8 55q73 19 137 123t91 258l65 371q23 129 69 185t138 56h129l-10 -51h-107q-77 0 -107 -43t-54 -184l-66 -367q-18 -111 -78 -221t-147 -154q106 -49 106 -249q0 -47 -10 -113l-63 -363
q-18 -109 -18 -151t23 -62q22 -18 76 -18h107l-10 -51h-129z" />
    <glyph glyph-name="bar" unicode="|" horiz-adv-x="378" 
d="M0 -481h-55l352 2048h55z" />
    <glyph glyph-name="braceright" unicode="}" horiz-adv-x="841" 
d="M469 1550q131 0 131 -120q0 -58 -12 -121l-66 -371q-14 -90 -14 -145q0 -207 106 -236l-8 -55q-100 -45 -149 -132t-76 -235l-64 -362q-25 -133 -70 -192q-46 -58 -136 -58h-129l10 51h104q78 0 108 42t56 189l64 363q23 129 84 230t141 132q-104 63 -105 269q0 63 9 106
l65 367q16 94 16 141t-22 67q-23 20 -78 19h-106l10 51h131z" />
    <glyph glyph-name="asciitilde" unicode="~" 
d="M315 641q-123 0 -235 -137l-35 33q143 160 285 159q109 0 207 -74t180 -73q123 0 237 137l35 -31q-133 -160 -287 -159q-104 0 -204 72t-183 73z" />
    <glyph glyph-name="uni00A0" unicode="&#xa0;" 
 />
    <glyph glyph-name="exclamdown" unicode="&#xa1;" horiz-adv-x="512" 
d="M328 891l26 160h60l-27 -160h-59zM96 -414l201 1137h59l-200 -1137h-60z" />
    <glyph glyph-name="cent" unicode="&#xa2;" 
d="M987 928h-53q-68 186 -289 186q-172 0 -297 -110q-153 -135 -158 -345q0 -133 81 -222t223 -89t232 55q91 55 138 121h66q-152 -217 -398 -233l-38 -213h-60l39 213q-172 13 -258 119t-86 247q0 194 163 363q128 133 335 151l35 189h59l-35 -191q188 -27 264 -153l27 145
h51l-41 -229v-4z" />
    <glyph glyph-name="sterling" unicode="&#xa3;" horiz-adv-x="1165" 
d="M512 0h-532l10 53h291q2 4 50 62q105 129 105 294t-168 316h-221l8 53h170q-43 78 -43 176q0 41 4 64q35 201 193 335t362 134q160 0 271 -95t123 -266h-62q-14 136 -107 222t-235 86q-180 -4 -313 -118t-172 -298q-4 -33 -4 -53q0 -104 61 -187h539l-8 -53h-482v-4
q56 -45 100 -124t44 -181q0 -184 -146 -363h180q125 0 191 22t125 68q155 138 155 324l-2 27h62l2 -27q0 -15 -3 -35t-5 -37q-33 -176 -170 -291q-84 -64 -157 -84t-216 -20z" />
    <glyph glyph-name="currency" unicode="&#xa4;" horiz-adv-x="1214" 
d="M141 651q0 -161 109 -271q108 -110 286 -110t337 136t192 323q8 53 8 80q-1 163 -109 271t-286 108t-337 -136q-200 -170 -200 -401zM517 219q-196 0 -318 129l-187 -158l-32 41l184 158q-76 106 -76 250q0 49 8 90q37 197 191 340l-131 162l47 41l131 -162
q168 129 362 129t316 -129l188 160l33 -41l-186 -160q78 -106 77 -248q0 -249 -196 -432l131 -156l-49 -40l-129 155q-168 -129 -364 -129z" />
    <glyph glyph-name="yen" unicode="&#xa5;" 
d="M1296 1409h-198l-373 -600h291l-8 -51h-314l-133 -213h408l-8 -51h-426l-78 -441h202l-8 -53h-461l9 53h198l78 441h-430l8 51h412l-55 213h-318l8 51h295l-159 600h-197l8 53h461l-8 -53h-199l217 -842l512 842h-194l8 53h461z" />
    <glyph glyph-name="brokenbar" unicode="&#xa6;" horiz-adv-x="378" 
d="M0 -481h-55l143 837h55zM207 725h-55l145 842h55z" />
    <glyph glyph-name="section" unicode="&#xa7;" horiz-adv-x="1134" 
d="M952 506q0 57 -31 103q-32 47 -58 63t-79 47l-358 186q-220 -97 -238 -315q0 -131 115 -193l410 -204q71 27 155 113q84 85 84 200zM999 1202q0 129 -69 178q-70 50 -197 50t-222 -74q-120 -93 -120 -238q0 -57 29 -102t55 -64q27 -18 76 -43l272 -139q184 -96 185 -254
q0 -120 -76 -215q-76 -94 -170 -143q98 -78 98 -193q0 -33 -6 -57q-27 -152 -155 -250t-300 -98q-30 0 -91 9q-62 9 -101 29t-80 50q-90 68 -88 209q6 70 8 82l12 63h56l-13 -61q-6 -37 -6 -68q0 -127 87 -190t220 -64h7q154 0 258 77t131 212q4 29 4 43q0 66 -37 115
t-127 92l-354 178q-2 2 -39 23t-66 63q-47 68 -47 150q0 132 75 226q75 95 185 146q-59 59 -59 156q0 35 4 55q27 154 143 244q117 90 265 90t231 -68q82 -68 82 -192q0 -33 -6 -70h-56q2 14 2 43z" />
    <glyph glyph-name="dieresis" unicode="&#xa8;" 
d="M797 1452l-39 -229h-58l39 229h58zM559 1452l-39 -229h-57l39 229h57z" />
    <glyph glyph-name="copyright" unicode="&#xa9;" horiz-adv-x="1583" 
d="M896 1434q-284 0 -520 -206t-286 -497q-12 -63 -12 -129q0 -250 164 -412t440 -162t516 204q238 202 291 499q12 63 12 129q0 248 -161 411q-160 163 -444 163zM922 1485q286 0 460 -175t174 -444q0 -63 -12 -135q-57 -319 -314 -536q-258 -217 -556 -217t-474 172
t-177 442q0 68 12 139q55 313 309 533t578 221zM729 289q-162 0 -265 99t-104 255q0 25 9 82q33 190 182 314q150 124 333 124t281 -119l21 107h51l-35 -195h-45q-82 156 -283 156q-162 0 -292 -111q-166 -141 -166 -348q0 -137 91 -225t232 -88q194 0 348 164h58
q-65 -88 -179 -152t-237 -63z" />
    <glyph glyph-name="ordfeminine" unicode="&#xaa;" horiz-adv-x="929" 
d="M162 1094q0 -96 68 -170t194 -74q127 0 227 87q125 109 125 257q0 106 -73 175t-187 69t-221 -82q-106 -82 -129 -219q-4 -29 -4 -43zM392 799q-122 0 -204 83t-82 203q0 29 7 60q25 143 145 244q121 100 266 100t217 -82q43 -47 56 -100h4l30 168h175l-9 -48h-118
l-101 -565h119l-8 -47h-174l28 164h-4q-45 -76 -139 -133q-86 -47 -208 -47z" />
    <glyph glyph-name="guillemotleft" unicode="&#xab;" horiz-adv-x="694" 
d="M317 547l287 381l29 -51l-248 -330l131 -330l-45 -51zM96 547l287 381l31 -51l-248 -330l131 -330l-47 -51z" />
    <glyph glyph-name="logicalnot" unicode="&#xac;" 
d="M926 356h-56l78 443h-846l9 55h901z" />
    <glyph glyph-name="uni00AD" unicode="&#xad;" horiz-adv-x="526" 
d="M4 592h526l-10 -57h-524z" />
    <glyph glyph-name="registered" unicode="&#xae;" horiz-adv-x="1583" 
d="M896 1434q-284 0 -520 -206t-286 -497q-12 -63 -12 -129q0 -250 164 -412t440 -162t516 204q238 202 291 499q12 63 12 129q0 248 -161 411q-160 163 -444 163zM922 1485q286 0 460 -175t174 -444q0 -63 -12 -135q-57 -319 -314 -536q-258 -217 -556 -217t-474 172
t-177 442q0 68 12 139q55 313 309 533t578 221zM813 690q113 0 192 63t87 189q0 78 -58 125t-176 47h-174l-131 -749h117l-8 -52h-283l8 52h113l131 749h-113l10 51h340q279 0 279 -207q0 -146 -112 -240q-87 -75 -212 -79l150 -274h114l-8 -52h-143l-205 377h82z" />
    <glyph glyph-name="macron" unicode="&#xaf;" 
d="M905 1366l-10 -59h-705l11 59h704z" />
    <glyph glyph-name="degree" unicode="&#xb0;" horiz-adv-x="790" 
d="M164 1079q0 -80 53 -133t143 -53t178 74t89 192q1 82 -53 135q-54 54 -145 54t-178 -75q-87 -74 -87 -194zM682 1169q0 -147 -122 -249q-98 -82 -208 -82q-112 0 -178 64t-65 165q0 16 4 53q20 119 116 201q95 82 207 82t179 -67t67 -167z" />
    <glyph glyph-name="plusminus" unicode="&#xb1;" 
d="M975 643h-424l-74 -430h-55l74 430h-424l10 55h424l74 430h55l-74 -430h424zM866 0h-903l8 55h903z" />
    <glyph glyph-name="twosuperior" unicode="&#xb2;" horiz-adv-x="708" 
d="M653 1274q0 156 -174 156q-100 0 -170 -66t-88 -176h-55q25 145 122 219t206 74q110 -1 162 -57t53 -146q0 -157 -179 -307l-413 -336h442l31 168h47l-39 -217h-563l6 45l457 375q133 111 149 213q6 31 6 55z" />
    <glyph glyph-name="threesuperior" unicode="&#xb3;" horiz-adv-x="692" 
d="M131 797q0 -92 56 -135q56 -44 143 -44t156 60q89 77 89 201q0 77 -52 123t-150 47h-60l9 49h59q95 0 159 55t64 126t-35 109t-100 39h-4q-74 0 -130 -47t-73 -118h-55q20 94 100 155t169 61t137 -50t49 -123q0 -12 -5 -41q-25 -131 -157 -189q131 -53 131 -195
t-115 -236q-90 -75 -198 -75q-108 -1 -176 57q-67 58 -66 162q0 19 4 56h55q-4 -33 -4 -47z" />
    <glyph glyph-name="acute" unicode="&#xb4;" 
d="M379 1243l516 273l18 -46l-518 -274z" />
    <glyph glyph-name="mu" unicode="&#xb5;" horiz-adv-x="1488" 
d="M330 360q0 -333 356 -333q199 1 332 113t168 313l98 546h-217l8 50h273l-177 -1000h218l-11 -49h-272l39 211h-4q-66 -115 -193 -176t-266 -62h-6q-207 0 -305 107q-57 63 -74 133h-4l-107 -612h-57l248 1398h-217l8 50h272l-98 -553q-12 -74 -12 -136z" />
    <glyph glyph-name="paragraph" unicode="&#xb6;" horiz-adv-x="1110" 
d="M444 678q-166 0 -256 90t-90 234t91 264q67 88 167 143t281 55h485l-10 -55h-127l-283 -1604h246l-8 -55h-305l291 1655h-254l-291 -1655h-305l8 55h246l153 873h-39z" />
    <glyph glyph-name="periodcentered" unicode="&#xb7;" horiz-adv-x="548" 
d="M317 586l-26 -160h-60l27 160h59z" />
    <glyph glyph-name="cedilla" unicode="&#xb8;" 
d="M633 -242q-1 84 -85 84q-40 0 -81 -49l-41 8l125 199h57l-71 -111l4 -2q12 6 26 7q57 0 88 -34t31 -66q0 -89 -52 -140t-120 -51q-125 0 -125 123h53q6 -70 82 -70q35 0 72 30t37 72z" />
    <glyph glyph-name="onesuperior" unicode="&#xb9;" horiz-adv-x="550" 
d="M37 586l6 45h188l138 782h-189l8 49h244l-145 -831h184l-8 -45h-426z" />
    <glyph glyph-name="ordmasculine" unicode="&#xba;" horiz-adv-x="868" 
d="M199 1092q-1 -102 67 -172t180 -70t216 84q102 84 126 211q4 33 5 49q0 106 -67 175q-66 69 -182 69t-216 -83t-125 -216q-4 -33 -4 -47zM850 1204q0 -29 -6 -59q-27 -152 -150 -249t-254 -97t-214 81t-83 199q0 182 147 307q116 100 257 102t222 -81q81 -82 81 -203z
" />
    <glyph glyph-name="guillemotright" unicode="&#xbb;" horiz-adv-x="694" 
d="M221 928l158 -381l-291 -381l-29 51l250 330l-133 330zM444 928l154 -381l-287 -381l-32 51l249 330l-133 330z" />
    <glyph glyph-name="onequarter" unicode="&#xbc;" horiz-adv-x="1501" 
d="M45 586l8 45h189l137 782h-189l9 49h243l-145 -831h184l-8 -45h-428zM1221 1464l-912 -1464h-57l909 1464h60zM1239 807l-479 -539h385l96 537zM967 0l8 47h131l31 172h-451l8 41l549 619h66l-109 -611h166l-8 -49h-166l-31 -172h125l-8 -47h-311z" />
    <glyph glyph-name="onehalf" unicode="&#xbd;" horiz-adv-x="1558" 
d="M45 586l8 45h189l137 782h-189l9 49h243l-145 -831h184l-8 -45h-428zM1397 684q0 160 -181 160q-93 0 -162 -66t-89 -176h-56q25 145 122 219t206 74t162 -57t53 -155t-49 -164t-127 -134l-414 -336h443l28 168h47l-39 -217h-565l8 45l459 375q131 111 150 213q4 18 4 51
zM1219 1464l-912 -1464h-57l909 1464h60z" />
    <glyph glyph-name="threequarters" unicode="&#xbe;" horiz-adv-x="1591" 
d="M141 799q-1 -94 55 -137q56 -44 143 -44t167 69t80 190q0 75 -54 123t-151 49h-59l8 49h59q97 0 161 56t64 142q0 55 -35 93q-36 37 -100 38h-4q-74 0 -131 -47t-74 -118h-55q23 94 101 155q79 61 168 61q88 0 138 -50q50 -52 50 -125q0 -14 -4 -39q-23 -129 -160 -189
q133 -53 133 -195t-115 -236q-90 -75 -198 -75q-108 -1 -176 57t-68 162q0 19 4 56h55q-2 -16 -2 -45zM1327 807l-477 -539h385l94 537zM1057 0l8 47h131l31 172h-451l6 41l549 619h66l-107 -611h166l-8 -49h-166l-31 -172h125l-8 -47h-311zM1298 1464l-911 -1464h-57
l909 1464h59z" />
    <glyph glyph-name="questiondown" unicode="&#xbf;" horiz-adv-x="1060" 
d="M625 889l28 160h58l-29 -160h-57zM432 -379q135 0 264 88t166 264h60q-66 -297 -365 -390q-72 -22 -135 -21q-150 0 -250 93t-100 245q0 101 35 168t101 133t161 145q94 78 142 154q47 76 59 117t22 104h59q-17 -86 -33 -134t-71 -129t-150 -157q-174 -149 -207 -202
q-57 -98 -57 -205t82 -190t217 -83z" />
    <glyph glyph-name="Agrave" unicode="&#xc0;" horiz-adv-x="1669" 
d="M614 1882l422 -272l-35 -47l-423 274zM948 1407l-506 -846h715zM1087 0l9 53h194l-116 455h-766l-277 -455h201l-8 -53h-451l8 53h187l821 1356h-254l8 53h354l357 -1409h194l-8 -53h-453z" />
    <glyph glyph-name="Aacute" unicode="&#xc1;" horiz-adv-x="1669" 
d="M674 1610l516 272l18 -45l-518 -274zM948 1407l-506 -846h715zM1087 0l9 53h194l-116 455h-766l-277 -455h201l-8 -53h-451l8 53h187l821 1356h-254l8 53h354l357 -1409h194l-8 -53h-453z" />
    <glyph glyph-name="Acircumflex" unicode="&#xc2;" horiz-adv-x="1669" 
d="M944 1847l348 -219l-47 -26l-303 188l-379 -191l-45 29zM948 1407l-506 -846h715zM1087 0l9 53h194l-116 455h-766l-277 -455h201l-8 -53h-451l8 53h187l821 1356h-254l8 53h354l357 -1409h194l-8 -53h-453z" />
    <glyph glyph-name="Atilde" unicode="&#xc3;" horiz-adv-x="1669" 
d="M1063 1714q89 0 186 64l29 -37q-104 -74 -184 -82q-14 -2 -62 -2t-112 33q-94 37 -136 36q-104 0 -192 -71l-31 33q111 92 238 92q53 0 131 -29q86 -37 133 -37zM948 1407l-506 -846h715zM1087 0l9 53h194l-116 455h-766l-277 -455h201l-8 -53h-451l8 53h187l821 1356
h-254l8 53h354l357 -1409h194l-8 -53h-453z" />
    <glyph glyph-name="Adieresis" unicode="&#xc4;" horiz-adv-x="1669" 
d="M1112 1819l-39 -230h-57l39 230h57zM874 1819l-38 -230h-58l39 230h57zM948 1407l-506 -846h715zM1087 0l9 53h194l-116 455h-766l-277 -455h201l-8 -53h-451l8 53h187l821 1356h-254l8 53h354l357 -1409h194l-8 -53h-453z" />
    <glyph glyph-name="Aring" unicode="&#xc5;" horiz-adv-x="1669" 
d="M989 1802q-49 0 -97 -41t-48 -95t29 -84q30 -30 78 -30q47 0 97 43t50 94q0 53 -30 83t-79 30zM998 1855q71 0 113 -43t42 -121q1 -78 -69 -137t-141 -59t-113 42t-42 105q0 96 70 155q70 58 140 58zM948 1407l-506 -846h715zM1087 0l9 53h194l-116 455h-766l-277 -455
h201l-8 -53h-451l8 53h187l821 1356h-254l8 53h354l357 -1409h194l-8 -53h-453z" />
    <glyph glyph-name="AE" unicode="&#xc6;" horiz-adv-x="2062" 
d="M1286 1407l-741 -846h592zM1786 53l53 295h53l-61 -348h-993l8 53h201l79 455h-628l-398 -455h201l-8 -53h-457l8 53h187l1192 1356h-256l8 53h1112l-62 -348h-53l53 295h-679l-115 -645h631l-9 -53h-630l-117 -658h680z" />
    <glyph glyph-name="Ccedilla" unicode="&#xc7;" horiz-adv-x="1495" 
d="M66 600q0 -252 164 -412t425 -159q119 1 231 35q205 63 392 255h68q-109 -141 -298 -243t-403 -103h-10l-55 -84l4 -2q12 6 26 7q57 0 88 -34t31 -66q0 -89 -52 -140t-120 -51q-125 0 -125 123h55q4 -70 80 -70q35 0 66 25t41 71q2 4 2 26t-22 44t-64 20q-42 0 -80 -49
l-43 8l113 176q-256 19 -415 189t-159 426q0 67 12 139q56 326 316 542t588 215t503 -239l39 217h54l-56 -307h-51q-63 119 -192 197t-316 80q-295 0 -533 -202t-292 -503q-12 -68 -12 -131z" />
    <glyph glyph-name="Egrave" unicode="&#xc8;" horiz-adv-x="1157" 
d="M516 1882l422 -272l-35 -47l-424 274zM881 53l53 295h53l-61 -348h-992l9 53h198l240 1356h-201l8 53h994l-62 -348h-53l53 295h-680l-114 -645h630l-8 -53h-631l-116 -658h680z" />
    <glyph glyph-name="Eacute" unicode="&#xc9;" horiz-adv-x="1157" 
d="M514 1610l516 272l19 -45l-519 -274zM881 53l53 295h53l-61 -348h-992l9 53h198l240 1356h-201l8 53h994l-62 -348h-53l53 295h-680l-114 -645h630l-8 -53h-631l-116 -658h680z" />
    <glyph glyph-name="Ecircumflex" unicode="&#xca;" horiz-adv-x="1157" 
d="M764 1847l348 -219l-47 -26l-303 188l-379 -191l-45 29zM881 53l53 295h53l-61 -348h-992l9 53h198l240 1356h-201l8 53h994l-62 -348h-53l53 295h-680l-114 -645h630l-8 -53h-631l-116 -658h680z" />
    <glyph glyph-name="Edieresis" unicode="&#xcb;" horiz-adv-x="1157" 
d="M932 1819l-39 -230h-57l38 230h58zM694 1819l-39 -230h-57l39 230h57zM881 53l53 295h53l-61 -348h-992l9 53h198l240 1356h-201l8 53h994l-62 -348h-53l53 295h-680l-114 -645h630l-8 -53h-631l-116 -658h680z" />
    <glyph glyph-name="Igrave" unicode="&#xcc;" horiz-adv-x="583" 
d="M205 1882l422 -272l-35 -47l-424 274zM641 1409h-203l-239 -1356h202l-8 -53h-459l9 53h196l240 1356h-199l8 53h461z" />
    <glyph glyph-name="Iacute" unicode="&#xcd;" horiz-adv-x="583" 
d="M176 1610l516 272l19 -45l-518 -274zM641 1409h-203l-239 -1356h202l-8 -53h-459l9 53h196l240 1356h-199l8 53h461z" />
    <glyph glyph-name="Icircumflex" unicode="&#xce;" horiz-adv-x="583" 
d="M473 1847l348 -219l-47 -26l-303 188l-379 -191l-45 29zM641 1409h-203l-239 -1356h202l-8 -53h-459l9 53h196l240 1356h-199l8 53h461z" />
    <glyph glyph-name="Idieresis" unicode="&#xcf;" horiz-adv-x="583" 
d="M610 1819l-39 -230h-57l39 230h57zM373 1819l-39 -230h-58l39 230h58zM641 1409h-203l-239 -1356h202l-8 -53h-459l9 53h196l240 1356h-199l8 53h461z" />
    <glyph glyph-name="Eth" unicode="&#xd0;" horiz-adv-x="1447" 
d="M504 53q348 -1 572 183t278 491q14 72 14 147q0 242 -158 388t-467 147h-303l-114 -645h497l-8 -53h-498l-116 -658h303zM752 1462q338 0 508 -158t170 -419q0 -80 -15 -154q-59 -331 -304 -531t-615 -200h-562l9 53h198l117 658h-152l9 53h151l115 645h-201l8 53h564z
" />
    <glyph glyph-name="Ntilde" unicode="&#xd1;" horiz-adv-x="1650" 
d="M1124 1714q90 0 187 64l28 -37q-104 -74 -184 -82q-13 -2 -61 -2t-113 33q-94 37 -135 36q-105 0 -193 -71l-30 33q111 92 237 92q53 0 131 -29q86 -37 133 -37zM475 1462l760 -1382h4l236 1329h-207l8 53h461l-8 -53h-195l-248 -1409h-76l-770 1405h-4l-239 -1352h204
l-8 -53h-459l9 53h194l240 1356h-197l8 53h287z" />
    <glyph glyph-name="Ograve" unicode="&#xd2;" horiz-adv-x="1558" 
d="M705 1882l421 -272l-34 -47l-424 274zM66 598q0 -252 164 -411t423 -158q293 1 533 201t293 501q12 68 12 129q0 254 -166 415t-424 161q-295 0 -533 -202t-290 -503q-12 -68 -12 -133zM911 1489q281 0 459 -172t178 -447q0 -66 -12 -139q-57 -326 -316 -542
q-258 -216 -558 -216t-478 173t-178 446q0 67 12 139q54 326 314 542t579 216z" />
    <glyph glyph-name="Oacute" unicode="&#xd3;" horiz-adv-x="1558" 
d="M680 1610l516 272l18 -45l-518 -274zM66 598q0 -252 164 -411t423 -158q293 1 533 201t293 501q12 68 12 129q0 254 -166 415t-424 161q-295 0 -533 -202t-290 -503q-12 -68 -12 -133zM911 1489q281 0 459 -172t178 -447q0 -66 -12 -139q-57 -326 -316 -542
q-258 -216 -558 -216t-478 173t-178 446q0 67 12 139q54 326 314 542t579 216z" />
    <glyph glyph-name="Ocircumflex" unicode="&#xd4;" horiz-adv-x="1558" 
d="M971 1847l348 -219l-47 -26l-303 188l-379 -191l-45 29zM66 598q0 -252 164 -411t423 -158q293 1 533 201t293 501q12 68 12 129q0 254 -166 415t-424 161q-295 0 -533 -202t-290 -503q-12 -68 -12 -133zM911 1489q281 0 459 -172t178 -447q0 -66 -12 -139
q-57 -326 -316 -542q-258 -216 -558 -216t-478 173t-178 446q0 67 12 139q54 326 314 542t579 216z" />
    <glyph glyph-name="Otilde" unicode="&#xd5;" horiz-adv-x="1558" 
d="M1110 1714q89 0 186 64l29 -37q-104 -74 -184 -82q-13 -2 -61 -2t-113 33q-94 37 -136 36q-104 0 -192 -71l-31 33q111 92 238 92q53 0 131 -29q86 -37 133 -37zM66 598q0 -252 164 -411t423 -158q293 1 533 201t293 501q12 68 12 129q0 254 -166 415t-424 161
q-295 0 -533 -202t-290 -503q-12 -68 -12 -133zM911 1489q281 0 459 -172t178 -447q0 -66 -12 -139q-57 -326 -316 -542q-258 -216 -558 -216t-478 173t-178 446q0 67 12 139q54 326 314 542t579 216z" />
    <glyph glyph-name="Odieresis" unicode="&#xd6;" horiz-adv-x="1558" 
d="M1087 1819l-38 -230h-58l39 230h57zM850 1819l-39 -230h-57l39 230h57zM66 598q0 -252 164 -411t423 -158q293 1 533 201t293 501q12 68 12 129q0 254 -166 415t-424 161q-295 0 -533 -202t-290 -503q-12 -68 -12 -133zM911 1489q281 0 459 -172t178 -447q0 -66 -12 -139
q-57 -326 -316 -542q-258 -216 -558 -216t-478 173t-178 446q0 67 12 139q54 326 314 542t579 216z" />
    <glyph glyph-name="multiply" unicode="&#xd7;" horiz-adv-x="1126" 
d="M920 162l-48 -41l-340 407l-473 -407l-34 41l473 405l-336 412l49 41l336 -412l479 412l37 -39l-481 -414z" />
    <glyph glyph-name="Oslash" unicode="&#xd8;" horiz-adv-x="1558" 
d="M1548 872q0 -68 -12 -141q-57 -326 -315 -542t-576 -216q-229 0 -395 121l-242 -264l-39 35l238 262q-201 178 -201 465q0 68 12 139q58 326 316 542t577 216q240 0 410 -127l217 237l41 -34l-217 -240q186 -174 186 -453zM1491 862q0 258 -170 418l-1030 -1139
q150 -113 362 -112q293 1 533 201t293 501q12 68 12 131zM903 1436q-295 0 -533 -202t-292 -503q-12 -68 -12 -131q0 -268 182 -428l1032 1143q-156 121 -377 121z" />
    <glyph glyph-name="Ugrave" unicode="&#xd9;" horiz-adv-x="1341" 
d="M561 1882l422 -272l-35 -47l-424 274zM532 -27q-150 0 -256 90q-117 94 -116 273q-2 41 20 178l158 895h-199l11 53h460l-10 -53h-203l-157 -895q-20 -132 -20 -200t42 -140q43 -72 120 -109q77 -36 163 -36t174 36q153 62 231 214q31 59 42 103t26 132l158 895h-197
l10 53h461l-10 -53h-205l-158 -895q-35 -229 -139 -350q-49 -57 -117 -101q-139 -90 -289 -90z" />
    <glyph glyph-name="Uacute" unicode="&#xda;" horiz-adv-x="1341" 
d="M586 1610l516 272l18 -45l-518 -274zM532 -27q-150 0 -256 90q-117 94 -116 273q-2 41 20 178l158 895h-199l11 53h460l-10 -53h-203l-157 -895q-20 -132 -20 -200t42 -140q43 -72 120 -109q77 -36 163 -36t174 36q153 62 231 214q31 59 42 103t26 132l158 895h-197
l10 53h461l-10 -53h-205l-158 -895q-35 -229 -139 -350q-49 -57 -117 -101q-139 -90 -289 -90z" />
    <glyph glyph-name="Ucircumflex" unicode="&#xdb;" horiz-adv-x="1341" 
d="M870 1847l349 -219l-48 -26l-303 188l-379 -191l-45 29zM532 -27q-150 0 -256 90q-117 94 -116 273q-2 41 20 178l158 895h-199l11 53h460l-10 -53h-203l-157 -895q-20 -132 -20 -200t42 -140q43 -72 120 -109q77 -36 163 -36t174 36q153 62 231 214q31 59 42 103t26 132
l158 895h-197l10 53h461l-10 -53h-205l-158 -895q-35 -229 -139 -350q-49 -57 -117 -101q-139 -90 -289 -90z" />
    <glyph glyph-name="Udieresis" unicode="&#xdc;" horiz-adv-x="1341" 
d="M997 1819l-39 -230h-57l39 230h57zM760 1819l-39 -230h-57l38 230h58zM532 -27q-150 0 -256 90q-117 94 -116 273q-2 41 20 178l158 895h-199l11 53h460l-10 -53h-203l-157 -895q-20 -132 -20 -200t42 -140q43 -72 120 -109q77 -36 163 -36t174 36q153 62 231 214
q31 59 42 103t26 132l158 895h-197l10 53h461l-10 -53h-205l-158 -895q-35 -229 -139 -350q-49 -57 -117 -101q-139 -90 -289 -90z" />
    <glyph glyph-name="Yacute" unicode="&#xdd;" horiz-adv-x="1400" 
d="M635 1610l516 272l18 -45l-518 -274zM1509 1409h-198l-623 -905l-80 -451h203l-8 -53h-461l8 53h199l80 451l-303 905h-197l8 53h461l-8 -53h-199l281 -838l571 838h-194l8 53h461z" />
    <glyph glyph-name="Thorn" unicode="&#xde;" horiz-adv-x="1155" 
d="M547 420q221 0 346 82q59 39 117 135t59 230q0 134 -78 196q-53 45 -123 63t-194 19h-283l-127 -725h283zM682 1198q135 0 212 -18t138 -70q96 -80 96 -234t-68 -264t-145 -159t-162 -67t-218 -19h-281l-55 -314h202l-8 -53h-459l9 53h196l240 1356h-199l8 53h258
l-45 -264h281z" />
    <glyph glyph-name="germandbls" unicode="&#xdf;" horiz-adv-x="1105" 
d="M989 428q0 121 -82 201q-33 27 -59 40q-74 36 -227 38h-56l10 51h54q125 0 239 98q146 126 146 322q0 126 -75 192t-204 66q-75 0 -151 -35t-129 -97t-80 -140q-27 -77 -53 -230l-164 -934h-258l8 47h203l155 887q29 168 61 253t87 144q61 74 151 115t178 41
q156 0 241 -82t85 -221q0 -181 -129 -328q-66 -74 -160 -108v-5q131 -16 198 -102t66 -203q0 -213 -174 -353q-139 -111 -281 -111t-220 51l10 67q80 -66 212 -66t249 95q117 94 141 235q8 33 8 72z" />
    <glyph glyph-name="agrave" unicode="&#xe0;" horiz-adv-x="1388" 
d="M477 1516l422 -273l-35 -47l-424 274zM55 434q1 -172 107 -290t317 -117q211 0 376 145t202 352q8 43 8 92q0 180 -117 293q-116 113 -314 113t-366 -140t-205 -358q-8 -61 -8 -90zM461 -27q-217 0 -339 129t-122 320q0 285 228 490q181 163 427 163q178 0 295 -90
t142 -203h4l47 267h272l-10 -50h-217l-166 -950h217l-10 -49h-273l48 262h-5q-94 -135 -234 -212t-304 -77z" />
    <glyph glyph-name="aacute" unicode="&#xe1;" horiz-adv-x="1388" 
d="M506 1243l516 273l18 -46l-518 -274zM55 434q1 -172 107 -290t317 -117q211 0 376 145t202 352q8 43 8 92q0 180 -117 293q-116 113 -314 113t-366 -140t-205 -358q-8 -61 -8 -90zM461 -27q-217 0 -339 129t-122 320q0 285 228 490q181 163 427 163q178 0 295 -90
t142 -203h4l47 267h272l-10 -50h-217l-166 -950h217l-10 -49h-273l48 262h-5q-94 -135 -234 -212t-304 -77z" />
    <glyph glyph-name="acircumflex" unicode="&#xe2;" horiz-adv-x="1388" 
d="M745 1481l349 -219l-47 -27l-304 188l-378 -190l-46 29zM55 434q1 -172 107 -290t317 -117q211 0 376 145t202 352q8 43 8 92q0 180 -117 293q-116 113 -314 113t-366 -140t-205 -358q-8 -61 -8 -90zM461 -27q-217 0 -339 129t-122 320q0 285 228 490q181 163 427 163
q178 0 295 -90t142 -203h4l47 267h272l-10 -50h-217l-166 -950h217l-10 -49h-273l48 262h-5q-94 -135 -234 -212t-304 -77z" />
    <glyph glyph-name="atilde" unicode="&#xe3;" horiz-adv-x="1388" 
d="M854 1329q89 0 186 64l29 -37q-104 -74 -184 -82q-13 -2 -61 -2t-113 33q-94 37 -136 36q-104 0 -192 -71l-31 33q111 92 238 92q53 0 131 -29q86 -37 133 -37zM55 434q1 -172 107 -290t317 -117q211 0 376 145t202 352q8 43 8 92q0 180 -117 293q-116 113 -314 113
t-366 -140t-205 -358q-8 -61 -8 -90zM461 -27q-217 0 -339 129t-122 320q0 285 228 490q181 163 427 163q178 0 295 -90t142 -203h4l47 267h272l-10 -50h-217l-166 -950h217l-10 -49h-273l48 262h-5q-94 -135 -234 -212t-304 -77z" />
    <glyph glyph-name="adieresis" unicode="&#xe4;" horiz-adv-x="1388" 
d="M872 1452l-38 -229h-58l39 229h57zM635 1452l-39 -229h-57l39 229h57zM55 434q1 -172 107 -290t317 -117q211 0 376 145t202 352q8 43 8 92q0 180 -117 293q-116 113 -314 113t-366 -140t-205 -358q-8 -61 -8 -90zM461 -27q-217 0 -339 129t-122 320q0 285 228 490
q181 163 427 163q178 0 295 -90t142 -203h4l47 267h272l-10 -50h-217l-166 -950h217l-10 -49h-273l48 262h-5q-94 -135 -234 -212t-304 -77z" />
    <glyph glyph-name="aring" unicode="&#xe5;" horiz-adv-x="1388" 
d="M746 1481q-50 0 -98 -41t-48 -96q0 -54 30 -84t78 -29q48 0 97 42t49 94t-30 83t-78 31zM545 1321q-1 97 69 155t141 58t113 -43t41 -121q1 -78 -69 -137t-141 -59t-113 42t-41 105zM55 434q1 -172 107 -290t317 -117q211 0 376 145t202 352q8 43 8 92q0 180 -117 293
q-116 113 -314 113t-366 -140t-205 -358q-8 -61 -8 -90zM461 -27q-217 0 -339 129t-122 320q0 285 228 490q181 163 427 163q178 0 295 -90t142 -203h4l47 267h272l-10 -50h-217l-166 -950h217l-10 -49h-273l48 262h-5q-94 -135 -234 -212t-304 -77z" />
    <glyph glyph-name="ae" unicode="&#xe6;" horiz-adv-x="2150" 
d="M1059 606q0 174 -117 295q-116 121 -312 121t-363 -142t-204 -356q-8 -43 -8 -96q0 -178 115 -290q114 -112 308 -112t365 148q171 147 208 350q8 53 8 82zM2073 569v17q0 212 -109 324q-110 112 -308 112t-368 -162q-76 -70 -112 -136t-64 -155h961zM2134 616
q0 -55 -8 -98h-1024q-2 -23 -2 -67q0 -123 43 -212t110 -133q125 -79 263 -79q139 0 264 81t211 195h65q-82 -131 -232 -230t-323 -100h-6q-133 -1 -235 59t-158 171q-25 47 -31 116h-4l-57 -319h-56l58 319h-4q-35 -78 -72 -118q-109 -125 -241 -175t-234 -53
q-207 0 -334 124t-127 323q0 57 8 104l-2 -2q41 236 226 394t419 159q137 0 245 -61t161 -180q12 -27 24 -93h4l56 308h55l-55 -306h4q45 78 55 93q197 240 475 239q219 0 339 -130t120 -329z" />
    <glyph glyph-name="ccedilla" unicode="&#xe7;" horiz-adv-x="1179" 
d="M655 1022h-6q-199 -2 -379 -139q-74 -59 -130 -157q-85 -148 -85 -294q0 -182 119 -294t294 -110t314 89q139 88 203 213h62q-86 -162 -242 -258t-342 -99h-4l-53 -84l4 -2q12 6 24 7q57 0 89 -34t32 -66q0 -89 -52 -140t-122 -51q-23 0 -45 5t-50 35t-28 83h53
q6 -70 80 -70q37 0 68 25t41 71v12q0 35 -20 57q-20 21 -65 21q-44 0 -81 -49l-41 8l110 179q-179 16 -291 135t-112 303q0 55 8 104q41 236 226 394t423 159q299 0 406 -215l35 189h53l-55 -306h-54q-25 129 -126 204t-261 75z" />
    <glyph glyph-name="egrave" unicode="&#xe8;" horiz-adv-x="1138" 
d="M442 1516l422 -273l-35 -47l-423 274zM1065 625q0 165 -117 281t-282 116h-19q-197 0 -361 -128t-212 -325h987q4 37 4 56zM55 428q0 -193 128 -297t286 -104h4q147 1 279 73t217 203h61q-98 -162 -249 -246t-314 -84h-6q-209 0 -335 125t-126 322q0 57 8 104l-2 -2
q42 236 230 394t405 159q217 0 349 -122t132 -326q0 -37 -6 -78l-8 -31h-1045q-8 -61 -8 -90z" />
    <glyph glyph-name="eacute" unicode="&#xe9;" horiz-adv-x="1138" 
d="M430 1243l516 273l19 -46l-519 -274zM1065 625q0 165 -117 281t-282 116h-19q-197 0 -361 -128t-212 -325h987q4 37 4 56zM55 428q0 -193 128 -297t286 -104h4q147 1 279 73t217 203h61q-98 -162 -249 -246t-314 -84h-6q-209 0 -335 125t-126 322q0 57 8 104l-2 -2
q42 236 230 394t405 159q217 0 349 -122t132 -326q0 -37 -6 -78l-8 -31h-1045q-8 -61 -8 -90z" />
    <glyph glyph-name="ecircumflex" unicode="&#xea;" horiz-adv-x="1138" 
d="M711 1481l348 -219l-47 -27l-303 188l-379 -190l-45 29zM1065 625q0 165 -117 281t-282 116h-19q-197 0 -361 -128t-212 -325h987q4 37 4 56zM55 428q0 -193 128 -297t286 -104h4q147 1 279 73t217 203h61q-98 -162 -249 -246t-314 -84h-6q-209 0 -335 125t-126 322
q0 57 8 104l-2 -2q42 236 230 394t405 159q217 0 349 -122t132 -326q0 -37 -6 -78l-8 -31h-1045q-8 -61 -8 -90z" />
    <glyph glyph-name="edieresis" unicode="&#xeb;" horiz-adv-x="1138" 
d="M848 1452l-39 -229h-57l39 229h57zM610 1452l-39 -229h-57l39 229h57zM1065 625q0 165 -117 281t-282 116h-19q-197 0 -361 -128t-212 -325h987q4 37 4 56zM55 428q0 -193 128 -297t286 -104h4q147 1 279 73t217 203h61q-98 -162 -249 -246t-314 -84h-6q-209 0 -335 125
t-126 322q0 57 8 104l-2 -2q42 236 230 394t405 159q217 0 349 -122t132 -326q0 -37 -6 -78l-8 -31h-1045q-8 -61 -8 -90z" />
    <glyph glyph-name="igrave" unicode="&#xec;" horiz-adv-x="589" 
d="M53 1516l422 -273l-35 -47l-424 274zM150 997l8 50h272l-174 -998h215l-10 -49h-486l11 49h215l166 948h-217z" />
    <glyph glyph-name="iacute" unicode="&#xed;" horiz-adv-x="589" 
d="M111 1243l516 273l18 -46l-518 -274zM150 997l8 50h272l-174 -998h215l-10 -49h-486l11 49h215l166 948h-217z" />
    <glyph glyph-name="icircumflex" unicode="&#xee;" horiz-adv-x="589" 
d="M381 1481l348 -219l-47 -27l-303 188l-379 -190l-45 29zM150 997l8 50h272l-174 -998h215l-10 -49h-486l11 49h215l166 948h-217z" />
    <glyph glyph-name="idieresis" unicode="&#xef;" horiz-adv-x="589" 
d="M569 1452l-39 -229h-57l39 229h57zM332 1452l-39 -229h-57l38 229h58zM150 997l8 50h272l-174 -998h215l-10 -49h-486l11 49h215l166 948h-217z" />
    <glyph glyph-name="eth" unicode="&#xf0;" horiz-adv-x="1165" 
d="M1130 700q0 -380 -256 -574q-195 -148 -413 -153q-197 0 -330 117t-133 326q0 57 8 106q50 246 230 398t421 155q276 0 398 -227l6 4q-29 152 -132 288q-104 136 -231 195l-432 -192l-24 39l403 184q-129 61 -334 84l39 47q236 -35 363 -102l338 147l24 -39l-307 -137
q172 -111 267 -282t95 -384zM53 428q0 -178 115 -290q114 -112 316 -112t369 144q167 143 206 356q8 41 8 88q0 178 -122 293t-296 115q-217 -2 -384 -144t-204 -354q-8 -43 -8 -96z" />
    <glyph glyph-name="ntilde" unicode="&#xf1;" horiz-adv-x="1488" 
d="M985 1329q89 0 186 64l29 -37q-104 -74 -184 -82q-14 -2 -62 -2t-112 33q-94 37 -135 36q-105 0 -193 -71l-31 33q111 92 238 92q53 0 131 -29q86 -37 133 -37zM1210 688q0 334 -356 334q-199 -4 -332 -114t-168 -304l-98 -555h215l-8 -49h-486l9 49h215l168 950h-217
l8 50h272l-35 -203h4q66 109 195 169t262 60h6q204 0 304 -99t100 -276q0 -74 -15 -147l-90 -504h215l-8 -49h-487l8 49h217l90 504q12 74 12 135z" />
    <glyph glyph-name="ograve" unicode="&#xf2;" horiz-adv-x="1136" 
d="M444 1516l422 -273l-35 -47l-423 274zM55 428q0 -178 115 -290q114 -112 314 -112t367 143q167 142 206 355q8 43 8 92q0 178 -116 292q-117 114 -317 114t-366 -142t-203 -356q-8 -43 -8 -96zM1120 625q0 -53 -8 -101q-43 -236 -228 -394q-186 -158 -408 -157
q-222 0 -349 124t-127 323q0 300 233 498q187 158 409 158t350 -127q128 -126 128 -324z" />
    <glyph glyph-name="oacute" unicode="&#xf3;" horiz-adv-x="1136" 
d="M412 1243l516 273l18 -46l-518 -274zM55 428q0 -178 115 -290q114 -112 314 -112t367 143q167 142 206 355q8 43 8 92q0 178 -116 292q-117 114 -317 114t-366 -142t-203 -356q-8 -43 -8 -96zM1120 625q0 -53 -8 -101q-43 -236 -228 -394q-186 -158 -408 -157
q-222 0 -349 124t-127 323q0 300 233 498q187 158 409 158t350 -127q128 -126 128 -324z" />
    <glyph glyph-name="ocircumflex" unicode="&#xf4;" horiz-adv-x="1136" 
d="M713 1481l348 -219l-47 -27l-303 188l-379 -190l-45 29zM55 428q0 -178 115 -290q114 -112 314 -112t367 143q167 142 206 355q8 43 8 92q0 178 -116 292q-117 114 -317 114t-366 -142t-203 -356q-8 -43 -8 -96zM1120 625q0 -53 -8 -101q-43 -236 -228 -394
q-186 -158 -408 -157q-222 0 -349 124t-127 323q0 300 233 498q187 158 409 158t350 -127q128 -126 128 -324z" />
    <glyph glyph-name="otilde" unicode="&#xf5;" horiz-adv-x="1136" 
d="M811 1329q89 0 186 64l29 -37q-104 -74 -184 -82q-14 -2 -62 -2t-112 33q-94 37 -136 36q-104 0 -192 -71l-31 33q111 92 238 92q53 0 131 -29q86 -37 133 -37zM55 428q0 -178 115 -290q114 -112 314 -112t367 143q167 142 206 355q8 43 8 92q0 178 -116 292
q-117 114 -317 114t-366 -142t-203 -356q-8 -43 -8 -96zM1120 625q0 -53 -8 -101q-43 -236 -228 -394q-186 -158 -408 -157q-222 0 -349 124t-127 323q0 300 233 498q187 158 409 158t350 -127q128 -126 128 -324z" />
    <glyph glyph-name="odieresis" unicode="&#xf6;" horiz-adv-x="1136" 
d="M842 1452l-39 -229h-58l39 229h58zM604 1452l-39 -229h-57l39 229h57zM55 428q0 -178 115 -290q114 -112 314 -112t367 143q167 142 206 355q8 43 8 92q0 178 -116 292q-117 114 -317 114t-366 -142t-203 -356q-8 -43 -8 -96zM1120 625q0 -53 -8 -101q-43 -236 -228 -394
q-186 -158 -408 -157q-222 0 -349 124t-127 323q0 300 233 498q187 158 409 158t350 -127q128 -126 128 -324z" />
    <glyph glyph-name="divide" unicode="&#xf7;" 
d="M470 311q26 0 41 -17t11 -42t-26 -44q-22 -20 -48 -20t-40 18t-11 46q4 27 26 43q21 16 47 16zM963 565h-902l11 56h901zM588 999q26 0 40 -17q15 -17 11 -44q-5 -27 -25 -45q-20 -19 -47 -19t-42 18t-11 46q4 27 26 44t48 17z" />
    <glyph glyph-name="oslash" unicode="&#xf8;" horiz-adv-x="1138" 
d="M1122 627q0 -45 -10 -103q-41 -236 -226 -394t-423 -157q-164 0 -289 88l-147 -163l-37 32l147 162q-137 125 -137 330q0 55 8 102q42 236 228 394t421 157q170 0 287 -88l154 170l35 -33l-148 -166q137 -131 137 -331zM1065 621q0 180 -119 292l-733 -811
q106 -76 258 -75q213 0 381 142q213 180 213 452zM55 428q0 -184 121 -293l727 809q-100 78 -256 78q-213 0 -379 -142t-205 -356q-8 -43 -8 -96z" />
    <glyph glyph-name="ugrave" unicode="&#xf9;" horiz-adv-x="1429" 
d="M565 1516l422 -273l-35 -47l-424 274zM252 365q0 -338 356 -338q199 1 332 113t170 313l96 546h-217l8 50h273l-176 -1000h217l-8 -49h-273l37 211h-4q-66 -115 -193 -176t-266 -62h-6q-203 1 -303 101t-100 274q0 53 14 148l90 503h-217l8 50h272l-98 -553
q-12 -74 -12 -131z" />
    <glyph glyph-name="uacute" unicode="&#xfa;" horiz-adv-x="1429" 
d="M543 1243l516 273l18 -46l-518 -274zM252 365q0 -338 356 -338q199 1 332 113t170 313l96 546h-217l8 50h273l-176 -1000h217l-8 -49h-273l37 211h-4q-66 -115 -193 -176t-266 -62h-6q-203 1 -303 101t-100 274q0 53 14 148l90 503h-217l8 50h272l-98 -553
q-12 -74 -12 -131z" />
    <glyph glyph-name="ucircumflex" unicode="&#xfb;" horiz-adv-x="1429" 
d="M793 1481l348 -219l-47 -27l-303 188l-379 -190l-45 29zM252 365q0 -338 356 -338q199 1 332 113t170 313l96 546h-217l8 50h273l-176 -1000h217l-8 -49h-273l37 211h-4q-66 -115 -193 -176t-266 -62h-6q-203 1 -303 101t-100 274q0 53 14 148l90 503h-217l8 50h272
l-98 -553q-12 -74 -12 -131z" />
    <glyph glyph-name="udieresis" unicode="&#xfc;" horiz-adv-x="1429" 
d="M940 1452l-39 -229h-57l39 229h57zM702 1452l-38 -229h-58l39 229h57zM252 365q0 -338 356 -338q199 1 332 113t170 313l96 546h-217l8 50h273l-176 -1000h217l-8 -49h-273l37 211h-4q-66 -115 -193 -176t-266 -62h-6q-203 1 -303 101t-100 274q0 53 14 148l90 503h-217
l8 50h272l-98 -553q-12 -74 -12 -131z" />
    <glyph glyph-name="yacute" unicode="&#xfd;" horiz-adv-x="1304" 
d="M561 1243l516 273l19 -46l-518 -274zM45 -422l8 49h213l232 375l-219 997h-209l8 50h487l-8 -50h-217l205 -921l557 921h-211l8 50h487l-8 -50h-213l-835 -1372h211l-9 -49h-487z" />
    <glyph glyph-name="thorn" unicode="&#xfe;" horiz-adv-x="1384" 
d="M1315 612q-1 174 -107 292t-317 118t-376 -145t-202 -353q-8 -43 -8 -94q0 -178 116 -291q115 -113 313 -113t366 141q168 140 207 357q8 39 8 88zM907 1075q217 0 340 -130t123 -320q0 -282 -230 -489q-181 -163 -427 -163q-178 0 -295 90t-139 203h-5l-112 -639h215
l-10 -49h-486l10 49h215l314 1786h-217l10 49h272l-120 -676h4q96 135 235 212t303 77z" />
    <glyph glyph-name="ydieresis" unicode="&#xff;" horiz-adv-x="1304" 
d="M911 1452l-39 -229h-57l39 229h57zM674 1452l-39 -229h-57l38 229h58zM45 -422l8 49h213l232 375l-219 997h-209l8 50h487l-8 -50h-217l205 -921l557 921h-211l8 50h487l-8 -50h-213l-835 -1372h211l-9 -49h-487z" />
    <glyph glyph-name="dotlessi" unicode="&#x131;" horiz-adv-x="589" 
d="M150 997l8 50h272l-174 -998h215l-10 -49h-486l11 49h215l166 948h-217z" />
    <glyph glyph-name="Lslash" unicode="&#x141;" horiz-adv-x="1030" 
d="M809 0h-875l9 53h194l109 617l-180 -117l12 70l180 116l119 670h-197l8 53h461l-8 -53h-205l-110 -625l352 230l-12 -70l-353 -229l-116 -662h567l53 295h53z" />
    <glyph glyph-name="lslash" unicode="&#x142;" horiz-adv-x="569" 
d="M203 1413l8 49h272l-106 -608l209 133l-11 -57l-208 -135l-131 -746h215l-9 -49h-485l8 49h215l125 707l-190 -119l12 59l188 117l105 600h-217z" />
    <glyph glyph-name="OE" unicode="&#x152;" horiz-adv-x="2359" 
d="M66 592q0 -252 160 -408t417 -155q158 0 302 60q145 59 247 159q215 209 268 465l8 43q8 66 8 138t-35 172q-82 229 -289 319q-116 50 -261 51q-293 0 -527 -199t-286 -506q-12 -72 -12 -139zM6 584q0 72 12 147q56 332 310 545t569 213q246 0 412 -133t200 -344h4
l70 397h-201l9 53h993l-62 -348h-53l53 295h-680l-114 -645h631l-9 -53h-630l-117 -658h680l53 295h53l-61 -348h-993l8 53h200l72 400h-4q-98 -205 -315 -342q-216 -137 -478 -137t-437 167q-175 168 -175 443z" />
    <glyph glyph-name="oe" unicode="&#x153;" horiz-adv-x="2152" 
d="M2079 630q0 46 -23 114q-56 163 -194 232q-82 40 -189 40q-184 0 -341 -125t-212 -320h957q2 13 2 59zM1057 604q0 170 -111 294q-110 124 -312 124t-368 -142t-203 -356q-8 -43 -8 -96q0 -178 115 -290q114 -112 312 -112t366 150q209 185 209 428zM1102 434
q0 -195 119 -301t274 -106q155 1 289 73t209 207h61q-33 -51 -52 -80q-20 -29 -72 -80t-118 -90q-156 -84 -310 -84q-154 1 -292 95q-137 94 -157 284h-4q-115 -199 -273 -289t-315 -90q-207 0 -334 124t-127 323q0 57 8 104l-2 -2q41 236 227 394t422 159q123 0 223 -52
t160 -144q49 -88 66 -189q143 286 446 361q70 16 133 16q205 0 331 -130t126 -321q0 -53 -8 -96h-1024q-6 -45 -6 -86z" />
    <glyph glyph-name="Scaron" unicode="&#x160;" horiz-adv-x="1001" 
d="M655 1597l-348 220l43 28l307 -190l379 190l45 -28zM825 446q0 166 -156 238q-57 27 -193 65q-136 37 -200 82q-109 78 -108 209q0 33 6 66q27 174 162 277t303 104q209 0 281 -164l24 139h53l-53 -303h-51q-4 92 -47 174q-54 101 -209 101t-266 -88q-135 -107 -142 -291
q0 -89 72 -161q57 -55 281 -114q12 0 40 -10t53 -19q26 -9 67 -33q88 -52 117 -121q30 -69 30 -122q0 -235 -188 -384q-148 -118 -316 -118q-252 0 -326 222l-32 -195h-52l60 354h51q2 -98 34 -168t82 -102q88 -55 191 -55q145 0 273 98q159 123 159 319z" />
    <glyph glyph-name="scaron" unicode="&#x161;" horiz-adv-x="890" 
d="M551 1231l-348 219l43 29l307 -191l379 191l45 -29zM713 844q-1 90 -61 134t-164 44t-190 -70q-85 -70 -85 -188q0 -63 50 -102q51 -39 187 -77t208 -92t71 -161q0 -160 -138 -271q-110 -88 -255 -88q-205 0 -268 146l-23 -119h-51l49 291h55q-4 -33 -4 -45
q0 -100 72 -160t188 -59t205 71q113 89 113 224q0 80 -58 129t-191 83q-134 34 -201 81q-67 48 -66 139q0 155 130 247q103 74 228 74q164 0 223 -112l17 86h53l-45 -250h-53q4 24 4 45z" />
    <glyph glyph-name="Ydieresis" unicode="&#x178;" horiz-adv-x="1400" 
d="M1008 1819l-39 -230h-58l39 230h58zM770 1819l-39 -230h-57l39 230h57zM1509 1409h-198l-623 -905l-80 -451h203l-8 -53h-461l8 53h199l80 451l-303 905h-197l8 53h461l-8 -53h-199l281 -838l571 838h-194l8 53h461z" />
    <glyph glyph-name="Zcaron" unicode="&#x17d;" horiz-adv-x="1101" 
d="M676 1597l-348 220l43 28l307 -190l379 190l45 -28zM221 1462h901l-1065 -1409h785l53 299h53l-61 -352h-934l1065 1409h-752l-53 -299h-53z" />
    <glyph glyph-name="zcaron" unicode="&#x17e;" horiz-adv-x="929" 
d="M553 1231l-348 219l43 29l307 -191l379 191l45 -29zM-39 0l8 47l815 950h-569l-45 -254h-53l55 306h694l-10 -54l-817 -944h643l45 254h53l-55 -305h-764z" />
    <glyph glyph-name="florin" unicode="&#x192;" 
d="M-20 -301q-63 0 -115 16l22 56q70 -18 103 -19q131 0 210 70t142 239l363 998h-285l22 53h281l39 100q74 221 192 318q111 78 232 78q29 0 53 -6l-20 -52q-29 4 -48 4q-154 -13 -233 -112q-45 -56 -66 -105q-22 -49 -36 -86t-15 -39l-37 -100h279l-25 -53h-272l-358 -985
q-70 -186 -163 -280t-265 -95z" />
    <glyph glyph-name="circumflex" unicode="&#x2c6;" 
d="M649 1481l348 -219l-47 -27l-303 188l-379 -190l-45 29z" />
    <glyph glyph-name="caron" unicode="&#x2c7;" 
d="M526 1231l-348 219l43 29l307 -191l379 191l45 -29z" />
    <glyph glyph-name="uni02C9" unicode="&#x2c9;" 
d="M905 1366l-10 -59h-705l11 59h704z" />
    <glyph glyph-name="breve" unicode="&#x2d8;" 
d="M543 1311q104 0 178 20q75 21 97 39t48 47h76q-98 -120 -204 -141q-105 -22 -206 -23q-287 0 -348 164h76q49 -106 283 -106z" />
    <glyph glyph-name="dotaccent" unicode="&#x2d9;" 
d="M598 1452l-39 -229h-61l39 229h61z" />
    <glyph glyph-name="ring" unicode="&#x2da;" 
d="M567 1485q-49 0 -97 -41t-48 -96q0 -54 30 -84t78 -29q48 0 96 42q50 42 50 94t-30 83t-79 31zM577 1538q71 0 113 -43t41 -121q1 -78 -69 -137t-141 -59t-113 42t-41 105q-1 97 69 155t141 58z" />
    <glyph glyph-name="ogonek" unicode="&#x2db;" 
d="M383 -254q0 160 215 254h57q-83 -55 -113 -78q-85 -66 -93 -131q-17 -66 25 -104q42 -37 90 -37t120 26l-10 -57q-53 -27 -125 -27t-119 41t-47 113z" />
    <glyph glyph-name="tilde" unicode="&#x2dc;" 
d="M686 1329q89 0 186 64l29 -37q-104 -74 -184 -82q-13 -2 -61 -2t-113 33q-94 37 -135 36q-105 0 -193 -71l-31 33q111 92 238 92q53 0 131 -29q86 -37 133 -37z" />
    <glyph glyph-name="hungarumlaut" unicode="&#x2dd;" 
d="M479 1243l504 316l23 -43l-502 -320zM260 1243l502 316l24 -43l-501 -320z" />
    <glyph glyph-name="uni03A9" unicode="&#x3a9;" horiz-adv-x="1507" 
d="M1401 0h-451v68q53 42 94 78q42 36 98 105t94 139t64 171q27 102 27 213q0 270 -149 445q-150 174 -412 174t-425 -172t-163 -441q0 -420 381 -712v-68h-450v68h340q-137 106 -240 282q-102 176 -103 426q0 295 184 489q184 193 475 193q292 0 463 -187t171 -493
q-1 -232 -105 -418t-239 -292h346v-68z" />
    <glyph glyph-name="uni03BC" unicode="&#x3bc;" horiz-adv-x="1488" 
d="M330 360q0 -333 356 -333q199 1 332 113t168 313l98 546h-217l8 50h273l-177 -1000h218l-11 -49h-272l39 211h-4q-66 -115 -193 -176t-266 -62h-6q-207 0 -305 107q-57 63 -74 133h-4l-107 -612h-57l248 1398h-217l8 50h272l-98 -553q-12 -74 -12 -136z" />
    <glyph glyph-name="pi" unicode="&#x3c0;" horiz-adv-x="1423" 
d="M1190 -12q-104 0 -159 63q-54 63 -54 174v727h-537v-700q0 -125 -24 -252h-78q27 104 27 250v702q-121 0 -234 -45q-14 35 -27 68q117 49 275 49h913v-72h-241v-725q0 -168 149 -168q33 1 68 13l20 -64q-41 -20 -98 -20z" />
    <glyph glyph-name="endash" unicode="&#x2013;" horiz-adv-x="989" 
d="M74 575h850l-11 -57h-850z" />
    <glyph glyph-name="emdash" unicode="&#x2014;" horiz-adv-x="1978" 
d="M74 575h1839l-10 -57h-1840z" />
    <glyph glyph-name="quoteleft" unicode="&#x2018;" horiz-adv-x="403" 
d="M219 1464l72 -305h-66l-71 305h65z" />
    <glyph glyph-name="quoteright" unicode="&#x2019;" horiz-adv-x="309" 
d="M82 1159l182 305h66l-183 -305h-65z" />
    <glyph glyph-name="quotesinglbase" unicode="&#x201a;" horiz-adv-x="370" 
d="M-72 -143l183 305h65l-182 -305h-66z" />
    <glyph glyph-name="quotedblleft" unicode="&#x201c;" horiz-adv-x="579" 
d="M395 1464l72 -305h-66l-71 305h65zM219 1464l72 -305h-66l-71 305h65z" />
    <glyph glyph-name="quotedblright" unicode="&#x201d;" horiz-adv-x="485" 
d="M82 1159l182 305h66l-183 -305h-65zM258 1159l182 305h66l-182 -305h-66z" />
    <glyph glyph-name="quotedblbase" unicode="&#x201e;" horiz-adv-x="546" 
d="M-72 -143l183 305h65l-182 -305h-66zM104 -143l183 305h65l-182 -305h-66z" />
    <glyph glyph-name="dagger" unicode="&#x2020;" horiz-adv-x="1134" 
d="M741 1464l-73 -424h374l-12 -59h-375l-206 -1180h-60l207 1180h-373l13 59h372l74 424h59z" />
    <glyph glyph-name="daggerdbl" unicode="&#x2021;" horiz-adv-x="1134" 
d="M745 1464l-63 -366h371l-13 -60h-370l-142 -811h371l-12 -59h-371l-63 -367h-60l64 367h-377l12 59h377l141 811h-377l13 60h377l63 366h59z" />
    <glyph glyph-name="bullet" unicode="&#x2022;" horiz-adv-x="741" 
d="M418 1053q118 0 188 -73t70 -181q0 -158 -131 -271q-103 -90 -221 -90t-188 73t-70 179q0 156 128 270q104 92 224 93z" />
    <glyph glyph-name="ellipsis" unicode="&#x2026;" horiz-adv-x="1978" 
d="M1690 162l-29 -162h-59l28 162h60zM1030 162l-29 -162h-57l29 162h57zM373 162l-29 -162h-59l28 162h60z" />
    <glyph glyph-name="perthousand" unicode="&#x2030;" horiz-adv-x="2498" 
d="M1004 238q0 -94 60 -146t150 -53q90 0 181 60q90 60 112 190l54 301q6 29 6 53q1 84 -53 141q-54 58 -159 58t-189 -68t-105 -190l-53 -295q-4 -37 -4 -51zM1620 653q0 -27 -6 -57l-55 -313q-15 -85 -61 -147q-74 -100 -206 -138q-47 -14 -84 -14q-94 0 -175 58t-81 177
q0 29 6 64l54 303q16 94 63 160t107 97q103 52 198 52q96 0 168 -67t72 -175zM141 821q-1 -94 59 -146t150 -52t181 60t114 189l53 302q4 33 4 49q0 86 -52 144t-158 58t-190 -67q-82 -68 -105 -191l-52 -295q-4 -37 -4 -51zM756 1239q0 -29 -6 -59l-56 -314
q-14 -84 -59 -146t-103 -93q-107 -58 -194 -59q-88 0 -169 58t-81 179q0 30 6 61l53 303q15 94 63 161q73 103 211 137q44 11 79 12q112 0 184 -67t72 -173zM1792 238q0 -94 60 -146t150 -53q90 0 181 60q90 60 113 190l53 301q6 29 6 53q0 84 -53 141q-52 58 -158 58
t-190 -68t-105 -190l-53 -295q-4 -37 -4 -51zM2152 895q111 0 184 -67t72 -175q0 -27 -6 -57l-55 -313q-14 -85 -60 -147q-47 -62 -103 -93q-108 -59 -194 -59q-87 0 -168 58t-81 177q0 29 6 64l53 303q16 94 64 160q74 104 210 138q44 11 78 11zM1339 1464l-915 -1464h-59
l917 1464h57z" />
    <glyph glyph-name="guilsinglleft" unicode="&#x2039;" horiz-adv-x="491" 
d="M102 545l287 383l33 -51l-250 -332l133 -328l-49 -51z" />
    <glyph glyph-name="guilsinglright" unicode="&#x203a;" horiz-adv-x="491" 
d="M231 928l152 -383l-285 -379l-30 51l247 328l-131 332z" />
    <glyph glyph-name="fraction" unicode="&#x2044;" horiz-adv-x="958" 
d="M958 1464l-907 -1464h-57l905 1464h59z" />
    <glyph glyph-name="Euro" unicode="&#x20ac;" 
d="M801 1489q242 0 301 -176l24 149h56l-54 -305h-57v12q0 117 -61 185q-70 82 -222 82q-359 0 -483 -533h602l-18 -51h-594q-22 -89 -37 -213h555l-20 -51h-543q-12 -123 -12 -189q0 -168 51 -254q72 -117 245 -117t271 87q74 63 119 186h59q-113 -326 -453 -328
q-207 0 -297 142q-59 98 -59 278q0 86 14 195h-161l20 51h150q17 119 39 213h-162l18 51h154q134 586 555 586z" />
    <glyph glyph-name="litre" unicode="&#x2113;" horiz-adv-x="1048" 
d="M664 1288q0 57 -23 94t-66 37q-125 0 -124 -262v-371q213 284 213 502zM371 1178q0 154 55 234q56 80 150 79q94 0 136 -61t42 -132q0 -233 -228 -542q-29 -36 -75 -99v-424q-1 -92 37 -139t106 -47q98 0 209 125q37 -33 51 -47q-127 -150 -268 -150q-94 0 -155 66
t-60 213v295q-69 -75 -135 -150q-18 16 -60 50q131 147 195 221v508z" />
    <glyph glyph-name="trademark" unicode="&#x2122;" horiz-adv-x="1957" 
d="M119 586l8 47h127l137 784h-239l-33 -184h-45l43 231h624l-41 -231h-43l33 184h-244l-137 -784h127l-8 -47h-309zM793 1417l8 47h205l231 -794l512 794h203l-8 -47h-132l-137 -784h125l-8 -47h-309l8 47h129l133 753h-4l-510 -800h-33l-231 798h-4l-131 -751h125l-9 -47
h-309l8 47h131l138 784h-131z" />
    <glyph glyph-name="Omega" unicode="&#x2126;" horiz-adv-x="1507" 
d="M1401 0h-451v68q53 42 94 78q42 36 98 105t94 139t64 171q27 102 27 213q0 270 -149 445q-150 174 -412 174t-425 -172t-163 -441q0 -420 381 -712v-68h-450v68h340q-137 106 -240 282q-102 176 -103 426q0 295 184 489q184 193 475 193q292 0 463 -187t171 -493
q-1 -232 -105 -418t-239 -292h346v-68z" />
    <glyph glyph-name="estimated" unicode="&#x212e;" horiz-adv-x="1384" 
d="M1047 713v358q-147 143 -353 143t-346 -141v-360h699zM694 -25q-274 1 -445 191t-171 470t170 468t452 188t451 -188q168 -188 172 -471h-975v-436q146 -141 328 -141t293 73q111 74 196 213l76 -45q-104 -160 -230 -241t-317 -81z" />
    <glyph glyph-name="partialdiff" unicode="&#x2202;" horiz-adv-x="1232" 
d="M684 956q-197 0 -341 -173t-144 -427q-1 -139 73 -223t195 -84q176 1 317 183t209 501q-27 96 -105 160q-79 63 -204 63zM716 1483q164 0 273 -120q109 -121 109 -325t-42 -369q-123 -478 -381 -631q-99 -58 -212 -58q-152 0 -246 101t-94 273q0 289 176 482t393 192
q121 0 201 -52t113 -128h4q12 90 12 162q0 195 -86 299t-242 104q-113 0 -211 -59l-32 63q101 66 265 66z" />
    <glyph glyph-name="Delta" unicode="&#x2206;" horiz-adv-x="1312" 
d="M1139 72q-150 383 -453 1153q-8 25 -18 59t-15 47h-4q-17 -63 -71 -201t-416 -1058h977zM1233 0h-1163v53q165 424 548 1381h66l549 -1381v-53z" />
    <glyph glyph-name="product" unicode="&#x220f;" horiz-adv-x="1540" 
d="M1337 -471h-73v1839h-985v-1839h-76v1905h1134v-1905z" />
    <glyph glyph-name="summation" unicode="&#x2211;" horiz-adv-x="1347" 
d="M1303 -403v-68h-1260v22q565 676 786 938q-282 349 -729 910v35h1143v-68h-1022l703 -877q-500 -594 -748 -892h1127z" />
    <glyph glyph-name="minus" unicode="&#x2212;" 
d="M963 565h-904l11 56h903z" />
    <glyph glyph-name="uni2215" unicode="&#x2215;" horiz-adv-x="169" 
d="M565 1464l-907 -1464h-57l905 1464h59z" />
    <glyph glyph-name="uni2219" unicode="&#x2219;" horiz-adv-x="548" 
d="M317 586l-26 -160h-60l27 160h59z" />
    <glyph glyph-name="radical" unicode="&#x221a;" horiz-adv-x="1122" 
d="M127 727l186 102q53 -119 159 -359t159 -359q270 922 403 1380h82q-45 -150 -448 -1516h-68q-165 381 -330 756q-37 -23 -114 -67q-11 19 -29 63z" />
    <glyph glyph-name="infinity" unicode="&#x221e;" horiz-adv-x="1683" 
d="M430 846q-109 0 -168 -72t-59 -180q1 -108 69 -175t170 -67q201 0 363 248q-68 110 -167 178t-208 68zM881 600q151 -248 371 -248q110 0 170 71t61 177q-1 106 -61 176t-181 70q-195 0 -360 -246zM1565 608q0 -139 -85 -233t-237 -94q-242 0 -399 251h-4
q-76 -116 -177 -184t-214 -67q-158 0 -244 90t-86 226t85 228t236 93q236 0 402 -252h4q166 252 387 252q147 0 240 -85q92 -86 92 -225z" />
    <glyph glyph-name="integral" unicode="&#x222b;" horiz-adv-x="1042" 
d="M561 1231v-1397q0 -145 -77 -221t-201 -76q-76 0 -125 23q12 45 20 67q53 -20 107 -20q201 0 200 231v1401q0 137 77 215t204 78q78 0 123 -25q-3 -13 -11 -35t-10 -32q-45 23 -104 22q-203 0 -203 -231z" />
    <glyph glyph-name="approxequal" unicode="&#x2248;" 
d="M668 291q-104 0 -204 73t-183 72q-123 0 -236 -137l-35 35q141 158 285 158q113 0 205 -72q102 -74 182 -74q125 0 238 137l34 -32q-133 -160 -286 -160zM737 698q-103 0 -205 74t-182 74q-121 0 -235 -139l-35 32q145 162 285 162q111 0 204 -74q102 -74 183 -73
q123 0 237 137l35 -33q-137 -160 -287 -160z" />
    <glyph glyph-name="notequal" unicode="&#x2260;" 
d="M928 360h-545l-209 -321h-55l213 321h-307l8 56h334l231 356h-504l10 55h531l201 308h53l-203 -308h322l-11 -55h-348l-231 -356h518z" />
    <glyph glyph-name="lessequal" unicode="&#x2264;" 
d="M866 0h-903l8 55h903zM87 691l972 439l-10 -67l-830 -367l-2 -6l703 -368l-11 -70zM87 691l-7 -3l2 6z" />
    <glyph glyph-name="greaterequal" unicode="&#x2265;" 
d="M866 0h-903l8 55h903zM978 691l7 3l-2 -6zM978 691l-972 -439l10 70l828 364l2 6l-701 369l11 69z" />
    <glyph glyph-name="lozenge" unicode="&#x25ca;" horiz-adv-x="1204" 
d="M995 715q-55 88 -389 612q-211 -328 -391 -612q258 -406 389 -611q334 523 391 611zM123 715q130 208 457 719h51q249 -391 456 -717q-207 -326 -456 -717h-51z" />
    <glyph glyph-name="f_i" unicode="&#xfb01;" horiz-adv-x="892" 
d="M784 1464l-30 -180h-56l31 180h55zM266 997h-172l10 52h172l17 102q8 39 14 63t34 81q28 56 65 91q38 35 110 67t166 36l-10 -53l-60 -6t-71 -18t-82 -44q-31 -27 -64 -81t-45 -130l-18 -108h381l-176 -1000h215l-11 -49h-487l10 49h217l166 948h-325l-177 -997h-225
l10 49h170z" />
    <glyph glyph-name="f_l" unicode="&#xfb02;" horiz-adv-x="909" 
d="M266 997h-172l10 52h172l17 102q8 39 14 63t34 81q28 56 65 91q38 35 110 67t166 36l-10 -53l-60 -6t-71 -18t-82 -44q-31 -27 -64 -81t-45 -130l-18 -108h325l72 415h55l-247 -1415h215l-11 -49h-487l10 49h217l166 948h-325l-177 -997h-225l10 49h170z" />
    </font>
</defs>
</svg>
